%TF.GenerationSoftware,KiCad,Pcbnew,8.0.8*%
%TF.CreationDate,2025-03-17T17:06:12+00:00*%
%TF.ProjectId,memlnaut_0_1_joystick,6d656d6c-6e61-4757-945f-305f315f6a6f,rev?*%
%TF.SameCoordinates,Original*%
%TF.FileFunction,Drillmap*%
%TF.FilePolarity,Positive*%
%FSLAX45Y45*%
G04 Gerber Fmt 4.5, Leading zero omitted, Abs format (unit mm)*
G04 Created by KiCad (PCBNEW 8.0.8) date 2025-03-17 17:06:12*
%MOMM*%
%LPD*%
G01*
G04 APERTURE LIST*
%ADD10C,0.050000*%
%ADD11C,0.200000*%
%ADD12C,0.320000*%
G04 APERTURE END LIST*
D10*
X5600000Y-4140000D02*
X27203000Y-4140000D01*
X27203000Y-14451000D01*
X5600000Y-14451000D01*
X5600000Y-4140000D01*
X23031217Y-7822000D02*
G75*
G02*
X22878783Y-7822000I-76217J0D01*
G01*
X22878783Y-7822000D02*
G75*
G02*
X23031217Y-7822000I76217J0D01*
G01*
X23031217Y-11072000D02*
G75*
G02*
X22878783Y-11072000I-76217J0D01*
G01*
X22878783Y-11072000D02*
G75*
G02*
X23031217Y-11072000I76217J0D01*
G01*
X26530000Y-9447000D02*
G75*
G02*
X22630000Y-9447000I-1950000J0D01*
G01*
X22630000Y-9447000D02*
G75*
G02*
X26530000Y-9447000I1950000J0D01*
G01*
X26281217Y-7822000D02*
G75*
G02*
X26128783Y-7822000I-76217J0D01*
G01*
X26128783Y-7822000D02*
G75*
G02*
X26281217Y-7822000I76217J0D01*
G01*
X26285217Y-11061783D02*
G75*
G02*
X26132783Y-11061783I-76217J0D01*
G01*
X26132783Y-11061783D02*
G75*
G02*
X26285217Y-11061783I76217J0D01*
G01*
X7720500Y-8806000D02*
X14640500Y-8806000D01*
X14640500Y-13806000D01*
X7720500Y-13806000D01*
X7720500Y-8806000D01*
D11*
D12*
X5838000Y-13894000D02*
X6158000Y-14214000D01*
X6158000Y-13894000D02*
X5838000Y-14214000D01*
X5843000Y-4383000D02*
X6163000Y-4703000D01*
X6163000Y-4383000D02*
X5843000Y-4703000D01*
X23144000Y-4379000D02*
X23464000Y-4699000D01*
X23464000Y-4379000D02*
X23144000Y-4699000D01*
X23616000Y-13865000D02*
X23936000Y-14185000D01*
X23936000Y-13865000D02*
X23616000Y-14185000D01*
X26614000Y-13864000D02*
X26934000Y-14184000D01*
X26934000Y-13864000D02*
X26614000Y-14184000D01*
X26644000Y-4379000D02*
X26964000Y-4699000D01*
X26964000Y-4379000D02*
X26644000Y-4699000D01*
D11*
X5858277Y-14764984D02*
X5858277Y-14564984D01*
X5858277Y-14564984D02*
X5905896Y-14564984D01*
X5905896Y-14564984D02*
X5934467Y-14574508D01*
X5934467Y-14574508D02*
X5953515Y-14593555D01*
X5953515Y-14593555D02*
X5963039Y-14612603D01*
X5963039Y-14612603D02*
X5972562Y-14650698D01*
X5972562Y-14650698D02*
X5972562Y-14679269D01*
X5972562Y-14679269D02*
X5963039Y-14717365D01*
X5963039Y-14717365D02*
X5953515Y-14736412D01*
X5953515Y-14736412D02*
X5934467Y-14755460D01*
X5934467Y-14755460D02*
X5905896Y-14764984D01*
X5905896Y-14764984D02*
X5858277Y-14764984D01*
X6058277Y-14764984D02*
X6058277Y-14631650D01*
X6058277Y-14669746D02*
X6067801Y-14650698D01*
X6067801Y-14650698D02*
X6077324Y-14641174D01*
X6077324Y-14641174D02*
X6096372Y-14631650D01*
X6096372Y-14631650D02*
X6115420Y-14631650D01*
X6182086Y-14764984D02*
X6182086Y-14631650D01*
X6182086Y-14564984D02*
X6172562Y-14574508D01*
X6172562Y-14574508D02*
X6182086Y-14584031D01*
X6182086Y-14584031D02*
X6191610Y-14574508D01*
X6191610Y-14574508D02*
X6182086Y-14564984D01*
X6182086Y-14564984D02*
X6182086Y-14584031D01*
X6305896Y-14764984D02*
X6286848Y-14755460D01*
X6286848Y-14755460D02*
X6277324Y-14736412D01*
X6277324Y-14736412D02*
X6277324Y-14564984D01*
X6410658Y-14764984D02*
X6391610Y-14755460D01*
X6391610Y-14755460D02*
X6382086Y-14736412D01*
X6382086Y-14736412D02*
X6382086Y-14564984D01*
X6639229Y-14764984D02*
X6639229Y-14564984D01*
X6639229Y-14564984D02*
X6705896Y-14707841D01*
X6705896Y-14707841D02*
X6772562Y-14564984D01*
X6772562Y-14564984D02*
X6772562Y-14764984D01*
X6953515Y-14764984D02*
X6953515Y-14660222D01*
X6953515Y-14660222D02*
X6943991Y-14641174D01*
X6943991Y-14641174D02*
X6924943Y-14631650D01*
X6924943Y-14631650D02*
X6886848Y-14631650D01*
X6886848Y-14631650D02*
X6867801Y-14641174D01*
X6953515Y-14755460D02*
X6934467Y-14764984D01*
X6934467Y-14764984D02*
X6886848Y-14764984D01*
X6886848Y-14764984D02*
X6867801Y-14755460D01*
X6867801Y-14755460D02*
X6858277Y-14736412D01*
X6858277Y-14736412D02*
X6858277Y-14717365D01*
X6858277Y-14717365D02*
X6867801Y-14698317D01*
X6867801Y-14698317D02*
X6886848Y-14688793D01*
X6886848Y-14688793D02*
X6934467Y-14688793D01*
X6934467Y-14688793D02*
X6953515Y-14679269D01*
X7048753Y-14631650D02*
X7048753Y-14831650D01*
X7048753Y-14641174D02*
X7067801Y-14631650D01*
X7067801Y-14631650D02*
X7105896Y-14631650D01*
X7105896Y-14631650D02*
X7124943Y-14641174D01*
X7124943Y-14641174D02*
X7134467Y-14650698D01*
X7134467Y-14650698D02*
X7143991Y-14669746D01*
X7143991Y-14669746D02*
X7143991Y-14726888D01*
X7143991Y-14726888D02*
X7134467Y-14745936D01*
X7134467Y-14745936D02*
X7124943Y-14755460D01*
X7124943Y-14755460D02*
X7105896Y-14764984D01*
X7105896Y-14764984D02*
X7067801Y-14764984D01*
X7067801Y-14764984D02*
X7048753Y-14755460D01*
X7229705Y-14745936D02*
X7239229Y-14755460D01*
X7239229Y-14755460D02*
X7229705Y-14764984D01*
X7229705Y-14764984D02*
X7220182Y-14755460D01*
X7220182Y-14755460D02*
X7229705Y-14745936D01*
X7229705Y-14745936D02*
X7229705Y-14764984D01*
X7229705Y-14641174D02*
X7239229Y-14650698D01*
X7239229Y-14650698D02*
X7229705Y-14660222D01*
X7229705Y-14660222D02*
X7220182Y-14650698D01*
X7220182Y-14650698D02*
X7229705Y-14641174D01*
X7229705Y-14641174D02*
X7229705Y-14660222D01*
X5397500Y-14993500D02*
X5597500Y-15193500D01*
X5597500Y-14993500D02*
X5397500Y-15193500D01*
X5839229Y-14984984D02*
X5963039Y-14984984D01*
X5963039Y-14984984D02*
X5896372Y-15061174D01*
X5896372Y-15061174D02*
X5924943Y-15061174D01*
X5924943Y-15061174D02*
X5943991Y-15070698D01*
X5943991Y-15070698D02*
X5953515Y-15080222D01*
X5953515Y-15080222D02*
X5963039Y-15099269D01*
X5963039Y-15099269D02*
X5963039Y-15146888D01*
X5963039Y-15146888D02*
X5953515Y-15165936D01*
X5953515Y-15165936D02*
X5943991Y-15175460D01*
X5943991Y-15175460D02*
X5924943Y-15184984D01*
X5924943Y-15184984D02*
X5867801Y-15184984D01*
X5867801Y-15184984D02*
X5848753Y-15175460D01*
X5848753Y-15175460D02*
X5839229Y-15165936D01*
X6048753Y-15165936D02*
X6058277Y-15175460D01*
X6058277Y-15175460D02*
X6048753Y-15184984D01*
X6048753Y-15184984D02*
X6039229Y-15175460D01*
X6039229Y-15175460D02*
X6048753Y-15165936D01*
X6048753Y-15165936D02*
X6048753Y-15184984D01*
X6134467Y-15004031D02*
X6143991Y-14994508D01*
X6143991Y-14994508D02*
X6163039Y-14984984D01*
X6163039Y-14984984D02*
X6210658Y-14984984D01*
X6210658Y-14984984D02*
X6229705Y-14994508D01*
X6229705Y-14994508D02*
X6239229Y-15004031D01*
X6239229Y-15004031D02*
X6248753Y-15023079D01*
X6248753Y-15023079D02*
X6248753Y-15042127D01*
X6248753Y-15042127D02*
X6239229Y-15070698D01*
X6239229Y-15070698D02*
X6124943Y-15184984D01*
X6124943Y-15184984D02*
X6248753Y-15184984D01*
X6372562Y-14984984D02*
X6391610Y-14984984D01*
X6391610Y-14984984D02*
X6410658Y-14994508D01*
X6410658Y-14994508D02*
X6420182Y-15004031D01*
X6420182Y-15004031D02*
X6429705Y-15023079D01*
X6429705Y-15023079D02*
X6439229Y-15061174D01*
X6439229Y-15061174D02*
X6439229Y-15108793D01*
X6439229Y-15108793D02*
X6429705Y-15146888D01*
X6429705Y-15146888D02*
X6420182Y-15165936D01*
X6420182Y-15165936D02*
X6410658Y-15175460D01*
X6410658Y-15175460D02*
X6391610Y-15184984D01*
X6391610Y-15184984D02*
X6372562Y-15184984D01*
X6372562Y-15184984D02*
X6353515Y-15175460D01*
X6353515Y-15175460D02*
X6343991Y-15165936D01*
X6343991Y-15165936D02*
X6334467Y-15146888D01*
X6334467Y-15146888D02*
X6324943Y-15108793D01*
X6324943Y-15108793D02*
X6324943Y-15061174D01*
X6324943Y-15061174D02*
X6334467Y-15023079D01*
X6334467Y-15023079D02*
X6343991Y-15004031D01*
X6343991Y-15004031D02*
X6353515Y-14994508D01*
X6353515Y-14994508D02*
X6372562Y-14984984D01*
X6563039Y-14984984D02*
X6582086Y-14984984D01*
X6582086Y-14984984D02*
X6601134Y-14994508D01*
X6601134Y-14994508D02*
X6610658Y-15004031D01*
X6610658Y-15004031D02*
X6620182Y-15023079D01*
X6620182Y-15023079D02*
X6629705Y-15061174D01*
X6629705Y-15061174D02*
X6629705Y-15108793D01*
X6629705Y-15108793D02*
X6620182Y-15146888D01*
X6620182Y-15146888D02*
X6610658Y-15165936D01*
X6610658Y-15165936D02*
X6601134Y-15175460D01*
X6601134Y-15175460D02*
X6582086Y-15184984D01*
X6582086Y-15184984D02*
X6563039Y-15184984D01*
X6563039Y-15184984D02*
X6543991Y-15175460D01*
X6543991Y-15175460D02*
X6534467Y-15165936D01*
X6534467Y-15165936D02*
X6524943Y-15146888D01*
X6524943Y-15146888D02*
X6515420Y-15108793D01*
X6515420Y-15108793D02*
X6515420Y-15061174D01*
X6515420Y-15061174D02*
X6524943Y-15023079D01*
X6524943Y-15023079D02*
X6534467Y-15004031D01*
X6534467Y-15004031D02*
X6543991Y-14994508D01*
X6543991Y-14994508D02*
X6563039Y-14984984D01*
X6715420Y-15184984D02*
X6715420Y-15051650D01*
X6715420Y-15070698D02*
X6724943Y-15061174D01*
X6724943Y-15061174D02*
X6743991Y-15051650D01*
X6743991Y-15051650D02*
X6772563Y-15051650D01*
X6772563Y-15051650D02*
X6791610Y-15061174D01*
X6791610Y-15061174D02*
X6801134Y-15080222D01*
X6801134Y-15080222D02*
X6801134Y-15184984D01*
X6801134Y-15080222D02*
X6810658Y-15061174D01*
X6810658Y-15061174D02*
X6829705Y-15051650D01*
X6829705Y-15051650D02*
X6858277Y-15051650D01*
X6858277Y-15051650D02*
X6877324Y-15061174D01*
X6877324Y-15061174D02*
X6886848Y-15080222D01*
X6886848Y-15080222D02*
X6886848Y-15184984D01*
X6982086Y-15184984D02*
X6982086Y-15051650D01*
X6982086Y-15070698D02*
X6991610Y-15061174D01*
X6991610Y-15061174D02*
X7010658Y-15051650D01*
X7010658Y-15051650D02*
X7039229Y-15051650D01*
X7039229Y-15051650D02*
X7058277Y-15061174D01*
X7058277Y-15061174D02*
X7067801Y-15080222D01*
X7067801Y-15080222D02*
X7067801Y-15184984D01*
X7067801Y-15080222D02*
X7077324Y-15061174D01*
X7077324Y-15061174D02*
X7096372Y-15051650D01*
X7096372Y-15051650D02*
X7124943Y-15051650D01*
X7124943Y-15051650D02*
X7143991Y-15061174D01*
X7143991Y-15061174D02*
X7153515Y-15080222D01*
X7153515Y-15080222D02*
X7153515Y-15184984D01*
X7543991Y-14975460D02*
X7372563Y-15232603D01*
X7801134Y-14984984D02*
X7820182Y-14984984D01*
X7820182Y-14984984D02*
X7839229Y-14994508D01*
X7839229Y-14994508D02*
X7848753Y-15004031D01*
X7848753Y-15004031D02*
X7858277Y-15023079D01*
X7858277Y-15023079D02*
X7867801Y-15061174D01*
X7867801Y-15061174D02*
X7867801Y-15108793D01*
X7867801Y-15108793D02*
X7858277Y-15146888D01*
X7858277Y-15146888D02*
X7848753Y-15165936D01*
X7848753Y-15165936D02*
X7839229Y-15175460D01*
X7839229Y-15175460D02*
X7820182Y-15184984D01*
X7820182Y-15184984D02*
X7801134Y-15184984D01*
X7801134Y-15184984D02*
X7782086Y-15175460D01*
X7782086Y-15175460D02*
X7772563Y-15165936D01*
X7772563Y-15165936D02*
X7763039Y-15146888D01*
X7763039Y-15146888D02*
X7753515Y-15108793D01*
X7753515Y-15108793D02*
X7753515Y-15061174D01*
X7753515Y-15061174D02*
X7763039Y-15023079D01*
X7763039Y-15023079D02*
X7772563Y-15004031D01*
X7772563Y-15004031D02*
X7782086Y-14994508D01*
X7782086Y-14994508D02*
X7801134Y-14984984D01*
X7953515Y-15165936D02*
X7963039Y-15175460D01*
X7963039Y-15175460D02*
X7953515Y-15184984D01*
X7953515Y-15184984D02*
X7943991Y-15175460D01*
X7943991Y-15175460D02*
X7953515Y-15165936D01*
X7953515Y-15165936D02*
X7953515Y-15184984D01*
X8153515Y-15184984D02*
X8039229Y-15184984D01*
X8096372Y-15184984D02*
X8096372Y-14984984D01*
X8096372Y-14984984D02*
X8077325Y-15013555D01*
X8077325Y-15013555D02*
X8058277Y-15032603D01*
X8058277Y-15032603D02*
X8039229Y-15042127D01*
X8229706Y-15004031D02*
X8239229Y-14994508D01*
X8239229Y-14994508D02*
X8258277Y-14984984D01*
X8258277Y-14984984D02*
X8305896Y-14984984D01*
X8305896Y-14984984D02*
X8324944Y-14994508D01*
X8324944Y-14994508D02*
X8334467Y-15004031D01*
X8334467Y-15004031D02*
X8343991Y-15023079D01*
X8343991Y-15023079D02*
X8343991Y-15042127D01*
X8343991Y-15042127D02*
X8334467Y-15070698D01*
X8334467Y-15070698D02*
X8220182Y-15184984D01*
X8220182Y-15184984D02*
X8343991Y-15184984D01*
X8515420Y-14984984D02*
X8477325Y-14984984D01*
X8477325Y-14984984D02*
X8458277Y-14994508D01*
X8458277Y-14994508D02*
X8448753Y-15004031D01*
X8448753Y-15004031D02*
X8429706Y-15032603D01*
X8429706Y-15032603D02*
X8420182Y-15070698D01*
X8420182Y-15070698D02*
X8420182Y-15146888D01*
X8420182Y-15146888D02*
X8429706Y-15165936D01*
X8429706Y-15165936D02*
X8439229Y-15175460D01*
X8439229Y-15175460D02*
X8458277Y-15184984D01*
X8458277Y-15184984D02*
X8496372Y-15184984D01*
X8496372Y-15184984D02*
X8515420Y-15175460D01*
X8515420Y-15175460D02*
X8524944Y-15165936D01*
X8524944Y-15165936D02*
X8534468Y-15146888D01*
X8534468Y-15146888D02*
X8534468Y-15099269D01*
X8534468Y-15099269D02*
X8524944Y-15080222D01*
X8524944Y-15080222D02*
X8515420Y-15070698D01*
X8515420Y-15070698D02*
X8496372Y-15061174D01*
X8496372Y-15061174D02*
X8458277Y-15061174D01*
X8458277Y-15061174D02*
X8439229Y-15070698D01*
X8439229Y-15070698D02*
X8429706Y-15080222D01*
X8429706Y-15080222D02*
X8420182Y-15099269D01*
X8658277Y-14984984D02*
X8677325Y-14984984D01*
X8677325Y-14984984D02*
X8696372Y-14994508D01*
X8696372Y-14994508D02*
X8705896Y-15004031D01*
X8705896Y-15004031D02*
X8715420Y-15023079D01*
X8715420Y-15023079D02*
X8724944Y-15061174D01*
X8724944Y-15061174D02*
X8724944Y-15108793D01*
X8724944Y-15108793D02*
X8715420Y-15146888D01*
X8715420Y-15146888D02*
X8705896Y-15165936D01*
X8705896Y-15165936D02*
X8696372Y-15175460D01*
X8696372Y-15175460D02*
X8677325Y-15184984D01*
X8677325Y-15184984D02*
X8658277Y-15184984D01*
X8658277Y-15184984D02*
X8639229Y-15175460D01*
X8639229Y-15175460D02*
X8629706Y-15165936D01*
X8629706Y-15165936D02*
X8620182Y-15146888D01*
X8620182Y-15146888D02*
X8610658Y-15108793D01*
X8610658Y-15108793D02*
X8610658Y-15061174D01*
X8610658Y-15061174D02*
X8620182Y-15023079D01*
X8620182Y-15023079D02*
X8629706Y-15004031D01*
X8629706Y-15004031D02*
X8639229Y-14994508D01*
X8639229Y-14994508D02*
X8658277Y-14984984D01*
X8801134Y-14984984D02*
X8801134Y-15023079D01*
X8877325Y-14984984D02*
X8877325Y-15023079D01*
X9172563Y-15261174D02*
X9163039Y-15251650D01*
X9163039Y-15251650D02*
X9143991Y-15223079D01*
X9143991Y-15223079D02*
X9134468Y-15204031D01*
X9134468Y-15204031D02*
X9124944Y-15175460D01*
X9124944Y-15175460D02*
X9115420Y-15127841D01*
X9115420Y-15127841D02*
X9115420Y-15089746D01*
X9115420Y-15089746D02*
X9124944Y-15042127D01*
X9124944Y-15042127D02*
X9134468Y-15013555D01*
X9134468Y-15013555D02*
X9143991Y-14994508D01*
X9143991Y-14994508D02*
X9163039Y-14965936D01*
X9163039Y-14965936D02*
X9172563Y-14956412D01*
X9334468Y-14984984D02*
X9296372Y-14984984D01*
X9296372Y-14984984D02*
X9277325Y-14994508D01*
X9277325Y-14994508D02*
X9267801Y-15004031D01*
X9267801Y-15004031D02*
X9248753Y-15032603D01*
X9248753Y-15032603D02*
X9239230Y-15070698D01*
X9239230Y-15070698D02*
X9239230Y-15146888D01*
X9239230Y-15146888D02*
X9248753Y-15165936D01*
X9248753Y-15165936D02*
X9258277Y-15175460D01*
X9258277Y-15175460D02*
X9277325Y-15184984D01*
X9277325Y-15184984D02*
X9315420Y-15184984D01*
X9315420Y-15184984D02*
X9334468Y-15175460D01*
X9334468Y-15175460D02*
X9343991Y-15165936D01*
X9343991Y-15165936D02*
X9353515Y-15146888D01*
X9353515Y-15146888D02*
X9353515Y-15099269D01*
X9353515Y-15099269D02*
X9343991Y-15080222D01*
X9343991Y-15080222D02*
X9334468Y-15070698D01*
X9334468Y-15070698D02*
X9315420Y-15061174D01*
X9315420Y-15061174D02*
X9277325Y-15061174D01*
X9277325Y-15061174D02*
X9258277Y-15070698D01*
X9258277Y-15070698D02*
X9248753Y-15080222D01*
X9248753Y-15080222D02*
X9239230Y-15099269D01*
X9591611Y-15184984D02*
X9591611Y-14984984D01*
X9677325Y-15184984D02*
X9677325Y-15080222D01*
X9677325Y-15080222D02*
X9667801Y-15061174D01*
X9667801Y-15061174D02*
X9648753Y-15051650D01*
X9648753Y-15051650D02*
X9620182Y-15051650D01*
X9620182Y-15051650D02*
X9601134Y-15061174D01*
X9601134Y-15061174D02*
X9591611Y-15070698D01*
X9801134Y-15184984D02*
X9782087Y-15175460D01*
X9782087Y-15175460D02*
X9772563Y-15165936D01*
X9772563Y-15165936D02*
X9763039Y-15146888D01*
X9763039Y-15146888D02*
X9763039Y-15089746D01*
X9763039Y-15089746D02*
X9772563Y-15070698D01*
X9772563Y-15070698D02*
X9782087Y-15061174D01*
X9782087Y-15061174D02*
X9801134Y-15051650D01*
X9801134Y-15051650D02*
X9829706Y-15051650D01*
X9829706Y-15051650D02*
X9848753Y-15061174D01*
X9848753Y-15061174D02*
X9858277Y-15070698D01*
X9858277Y-15070698D02*
X9867801Y-15089746D01*
X9867801Y-15089746D02*
X9867801Y-15146888D01*
X9867801Y-15146888D02*
X9858277Y-15165936D01*
X9858277Y-15165936D02*
X9848753Y-15175460D01*
X9848753Y-15175460D02*
X9829706Y-15184984D01*
X9829706Y-15184984D02*
X9801134Y-15184984D01*
X9982087Y-15184984D02*
X9963039Y-15175460D01*
X9963039Y-15175460D02*
X9953515Y-15156412D01*
X9953515Y-15156412D02*
X9953515Y-14984984D01*
X10134468Y-15175460D02*
X10115420Y-15184984D01*
X10115420Y-15184984D02*
X10077325Y-15184984D01*
X10077325Y-15184984D02*
X10058277Y-15175460D01*
X10058277Y-15175460D02*
X10048753Y-15156412D01*
X10048753Y-15156412D02*
X10048753Y-15080222D01*
X10048753Y-15080222D02*
X10058277Y-15061174D01*
X10058277Y-15061174D02*
X10077325Y-15051650D01*
X10077325Y-15051650D02*
X10115420Y-15051650D01*
X10115420Y-15051650D02*
X10134468Y-15061174D01*
X10134468Y-15061174D02*
X10143992Y-15080222D01*
X10143992Y-15080222D02*
X10143992Y-15099269D01*
X10143992Y-15099269D02*
X10048753Y-15118317D01*
X10220182Y-15175460D02*
X10239230Y-15184984D01*
X10239230Y-15184984D02*
X10277325Y-15184984D01*
X10277325Y-15184984D02*
X10296373Y-15175460D01*
X10296373Y-15175460D02*
X10305896Y-15156412D01*
X10305896Y-15156412D02*
X10305896Y-15146888D01*
X10305896Y-15146888D02*
X10296373Y-15127841D01*
X10296373Y-15127841D02*
X10277325Y-15118317D01*
X10277325Y-15118317D02*
X10248753Y-15118317D01*
X10248753Y-15118317D02*
X10229706Y-15108793D01*
X10229706Y-15108793D02*
X10220182Y-15089746D01*
X10220182Y-15089746D02*
X10220182Y-15080222D01*
X10220182Y-15080222D02*
X10229706Y-15061174D01*
X10229706Y-15061174D02*
X10248753Y-15051650D01*
X10248753Y-15051650D02*
X10277325Y-15051650D01*
X10277325Y-15051650D02*
X10296373Y-15061174D01*
X10372563Y-15261174D02*
X10382087Y-15251650D01*
X10382087Y-15251650D02*
X10401134Y-15223079D01*
X10401134Y-15223079D02*
X10410658Y-15204031D01*
X10410658Y-15204031D02*
X10420182Y-15175460D01*
X10420182Y-15175460D02*
X10429706Y-15127841D01*
X10429706Y-15127841D02*
X10429706Y-15089746D01*
X10429706Y-15089746D02*
X10420182Y-15042127D01*
X10420182Y-15042127D02*
X10410658Y-15013555D01*
X10410658Y-15013555D02*
X10401134Y-14994508D01*
X10401134Y-14994508D02*
X10382087Y-14965936D01*
X10382087Y-14965936D02*
X10372563Y-14956412D01*
X10734468Y-15261174D02*
X10724944Y-15251650D01*
X10724944Y-15251650D02*
X10705896Y-15223079D01*
X10705896Y-15223079D02*
X10696373Y-15204031D01*
X10696373Y-15204031D02*
X10686849Y-15175460D01*
X10686849Y-15175460D02*
X10677325Y-15127841D01*
X10677325Y-15127841D02*
X10677325Y-15089746D01*
X10677325Y-15089746D02*
X10686849Y-15042127D01*
X10686849Y-15042127D02*
X10696373Y-15013555D01*
X10696373Y-15013555D02*
X10705896Y-14994508D01*
X10705896Y-14994508D02*
X10724944Y-14965936D01*
X10724944Y-14965936D02*
X10734468Y-14956412D01*
X10810658Y-15051650D02*
X10810658Y-15184984D01*
X10810658Y-15070698D02*
X10820182Y-15061174D01*
X10820182Y-15061174D02*
X10839230Y-15051650D01*
X10839230Y-15051650D02*
X10867801Y-15051650D01*
X10867801Y-15051650D02*
X10886849Y-15061174D01*
X10886849Y-15061174D02*
X10896373Y-15080222D01*
X10896373Y-15080222D02*
X10896373Y-15184984D01*
X11020182Y-15184984D02*
X11001134Y-15175460D01*
X11001134Y-15175460D02*
X10991611Y-15165936D01*
X10991611Y-15165936D02*
X10982087Y-15146888D01*
X10982087Y-15146888D02*
X10982087Y-15089746D01*
X10982087Y-15089746D02*
X10991611Y-15070698D01*
X10991611Y-15070698D02*
X11001134Y-15061174D01*
X11001134Y-15061174D02*
X11020182Y-15051650D01*
X11020182Y-15051650D02*
X11048754Y-15051650D01*
X11048754Y-15051650D02*
X11067801Y-15061174D01*
X11067801Y-15061174D02*
X11077325Y-15070698D01*
X11077325Y-15070698D02*
X11086849Y-15089746D01*
X11086849Y-15089746D02*
X11086849Y-15146888D01*
X11086849Y-15146888D02*
X11077325Y-15165936D01*
X11077325Y-15165936D02*
X11067801Y-15175460D01*
X11067801Y-15175460D02*
X11048754Y-15184984D01*
X11048754Y-15184984D02*
X11020182Y-15184984D01*
X11143992Y-15051650D02*
X11220182Y-15051650D01*
X11172563Y-14984984D02*
X11172563Y-15156412D01*
X11172563Y-15156412D02*
X11182087Y-15175460D01*
X11182087Y-15175460D02*
X11201134Y-15184984D01*
X11201134Y-15184984D02*
X11220182Y-15184984D01*
X11439230Y-15051650D02*
X11439230Y-15251650D01*
X11439230Y-15061174D02*
X11458277Y-15051650D01*
X11458277Y-15051650D02*
X11496373Y-15051650D01*
X11496373Y-15051650D02*
X11515420Y-15061174D01*
X11515420Y-15061174D02*
X11524944Y-15070698D01*
X11524944Y-15070698D02*
X11534468Y-15089746D01*
X11534468Y-15089746D02*
X11534468Y-15146888D01*
X11534468Y-15146888D02*
X11524944Y-15165936D01*
X11524944Y-15165936D02*
X11515420Y-15175460D01*
X11515420Y-15175460D02*
X11496373Y-15184984D01*
X11496373Y-15184984D02*
X11458277Y-15184984D01*
X11458277Y-15184984D02*
X11439230Y-15175460D01*
X11648753Y-15184984D02*
X11629706Y-15175460D01*
X11629706Y-15175460D02*
X11620182Y-15156412D01*
X11620182Y-15156412D02*
X11620182Y-14984984D01*
X11810658Y-15184984D02*
X11810658Y-15080222D01*
X11810658Y-15080222D02*
X11801134Y-15061174D01*
X11801134Y-15061174D02*
X11782087Y-15051650D01*
X11782087Y-15051650D02*
X11743992Y-15051650D01*
X11743992Y-15051650D02*
X11724944Y-15061174D01*
X11810658Y-15175460D02*
X11791611Y-15184984D01*
X11791611Y-15184984D02*
X11743992Y-15184984D01*
X11743992Y-15184984D02*
X11724944Y-15175460D01*
X11724944Y-15175460D02*
X11715420Y-15156412D01*
X11715420Y-15156412D02*
X11715420Y-15137365D01*
X11715420Y-15137365D02*
X11724944Y-15118317D01*
X11724944Y-15118317D02*
X11743992Y-15108793D01*
X11743992Y-15108793D02*
X11791611Y-15108793D01*
X11791611Y-15108793D02*
X11810658Y-15099269D01*
X11877325Y-15051650D02*
X11953515Y-15051650D01*
X11905896Y-14984984D02*
X11905896Y-15156412D01*
X11905896Y-15156412D02*
X11915420Y-15175460D01*
X11915420Y-15175460D02*
X11934468Y-15184984D01*
X11934468Y-15184984D02*
X11953515Y-15184984D01*
X12096373Y-15175460D02*
X12077325Y-15184984D01*
X12077325Y-15184984D02*
X12039230Y-15184984D01*
X12039230Y-15184984D02*
X12020182Y-15175460D01*
X12020182Y-15175460D02*
X12010658Y-15156412D01*
X12010658Y-15156412D02*
X12010658Y-15080222D01*
X12010658Y-15080222D02*
X12020182Y-15061174D01*
X12020182Y-15061174D02*
X12039230Y-15051650D01*
X12039230Y-15051650D02*
X12077325Y-15051650D01*
X12077325Y-15051650D02*
X12096373Y-15061174D01*
X12096373Y-15061174D02*
X12105896Y-15080222D01*
X12105896Y-15080222D02*
X12105896Y-15099269D01*
X12105896Y-15099269D02*
X12010658Y-15118317D01*
X12277325Y-15184984D02*
X12277325Y-14984984D01*
X12277325Y-15175460D02*
X12258277Y-15184984D01*
X12258277Y-15184984D02*
X12220182Y-15184984D01*
X12220182Y-15184984D02*
X12201134Y-15175460D01*
X12201134Y-15175460D02*
X12191611Y-15165936D01*
X12191611Y-15165936D02*
X12182087Y-15146888D01*
X12182087Y-15146888D02*
X12182087Y-15089746D01*
X12182087Y-15089746D02*
X12191611Y-15070698D01*
X12191611Y-15070698D02*
X12201134Y-15061174D01*
X12201134Y-15061174D02*
X12220182Y-15051650D01*
X12220182Y-15051650D02*
X12258277Y-15051650D01*
X12258277Y-15051650D02*
X12277325Y-15061174D01*
X12353515Y-15261174D02*
X12363039Y-15251650D01*
X12363039Y-15251650D02*
X12382087Y-15223079D01*
X12382087Y-15223079D02*
X12391611Y-15204031D01*
X12391611Y-15204031D02*
X12401134Y-15175460D01*
X12401134Y-15175460D02*
X12410658Y-15127841D01*
X12410658Y-15127841D02*
X12410658Y-15089746D01*
X12410658Y-15089746D02*
X12401134Y-15042127D01*
X12401134Y-15042127D02*
X12391611Y-15013555D01*
X12391611Y-15013555D02*
X12382087Y-14994508D01*
X12382087Y-14994508D02*
X12363039Y-14965936D01*
X12363039Y-14965936D02*
X12353515Y-14956412D01*
M02*
