%TF.GenerationSoftware,KiCad,Pcbnew,8.0.8*%
%TF.CreationDate,2025-03-17T17:06:12+00:00*%
%TF.ProjectId,memlnaut_0_1_joystick,6d656d6c-6e61-4757-945f-305f315f6a6f,rev?*%
%TF.SameCoordinates,Original*%
%TF.FileFunction,Drillmap*%
%TF.FilePolarity,Positive*%
%FSLAX45Y45*%
G04 Gerber Fmt 4.5, Leading zero omitted, Abs format (unit mm)*
G04 Created by KiCad (PCBNEW 8.0.8) date 2025-03-17 17:06:12*
%MOMM*%
%LPD*%
G01*
G04 APERTURE LIST*
%ADD10C,0.050000*%
%ADD11C,0.200000*%
%ADD12C,0.600000*%
%ADD13C,0.670000*%
%ADD14C,0.700000*%
G04 APERTURE END LIST*
D10*
X5600000Y-4140000D02*
X27203000Y-4140000D01*
X27203000Y-14451000D01*
X5600000Y-14451000D01*
X5600000Y-4140000D01*
X23031217Y-7822000D02*
G75*
G02*
X22878783Y-7822000I-76217J0D01*
G01*
X22878783Y-7822000D02*
G75*
G02*
X23031217Y-7822000I76217J0D01*
G01*
X23031217Y-11072000D02*
G75*
G02*
X22878783Y-11072000I-76217J0D01*
G01*
X22878783Y-11072000D02*
G75*
G02*
X23031217Y-11072000I76217J0D01*
G01*
X26530000Y-9447000D02*
G75*
G02*
X22630000Y-9447000I-1950000J0D01*
G01*
X22630000Y-9447000D02*
G75*
G02*
X26530000Y-9447000I1950000J0D01*
G01*
X26281217Y-7822000D02*
G75*
G02*
X26128783Y-7822000I-76217J0D01*
G01*
X26128783Y-7822000D02*
G75*
G02*
X26281217Y-7822000I76217J0D01*
G01*
X26285217Y-11061783D02*
G75*
G02*
X26132783Y-11061783I-76217J0D01*
G01*
X26132783Y-11061783D02*
G75*
G02*
X26285217Y-11061783I76217J0D01*
G01*
X7720500Y-8806000D02*
X14640500Y-8806000D01*
X14640500Y-13806000D01*
X7720500Y-13806000D01*
X7720500Y-8806000D01*
D11*
D12*
X7097000Y-6451000D02*
X7697000Y-7051000D01*
X7697000Y-6451000D02*
X7097000Y-7051000D01*
X7101000Y-4796000D02*
X7701000Y-5396000D01*
X7701000Y-4796000D02*
X7101000Y-5396000D01*
X8299000Y-4793000D02*
X8899000Y-5393000D01*
X8899000Y-4793000D02*
X8299000Y-5393000D01*
X8308000Y-6450000D02*
X8908000Y-7050000D01*
X8908000Y-6450000D02*
X8308000Y-7050000D01*
D13*
X17576000Y-9115000D02*
G75*
G02*
X16906000Y-9115000I-335000J0D01*
G01*
X16906000Y-9115000D02*
G75*
G02*
X17576000Y-9115000I335000J0D01*
G01*
X17581000Y-7238000D02*
G75*
G02*
X16911000Y-7238000I-335000J0D01*
G01*
X16911000Y-7238000D02*
G75*
G02*
X17581000Y-7238000I335000J0D01*
G01*
X20074000Y-9114000D02*
G75*
G02*
X19404000Y-9114000I-335000J0D01*
G01*
X19404000Y-9114000D02*
G75*
G02*
X20074000Y-9114000I335000J0D01*
G01*
X20079000Y-7237000D02*
G75*
G02*
X19409000Y-7237000I-335000J0D01*
G01*
X19409000Y-7237000D02*
G75*
G02*
X20079000Y-7237000I335000J0D01*
G01*
D14*
X9798000Y-6444250D02*
X9798000Y-7144250D01*
X9448000Y-6794250D02*
X10148000Y-6794250D01*
X13398000Y-6825000D02*
X13398000Y-7525000D01*
X13048000Y-7175000D02*
X13748000Y-7175000D01*
X16797000Y-12635000D02*
X16797000Y-13335000D01*
X16447000Y-12985000D02*
X17147000Y-12985000D01*
X18501000Y-10823000D02*
X18501000Y-11523000D01*
X18151000Y-11173000D02*
X18851000Y-11173000D01*
X20244000Y-12636000D02*
X20244000Y-13336000D01*
X19894000Y-12986000D02*
X20594000Y-12986000D01*
D11*
X5858277Y-14764984D02*
X5858277Y-14564984D01*
X5858277Y-14564984D02*
X5905896Y-14564984D01*
X5905896Y-14564984D02*
X5934467Y-14574508D01*
X5934467Y-14574508D02*
X5953515Y-14593555D01*
X5953515Y-14593555D02*
X5963039Y-14612603D01*
X5963039Y-14612603D02*
X5972562Y-14650698D01*
X5972562Y-14650698D02*
X5972562Y-14679269D01*
X5972562Y-14679269D02*
X5963039Y-14717365D01*
X5963039Y-14717365D02*
X5953515Y-14736412D01*
X5953515Y-14736412D02*
X5934467Y-14755460D01*
X5934467Y-14755460D02*
X5905896Y-14764984D01*
X5905896Y-14764984D02*
X5858277Y-14764984D01*
X6058277Y-14764984D02*
X6058277Y-14631650D01*
X6058277Y-14669746D02*
X6067801Y-14650698D01*
X6067801Y-14650698D02*
X6077324Y-14641174D01*
X6077324Y-14641174D02*
X6096372Y-14631650D01*
X6096372Y-14631650D02*
X6115420Y-14631650D01*
X6182086Y-14764984D02*
X6182086Y-14631650D01*
X6182086Y-14564984D02*
X6172562Y-14574508D01*
X6172562Y-14574508D02*
X6182086Y-14584031D01*
X6182086Y-14584031D02*
X6191610Y-14574508D01*
X6191610Y-14574508D02*
X6182086Y-14564984D01*
X6182086Y-14564984D02*
X6182086Y-14584031D01*
X6305896Y-14764984D02*
X6286848Y-14755460D01*
X6286848Y-14755460D02*
X6277324Y-14736412D01*
X6277324Y-14736412D02*
X6277324Y-14564984D01*
X6410658Y-14764984D02*
X6391610Y-14755460D01*
X6391610Y-14755460D02*
X6382086Y-14736412D01*
X6382086Y-14736412D02*
X6382086Y-14564984D01*
X6639229Y-14764984D02*
X6639229Y-14564984D01*
X6639229Y-14564984D02*
X6705896Y-14707841D01*
X6705896Y-14707841D02*
X6772562Y-14564984D01*
X6772562Y-14564984D02*
X6772562Y-14764984D01*
X6953515Y-14764984D02*
X6953515Y-14660222D01*
X6953515Y-14660222D02*
X6943991Y-14641174D01*
X6943991Y-14641174D02*
X6924943Y-14631650D01*
X6924943Y-14631650D02*
X6886848Y-14631650D01*
X6886848Y-14631650D02*
X6867801Y-14641174D01*
X6953515Y-14755460D02*
X6934467Y-14764984D01*
X6934467Y-14764984D02*
X6886848Y-14764984D01*
X6886848Y-14764984D02*
X6867801Y-14755460D01*
X6867801Y-14755460D02*
X6858277Y-14736412D01*
X6858277Y-14736412D02*
X6858277Y-14717365D01*
X6858277Y-14717365D02*
X6867801Y-14698317D01*
X6867801Y-14698317D02*
X6886848Y-14688793D01*
X6886848Y-14688793D02*
X6934467Y-14688793D01*
X6934467Y-14688793D02*
X6953515Y-14679269D01*
X7048753Y-14631650D02*
X7048753Y-14831650D01*
X7048753Y-14641174D02*
X7067801Y-14631650D01*
X7067801Y-14631650D02*
X7105896Y-14631650D01*
X7105896Y-14631650D02*
X7124943Y-14641174D01*
X7124943Y-14641174D02*
X7134467Y-14650698D01*
X7134467Y-14650698D02*
X7143991Y-14669746D01*
X7143991Y-14669746D02*
X7143991Y-14726888D01*
X7143991Y-14726888D02*
X7134467Y-14745936D01*
X7134467Y-14745936D02*
X7124943Y-14755460D01*
X7124943Y-14755460D02*
X7105896Y-14764984D01*
X7105896Y-14764984D02*
X7067801Y-14764984D01*
X7067801Y-14764984D02*
X7048753Y-14755460D01*
X7229705Y-14745936D02*
X7239229Y-14755460D01*
X7239229Y-14755460D02*
X7229705Y-14764984D01*
X7229705Y-14764984D02*
X7220182Y-14755460D01*
X7220182Y-14755460D02*
X7229705Y-14745936D01*
X7229705Y-14745936D02*
X7229705Y-14764984D01*
X7229705Y-14641174D02*
X7239229Y-14650698D01*
X7239229Y-14650698D02*
X7229705Y-14660222D01*
X7229705Y-14660222D02*
X7220182Y-14650698D01*
X7220182Y-14650698D02*
X7229705Y-14641174D01*
X7229705Y-14641174D02*
X7229705Y-14660222D01*
X5397500Y-14993500D02*
X5597500Y-15193500D01*
X5597500Y-14993500D02*
X5397500Y-15193500D01*
X5943991Y-14984984D02*
X5905896Y-14984984D01*
X5905896Y-14984984D02*
X5886848Y-14994508D01*
X5886848Y-14994508D02*
X5877324Y-15004031D01*
X5877324Y-15004031D02*
X5858277Y-15032603D01*
X5858277Y-15032603D02*
X5848753Y-15070698D01*
X5848753Y-15070698D02*
X5848753Y-15146888D01*
X5848753Y-15146888D02*
X5858277Y-15165936D01*
X5858277Y-15165936D02*
X5867801Y-15175460D01*
X5867801Y-15175460D02*
X5886848Y-15184984D01*
X5886848Y-15184984D02*
X5924943Y-15184984D01*
X5924943Y-15184984D02*
X5943991Y-15175460D01*
X5943991Y-15175460D02*
X5953515Y-15165936D01*
X5953515Y-15165936D02*
X5963039Y-15146888D01*
X5963039Y-15146888D02*
X5963039Y-15099269D01*
X5963039Y-15099269D02*
X5953515Y-15080222D01*
X5953515Y-15080222D02*
X5943991Y-15070698D01*
X5943991Y-15070698D02*
X5924943Y-15061174D01*
X5924943Y-15061174D02*
X5886848Y-15061174D01*
X5886848Y-15061174D02*
X5867801Y-15070698D01*
X5867801Y-15070698D02*
X5858277Y-15080222D01*
X5858277Y-15080222D02*
X5848753Y-15099269D01*
X6048753Y-15165936D02*
X6058277Y-15175460D01*
X6058277Y-15175460D02*
X6048753Y-15184984D01*
X6048753Y-15184984D02*
X6039229Y-15175460D01*
X6039229Y-15175460D02*
X6048753Y-15165936D01*
X6048753Y-15165936D02*
X6048753Y-15184984D01*
X6182086Y-14984984D02*
X6201134Y-14984984D01*
X6201134Y-14984984D02*
X6220182Y-14994508D01*
X6220182Y-14994508D02*
X6229705Y-15004031D01*
X6229705Y-15004031D02*
X6239229Y-15023079D01*
X6239229Y-15023079D02*
X6248753Y-15061174D01*
X6248753Y-15061174D02*
X6248753Y-15108793D01*
X6248753Y-15108793D02*
X6239229Y-15146888D01*
X6239229Y-15146888D02*
X6229705Y-15165936D01*
X6229705Y-15165936D02*
X6220182Y-15175460D01*
X6220182Y-15175460D02*
X6201134Y-15184984D01*
X6201134Y-15184984D02*
X6182086Y-15184984D01*
X6182086Y-15184984D02*
X6163039Y-15175460D01*
X6163039Y-15175460D02*
X6153515Y-15165936D01*
X6153515Y-15165936D02*
X6143991Y-15146888D01*
X6143991Y-15146888D02*
X6134467Y-15108793D01*
X6134467Y-15108793D02*
X6134467Y-15061174D01*
X6134467Y-15061174D02*
X6143991Y-15023079D01*
X6143991Y-15023079D02*
X6153515Y-15004031D01*
X6153515Y-15004031D02*
X6163039Y-14994508D01*
X6163039Y-14994508D02*
X6182086Y-14984984D01*
X6372562Y-14984984D02*
X6391610Y-14984984D01*
X6391610Y-14984984D02*
X6410658Y-14994508D01*
X6410658Y-14994508D02*
X6420182Y-15004031D01*
X6420182Y-15004031D02*
X6429705Y-15023079D01*
X6429705Y-15023079D02*
X6439229Y-15061174D01*
X6439229Y-15061174D02*
X6439229Y-15108793D01*
X6439229Y-15108793D02*
X6429705Y-15146888D01*
X6429705Y-15146888D02*
X6420182Y-15165936D01*
X6420182Y-15165936D02*
X6410658Y-15175460D01*
X6410658Y-15175460D02*
X6391610Y-15184984D01*
X6391610Y-15184984D02*
X6372562Y-15184984D01*
X6372562Y-15184984D02*
X6353515Y-15175460D01*
X6353515Y-15175460D02*
X6343991Y-15165936D01*
X6343991Y-15165936D02*
X6334467Y-15146888D01*
X6334467Y-15146888D02*
X6324943Y-15108793D01*
X6324943Y-15108793D02*
X6324943Y-15061174D01*
X6324943Y-15061174D02*
X6334467Y-15023079D01*
X6334467Y-15023079D02*
X6343991Y-15004031D01*
X6343991Y-15004031D02*
X6353515Y-14994508D01*
X6353515Y-14994508D02*
X6372562Y-14984984D01*
X6563039Y-14984984D02*
X6582086Y-14984984D01*
X6582086Y-14984984D02*
X6601134Y-14994508D01*
X6601134Y-14994508D02*
X6610658Y-15004031D01*
X6610658Y-15004031D02*
X6620182Y-15023079D01*
X6620182Y-15023079D02*
X6629705Y-15061174D01*
X6629705Y-15061174D02*
X6629705Y-15108793D01*
X6629705Y-15108793D02*
X6620182Y-15146888D01*
X6620182Y-15146888D02*
X6610658Y-15165936D01*
X6610658Y-15165936D02*
X6601134Y-15175460D01*
X6601134Y-15175460D02*
X6582086Y-15184984D01*
X6582086Y-15184984D02*
X6563039Y-15184984D01*
X6563039Y-15184984D02*
X6543991Y-15175460D01*
X6543991Y-15175460D02*
X6534467Y-15165936D01*
X6534467Y-15165936D02*
X6524943Y-15146888D01*
X6524943Y-15146888D02*
X6515420Y-15108793D01*
X6515420Y-15108793D02*
X6515420Y-15061174D01*
X6515420Y-15061174D02*
X6524943Y-15023079D01*
X6524943Y-15023079D02*
X6534467Y-15004031D01*
X6534467Y-15004031D02*
X6543991Y-14994508D01*
X6543991Y-14994508D02*
X6563039Y-14984984D01*
X6715420Y-15184984D02*
X6715420Y-15051650D01*
X6715420Y-15070698D02*
X6724943Y-15061174D01*
X6724943Y-15061174D02*
X6743991Y-15051650D01*
X6743991Y-15051650D02*
X6772563Y-15051650D01*
X6772563Y-15051650D02*
X6791610Y-15061174D01*
X6791610Y-15061174D02*
X6801134Y-15080222D01*
X6801134Y-15080222D02*
X6801134Y-15184984D01*
X6801134Y-15080222D02*
X6810658Y-15061174D01*
X6810658Y-15061174D02*
X6829705Y-15051650D01*
X6829705Y-15051650D02*
X6858277Y-15051650D01*
X6858277Y-15051650D02*
X6877324Y-15061174D01*
X6877324Y-15061174D02*
X6886848Y-15080222D01*
X6886848Y-15080222D02*
X6886848Y-15184984D01*
X6982086Y-15184984D02*
X6982086Y-15051650D01*
X6982086Y-15070698D02*
X6991610Y-15061174D01*
X6991610Y-15061174D02*
X7010658Y-15051650D01*
X7010658Y-15051650D02*
X7039229Y-15051650D01*
X7039229Y-15051650D02*
X7058277Y-15061174D01*
X7058277Y-15061174D02*
X7067801Y-15080222D01*
X7067801Y-15080222D02*
X7067801Y-15184984D01*
X7067801Y-15080222D02*
X7077324Y-15061174D01*
X7077324Y-15061174D02*
X7096372Y-15051650D01*
X7096372Y-15051650D02*
X7124943Y-15051650D01*
X7124943Y-15051650D02*
X7143991Y-15061174D01*
X7143991Y-15061174D02*
X7153515Y-15080222D01*
X7153515Y-15080222D02*
X7153515Y-15184984D01*
X7543991Y-14975460D02*
X7372563Y-15232603D01*
X7801134Y-14984984D02*
X7820182Y-14984984D01*
X7820182Y-14984984D02*
X7839229Y-14994508D01*
X7839229Y-14994508D02*
X7848753Y-15004031D01*
X7848753Y-15004031D02*
X7858277Y-15023079D01*
X7858277Y-15023079D02*
X7867801Y-15061174D01*
X7867801Y-15061174D02*
X7867801Y-15108793D01*
X7867801Y-15108793D02*
X7858277Y-15146888D01*
X7858277Y-15146888D02*
X7848753Y-15165936D01*
X7848753Y-15165936D02*
X7839229Y-15175460D01*
X7839229Y-15175460D02*
X7820182Y-15184984D01*
X7820182Y-15184984D02*
X7801134Y-15184984D01*
X7801134Y-15184984D02*
X7782086Y-15175460D01*
X7782086Y-15175460D02*
X7772563Y-15165936D01*
X7772563Y-15165936D02*
X7763039Y-15146888D01*
X7763039Y-15146888D02*
X7753515Y-15108793D01*
X7753515Y-15108793D02*
X7753515Y-15061174D01*
X7753515Y-15061174D02*
X7763039Y-15023079D01*
X7763039Y-15023079D02*
X7772563Y-15004031D01*
X7772563Y-15004031D02*
X7782086Y-14994508D01*
X7782086Y-14994508D02*
X7801134Y-14984984D01*
X7953515Y-15165936D02*
X7963039Y-15175460D01*
X7963039Y-15175460D02*
X7953515Y-15184984D01*
X7953515Y-15184984D02*
X7943991Y-15175460D01*
X7943991Y-15175460D02*
X7953515Y-15165936D01*
X7953515Y-15165936D02*
X7953515Y-15184984D01*
X8039229Y-15004031D02*
X8048753Y-14994508D01*
X8048753Y-14994508D02*
X8067801Y-14984984D01*
X8067801Y-14984984D02*
X8115420Y-14984984D01*
X8115420Y-14984984D02*
X8134467Y-14994508D01*
X8134467Y-14994508D02*
X8143991Y-15004031D01*
X8143991Y-15004031D02*
X8153515Y-15023079D01*
X8153515Y-15023079D02*
X8153515Y-15042127D01*
X8153515Y-15042127D02*
X8143991Y-15070698D01*
X8143991Y-15070698D02*
X8029706Y-15184984D01*
X8029706Y-15184984D02*
X8153515Y-15184984D01*
X8220182Y-14984984D02*
X8343991Y-14984984D01*
X8343991Y-14984984D02*
X8277325Y-15061174D01*
X8277325Y-15061174D02*
X8305896Y-15061174D01*
X8305896Y-15061174D02*
X8324944Y-15070698D01*
X8324944Y-15070698D02*
X8334467Y-15080222D01*
X8334467Y-15080222D02*
X8343991Y-15099269D01*
X8343991Y-15099269D02*
X8343991Y-15146888D01*
X8343991Y-15146888D02*
X8334467Y-15165936D01*
X8334467Y-15165936D02*
X8324944Y-15175460D01*
X8324944Y-15175460D02*
X8305896Y-15184984D01*
X8305896Y-15184984D02*
X8248753Y-15184984D01*
X8248753Y-15184984D02*
X8229706Y-15175460D01*
X8229706Y-15175460D02*
X8220182Y-15165936D01*
X8515420Y-14984984D02*
X8477325Y-14984984D01*
X8477325Y-14984984D02*
X8458277Y-14994508D01*
X8458277Y-14994508D02*
X8448753Y-15004031D01*
X8448753Y-15004031D02*
X8429706Y-15032603D01*
X8429706Y-15032603D02*
X8420182Y-15070698D01*
X8420182Y-15070698D02*
X8420182Y-15146888D01*
X8420182Y-15146888D02*
X8429706Y-15165936D01*
X8429706Y-15165936D02*
X8439229Y-15175460D01*
X8439229Y-15175460D02*
X8458277Y-15184984D01*
X8458277Y-15184984D02*
X8496372Y-15184984D01*
X8496372Y-15184984D02*
X8515420Y-15175460D01*
X8515420Y-15175460D02*
X8524944Y-15165936D01*
X8524944Y-15165936D02*
X8534468Y-15146888D01*
X8534468Y-15146888D02*
X8534468Y-15099269D01*
X8534468Y-15099269D02*
X8524944Y-15080222D01*
X8524944Y-15080222D02*
X8515420Y-15070698D01*
X8515420Y-15070698D02*
X8496372Y-15061174D01*
X8496372Y-15061174D02*
X8458277Y-15061174D01*
X8458277Y-15061174D02*
X8439229Y-15070698D01*
X8439229Y-15070698D02*
X8429706Y-15080222D01*
X8429706Y-15080222D02*
X8420182Y-15099269D01*
X8610658Y-15004031D02*
X8620182Y-14994508D01*
X8620182Y-14994508D02*
X8639229Y-14984984D01*
X8639229Y-14984984D02*
X8686849Y-14984984D01*
X8686849Y-14984984D02*
X8705896Y-14994508D01*
X8705896Y-14994508D02*
X8715420Y-15004031D01*
X8715420Y-15004031D02*
X8724944Y-15023079D01*
X8724944Y-15023079D02*
X8724944Y-15042127D01*
X8724944Y-15042127D02*
X8715420Y-15070698D01*
X8715420Y-15070698D02*
X8601134Y-15184984D01*
X8601134Y-15184984D02*
X8724944Y-15184984D01*
X8801134Y-14984984D02*
X8801134Y-15023079D01*
X8877325Y-14984984D02*
X8877325Y-15023079D01*
X9172563Y-15261174D02*
X9163039Y-15251650D01*
X9163039Y-15251650D02*
X9143991Y-15223079D01*
X9143991Y-15223079D02*
X9134468Y-15204031D01*
X9134468Y-15204031D02*
X9124944Y-15175460D01*
X9124944Y-15175460D02*
X9115420Y-15127841D01*
X9115420Y-15127841D02*
X9115420Y-15089746D01*
X9115420Y-15089746D02*
X9124944Y-15042127D01*
X9124944Y-15042127D02*
X9134468Y-15013555D01*
X9134468Y-15013555D02*
X9143991Y-14994508D01*
X9143991Y-14994508D02*
X9163039Y-14965936D01*
X9163039Y-14965936D02*
X9172563Y-14956412D01*
X9334468Y-15051650D02*
X9334468Y-15184984D01*
X9286849Y-14975460D02*
X9239230Y-15118317D01*
X9239230Y-15118317D02*
X9363039Y-15118317D01*
X9591611Y-15184984D02*
X9591611Y-14984984D01*
X9677325Y-15184984D02*
X9677325Y-15080222D01*
X9677325Y-15080222D02*
X9667801Y-15061174D01*
X9667801Y-15061174D02*
X9648753Y-15051650D01*
X9648753Y-15051650D02*
X9620182Y-15051650D01*
X9620182Y-15051650D02*
X9601134Y-15061174D01*
X9601134Y-15061174D02*
X9591611Y-15070698D01*
X9801134Y-15184984D02*
X9782087Y-15175460D01*
X9782087Y-15175460D02*
X9772563Y-15165936D01*
X9772563Y-15165936D02*
X9763039Y-15146888D01*
X9763039Y-15146888D02*
X9763039Y-15089746D01*
X9763039Y-15089746D02*
X9772563Y-15070698D01*
X9772563Y-15070698D02*
X9782087Y-15061174D01*
X9782087Y-15061174D02*
X9801134Y-15051650D01*
X9801134Y-15051650D02*
X9829706Y-15051650D01*
X9829706Y-15051650D02*
X9848753Y-15061174D01*
X9848753Y-15061174D02*
X9858277Y-15070698D01*
X9858277Y-15070698D02*
X9867801Y-15089746D01*
X9867801Y-15089746D02*
X9867801Y-15146888D01*
X9867801Y-15146888D02*
X9858277Y-15165936D01*
X9858277Y-15165936D02*
X9848753Y-15175460D01*
X9848753Y-15175460D02*
X9829706Y-15184984D01*
X9829706Y-15184984D02*
X9801134Y-15184984D01*
X9982087Y-15184984D02*
X9963039Y-15175460D01*
X9963039Y-15175460D02*
X9953515Y-15156412D01*
X9953515Y-15156412D02*
X9953515Y-14984984D01*
X10134468Y-15175460D02*
X10115420Y-15184984D01*
X10115420Y-15184984D02*
X10077325Y-15184984D01*
X10077325Y-15184984D02*
X10058277Y-15175460D01*
X10058277Y-15175460D02*
X10048753Y-15156412D01*
X10048753Y-15156412D02*
X10048753Y-15080222D01*
X10048753Y-15080222D02*
X10058277Y-15061174D01*
X10058277Y-15061174D02*
X10077325Y-15051650D01*
X10077325Y-15051650D02*
X10115420Y-15051650D01*
X10115420Y-15051650D02*
X10134468Y-15061174D01*
X10134468Y-15061174D02*
X10143992Y-15080222D01*
X10143992Y-15080222D02*
X10143992Y-15099269D01*
X10143992Y-15099269D02*
X10048753Y-15118317D01*
X10220182Y-15175460D02*
X10239230Y-15184984D01*
X10239230Y-15184984D02*
X10277325Y-15184984D01*
X10277325Y-15184984D02*
X10296373Y-15175460D01*
X10296373Y-15175460D02*
X10305896Y-15156412D01*
X10305896Y-15156412D02*
X10305896Y-15146888D01*
X10305896Y-15146888D02*
X10296373Y-15127841D01*
X10296373Y-15127841D02*
X10277325Y-15118317D01*
X10277325Y-15118317D02*
X10248753Y-15118317D01*
X10248753Y-15118317D02*
X10229706Y-15108793D01*
X10229706Y-15108793D02*
X10220182Y-15089746D01*
X10220182Y-15089746D02*
X10220182Y-15080222D01*
X10220182Y-15080222D02*
X10229706Y-15061174D01*
X10229706Y-15061174D02*
X10248753Y-15051650D01*
X10248753Y-15051650D02*
X10277325Y-15051650D01*
X10277325Y-15051650D02*
X10296373Y-15061174D01*
X10372563Y-15261174D02*
X10382087Y-15251650D01*
X10382087Y-15251650D02*
X10401134Y-15223079D01*
X10401134Y-15223079D02*
X10410658Y-15204031D01*
X10410658Y-15204031D02*
X10420182Y-15175460D01*
X10420182Y-15175460D02*
X10429706Y-15127841D01*
X10429706Y-15127841D02*
X10429706Y-15089746D01*
X10429706Y-15089746D02*
X10420182Y-15042127D01*
X10420182Y-15042127D02*
X10410658Y-15013555D01*
X10410658Y-15013555D02*
X10401134Y-14994508D01*
X10401134Y-14994508D02*
X10382087Y-14965936D01*
X10382087Y-14965936D02*
X10372563Y-14956412D01*
X5597500Y-15413500D02*
G75*
G02*
X5397500Y-15413500I-100000J0D01*
G01*
X5397500Y-15413500D02*
G75*
G02*
X5597500Y-15413500I100000J0D01*
G01*
X5943991Y-15304984D02*
X5905896Y-15304984D01*
X5905896Y-15304984D02*
X5886848Y-15314508D01*
X5886848Y-15314508D02*
X5877324Y-15324031D01*
X5877324Y-15324031D02*
X5858277Y-15352603D01*
X5858277Y-15352603D02*
X5848753Y-15390698D01*
X5848753Y-15390698D02*
X5848753Y-15466888D01*
X5848753Y-15466888D02*
X5858277Y-15485936D01*
X5858277Y-15485936D02*
X5867801Y-15495460D01*
X5867801Y-15495460D02*
X5886848Y-15504984D01*
X5886848Y-15504984D02*
X5924943Y-15504984D01*
X5924943Y-15504984D02*
X5943991Y-15495460D01*
X5943991Y-15495460D02*
X5953515Y-15485936D01*
X5953515Y-15485936D02*
X5963039Y-15466888D01*
X5963039Y-15466888D02*
X5963039Y-15419269D01*
X5963039Y-15419269D02*
X5953515Y-15400222D01*
X5953515Y-15400222D02*
X5943991Y-15390698D01*
X5943991Y-15390698D02*
X5924943Y-15381174D01*
X5924943Y-15381174D02*
X5886848Y-15381174D01*
X5886848Y-15381174D02*
X5867801Y-15390698D01*
X5867801Y-15390698D02*
X5858277Y-15400222D01*
X5858277Y-15400222D02*
X5848753Y-15419269D01*
X6048753Y-15485936D02*
X6058277Y-15495460D01*
X6058277Y-15495460D02*
X6048753Y-15504984D01*
X6048753Y-15504984D02*
X6039229Y-15495460D01*
X6039229Y-15495460D02*
X6048753Y-15485936D01*
X6048753Y-15485936D02*
X6048753Y-15504984D01*
X6124943Y-15304984D02*
X6258277Y-15304984D01*
X6258277Y-15304984D02*
X6172562Y-15504984D01*
X6372562Y-15304984D02*
X6391610Y-15304984D01*
X6391610Y-15304984D02*
X6410658Y-15314508D01*
X6410658Y-15314508D02*
X6420182Y-15324031D01*
X6420182Y-15324031D02*
X6429705Y-15343079D01*
X6429705Y-15343079D02*
X6439229Y-15381174D01*
X6439229Y-15381174D02*
X6439229Y-15428793D01*
X6439229Y-15428793D02*
X6429705Y-15466888D01*
X6429705Y-15466888D02*
X6420182Y-15485936D01*
X6420182Y-15485936D02*
X6410658Y-15495460D01*
X6410658Y-15495460D02*
X6391610Y-15504984D01*
X6391610Y-15504984D02*
X6372562Y-15504984D01*
X6372562Y-15504984D02*
X6353515Y-15495460D01*
X6353515Y-15495460D02*
X6343991Y-15485936D01*
X6343991Y-15485936D02*
X6334467Y-15466888D01*
X6334467Y-15466888D02*
X6324943Y-15428793D01*
X6324943Y-15428793D02*
X6324943Y-15381174D01*
X6324943Y-15381174D02*
X6334467Y-15343079D01*
X6334467Y-15343079D02*
X6343991Y-15324031D01*
X6343991Y-15324031D02*
X6353515Y-15314508D01*
X6353515Y-15314508D02*
X6372562Y-15304984D01*
X6563039Y-15304984D02*
X6582086Y-15304984D01*
X6582086Y-15304984D02*
X6601134Y-15314508D01*
X6601134Y-15314508D02*
X6610658Y-15324031D01*
X6610658Y-15324031D02*
X6620182Y-15343079D01*
X6620182Y-15343079D02*
X6629705Y-15381174D01*
X6629705Y-15381174D02*
X6629705Y-15428793D01*
X6629705Y-15428793D02*
X6620182Y-15466888D01*
X6620182Y-15466888D02*
X6610658Y-15485936D01*
X6610658Y-15485936D02*
X6601134Y-15495460D01*
X6601134Y-15495460D02*
X6582086Y-15504984D01*
X6582086Y-15504984D02*
X6563039Y-15504984D01*
X6563039Y-15504984D02*
X6543991Y-15495460D01*
X6543991Y-15495460D02*
X6534467Y-15485936D01*
X6534467Y-15485936D02*
X6524943Y-15466888D01*
X6524943Y-15466888D02*
X6515420Y-15428793D01*
X6515420Y-15428793D02*
X6515420Y-15381174D01*
X6515420Y-15381174D02*
X6524943Y-15343079D01*
X6524943Y-15343079D02*
X6534467Y-15324031D01*
X6534467Y-15324031D02*
X6543991Y-15314508D01*
X6543991Y-15314508D02*
X6563039Y-15304984D01*
X6715420Y-15504984D02*
X6715420Y-15371650D01*
X6715420Y-15390698D02*
X6724943Y-15381174D01*
X6724943Y-15381174D02*
X6743991Y-15371650D01*
X6743991Y-15371650D02*
X6772563Y-15371650D01*
X6772563Y-15371650D02*
X6791610Y-15381174D01*
X6791610Y-15381174D02*
X6801134Y-15400222D01*
X6801134Y-15400222D02*
X6801134Y-15504984D01*
X6801134Y-15400222D02*
X6810658Y-15381174D01*
X6810658Y-15381174D02*
X6829705Y-15371650D01*
X6829705Y-15371650D02*
X6858277Y-15371650D01*
X6858277Y-15371650D02*
X6877324Y-15381174D01*
X6877324Y-15381174D02*
X6886848Y-15400222D01*
X6886848Y-15400222D02*
X6886848Y-15504984D01*
X6982086Y-15504984D02*
X6982086Y-15371650D01*
X6982086Y-15390698D02*
X6991610Y-15381174D01*
X6991610Y-15381174D02*
X7010658Y-15371650D01*
X7010658Y-15371650D02*
X7039229Y-15371650D01*
X7039229Y-15371650D02*
X7058277Y-15381174D01*
X7058277Y-15381174D02*
X7067801Y-15400222D01*
X7067801Y-15400222D02*
X7067801Y-15504984D01*
X7067801Y-15400222D02*
X7077324Y-15381174D01*
X7077324Y-15381174D02*
X7096372Y-15371650D01*
X7096372Y-15371650D02*
X7124943Y-15371650D01*
X7124943Y-15371650D02*
X7143991Y-15381174D01*
X7143991Y-15381174D02*
X7153515Y-15400222D01*
X7153515Y-15400222D02*
X7153515Y-15504984D01*
X7543991Y-15295460D02*
X7372563Y-15552603D01*
X7801134Y-15304984D02*
X7820182Y-15304984D01*
X7820182Y-15304984D02*
X7839229Y-15314508D01*
X7839229Y-15314508D02*
X7848753Y-15324031D01*
X7848753Y-15324031D02*
X7858277Y-15343079D01*
X7858277Y-15343079D02*
X7867801Y-15381174D01*
X7867801Y-15381174D02*
X7867801Y-15428793D01*
X7867801Y-15428793D02*
X7858277Y-15466888D01*
X7858277Y-15466888D02*
X7848753Y-15485936D01*
X7848753Y-15485936D02*
X7839229Y-15495460D01*
X7839229Y-15495460D02*
X7820182Y-15504984D01*
X7820182Y-15504984D02*
X7801134Y-15504984D01*
X7801134Y-15504984D02*
X7782086Y-15495460D01*
X7782086Y-15495460D02*
X7772563Y-15485936D01*
X7772563Y-15485936D02*
X7763039Y-15466888D01*
X7763039Y-15466888D02*
X7753515Y-15428793D01*
X7753515Y-15428793D02*
X7753515Y-15381174D01*
X7753515Y-15381174D02*
X7763039Y-15343079D01*
X7763039Y-15343079D02*
X7772563Y-15324031D01*
X7772563Y-15324031D02*
X7782086Y-15314508D01*
X7782086Y-15314508D02*
X7801134Y-15304984D01*
X7953515Y-15485936D02*
X7963039Y-15495460D01*
X7963039Y-15495460D02*
X7953515Y-15504984D01*
X7953515Y-15504984D02*
X7943991Y-15495460D01*
X7943991Y-15495460D02*
X7953515Y-15485936D01*
X7953515Y-15485936D02*
X7953515Y-15504984D01*
X8039229Y-15324031D02*
X8048753Y-15314508D01*
X8048753Y-15314508D02*
X8067801Y-15304984D01*
X8067801Y-15304984D02*
X8115420Y-15304984D01*
X8115420Y-15304984D02*
X8134467Y-15314508D01*
X8134467Y-15314508D02*
X8143991Y-15324031D01*
X8143991Y-15324031D02*
X8153515Y-15343079D01*
X8153515Y-15343079D02*
X8153515Y-15362127D01*
X8153515Y-15362127D02*
X8143991Y-15390698D01*
X8143991Y-15390698D02*
X8029706Y-15504984D01*
X8029706Y-15504984D02*
X8153515Y-15504984D01*
X8324944Y-15304984D02*
X8286848Y-15304984D01*
X8286848Y-15304984D02*
X8267801Y-15314508D01*
X8267801Y-15314508D02*
X8258277Y-15324031D01*
X8258277Y-15324031D02*
X8239229Y-15352603D01*
X8239229Y-15352603D02*
X8229706Y-15390698D01*
X8229706Y-15390698D02*
X8229706Y-15466888D01*
X8229706Y-15466888D02*
X8239229Y-15485936D01*
X8239229Y-15485936D02*
X8248753Y-15495460D01*
X8248753Y-15495460D02*
X8267801Y-15504984D01*
X8267801Y-15504984D02*
X8305896Y-15504984D01*
X8305896Y-15504984D02*
X8324944Y-15495460D01*
X8324944Y-15495460D02*
X8334467Y-15485936D01*
X8334467Y-15485936D02*
X8343991Y-15466888D01*
X8343991Y-15466888D02*
X8343991Y-15419269D01*
X8343991Y-15419269D02*
X8334467Y-15400222D01*
X8334467Y-15400222D02*
X8324944Y-15390698D01*
X8324944Y-15390698D02*
X8305896Y-15381174D01*
X8305896Y-15381174D02*
X8267801Y-15381174D01*
X8267801Y-15381174D02*
X8248753Y-15390698D01*
X8248753Y-15390698D02*
X8239229Y-15400222D01*
X8239229Y-15400222D02*
X8229706Y-15419269D01*
X8410658Y-15304984D02*
X8534468Y-15304984D01*
X8534468Y-15304984D02*
X8467801Y-15381174D01*
X8467801Y-15381174D02*
X8496372Y-15381174D01*
X8496372Y-15381174D02*
X8515420Y-15390698D01*
X8515420Y-15390698D02*
X8524944Y-15400222D01*
X8524944Y-15400222D02*
X8534468Y-15419269D01*
X8534468Y-15419269D02*
X8534468Y-15466888D01*
X8534468Y-15466888D02*
X8524944Y-15485936D01*
X8524944Y-15485936D02*
X8515420Y-15495460D01*
X8515420Y-15495460D02*
X8496372Y-15504984D01*
X8496372Y-15504984D02*
X8439229Y-15504984D01*
X8439229Y-15504984D02*
X8420182Y-15495460D01*
X8420182Y-15495460D02*
X8410658Y-15485936D01*
X8648753Y-15390698D02*
X8629706Y-15381174D01*
X8629706Y-15381174D02*
X8620182Y-15371650D01*
X8620182Y-15371650D02*
X8610658Y-15352603D01*
X8610658Y-15352603D02*
X8610658Y-15343079D01*
X8610658Y-15343079D02*
X8620182Y-15324031D01*
X8620182Y-15324031D02*
X8629706Y-15314508D01*
X8629706Y-15314508D02*
X8648753Y-15304984D01*
X8648753Y-15304984D02*
X8686849Y-15304984D01*
X8686849Y-15304984D02*
X8705896Y-15314508D01*
X8705896Y-15314508D02*
X8715420Y-15324031D01*
X8715420Y-15324031D02*
X8724944Y-15343079D01*
X8724944Y-15343079D02*
X8724944Y-15352603D01*
X8724944Y-15352603D02*
X8715420Y-15371650D01*
X8715420Y-15371650D02*
X8705896Y-15381174D01*
X8705896Y-15381174D02*
X8686849Y-15390698D01*
X8686849Y-15390698D02*
X8648753Y-15390698D01*
X8648753Y-15390698D02*
X8629706Y-15400222D01*
X8629706Y-15400222D02*
X8620182Y-15409746D01*
X8620182Y-15409746D02*
X8610658Y-15428793D01*
X8610658Y-15428793D02*
X8610658Y-15466888D01*
X8610658Y-15466888D02*
X8620182Y-15485936D01*
X8620182Y-15485936D02*
X8629706Y-15495460D01*
X8629706Y-15495460D02*
X8648753Y-15504984D01*
X8648753Y-15504984D02*
X8686849Y-15504984D01*
X8686849Y-15504984D02*
X8705896Y-15495460D01*
X8705896Y-15495460D02*
X8715420Y-15485936D01*
X8715420Y-15485936D02*
X8724944Y-15466888D01*
X8724944Y-15466888D02*
X8724944Y-15428793D01*
X8724944Y-15428793D02*
X8715420Y-15409746D01*
X8715420Y-15409746D02*
X8705896Y-15400222D01*
X8705896Y-15400222D02*
X8686849Y-15390698D01*
X8801134Y-15304984D02*
X8801134Y-15343079D01*
X8877325Y-15304984D02*
X8877325Y-15343079D01*
X9172563Y-15581174D02*
X9163039Y-15571650D01*
X9163039Y-15571650D02*
X9143991Y-15543079D01*
X9143991Y-15543079D02*
X9134468Y-15524031D01*
X9134468Y-15524031D02*
X9124944Y-15495460D01*
X9124944Y-15495460D02*
X9115420Y-15447841D01*
X9115420Y-15447841D02*
X9115420Y-15409746D01*
X9115420Y-15409746D02*
X9124944Y-15362127D01*
X9124944Y-15362127D02*
X9134468Y-15333555D01*
X9134468Y-15333555D02*
X9143991Y-15314508D01*
X9143991Y-15314508D02*
X9163039Y-15285936D01*
X9163039Y-15285936D02*
X9172563Y-15276412D01*
X9334468Y-15371650D02*
X9334468Y-15504984D01*
X9286849Y-15295460D02*
X9239230Y-15438317D01*
X9239230Y-15438317D02*
X9363039Y-15438317D01*
X9591611Y-15504984D02*
X9591611Y-15304984D01*
X9677325Y-15504984D02*
X9677325Y-15400222D01*
X9677325Y-15400222D02*
X9667801Y-15381174D01*
X9667801Y-15381174D02*
X9648753Y-15371650D01*
X9648753Y-15371650D02*
X9620182Y-15371650D01*
X9620182Y-15371650D02*
X9601134Y-15381174D01*
X9601134Y-15381174D02*
X9591611Y-15390698D01*
X9801134Y-15504984D02*
X9782087Y-15495460D01*
X9782087Y-15495460D02*
X9772563Y-15485936D01*
X9772563Y-15485936D02*
X9763039Y-15466888D01*
X9763039Y-15466888D02*
X9763039Y-15409746D01*
X9763039Y-15409746D02*
X9772563Y-15390698D01*
X9772563Y-15390698D02*
X9782087Y-15381174D01*
X9782087Y-15381174D02*
X9801134Y-15371650D01*
X9801134Y-15371650D02*
X9829706Y-15371650D01*
X9829706Y-15371650D02*
X9848753Y-15381174D01*
X9848753Y-15381174D02*
X9858277Y-15390698D01*
X9858277Y-15390698D02*
X9867801Y-15409746D01*
X9867801Y-15409746D02*
X9867801Y-15466888D01*
X9867801Y-15466888D02*
X9858277Y-15485936D01*
X9858277Y-15485936D02*
X9848753Y-15495460D01*
X9848753Y-15495460D02*
X9829706Y-15504984D01*
X9829706Y-15504984D02*
X9801134Y-15504984D01*
X9982087Y-15504984D02*
X9963039Y-15495460D01*
X9963039Y-15495460D02*
X9953515Y-15476412D01*
X9953515Y-15476412D02*
X9953515Y-15304984D01*
X10134468Y-15495460D02*
X10115420Y-15504984D01*
X10115420Y-15504984D02*
X10077325Y-15504984D01*
X10077325Y-15504984D02*
X10058277Y-15495460D01*
X10058277Y-15495460D02*
X10048753Y-15476412D01*
X10048753Y-15476412D02*
X10048753Y-15400222D01*
X10048753Y-15400222D02*
X10058277Y-15381174D01*
X10058277Y-15381174D02*
X10077325Y-15371650D01*
X10077325Y-15371650D02*
X10115420Y-15371650D01*
X10115420Y-15371650D02*
X10134468Y-15381174D01*
X10134468Y-15381174D02*
X10143992Y-15400222D01*
X10143992Y-15400222D02*
X10143992Y-15419269D01*
X10143992Y-15419269D02*
X10048753Y-15438317D01*
X10220182Y-15495460D02*
X10239230Y-15504984D01*
X10239230Y-15504984D02*
X10277325Y-15504984D01*
X10277325Y-15504984D02*
X10296373Y-15495460D01*
X10296373Y-15495460D02*
X10305896Y-15476412D01*
X10305896Y-15476412D02*
X10305896Y-15466888D01*
X10305896Y-15466888D02*
X10296373Y-15447841D01*
X10296373Y-15447841D02*
X10277325Y-15438317D01*
X10277325Y-15438317D02*
X10248753Y-15438317D01*
X10248753Y-15438317D02*
X10229706Y-15428793D01*
X10229706Y-15428793D02*
X10220182Y-15409746D01*
X10220182Y-15409746D02*
X10220182Y-15400222D01*
X10220182Y-15400222D02*
X10229706Y-15381174D01*
X10229706Y-15381174D02*
X10248753Y-15371650D01*
X10248753Y-15371650D02*
X10277325Y-15371650D01*
X10277325Y-15371650D02*
X10296373Y-15381174D01*
X10372563Y-15581174D02*
X10382087Y-15571650D01*
X10382087Y-15571650D02*
X10401134Y-15543079D01*
X10401134Y-15543079D02*
X10410658Y-15524031D01*
X10410658Y-15524031D02*
X10420182Y-15495460D01*
X10420182Y-15495460D02*
X10429706Y-15447841D01*
X10429706Y-15447841D02*
X10429706Y-15409746D01*
X10429706Y-15409746D02*
X10420182Y-15362127D01*
X10420182Y-15362127D02*
X10410658Y-15333555D01*
X10410658Y-15333555D02*
X10401134Y-15314508D01*
X10401134Y-15314508D02*
X10382087Y-15285936D01*
X10382087Y-15285936D02*
X10372563Y-15276412D01*
X5497500Y-15633500D02*
X5497500Y-15833500D01*
X5397500Y-15733500D02*
X5597500Y-15733500D01*
X5839229Y-15624984D02*
X5972562Y-15624984D01*
X5972562Y-15624984D02*
X5886848Y-15824984D01*
X6048753Y-15805936D02*
X6058277Y-15815460D01*
X6058277Y-15815460D02*
X6048753Y-15824984D01*
X6048753Y-15824984D02*
X6039229Y-15815460D01*
X6039229Y-15815460D02*
X6048753Y-15805936D01*
X6048753Y-15805936D02*
X6048753Y-15824984D01*
X6182086Y-15624984D02*
X6201134Y-15624984D01*
X6201134Y-15624984D02*
X6220182Y-15634508D01*
X6220182Y-15634508D02*
X6229705Y-15644031D01*
X6229705Y-15644031D02*
X6239229Y-15663079D01*
X6239229Y-15663079D02*
X6248753Y-15701174D01*
X6248753Y-15701174D02*
X6248753Y-15748793D01*
X6248753Y-15748793D02*
X6239229Y-15786888D01*
X6239229Y-15786888D02*
X6229705Y-15805936D01*
X6229705Y-15805936D02*
X6220182Y-15815460D01*
X6220182Y-15815460D02*
X6201134Y-15824984D01*
X6201134Y-15824984D02*
X6182086Y-15824984D01*
X6182086Y-15824984D02*
X6163039Y-15815460D01*
X6163039Y-15815460D02*
X6153515Y-15805936D01*
X6153515Y-15805936D02*
X6143991Y-15786888D01*
X6143991Y-15786888D02*
X6134467Y-15748793D01*
X6134467Y-15748793D02*
X6134467Y-15701174D01*
X6134467Y-15701174D02*
X6143991Y-15663079D01*
X6143991Y-15663079D02*
X6153515Y-15644031D01*
X6153515Y-15644031D02*
X6163039Y-15634508D01*
X6163039Y-15634508D02*
X6182086Y-15624984D01*
X6372562Y-15624984D02*
X6391610Y-15624984D01*
X6391610Y-15624984D02*
X6410658Y-15634508D01*
X6410658Y-15634508D02*
X6420182Y-15644031D01*
X6420182Y-15644031D02*
X6429705Y-15663079D01*
X6429705Y-15663079D02*
X6439229Y-15701174D01*
X6439229Y-15701174D02*
X6439229Y-15748793D01*
X6439229Y-15748793D02*
X6429705Y-15786888D01*
X6429705Y-15786888D02*
X6420182Y-15805936D01*
X6420182Y-15805936D02*
X6410658Y-15815460D01*
X6410658Y-15815460D02*
X6391610Y-15824984D01*
X6391610Y-15824984D02*
X6372562Y-15824984D01*
X6372562Y-15824984D02*
X6353515Y-15815460D01*
X6353515Y-15815460D02*
X6343991Y-15805936D01*
X6343991Y-15805936D02*
X6334467Y-15786888D01*
X6334467Y-15786888D02*
X6324943Y-15748793D01*
X6324943Y-15748793D02*
X6324943Y-15701174D01*
X6324943Y-15701174D02*
X6334467Y-15663079D01*
X6334467Y-15663079D02*
X6343991Y-15644031D01*
X6343991Y-15644031D02*
X6353515Y-15634508D01*
X6353515Y-15634508D02*
X6372562Y-15624984D01*
X6563039Y-15624984D02*
X6582086Y-15624984D01*
X6582086Y-15624984D02*
X6601134Y-15634508D01*
X6601134Y-15634508D02*
X6610658Y-15644031D01*
X6610658Y-15644031D02*
X6620182Y-15663079D01*
X6620182Y-15663079D02*
X6629705Y-15701174D01*
X6629705Y-15701174D02*
X6629705Y-15748793D01*
X6629705Y-15748793D02*
X6620182Y-15786888D01*
X6620182Y-15786888D02*
X6610658Y-15805936D01*
X6610658Y-15805936D02*
X6601134Y-15815460D01*
X6601134Y-15815460D02*
X6582086Y-15824984D01*
X6582086Y-15824984D02*
X6563039Y-15824984D01*
X6563039Y-15824984D02*
X6543991Y-15815460D01*
X6543991Y-15815460D02*
X6534467Y-15805936D01*
X6534467Y-15805936D02*
X6524943Y-15786888D01*
X6524943Y-15786888D02*
X6515420Y-15748793D01*
X6515420Y-15748793D02*
X6515420Y-15701174D01*
X6515420Y-15701174D02*
X6524943Y-15663079D01*
X6524943Y-15663079D02*
X6534467Y-15644031D01*
X6534467Y-15644031D02*
X6543991Y-15634508D01*
X6543991Y-15634508D02*
X6563039Y-15624984D01*
X6715420Y-15824984D02*
X6715420Y-15691650D01*
X6715420Y-15710698D02*
X6724943Y-15701174D01*
X6724943Y-15701174D02*
X6743991Y-15691650D01*
X6743991Y-15691650D02*
X6772563Y-15691650D01*
X6772563Y-15691650D02*
X6791610Y-15701174D01*
X6791610Y-15701174D02*
X6801134Y-15720222D01*
X6801134Y-15720222D02*
X6801134Y-15824984D01*
X6801134Y-15720222D02*
X6810658Y-15701174D01*
X6810658Y-15701174D02*
X6829705Y-15691650D01*
X6829705Y-15691650D02*
X6858277Y-15691650D01*
X6858277Y-15691650D02*
X6877324Y-15701174D01*
X6877324Y-15701174D02*
X6886848Y-15720222D01*
X6886848Y-15720222D02*
X6886848Y-15824984D01*
X6982086Y-15824984D02*
X6982086Y-15691650D01*
X6982086Y-15710698D02*
X6991610Y-15701174D01*
X6991610Y-15701174D02*
X7010658Y-15691650D01*
X7010658Y-15691650D02*
X7039229Y-15691650D01*
X7039229Y-15691650D02*
X7058277Y-15701174D01*
X7058277Y-15701174D02*
X7067801Y-15720222D01*
X7067801Y-15720222D02*
X7067801Y-15824984D01*
X7067801Y-15720222D02*
X7077324Y-15701174D01*
X7077324Y-15701174D02*
X7096372Y-15691650D01*
X7096372Y-15691650D02*
X7124943Y-15691650D01*
X7124943Y-15691650D02*
X7143991Y-15701174D01*
X7143991Y-15701174D02*
X7153515Y-15720222D01*
X7153515Y-15720222D02*
X7153515Y-15824984D01*
X7543991Y-15615460D02*
X7372563Y-15872603D01*
X7801134Y-15624984D02*
X7820182Y-15624984D01*
X7820182Y-15624984D02*
X7839229Y-15634508D01*
X7839229Y-15634508D02*
X7848753Y-15644031D01*
X7848753Y-15644031D02*
X7858277Y-15663079D01*
X7858277Y-15663079D02*
X7867801Y-15701174D01*
X7867801Y-15701174D02*
X7867801Y-15748793D01*
X7867801Y-15748793D02*
X7858277Y-15786888D01*
X7858277Y-15786888D02*
X7848753Y-15805936D01*
X7848753Y-15805936D02*
X7839229Y-15815460D01*
X7839229Y-15815460D02*
X7820182Y-15824984D01*
X7820182Y-15824984D02*
X7801134Y-15824984D01*
X7801134Y-15824984D02*
X7782086Y-15815460D01*
X7782086Y-15815460D02*
X7772563Y-15805936D01*
X7772563Y-15805936D02*
X7763039Y-15786888D01*
X7763039Y-15786888D02*
X7753515Y-15748793D01*
X7753515Y-15748793D02*
X7753515Y-15701174D01*
X7753515Y-15701174D02*
X7763039Y-15663079D01*
X7763039Y-15663079D02*
X7772563Y-15644031D01*
X7772563Y-15644031D02*
X7782086Y-15634508D01*
X7782086Y-15634508D02*
X7801134Y-15624984D01*
X7953515Y-15805936D02*
X7963039Y-15815460D01*
X7963039Y-15815460D02*
X7953515Y-15824984D01*
X7953515Y-15824984D02*
X7943991Y-15815460D01*
X7943991Y-15815460D02*
X7953515Y-15805936D01*
X7953515Y-15805936D02*
X7953515Y-15824984D01*
X8039229Y-15644031D02*
X8048753Y-15634508D01*
X8048753Y-15634508D02*
X8067801Y-15624984D01*
X8067801Y-15624984D02*
X8115420Y-15624984D01*
X8115420Y-15624984D02*
X8134467Y-15634508D01*
X8134467Y-15634508D02*
X8143991Y-15644031D01*
X8143991Y-15644031D02*
X8153515Y-15663079D01*
X8153515Y-15663079D02*
X8153515Y-15682127D01*
X8153515Y-15682127D02*
X8143991Y-15710698D01*
X8143991Y-15710698D02*
X8029706Y-15824984D01*
X8029706Y-15824984D02*
X8153515Y-15824984D01*
X8220182Y-15624984D02*
X8353515Y-15624984D01*
X8353515Y-15624984D02*
X8267801Y-15824984D01*
X8524944Y-15624984D02*
X8429706Y-15624984D01*
X8429706Y-15624984D02*
X8420182Y-15720222D01*
X8420182Y-15720222D02*
X8429706Y-15710698D01*
X8429706Y-15710698D02*
X8448753Y-15701174D01*
X8448753Y-15701174D02*
X8496372Y-15701174D01*
X8496372Y-15701174D02*
X8515420Y-15710698D01*
X8515420Y-15710698D02*
X8524944Y-15720222D01*
X8524944Y-15720222D02*
X8534468Y-15739269D01*
X8534468Y-15739269D02*
X8534468Y-15786888D01*
X8534468Y-15786888D02*
X8524944Y-15805936D01*
X8524944Y-15805936D02*
X8515420Y-15815460D01*
X8515420Y-15815460D02*
X8496372Y-15824984D01*
X8496372Y-15824984D02*
X8448753Y-15824984D01*
X8448753Y-15824984D02*
X8429706Y-15815460D01*
X8429706Y-15815460D02*
X8420182Y-15805936D01*
X8705896Y-15624984D02*
X8667801Y-15624984D01*
X8667801Y-15624984D02*
X8648753Y-15634508D01*
X8648753Y-15634508D02*
X8639229Y-15644031D01*
X8639229Y-15644031D02*
X8620182Y-15672603D01*
X8620182Y-15672603D02*
X8610658Y-15710698D01*
X8610658Y-15710698D02*
X8610658Y-15786888D01*
X8610658Y-15786888D02*
X8620182Y-15805936D01*
X8620182Y-15805936D02*
X8629706Y-15815460D01*
X8629706Y-15815460D02*
X8648753Y-15824984D01*
X8648753Y-15824984D02*
X8686849Y-15824984D01*
X8686849Y-15824984D02*
X8705896Y-15815460D01*
X8705896Y-15815460D02*
X8715420Y-15805936D01*
X8715420Y-15805936D02*
X8724944Y-15786888D01*
X8724944Y-15786888D02*
X8724944Y-15739269D01*
X8724944Y-15739269D02*
X8715420Y-15720222D01*
X8715420Y-15720222D02*
X8705896Y-15710698D01*
X8705896Y-15710698D02*
X8686849Y-15701174D01*
X8686849Y-15701174D02*
X8648753Y-15701174D01*
X8648753Y-15701174D02*
X8629706Y-15710698D01*
X8629706Y-15710698D02*
X8620182Y-15720222D01*
X8620182Y-15720222D02*
X8610658Y-15739269D01*
X8801134Y-15624984D02*
X8801134Y-15663079D01*
X8877325Y-15624984D02*
X8877325Y-15663079D01*
X9172563Y-15901174D02*
X9163039Y-15891650D01*
X9163039Y-15891650D02*
X9143991Y-15863079D01*
X9143991Y-15863079D02*
X9134468Y-15844031D01*
X9134468Y-15844031D02*
X9124944Y-15815460D01*
X9124944Y-15815460D02*
X9115420Y-15767841D01*
X9115420Y-15767841D02*
X9115420Y-15729746D01*
X9115420Y-15729746D02*
X9124944Y-15682127D01*
X9124944Y-15682127D02*
X9134468Y-15653555D01*
X9134468Y-15653555D02*
X9143991Y-15634508D01*
X9143991Y-15634508D02*
X9163039Y-15605936D01*
X9163039Y-15605936D02*
X9172563Y-15596412D01*
X9343991Y-15624984D02*
X9248753Y-15624984D01*
X9248753Y-15624984D02*
X9239230Y-15720222D01*
X9239230Y-15720222D02*
X9248753Y-15710698D01*
X9248753Y-15710698D02*
X9267801Y-15701174D01*
X9267801Y-15701174D02*
X9315420Y-15701174D01*
X9315420Y-15701174D02*
X9334468Y-15710698D01*
X9334468Y-15710698D02*
X9343991Y-15720222D01*
X9343991Y-15720222D02*
X9353515Y-15739269D01*
X9353515Y-15739269D02*
X9353515Y-15786888D01*
X9353515Y-15786888D02*
X9343991Y-15805936D01*
X9343991Y-15805936D02*
X9334468Y-15815460D01*
X9334468Y-15815460D02*
X9315420Y-15824984D01*
X9315420Y-15824984D02*
X9267801Y-15824984D01*
X9267801Y-15824984D02*
X9248753Y-15815460D01*
X9248753Y-15815460D02*
X9239230Y-15805936D01*
X9591611Y-15824984D02*
X9591611Y-15624984D01*
X9677325Y-15824984D02*
X9677325Y-15720222D01*
X9677325Y-15720222D02*
X9667801Y-15701174D01*
X9667801Y-15701174D02*
X9648753Y-15691650D01*
X9648753Y-15691650D02*
X9620182Y-15691650D01*
X9620182Y-15691650D02*
X9601134Y-15701174D01*
X9601134Y-15701174D02*
X9591611Y-15710698D01*
X9801134Y-15824984D02*
X9782087Y-15815460D01*
X9782087Y-15815460D02*
X9772563Y-15805936D01*
X9772563Y-15805936D02*
X9763039Y-15786888D01*
X9763039Y-15786888D02*
X9763039Y-15729746D01*
X9763039Y-15729746D02*
X9772563Y-15710698D01*
X9772563Y-15710698D02*
X9782087Y-15701174D01*
X9782087Y-15701174D02*
X9801134Y-15691650D01*
X9801134Y-15691650D02*
X9829706Y-15691650D01*
X9829706Y-15691650D02*
X9848753Y-15701174D01*
X9848753Y-15701174D02*
X9858277Y-15710698D01*
X9858277Y-15710698D02*
X9867801Y-15729746D01*
X9867801Y-15729746D02*
X9867801Y-15786888D01*
X9867801Y-15786888D02*
X9858277Y-15805936D01*
X9858277Y-15805936D02*
X9848753Y-15815460D01*
X9848753Y-15815460D02*
X9829706Y-15824984D01*
X9829706Y-15824984D02*
X9801134Y-15824984D01*
X9982087Y-15824984D02*
X9963039Y-15815460D01*
X9963039Y-15815460D02*
X9953515Y-15796412D01*
X9953515Y-15796412D02*
X9953515Y-15624984D01*
X10134468Y-15815460D02*
X10115420Y-15824984D01*
X10115420Y-15824984D02*
X10077325Y-15824984D01*
X10077325Y-15824984D02*
X10058277Y-15815460D01*
X10058277Y-15815460D02*
X10048753Y-15796412D01*
X10048753Y-15796412D02*
X10048753Y-15720222D01*
X10048753Y-15720222D02*
X10058277Y-15701174D01*
X10058277Y-15701174D02*
X10077325Y-15691650D01*
X10077325Y-15691650D02*
X10115420Y-15691650D01*
X10115420Y-15691650D02*
X10134468Y-15701174D01*
X10134468Y-15701174D02*
X10143992Y-15720222D01*
X10143992Y-15720222D02*
X10143992Y-15739269D01*
X10143992Y-15739269D02*
X10048753Y-15758317D01*
X10220182Y-15815460D02*
X10239230Y-15824984D01*
X10239230Y-15824984D02*
X10277325Y-15824984D01*
X10277325Y-15824984D02*
X10296373Y-15815460D01*
X10296373Y-15815460D02*
X10305896Y-15796412D01*
X10305896Y-15796412D02*
X10305896Y-15786888D01*
X10305896Y-15786888D02*
X10296373Y-15767841D01*
X10296373Y-15767841D02*
X10277325Y-15758317D01*
X10277325Y-15758317D02*
X10248753Y-15758317D01*
X10248753Y-15758317D02*
X10229706Y-15748793D01*
X10229706Y-15748793D02*
X10220182Y-15729746D01*
X10220182Y-15729746D02*
X10220182Y-15720222D01*
X10220182Y-15720222D02*
X10229706Y-15701174D01*
X10229706Y-15701174D02*
X10248753Y-15691650D01*
X10248753Y-15691650D02*
X10277325Y-15691650D01*
X10277325Y-15691650D02*
X10296373Y-15701174D01*
X10372563Y-15901174D02*
X10382087Y-15891650D01*
X10382087Y-15891650D02*
X10401134Y-15863079D01*
X10401134Y-15863079D02*
X10410658Y-15844031D01*
X10410658Y-15844031D02*
X10420182Y-15815460D01*
X10420182Y-15815460D02*
X10429706Y-15767841D01*
X10429706Y-15767841D02*
X10429706Y-15729746D01*
X10429706Y-15729746D02*
X10420182Y-15682127D01*
X10420182Y-15682127D02*
X10410658Y-15653555D01*
X10410658Y-15653555D02*
X10401134Y-15634508D01*
X10401134Y-15634508D02*
X10382087Y-15605936D01*
X10382087Y-15605936D02*
X10372563Y-15596412D01*
M02*
