%TF.GenerationSoftware,KiCad,Pcbnew,9.0.1*%
%TF.CreationDate,2025-05-16T14:35:11+01:00*%
%TF.ProjectId,memlnaut_0_2_joystick,6d656d6c-6e61-4757-945f-305f325f6a6f,rev?*%
%TF.SameCoordinates,Original*%
%TF.FileFunction,Legend,Top*%
%TF.FilePolarity,Positive*%
%FSLAX46Y46*%
G04 Gerber Fmt 4.6, Leading zero omitted, Abs format (unit mm)*
G04 Created by KiCad (PCBNEW 9.0.1) date 2025-05-16 14:35:11*
%MOMM*%
%LPD*%
G01*
G04 APERTURE LIST*
%ADD10C,0.000000*%
%ADD11C,0.100000*%
G04 APERTURE END LIST*
D10*
G36*
X259779958Y-62947189D02*
G01*
X259859426Y-62953251D01*
X259937752Y-62963232D01*
X260014835Y-62977035D01*
X260090578Y-62994559D01*
X260164880Y-63015706D01*
X260237644Y-63040375D01*
X260308769Y-63068469D01*
X260378156Y-63099887D01*
X260445706Y-63134531D01*
X260511320Y-63172302D01*
X260574899Y-63213100D01*
X260636343Y-63256825D01*
X260695554Y-63303380D01*
X260752431Y-63352664D01*
X260806877Y-63404579D01*
X260858792Y-63459025D01*
X260908076Y-63515902D01*
X260954630Y-63575113D01*
X260998356Y-63636558D01*
X261039153Y-63700137D01*
X261076924Y-63765751D01*
X261111568Y-63833301D01*
X261142986Y-63902688D01*
X261171079Y-63973813D01*
X261195749Y-64046576D01*
X261216895Y-64120879D01*
X261234420Y-64196622D01*
X261248222Y-64273705D01*
X261258204Y-64352031D01*
X261264265Y-64431499D01*
X261266308Y-64512010D01*
X261264265Y-64592521D01*
X261258204Y-64671989D01*
X261248222Y-64750314D01*
X261234420Y-64827398D01*
X261216895Y-64903141D01*
X261195749Y-64977443D01*
X261171079Y-65050207D01*
X261142986Y-65121332D01*
X261111568Y-65190719D01*
X261076924Y-65258269D01*
X261039153Y-65323883D01*
X260998356Y-65387462D01*
X260954630Y-65448907D01*
X260908076Y-65508117D01*
X260858792Y-65564995D01*
X260806877Y-65619441D01*
X260752431Y-65671356D01*
X260695554Y-65720640D01*
X260636343Y-65767194D01*
X260574899Y-65810920D01*
X260511320Y-65851718D01*
X260445706Y-65889488D01*
X260378156Y-65924132D01*
X260308769Y-65955551D01*
X260237644Y-65983644D01*
X260164880Y-66008314D01*
X260090578Y-66029461D01*
X260014835Y-66046985D01*
X259937752Y-66060787D01*
X259859426Y-66070769D01*
X259779958Y-66076831D01*
X259699447Y-66078874D01*
X259618936Y-66076831D01*
X259539469Y-66070769D01*
X259461144Y-66060787D01*
X259384061Y-66046985D01*
X259308318Y-66029461D01*
X259234016Y-66008314D01*
X259161253Y-65983644D01*
X259090128Y-65955550D01*
X259020741Y-65924132D01*
X258953191Y-65889488D01*
X258887577Y-65851717D01*
X258823998Y-65810919D01*
X258762554Y-65767194D01*
X258703343Y-65720639D01*
X258646465Y-65671355D01*
X258592019Y-65619440D01*
X258540105Y-65564994D01*
X258490820Y-65508116D01*
X258444266Y-65448905D01*
X258400540Y-65387461D01*
X258359742Y-65323882D01*
X258321972Y-65258268D01*
X258287328Y-65190718D01*
X258255909Y-65121331D01*
X258227815Y-65050206D01*
X258203146Y-64977442D01*
X258181999Y-64903140D01*
X258164475Y-64827397D01*
X258150672Y-64750314D01*
X258140691Y-64671989D01*
X258134629Y-64592521D01*
X258132586Y-64512010D01*
X258134629Y-64431499D01*
X258140691Y-64352031D01*
X258150672Y-64273705D01*
X258164475Y-64196622D01*
X258181999Y-64120879D01*
X258203145Y-64046576D01*
X258227815Y-63973813D01*
X258255908Y-63902688D01*
X258287327Y-63833301D01*
X258321971Y-63765751D01*
X258359741Y-63700137D01*
X258400539Y-63636558D01*
X258444264Y-63575113D01*
X258490819Y-63515902D01*
X258540103Y-63459025D01*
X258592017Y-63404579D01*
X258646463Y-63352664D01*
X258703341Y-63303380D01*
X258762551Y-63256825D01*
X258823996Y-63213100D01*
X258887575Y-63172302D01*
X258953189Y-63134531D01*
X259020739Y-63099887D01*
X259090126Y-63068469D01*
X259161251Y-63040375D01*
X259234014Y-63015706D01*
X259308316Y-62994559D01*
X259384059Y-62977035D01*
X259461143Y-62963232D01*
X259539468Y-62953251D01*
X259618936Y-62947189D01*
X259699447Y-62945146D01*
X259779958Y-62947189D01*
G37*
G36*
X254380866Y-62555061D02*
G01*
X254480183Y-62562640D01*
X254578075Y-62575120D01*
X254674416Y-62592378D01*
X254769084Y-62614287D01*
X254861954Y-62640726D01*
X254952901Y-62671569D01*
X255041803Y-62706693D01*
X255128533Y-62745973D01*
X255212970Y-62789285D01*
X255294987Y-62836505D01*
X255374462Y-62887510D01*
X255451270Y-62942174D01*
X255525287Y-63000374D01*
X255596388Y-63061985D01*
X255664451Y-63126884D01*
X255729350Y-63194946D01*
X255790962Y-63266048D01*
X255849161Y-63340065D01*
X255903826Y-63416872D01*
X255954830Y-63496347D01*
X256002050Y-63578364D01*
X256045363Y-63662800D01*
X256084643Y-63749531D01*
X256119766Y-63838432D01*
X256150610Y-63929379D01*
X256177048Y-64022248D01*
X256198958Y-64116916D01*
X256216215Y-64213257D01*
X256228695Y-64311148D01*
X256236275Y-64410465D01*
X256238829Y-64511083D01*
X256236275Y-64611702D01*
X256228695Y-64711019D01*
X256216215Y-64808910D01*
X256198958Y-64905252D01*
X256177048Y-64999919D01*
X256150609Y-65092789D01*
X256119766Y-65183736D01*
X256084642Y-65272637D01*
X256045362Y-65359368D01*
X256002049Y-65443804D01*
X255954829Y-65525822D01*
X255903824Y-65605296D01*
X255849160Y-65682104D01*
X255790960Y-65756121D01*
X255729348Y-65827222D01*
X255664449Y-65895285D01*
X255596386Y-65960184D01*
X255525285Y-66021795D01*
X255451268Y-66079995D01*
X255374460Y-66134659D01*
X255294985Y-66185664D01*
X255212967Y-66232884D01*
X255128531Y-66276196D01*
X255041800Y-66315476D01*
X254952899Y-66350600D01*
X254861952Y-66381443D01*
X254769082Y-66407882D01*
X254674415Y-66429792D01*
X254578073Y-66447049D01*
X254480182Y-66459529D01*
X254380865Y-66467108D01*
X254280247Y-66469662D01*
X254179628Y-66467108D01*
X254080311Y-66459529D01*
X253982419Y-66447049D01*
X253886078Y-66429792D01*
X253791410Y-66407882D01*
X253698540Y-66381443D01*
X253607593Y-66350600D01*
X253518691Y-66315476D01*
X253431961Y-66276196D01*
X253347524Y-66232884D01*
X253265507Y-66185664D01*
X253186032Y-66134659D01*
X253109224Y-66079995D01*
X253035207Y-66021795D01*
X252964106Y-65960184D01*
X252896043Y-65895285D01*
X252831144Y-65827222D01*
X252769532Y-65756121D01*
X252711333Y-65682104D01*
X252656668Y-65605296D01*
X252605664Y-65525822D01*
X252558444Y-65443804D01*
X252515131Y-65359368D01*
X252475851Y-65272637D01*
X252440728Y-65183736D01*
X252409884Y-65092789D01*
X252383446Y-64999919D01*
X252361536Y-64905252D01*
X252344279Y-64808910D01*
X252331799Y-64711019D01*
X252324219Y-64611702D01*
X252321665Y-64511083D01*
X252324219Y-64410465D01*
X252331799Y-64311148D01*
X252344279Y-64213257D01*
X252361536Y-64116916D01*
X252383446Y-64022248D01*
X252409885Y-63929379D01*
X252440728Y-63838432D01*
X252475852Y-63749531D01*
X252515132Y-63662800D01*
X252558445Y-63578364D01*
X252605665Y-63496347D01*
X252656670Y-63416872D01*
X252711334Y-63340065D01*
X252769534Y-63266048D01*
X252831146Y-63194946D01*
X252896045Y-63126884D01*
X252964108Y-63061985D01*
X253035209Y-63000374D01*
X253109226Y-62942174D01*
X253186034Y-62887510D01*
X253265509Y-62836505D01*
X253347527Y-62789285D01*
X253431963Y-62745973D01*
X253518694Y-62706693D01*
X253607595Y-62671569D01*
X253698542Y-62640726D01*
X253791412Y-62614287D01*
X253886079Y-62592378D01*
X253982421Y-62575120D01*
X254080312Y-62562640D01*
X254179629Y-62555061D01*
X254280247Y-62552507D01*
X254380866Y-62555061D01*
G37*
G36*
X225273834Y-47004543D02*
G01*
X225572714Y-47027345D01*
X225867300Y-47064891D01*
X226157217Y-47116809D01*
X226442093Y-47182726D01*
X226721554Y-47262268D01*
X226995227Y-47355062D01*
X227262739Y-47460734D01*
X227523717Y-47578913D01*
X227777787Y-47709223D01*
X228024577Y-47851293D01*
X228263712Y-48004749D01*
X228494821Y-48169218D01*
X228717529Y-48344326D01*
X228931463Y-48529701D01*
X229136251Y-48724969D01*
X229331519Y-48929757D01*
X229516894Y-49143691D01*
X229692002Y-49366400D01*
X229856471Y-49597508D01*
X230009927Y-49836644D01*
X230151997Y-50083433D01*
X230282307Y-50337503D01*
X230400486Y-50598481D01*
X230506158Y-50865993D01*
X230598952Y-51139666D01*
X230678494Y-51419127D01*
X230744411Y-51704002D01*
X230796329Y-51993919D01*
X230833875Y-52288505D01*
X230856676Y-52587385D01*
X230864360Y-52890187D01*
X230864360Y-61448663D01*
X236647491Y-49432350D01*
X236661259Y-49404337D01*
X236675504Y-49376498D01*
X236690270Y-49348745D01*
X236705600Y-49320993D01*
X236721538Y-49293154D01*
X236738127Y-49265141D01*
X236755411Y-49236868D01*
X236773432Y-49208247D01*
X236924430Y-48973542D01*
X237084383Y-48751964D01*
X237252845Y-48543791D01*
X237429375Y-48349300D01*
X237613528Y-48168771D01*
X237804862Y-48002482D01*
X238002931Y-47850709D01*
X238207293Y-47713732D01*
X238417505Y-47591828D01*
X238633122Y-47485276D01*
X238853701Y-47394354D01*
X239078799Y-47319340D01*
X239307972Y-47260511D01*
X239540776Y-47218146D01*
X239776768Y-47192523D01*
X240015504Y-47183920D01*
X240138782Y-47186185D01*
X240261326Y-47192955D01*
X240383079Y-47204193D01*
X240503986Y-47219864D01*
X240623990Y-47239931D01*
X240743035Y-47264356D01*
X240861065Y-47293105D01*
X240978024Y-47326140D01*
X241093855Y-47363425D01*
X241208503Y-47404923D01*
X241321912Y-47450599D01*
X241434025Y-47500415D01*
X241544786Y-47554335D01*
X241654140Y-47612323D01*
X241868398Y-47740355D01*
X242076352Y-47884221D01*
X242277551Y-48043629D01*
X242471548Y-48218286D01*
X242657892Y-48407901D01*
X242836135Y-48612183D01*
X243005829Y-48830840D01*
X243166523Y-49063580D01*
X243317769Y-49310112D01*
X243335638Y-49342754D01*
X243353073Y-49375397D01*
X243369989Y-49408040D01*
X243386297Y-49440684D01*
X250230670Y-63659128D01*
X250270744Y-63748188D01*
X250306227Y-63838516D01*
X250337106Y-63929966D01*
X250363369Y-64022396D01*
X250385003Y-64115662D01*
X250401997Y-64209620D01*
X250414337Y-64304125D01*
X250422013Y-64399035D01*
X250425012Y-64494205D01*
X250423321Y-64589492D01*
X250416929Y-64684752D01*
X250405822Y-64779841D01*
X250389990Y-64874615D01*
X250369419Y-64968931D01*
X250344098Y-65062644D01*
X250314015Y-65155611D01*
X250279434Y-65247011D01*
X250240693Y-65336044D01*
X250197889Y-65422604D01*
X250151116Y-65506581D01*
X250100469Y-65587866D01*
X250046043Y-65666352D01*
X249987932Y-65741929D01*
X249926232Y-65814489D01*
X249861038Y-65883924D01*
X249792445Y-65950125D01*
X249720547Y-66012984D01*
X249645439Y-66072391D01*
X249567217Y-66128240D01*
X249485976Y-66180420D01*
X249401810Y-66228824D01*
X249314814Y-66273343D01*
X249225754Y-66313559D01*
X249135426Y-66349127D01*
X249043976Y-66380043D01*
X248951545Y-66406301D01*
X248858280Y-66427899D01*
X248764322Y-66444831D01*
X248669816Y-66457095D01*
X248574906Y-66464685D01*
X248479735Y-66467598D01*
X248384448Y-66465830D01*
X248289188Y-66459377D01*
X248194099Y-66448234D01*
X248099325Y-66432398D01*
X248005009Y-66411864D01*
X247911296Y-66386629D01*
X247818329Y-66356688D01*
X247726929Y-66322107D01*
X247637895Y-66283367D01*
X247551335Y-66240563D01*
X247467359Y-66193790D01*
X247386073Y-66143143D01*
X247307588Y-66088717D01*
X247232011Y-66030606D01*
X247159450Y-65968906D01*
X247090015Y-65903712D01*
X247023814Y-65835118D01*
X246960956Y-65763220D01*
X246901548Y-65688113D01*
X246845700Y-65609891D01*
X246793520Y-65528649D01*
X246745116Y-65444483D01*
X246700597Y-65357487D01*
X240015501Y-51467790D01*
X233883254Y-64210123D01*
X233875182Y-64226746D01*
X233866948Y-64243271D01*
X233858562Y-64259688D01*
X233850034Y-64275986D01*
X233841376Y-64292154D01*
X233832599Y-64308181D01*
X233814729Y-64339768D01*
X233667027Y-64576880D01*
X233504445Y-64802715D01*
X233327927Y-65016718D01*
X233138414Y-65218336D01*
X232936850Y-65407012D01*
X232724178Y-65582192D01*
X232501341Y-65743322D01*
X232269280Y-65889846D01*
X232028939Y-66021210D01*
X231781261Y-66136859D01*
X231527189Y-66236238D01*
X231267664Y-66318792D01*
X231003631Y-66383967D01*
X230736031Y-66431207D01*
X230465808Y-66459958D01*
X230193904Y-66469665D01*
X230072249Y-66467713D01*
X229951136Y-66461866D01*
X229830675Y-66452134D01*
X229710973Y-66438527D01*
X229592139Y-66421057D01*
X229474283Y-66399734D01*
X229357511Y-66374570D01*
X229241933Y-66345574D01*
X229112730Y-66308264D01*
X228986489Y-66266375D01*
X228863284Y-66220002D01*
X228743190Y-66169243D01*
X228512633Y-66054953D01*
X228295418Y-65924283D01*
X228092143Y-65778007D01*
X227903404Y-65616902D01*
X227729802Y-65441744D01*
X227571934Y-65253308D01*
X227430398Y-65052370D01*
X227305792Y-64839707D01*
X227198716Y-64616094D01*
X227109766Y-64382307D01*
X227039542Y-64139123D01*
X226988641Y-63887317D01*
X226970624Y-63758423D01*
X226957662Y-63627664D01*
X226949830Y-63495139D01*
X226947202Y-63360942D01*
X226947202Y-52891116D01*
X226944627Y-52789551D01*
X226936983Y-52689305D01*
X226924397Y-52590502D01*
X226906994Y-52493268D01*
X226884897Y-52397727D01*
X226858232Y-52304005D01*
X226827125Y-52212227D01*
X226791700Y-52122517D01*
X226752081Y-52035000D01*
X226708395Y-51949802D01*
X226660766Y-51867047D01*
X226609319Y-51786861D01*
X226554178Y-51709368D01*
X226495470Y-51634693D01*
X226433318Y-51562962D01*
X226367848Y-51494298D01*
X226299185Y-51428828D01*
X226227454Y-51366677D01*
X226152779Y-51307968D01*
X226075286Y-51252827D01*
X225995100Y-51201380D01*
X225912345Y-51153751D01*
X225827147Y-51110064D01*
X225739630Y-51070446D01*
X225649920Y-51035020D01*
X225558142Y-51003913D01*
X225464420Y-50977248D01*
X225368879Y-50955152D01*
X225271645Y-50937748D01*
X225172842Y-50925162D01*
X225072595Y-50917519D01*
X224971030Y-50914943D01*
X224869465Y-50917519D01*
X224769219Y-50925162D01*
X224670416Y-50937748D01*
X224573182Y-50955152D01*
X224477641Y-50977248D01*
X224383919Y-51003913D01*
X224292141Y-51035020D01*
X224202431Y-51070445D01*
X224114914Y-51110064D01*
X224029716Y-51153750D01*
X223946961Y-51201379D01*
X223866775Y-51252827D01*
X223789282Y-51307967D01*
X223714607Y-51366676D01*
X223642876Y-51428827D01*
X223574213Y-51494297D01*
X223508743Y-51562961D01*
X223446591Y-51634692D01*
X223387883Y-51709367D01*
X223332742Y-51786860D01*
X223281295Y-51867046D01*
X223233665Y-51949801D01*
X223189979Y-52034999D01*
X223150361Y-52122515D01*
X223114935Y-52212226D01*
X223083828Y-52304004D01*
X223057163Y-52397726D01*
X223035067Y-52493267D01*
X223017663Y-52590501D01*
X223005077Y-52689304D01*
X222997434Y-52789551D01*
X222994858Y-52891116D01*
X222994858Y-64509233D01*
X222992304Y-64609851D01*
X222984725Y-64709168D01*
X222972245Y-64807060D01*
X222954988Y-64903401D01*
X222933078Y-64998069D01*
X222906639Y-65090938D01*
X222875796Y-65181886D01*
X222840672Y-65270786D01*
X222801392Y-65357517D01*
X222758080Y-65441953D01*
X222710860Y-65523970D01*
X222659855Y-65603445D01*
X222605191Y-65680253D01*
X222546991Y-65754269D01*
X222485380Y-65825371D01*
X222420481Y-65893433D01*
X222352419Y-65958332D01*
X222281317Y-66019943D01*
X222207300Y-66078143D01*
X222130493Y-66132807D01*
X222051018Y-66183811D01*
X221969000Y-66231031D01*
X221884564Y-66274344D01*
X221797834Y-66313624D01*
X221708933Y-66348747D01*
X221617986Y-66379590D01*
X221525116Y-66406029D01*
X221430449Y-66427939D01*
X221334107Y-66445196D01*
X221236216Y-66457676D01*
X221136899Y-66465255D01*
X221036281Y-66467809D01*
X220935662Y-66465255D01*
X220836345Y-66457676D01*
X220738454Y-66445196D01*
X220642113Y-66427939D01*
X220547445Y-66406029D01*
X220454576Y-66379590D01*
X220363629Y-66348747D01*
X220274728Y-66313624D01*
X220187997Y-66274344D01*
X220103561Y-66231031D01*
X220021544Y-66183811D01*
X219942069Y-66132807D01*
X219865261Y-66078143D01*
X219791245Y-66019943D01*
X219720143Y-65958332D01*
X219652081Y-65893433D01*
X219587182Y-65825371D01*
X219525570Y-65754269D01*
X219467370Y-65680253D01*
X219412706Y-65603445D01*
X219361702Y-65523970D01*
X219314481Y-65441953D01*
X219271169Y-65357517D01*
X219231889Y-65270786D01*
X219196765Y-65181886D01*
X219165922Y-65090938D01*
X219139483Y-64998069D01*
X219117573Y-64903401D01*
X219100316Y-64807060D01*
X219087836Y-64709168D01*
X219080257Y-64609851D01*
X219077703Y-64509233D01*
X219077703Y-52890187D01*
X219085386Y-52587385D01*
X219108188Y-52288505D01*
X219145734Y-51993919D01*
X219197652Y-51704002D01*
X219263569Y-51419127D01*
X219343111Y-51139666D01*
X219435905Y-50865993D01*
X219541577Y-50598481D01*
X219659756Y-50337503D01*
X219790067Y-50083433D01*
X219932136Y-49836644D01*
X220085592Y-49597508D01*
X220250061Y-49366400D01*
X220425170Y-49143691D01*
X220610544Y-48929757D01*
X220805812Y-48724969D01*
X221010600Y-48529701D01*
X221224535Y-48344326D01*
X221447243Y-48169218D01*
X221678351Y-48004749D01*
X221917487Y-47851293D01*
X222164276Y-47709223D01*
X222418347Y-47578913D01*
X222679324Y-47460734D01*
X222946836Y-47355062D01*
X223220510Y-47262268D01*
X223499971Y-47182726D01*
X223784846Y-47116809D01*
X224074763Y-47064891D01*
X224369349Y-47027345D01*
X224668229Y-47004543D01*
X224971031Y-46996860D01*
X225273834Y-47004543D01*
G37*
G36*
X264397735Y-63259783D02*
G01*
X264461284Y-63264631D01*
X264523925Y-63272614D01*
X264585577Y-63283654D01*
X264646163Y-63297670D01*
X264705600Y-63314584D01*
X264763811Y-63334316D01*
X264820716Y-63356788D01*
X264876234Y-63381919D01*
X264930286Y-63409632D01*
X264982792Y-63439846D01*
X265033673Y-63472483D01*
X265082848Y-63507464D01*
X265130239Y-63544708D01*
X265175766Y-63584138D01*
X265219348Y-63625673D01*
X265260906Y-63669235D01*
X265300361Y-63714744D01*
X265337632Y-63762122D01*
X265372641Y-63811288D01*
X265405306Y-63862165D01*
X265435550Y-63914672D01*
X265463291Y-63968731D01*
X265488450Y-64024262D01*
X265510948Y-64081186D01*
X265530705Y-64139424D01*
X265547641Y-64198896D01*
X265561677Y-64259525D01*
X265572732Y-64321229D01*
X265580727Y-64383931D01*
X265585583Y-64447551D01*
X265587219Y-64512010D01*
X265585583Y-64576469D01*
X265580727Y-64640089D01*
X265572732Y-64702791D01*
X265561677Y-64764496D01*
X265547641Y-64825124D01*
X265530706Y-64884597D01*
X265510949Y-64942836D01*
X265488451Y-64999760D01*
X265463292Y-65055291D01*
X265435551Y-65109350D01*
X265405308Y-65161857D01*
X265372642Y-65212734D01*
X265337634Y-65261900D01*
X265300363Y-65309278D01*
X265260908Y-65354787D01*
X265219350Y-65398349D01*
X265175768Y-65439885D01*
X265130242Y-65479314D01*
X265082851Y-65516559D01*
X265033675Y-65551539D01*
X264982794Y-65584176D01*
X264930288Y-65614390D01*
X264876236Y-65642103D01*
X264820718Y-65667235D01*
X264763814Y-65689706D01*
X264705602Y-65709439D01*
X264646164Y-65726353D01*
X264585579Y-65740369D01*
X264523926Y-65751408D01*
X264461285Y-65759391D01*
X264397736Y-65764239D01*
X264333358Y-65765873D01*
X264268900Y-65764237D01*
X264205280Y-65759381D01*
X264142579Y-65751386D01*
X264080874Y-65740331D01*
X264020246Y-65726295D01*
X263960774Y-65709359D01*
X263902536Y-65689603D01*
X263845612Y-65667105D01*
X263790081Y-65641945D01*
X263736023Y-65614204D01*
X263683516Y-65583960D01*
X263632640Y-65551295D01*
X263583473Y-65516286D01*
X263536096Y-65479015D01*
X263490587Y-65439560D01*
X263447025Y-65398002D01*
X263405490Y-65354420D01*
X263366061Y-65308893D01*
X263328816Y-65261502D01*
X263293836Y-65212326D01*
X263261199Y-65161445D01*
X263230985Y-65108939D01*
X263203272Y-65054887D01*
X263178141Y-64999369D01*
X263155669Y-64942464D01*
X263135937Y-64884253D01*
X263119023Y-64824815D01*
X263105007Y-64764230D01*
X263093968Y-64702577D01*
X263085985Y-64639936D01*
X263081137Y-64576387D01*
X263079503Y-64512010D01*
X263081139Y-64447551D01*
X263085995Y-64383931D01*
X263093990Y-64321229D01*
X263105045Y-64259525D01*
X263119080Y-64198896D01*
X263136016Y-64139424D01*
X263155773Y-64081186D01*
X263178271Y-64024262D01*
X263203430Y-63968731D01*
X263231171Y-63914672D01*
X263261414Y-63862165D01*
X263294080Y-63811288D01*
X263329088Y-63762122D01*
X263366359Y-63714744D01*
X263405813Y-63669235D01*
X263447371Y-63625673D01*
X263490953Y-63584138D01*
X263536479Y-63544708D01*
X263583870Y-63507464D01*
X263633046Y-63472483D01*
X263683926Y-63439846D01*
X263736432Y-63409632D01*
X263790484Y-63381919D01*
X263846002Y-63356788D01*
X263902906Y-63334316D01*
X263961117Y-63314584D01*
X264020554Y-63297670D01*
X264081139Y-63283654D01*
X264142792Y-63272614D01*
X264205432Y-63264631D01*
X264268981Y-63259783D01*
X264333358Y-63258149D01*
X264397735Y-63259783D01*
G37*
D11*
X93494360Y-59872419D02*
X93684836Y-59872419D01*
X93684836Y-59872419D02*
X93780074Y-59920038D01*
X93780074Y-59920038D02*
X93875312Y-60015276D01*
X93875312Y-60015276D02*
X93922931Y-60205752D01*
X93922931Y-60205752D02*
X93922931Y-60539085D01*
X93922931Y-60539085D02*
X93875312Y-60729561D01*
X93875312Y-60729561D02*
X93780074Y-60824800D01*
X93780074Y-60824800D02*
X93684836Y-60872419D01*
X93684836Y-60872419D02*
X93494360Y-60872419D01*
X93494360Y-60872419D02*
X93399122Y-60824800D01*
X93399122Y-60824800D02*
X93303884Y-60729561D01*
X93303884Y-60729561D02*
X93256265Y-60539085D01*
X93256265Y-60539085D02*
X93256265Y-60205752D01*
X93256265Y-60205752D02*
X93303884Y-60015276D01*
X93303884Y-60015276D02*
X93399122Y-59920038D01*
X93399122Y-59920038D02*
X93494360Y-59872419D01*
X94780074Y-60205752D02*
X94780074Y-60872419D01*
X94351503Y-60205752D02*
X94351503Y-60729561D01*
X94351503Y-60729561D02*
X94399122Y-60824800D01*
X94399122Y-60824800D02*
X94494360Y-60872419D01*
X94494360Y-60872419D02*
X94637217Y-60872419D01*
X94637217Y-60872419D02*
X94732455Y-60824800D01*
X94732455Y-60824800D02*
X94780074Y-60777180D01*
X95113408Y-60205752D02*
X95494360Y-60205752D01*
X95256265Y-59872419D02*
X95256265Y-60729561D01*
X95256265Y-60729561D02*
X95303884Y-60824800D01*
X95303884Y-60824800D02*
X95399122Y-60872419D01*
X95399122Y-60872419D02*
X95494360Y-60872419D01*
X96399122Y-60872419D02*
X96065789Y-60396228D01*
X95827694Y-60872419D02*
X95827694Y-59872419D01*
X95827694Y-59872419D02*
X96208646Y-59872419D01*
X96208646Y-59872419D02*
X96303884Y-59920038D01*
X96303884Y-59920038D02*
X96351503Y-59967657D01*
X96351503Y-59967657D02*
X96399122Y-60062895D01*
X96399122Y-60062895D02*
X96399122Y-60205752D01*
X96399122Y-60205752D02*
X96351503Y-60300990D01*
X96351503Y-60300990D02*
X96303884Y-60348609D01*
X96303884Y-60348609D02*
X96208646Y-60396228D01*
X96208646Y-60396228D02*
X95827694Y-60396228D01*
G36*
X105559331Y-54000000D02*
G01*
X104230650Y-49446092D01*
X104203478Y-49446092D01*
X104237672Y-50356202D01*
X104237672Y-54000000D01*
X103916493Y-54000000D01*
X103916493Y-48997906D01*
X104411695Y-48997906D01*
X105531854Y-52823054D01*
X105660637Y-53313426D01*
X105726638Y-53685232D01*
X105753810Y-53685232D01*
X105812747Y-53390441D01*
X105965690Y-52829771D01*
X107075774Y-48997906D01*
X107588379Y-48997906D01*
X107588379Y-54000000D01*
X107253461Y-54000000D01*
X107253461Y-50383374D01*
X107287655Y-49452808D01*
X107260483Y-49452808D01*
X105938518Y-54000000D01*
X105559331Y-54000000D01*
G37*
G36*
X110494258Y-54000000D02*
G01*
X108684113Y-54000000D01*
X108684113Y-48997906D01*
X110494258Y-48997906D01*
X110494258Y-49319085D01*
X109018726Y-49319085D01*
X109018726Y-51225401D01*
X110412437Y-51225401D01*
X110412437Y-51546580D01*
X109018726Y-51546580D01*
X109018726Y-53678820D01*
X110494258Y-53678820D01*
X110494258Y-54000000D01*
G37*
G36*
X113018508Y-54000000D02*
G01*
X111689827Y-49446092D01*
X111662655Y-49446092D01*
X111696849Y-50356202D01*
X111696849Y-54000000D01*
X111375669Y-54000000D01*
X111375669Y-48997906D01*
X111870872Y-48997906D01*
X112991031Y-52823054D01*
X113119813Y-53313426D01*
X113185814Y-53685232D01*
X113212986Y-53685232D01*
X113271923Y-53390441D01*
X113424867Y-52829771D01*
X114534951Y-48997906D01*
X115047555Y-48997906D01*
X115047555Y-54000000D01*
X114712637Y-54000000D01*
X114712637Y-50383374D01*
X114746831Y-49452808D01*
X114719659Y-49452808D01*
X113397695Y-54000000D01*
X113018508Y-54000000D01*
G37*
G36*
X116143290Y-54000000D02*
G01*
X116143290Y-48997906D01*
X116477903Y-48997906D01*
X116477903Y-53678820D01*
X117885352Y-53678820D01*
X117885352Y-54000000D01*
X116143290Y-54000000D01*
G37*
G36*
X121200949Y-54000000D02*
G01*
X120774134Y-54000000D01*
X118885221Y-49514480D01*
X118858049Y-49514480D01*
X118888944Y-49975879D01*
X118898960Y-50410851D01*
X118898960Y-54000000D01*
X118571064Y-54000000D01*
X118571064Y-48997906D01*
X119004900Y-48997906D01*
X120880075Y-53432135D01*
X120900530Y-53432135D01*
X120873053Y-52494548D01*
X120873053Y-48997906D01*
X121200949Y-48997906D01*
X121200949Y-54000000D01*
G37*
G36*
X123308688Y-50249442D02*
G01*
X123487850Y-50306186D01*
X123629943Y-50395135D01*
X123741685Y-50517096D01*
X123843239Y-50721255D01*
X123915088Y-51029995D01*
X123943185Y-51480329D01*
X123943185Y-54000000D01*
X123676655Y-54000000D01*
X123635744Y-53490143D01*
X123622006Y-53490143D01*
X123461789Y-53760379D01*
X123277123Y-53938519D01*
X123065144Y-54042535D01*
X122816004Y-54078157D01*
X122588860Y-54045505D01*
X122397788Y-53950545D01*
X122233485Y-53788424D01*
X122115760Y-53584242D01*
X122040546Y-53329632D01*
X122013831Y-53017227D01*
X122354691Y-53017227D01*
X122373975Y-53286807D01*
X122424428Y-53479713D01*
X122498183Y-53614706D01*
X122605500Y-53720413D01*
X122733019Y-53782919D01*
X122887445Y-53804605D01*
X123050813Y-53783271D01*
X123192307Y-53720981D01*
X123317591Y-53615345D01*
X123429054Y-53457780D01*
X123529226Y-53217853D01*
X123596743Y-52897356D01*
X123622006Y-52475314D01*
X123622006Y-52085136D01*
X123236102Y-52105896D01*
X122946582Y-52148699D01*
X122730651Y-52234017D01*
X122571456Y-52356245D01*
X122456079Y-52520098D01*
X122381907Y-52735308D01*
X122354691Y-53017227D01*
X122013831Y-53017227D01*
X122013361Y-53011732D01*
X122035037Y-52749087D01*
X122096514Y-52525677D01*
X122194938Y-52334401D01*
X122330877Y-52170010D01*
X122497931Y-52037426D01*
X122697864Y-51935985D01*
X122936744Y-51866384D01*
X123222363Y-51832039D01*
X123622006Y-51811584D01*
X123622006Y-51506891D01*
X123603988Y-51162283D01*
X123557644Y-50920828D01*
X123492252Y-50757370D01*
X123387927Y-50627590D01*
X123248404Y-50549824D01*
X123061774Y-50521981D01*
X122855512Y-50543676D01*
X122640653Y-50611142D01*
X122413004Y-50730504D01*
X122272869Y-50473133D01*
X122538407Y-50335789D01*
X122806834Y-50255516D01*
X123082534Y-50228890D01*
X123308688Y-50249442D01*
G37*
G36*
X125229734Y-50287508D02*
G01*
X125229734Y-52717114D01*
X125247995Y-53087586D01*
X125294947Y-53347458D01*
X125361015Y-53523421D01*
X125466896Y-53666810D01*
X125598928Y-53749024D01*
X125765847Y-53777433D01*
X125967584Y-53754746D01*
X126132742Y-53690572D01*
X126269504Y-53586054D01*
X126382255Y-53436104D01*
X126481209Y-53197774D01*
X126551480Y-52842834D01*
X126578871Y-52332737D01*
X126578871Y-50287508D01*
X126900050Y-50287508D01*
X126900050Y-54000000D01*
X126626803Y-54000000D01*
X126585893Y-53488005D01*
X126558415Y-53488005D01*
X126412412Y-53744403D01*
X126227161Y-53925505D01*
X126004609Y-54040443D01*
X125766153Y-54078157D01*
X125547940Y-54056209D01*
X125371556Y-53994811D01*
X125228052Y-53896682D01*
X125111887Y-53759115D01*
X125007579Y-53534601D01*
X124933901Y-53199499D01*
X124905197Y-52716198D01*
X124905197Y-50287508D01*
X125229734Y-50287508D01*
G37*
G36*
X128568534Y-53777433D02*
G01*
X128713834Y-53766675D01*
X128835064Y-53736523D01*
X128835064Y-54009769D01*
X128672442Y-54059427D01*
X128449160Y-54078157D01*
X128250630Y-54046662D01*
X128099986Y-53957572D01*
X127985072Y-53805689D01*
X127906017Y-53569837D01*
X127875190Y-53216896D01*
X127875190Y-50574494D01*
X127540577Y-50574494D01*
X127540577Y-50383068D01*
X127868473Y-50287508D01*
X127974413Y-49408234D01*
X128199727Y-49408234D01*
X128199727Y-50287508D01*
X128787437Y-50287508D01*
X128787437Y-50574494D01*
X128199727Y-50574494D01*
X128199727Y-53125305D01*
X128225094Y-53471129D01*
X128281549Y-53640047D01*
X128347108Y-53714236D01*
X128439568Y-53760425D01*
X128568534Y-53777433D01*
G37*
X160944491Y-79812484D02*
X161420681Y-79812484D01*
X160849253Y-80098199D02*
X161182586Y-79098199D01*
X161182586Y-79098199D02*
X161515919Y-80098199D01*
X185000000Y-123396228D02*
X185000000Y-123872419D01*
X184666667Y-122872419D02*
X185000000Y-123396228D01*
X185000000Y-123396228D02*
X185333333Y-122872419D01*
G36*
X102013534Y-44310000D02*
G01*
X102013534Y-43305673D01*
X101855387Y-43305673D01*
X101620181Y-44158935D01*
X101383571Y-43305673D01*
X101223958Y-43305673D01*
X101223958Y-44310000D01*
X101331791Y-44310000D01*
X101331791Y-43716917D01*
X101330270Y-43580703D01*
X101328982Y-43459546D01*
X101564188Y-44310000D01*
X101673365Y-44310000D01*
X101908571Y-43458203D01*
X101906640Y-43626371D01*
X101905762Y-43716917D01*
X101905762Y-44310000D01*
X102013534Y-44310000D01*
G37*
G36*
X102311022Y-43305673D02*
G01*
X102200441Y-43305673D01*
X102200441Y-44310000D01*
X102311022Y-44310000D01*
X102311022Y-43305673D01*
G37*
G36*
X102909462Y-43312913D02*
G01*
X102942229Y-43322099D01*
X102973270Y-43334861D01*
X103003087Y-43351458D01*
X103030962Y-43371560D01*
X103057618Y-43395872D01*
X103082045Y-43423682D01*
X103104957Y-43456129D01*
X103125286Y-43492083D01*
X103143549Y-43532950D01*
X103158831Y-43577298D01*
X103171363Y-43626537D01*
X103180503Y-43679158D01*
X103186225Y-43736315D01*
X103188159Y-43796662D01*
X103187434Y-43834214D01*
X103175589Y-43948069D01*
X103150762Y-44048031D01*
X103115087Y-44132842D01*
X103070556Y-44202227D01*
X103029080Y-44244323D01*
X103002246Y-44263833D01*
X102973300Y-44280010D01*
X102941989Y-44292932D01*
X102908867Y-44302285D01*
X102873558Y-44308058D01*
X102836755Y-44310000D01*
X102506355Y-44310000D01*
X102506355Y-44193801D01*
X102618340Y-44193801D01*
X102833946Y-44193801D01*
X102877149Y-44189357D01*
X102903406Y-44181742D01*
X102928011Y-44170515D01*
X102951683Y-44155184D01*
X102973455Y-44136186D01*
X102994314Y-44112258D01*
X103012906Y-44084480D01*
X103030089Y-44050891D01*
X103044537Y-44013245D01*
X103056724Y-43969244D01*
X103065651Y-43921056D01*
X103071370Y-43866529D01*
X103073304Y-43807836D01*
X103073282Y-43801117D01*
X103065737Y-43690650D01*
X103046651Y-43603582D01*
X103018467Y-43536695D01*
X102982694Y-43486839D01*
X102939630Y-43451544D01*
X102914953Y-43438870D01*
X102888327Y-43429682D01*
X102858642Y-43423878D01*
X102826924Y-43421933D01*
X102618340Y-43421933D01*
X102618340Y-44193801D01*
X102506355Y-44193801D01*
X102506355Y-43305673D01*
X102840907Y-43305673D01*
X102909462Y-43312913D01*
G37*
G36*
X103457986Y-43305673D02*
G01*
X103347405Y-43305673D01*
X103347405Y-44310000D01*
X103457986Y-44310000D01*
X103457986Y-43305673D01*
G37*
G36*
X104366687Y-43279832D02*
G01*
X104439261Y-43293714D01*
X104472928Y-43305973D01*
X104504878Y-43321748D01*
X104535401Y-43341257D01*
X104564041Y-43364303D01*
X104591413Y-43391601D01*
X104616670Y-43422557D01*
X104640535Y-43458451D01*
X104661981Y-43498197D01*
X104681366Y-43543907D01*
X104697590Y-43592742D01*
X104710684Y-43644989D01*
X104720192Y-43699263D01*
X104727805Y-43809241D01*
X104727055Y-43844237D01*
X104714779Y-43952452D01*
X104688687Y-44051038D01*
X104650780Y-44137389D01*
X104603180Y-44209982D01*
X104592165Y-44223126D01*
X104566823Y-44248896D01*
X104539106Y-44271510D01*
X104508859Y-44291084D01*
X104476512Y-44307306D01*
X104441740Y-44320263D01*
X104405146Y-44329636D01*
X104366318Y-44335413D01*
X104325964Y-44337355D01*
X104303557Y-44336763D01*
X104227495Y-44325192D01*
X104159168Y-44299680D01*
X104099349Y-44261099D01*
X104072866Y-44237088D01*
X104048810Y-44209982D01*
X104037098Y-44194533D01*
X104012117Y-44156589D01*
X103990063Y-44115653D01*
X103970541Y-44070735D01*
X103954306Y-44023213D01*
X103941290Y-43972612D01*
X103931863Y-43919913D01*
X103926121Y-43865334D01*
X103924185Y-43809241D01*
X104038979Y-43809241D01*
X104040320Y-43854144D01*
X104053516Y-43950803D01*
X104078912Y-44032394D01*
X104114182Y-44098472D01*
X104157386Y-44149372D01*
X104207291Y-44185741D01*
X104263441Y-44207949D01*
X104293969Y-44213666D01*
X104325964Y-44215600D01*
X104342285Y-44215105D01*
X104373508Y-44211257D01*
X104403224Y-44203696D01*
X104431836Y-44192311D01*
X104458704Y-44177332D01*
X104484526Y-44158225D01*
X104508290Y-44135561D01*
X104530713Y-44108367D01*
X104550687Y-44077636D01*
X104568716Y-44042149D01*
X104583854Y-44003196D01*
X104596293Y-43959627D01*
X104605391Y-43912760D01*
X104611081Y-43861808D01*
X104613011Y-43807836D01*
X104611799Y-43765326D01*
X104598800Y-43668019D01*
X104573441Y-43585401D01*
X104538170Y-43518343D01*
X104495135Y-43466761D01*
X104445801Y-43430060D01*
X104390817Y-43407775D01*
X104361172Y-43402066D01*
X104330177Y-43400134D01*
X104310778Y-43400782D01*
X104278814Y-43404856D01*
X104248509Y-43412584D01*
X104219626Y-43424004D01*
X104192590Y-43438943D01*
X104166794Y-43457859D01*
X104143116Y-43480260D01*
X104120836Y-43507114D01*
X104101028Y-43537472D01*
X104083118Y-43572690D01*
X104068099Y-43611417D01*
X104055691Y-43655120D01*
X104046624Y-43702265D01*
X104040912Y-43754117D01*
X104038979Y-43809241D01*
X103924185Y-43809241D01*
X103925288Y-43766059D01*
X103938466Y-43656937D01*
X103965017Y-43558886D01*
X104002590Y-43474718D01*
X104048810Y-43405751D01*
X104060545Y-43392057D01*
X104114403Y-43343481D01*
X104144485Y-43324148D01*
X104176617Y-43308172D01*
X104211494Y-43295357D01*
X104248451Y-43286092D01*
X104288929Y-43280266D01*
X104331582Y-43278318D01*
X104366687Y-43279832D01*
G37*
G36*
X105333771Y-44310000D02*
G01*
X105333771Y-43579225D01*
X105232960Y-43579225D01*
X105232960Y-43981676D01*
X105231035Y-44024278D01*
X105225372Y-44063399D01*
X105216565Y-44097498D01*
X105204613Y-44127938D01*
X105190540Y-44153186D01*
X105173914Y-44174777D01*
X105155973Y-44191652D01*
X105135976Y-44204941D01*
X105114886Y-44214202D01*
X105092088Y-44219856D01*
X105067730Y-44221767D01*
X105043802Y-44219818D01*
X105022604Y-44213995D01*
X105005451Y-44205196D01*
X104990646Y-44193142D01*
X104968211Y-44159584D01*
X104954630Y-44109849D01*
X104951531Y-44062887D01*
X104951531Y-43579225D01*
X104850720Y-43579225D01*
X104850720Y-44103309D01*
X104852656Y-44142082D01*
X104858393Y-44177596D01*
X104867246Y-44208143D01*
X104879329Y-44235533D01*
X104893763Y-44258593D01*
X104910969Y-44278590D01*
X104930267Y-44294995D01*
X104952034Y-44308329D01*
X105002707Y-44325432D01*
X105048129Y-44329539D01*
X105082887Y-44328067D01*
X105113605Y-44322104D01*
X105136493Y-44313421D01*
X105157551Y-44301036D01*
X105195142Y-44264924D01*
X105234371Y-44204351D01*
X105238517Y-44196610D01*
X105238517Y-44310000D01*
X105333771Y-44310000D01*
G37*
G36*
X105705692Y-43681441D02*
G01*
X105705692Y-43579225D01*
X105607690Y-43579225D01*
X105607690Y-43374855D01*
X105506939Y-43374855D01*
X105506939Y-43579225D01*
X105425729Y-43579225D01*
X105425729Y-43681441D01*
X105506939Y-43681441D01*
X105506939Y-44164858D01*
X105508903Y-44203907D01*
X105514830Y-44237233D01*
X105523115Y-44261315D01*
X105534394Y-44281292D01*
X105547140Y-44295810D01*
X105562367Y-44307075D01*
X105599649Y-44319882D01*
X105624481Y-44321723D01*
X105659530Y-44317571D01*
X105698224Y-44310912D01*
X105704288Y-44310000D01*
X105704288Y-44213585D01*
X105669300Y-44213585D01*
X105646832Y-44212303D01*
X105629749Y-44206617D01*
X105620065Y-44199036D01*
X105613256Y-44188512D01*
X105607690Y-44156310D01*
X105607690Y-43681441D01*
X105705692Y-43681441D01*
G37*
G36*
X125163534Y-44310000D02*
G01*
X125163534Y-43305673D01*
X125005387Y-43305673D01*
X124770181Y-44158935D01*
X124533571Y-43305673D01*
X124373958Y-43305673D01*
X124373958Y-44310000D01*
X124481791Y-44310000D01*
X124481791Y-43716917D01*
X124480270Y-43580703D01*
X124478982Y-43459546D01*
X124714188Y-44310000D01*
X124823365Y-44310000D01*
X125058571Y-43458203D01*
X125056640Y-43626371D01*
X125055762Y-43716917D01*
X125055762Y-44310000D01*
X125163534Y-44310000D01*
G37*
G36*
X125461022Y-43305673D02*
G01*
X125350441Y-43305673D01*
X125350441Y-44310000D01*
X125461022Y-44310000D01*
X125461022Y-43305673D01*
G37*
G36*
X126059462Y-43312913D02*
G01*
X126092229Y-43322099D01*
X126123270Y-43334861D01*
X126153087Y-43351458D01*
X126180962Y-43371560D01*
X126207618Y-43395872D01*
X126232045Y-43423682D01*
X126254957Y-43456129D01*
X126275286Y-43492083D01*
X126293549Y-43532950D01*
X126308831Y-43577298D01*
X126321363Y-43626537D01*
X126330503Y-43679158D01*
X126336225Y-43736315D01*
X126338159Y-43796662D01*
X126337434Y-43834214D01*
X126325589Y-43948069D01*
X126300762Y-44048031D01*
X126265087Y-44132842D01*
X126220556Y-44202227D01*
X126179080Y-44244323D01*
X126152246Y-44263833D01*
X126123300Y-44280010D01*
X126091989Y-44292932D01*
X126058867Y-44302285D01*
X126023558Y-44308058D01*
X125986755Y-44310000D01*
X125656355Y-44310000D01*
X125656355Y-44193801D01*
X125768340Y-44193801D01*
X125983946Y-44193801D01*
X126027149Y-44189357D01*
X126053406Y-44181742D01*
X126078011Y-44170515D01*
X126101683Y-44155184D01*
X126123455Y-44136186D01*
X126144314Y-44112258D01*
X126162906Y-44084480D01*
X126180089Y-44050891D01*
X126194537Y-44013245D01*
X126206724Y-43969244D01*
X126215651Y-43921056D01*
X126221370Y-43866529D01*
X126223304Y-43807836D01*
X126223282Y-43801117D01*
X126215737Y-43690650D01*
X126196651Y-43603582D01*
X126168467Y-43536695D01*
X126132694Y-43486839D01*
X126089630Y-43451544D01*
X126064953Y-43438870D01*
X126038327Y-43429682D01*
X126008642Y-43423878D01*
X125976924Y-43421933D01*
X125768340Y-43421933D01*
X125768340Y-44193801D01*
X125656355Y-44193801D01*
X125656355Y-43305673D01*
X125990907Y-43305673D01*
X126059462Y-43312913D01*
G37*
G36*
X126607986Y-43305673D02*
G01*
X126497405Y-43305673D01*
X126497405Y-44310000D01*
X126607986Y-44310000D01*
X126607986Y-43305673D01*
G37*
G36*
X127244972Y-43305673D02*
G01*
X127134391Y-43305673D01*
X127134391Y-44310000D01*
X127244972Y-44310000D01*
X127244972Y-43305673D01*
G37*
G36*
X127517302Y-43579225D02*
G01*
X127422109Y-43579225D01*
X127422109Y-44310000D01*
X127522859Y-44310000D01*
X127522859Y-43911823D01*
X127524788Y-43866725D01*
X127530474Y-43825646D01*
X127539209Y-43790559D01*
X127551064Y-43759434D01*
X127564904Y-43733989D01*
X127581270Y-43712312D01*
X127598900Y-43695465D01*
X127618589Y-43682197D01*
X127639484Y-43672886D01*
X127662138Y-43667127D01*
X127688089Y-43665015D01*
X127713465Y-43666989D01*
X127735750Y-43672987D01*
X127753008Y-43681783D01*
X127767930Y-43693928D01*
X127790649Y-43727900D01*
X127805651Y-43780110D01*
X127811310Y-43858517D01*
X127811310Y-44310000D01*
X127912060Y-44310000D01*
X127912060Y-43810828D01*
X127910122Y-43767312D01*
X127904373Y-43727474D01*
X127895544Y-43693384D01*
X127883491Y-43662793D01*
X127869227Y-43637224D01*
X127852230Y-43614963D01*
X127833434Y-43596815D01*
X127812249Y-43581874D01*
X127763688Y-43562121D01*
X127709094Y-43555778D01*
X127677096Y-43558744D01*
X127647546Y-43565798D01*
X127622754Y-43575884D01*
X127599513Y-43589700D01*
X127557222Y-43628838D01*
X127517302Y-43687058D01*
X127517302Y-43579225D01*
G37*
X93303884Y-43872419D02*
X93303884Y-42872419D01*
X93780074Y-43205752D02*
X93780074Y-43872419D01*
X93780074Y-43300990D02*
X93827693Y-43253371D01*
X93827693Y-43253371D02*
X93922931Y-43205752D01*
X93922931Y-43205752D02*
X94065788Y-43205752D01*
X94065788Y-43205752D02*
X94161026Y-43253371D01*
X94161026Y-43253371D02*
X94208645Y-43348609D01*
X94208645Y-43348609D02*
X94208645Y-43872419D01*
X95256264Y-43872419D02*
X94922931Y-43396228D01*
X94684836Y-43872419D02*
X94684836Y-42872419D01*
X94684836Y-42872419D02*
X95065788Y-42872419D01*
X95065788Y-42872419D02*
X95161026Y-42920038D01*
X95161026Y-42920038D02*
X95208645Y-42967657D01*
X95208645Y-42967657D02*
X95256264Y-43062895D01*
X95256264Y-43062895D02*
X95256264Y-43205752D01*
X95256264Y-43205752D02*
X95208645Y-43300990D01*
X95208645Y-43300990D02*
X95161026Y-43348609D01*
X95161026Y-43348609D02*
X95065788Y-43396228D01*
X95065788Y-43396228D02*
X94684836Y-43396228D01*
X64494360Y-59872419D02*
X64684836Y-59872419D01*
X64684836Y-59872419D02*
X64780074Y-59920038D01*
X64780074Y-59920038D02*
X64875312Y-60015276D01*
X64875312Y-60015276D02*
X64922931Y-60205752D01*
X64922931Y-60205752D02*
X64922931Y-60539085D01*
X64922931Y-60539085D02*
X64875312Y-60729561D01*
X64875312Y-60729561D02*
X64780074Y-60824800D01*
X64780074Y-60824800D02*
X64684836Y-60872419D01*
X64684836Y-60872419D02*
X64494360Y-60872419D01*
X64494360Y-60872419D02*
X64399122Y-60824800D01*
X64399122Y-60824800D02*
X64303884Y-60729561D01*
X64303884Y-60729561D02*
X64256265Y-60539085D01*
X64256265Y-60539085D02*
X64256265Y-60205752D01*
X64256265Y-60205752D02*
X64303884Y-60015276D01*
X64303884Y-60015276D02*
X64399122Y-59920038D01*
X64399122Y-59920038D02*
X64494360Y-59872419D01*
X65780074Y-60205752D02*
X65780074Y-60872419D01*
X65351503Y-60205752D02*
X65351503Y-60729561D01*
X65351503Y-60729561D02*
X65399122Y-60824800D01*
X65399122Y-60824800D02*
X65494360Y-60872419D01*
X65494360Y-60872419D02*
X65637217Y-60872419D01*
X65637217Y-60872419D02*
X65732455Y-60824800D01*
X65732455Y-60824800D02*
X65780074Y-60777180D01*
X66113408Y-60205752D02*
X66494360Y-60205752D01*
X66256265Y-59872419D02*
X66256265Y-60729561D01*
X66256265Y-60729561D02*
X66303884Y-60824800D01*
X66303884Y-60824800D02*
X66399122Y-60872419D01*
X66399122Y-60872419D02*
X66494360Y-60872419D01*
X67303884Y-60872419D02*
X66827694Y-60872419D01*
X66827694Y-60872419D02*
X66827694Y-59872419D01*
G36*
X178100664Y-43305955D02*
G01*
X178161913Y-43316144D01*
X178189345Y-43326436D01*
X178214551Y-43340004D01*
X178237554Y-43356838D01*
X178258029Y-43376702D01*
X178276110Y-43399844D01*
X178291299Y-43425811D01*
X178303671Y-43455058D01*
X178312734Y-43486920D01*
X178318411Y-43521903D01*
X178320338Y-43559258D01*
X178314341Y-43623936D01*
X178295820Y-43678864D01*
X178281336Y-43703499D01*
X178263319Y-43726121D01*
X178239470Y-43748772D01*
X178211161Y-43769490D01*
X178247772Y-43789665D01*
X178296853Y-43827802D01*
X178330108Y-43871618D01*
X178342438Y-43898412D01*
X178351291Y-43928046D01*
X178357531Y-43967071D01*
X178359539Y-44011046D01*
X178354840Y-44073196D01*
X178336558Y-44141958D01*
X178306039Y-44199709D01*
X178264563Y-44246091D01*
X178239962Y-44264893D01*
X178212935Y-44280610D01*
X178183382Y-44293190D01*
X178151616Y-44302371D01*
X178117306Y-44308069D01*
X178080980Y-44310000D01*
X177725362Y-44310000D01*
X177725362Y-44193801D01*
X177837348Y-44193801D01*
X178075362Y-44193801D01*
X178093172Y-44193181D01*
X178145989Y-44182403D01*
X178187616Y-44159429D01*
X178204741Y-44143312D01*
X178219105Y-44124290D01*
X178231089Y-44101383D01*
X178239879Y-44075485D01*
X178245617Y-44044839D01*
X178247554Y-44011046D01*
X178246888Y-43991731D01*
X178236439Y-43939359D01*
X178214364Y-43899304D01*
X178198550Y-43882830D01*
X178179679Y-43869068D01*
X178155948Y-43857290D01*
X178128688Y-43848672D01*
X178094380Y-43842822D01*
X178055762Y-43840870D01*
X177837348Y-43840870D01*
X177837348Y-44193801D01*
X177725362Y-44193801D01*
X177725362Y-43731632D01*
X177837348Y-43731632D01*
X178037566Y-43731632D01*
X178045650Y-43731549D01*
X178106124Y-43724031D01*
X178149262Y-43706025D01*
X178166112Y-43693143D01*
X178180094Y-43677565D01*
X178191871Y-43657953D01*
X178200464Y-43635190D01*
X178206390Y-43605618D01*
X178208353Y-43571898D01*
X178202613Y-43519269D01*
X178185672Y-43479274D01*
X178172759Y-43463245D01*
X178156855Y-43449922D01*
X178135893Y-43438348D01*
X178111206Y-43429899D01*
X178077703Y-43423905D01*
X178038970Y-43421933D01*
X177837348Y-43421933D01*
X177837348Y-43731632D01*
X177725362Y-43731632D01*
X177725362Y-43305673D01*
X178087941Y-43305673D01*
X178100664Y-43305955D01*
G37*
G36*
X178732933Y-43555821D02*
G01*
X178763250Y-43558361D01*
X178792262Y-43564709D01*
X178820561Y-43575025D01*
X178847262Y-43589034D01*
X178873161Y-43607308D01*
X178897087Y-43629209D01*
X178919744Y-43655647D01*
X178939983Y-43685614D01*
X178958200Y-43720064D01*
X178973525Y-43757845D01*
X178986018Y-43799602D01*
X178995166Y-43844360D01*
X179000827Y-43892228D01*
X179002752Y-43942658D01*
X179002168Y-43970813D01*
X178990805Y-44065156D01*
X178966670Y-44145940D01*
X178932173Y-44212002D01*
X178889494Y-44263131D01*
X178840187Y-44299668D01*
X178785022Y-44321909D01*
X178755264Y-44327608D01*
X178724132Y-44329539D01*
X178717592Y-44329456D01*
X178686580Y-44326712D01*
X178656979Y-44320193D01*
X178628288Y-44309780D01*
X178601279Y-44295728D01*
X178575217Y-44277522D01*
X178551187Y-44255755D01*
X178528499Y-44229549D01*
X178508263Y-44199873D01*
X178490053Y-44165737D01*
X178474752Y-44128303D01*
X178462256Y-44086802D01*
X178453113Y-44042294D01*
X178447440Y-43994482D01*
X178445512Y-43944063D01*
X178445544Y-43942658D01*
X178550537Y-43942658D01*
X178557357Y-44030938D01*
X178576114Y-44102209D01*
X178603677Y-44155343D01*
X178637823Y-44192086D01*
X178677781Y-44214131D01*
X178700218Y-44219835D01*
X178724132Y-44221767D01*
X178758707Y-44217544D01*
X178780700Y-44209870D01*
X178801104Y-44198474D01*
X178820854Y-44182526D01*
X178838609Y-44162744D01*
X178855242Y-44137571D01*
X178869335Y-44108425D01*
X178881318Y-44073531D01*
X178890150Y-44034674D01*
X178895804Y-43990523D01*
X178897728Y-43942658D01*
X178891214Y-43857364D01*
X178872444Y-43785084D01*
X178844723Y-43730872D01*
X178810662Y-43693472D01*
X178771470Y-43671235D01*
X178749846Y-43665541D01*
X178726941Y-43663611D01*
X178690020Y-43668063D01*
X178667676Y-43675757D01*
X178647050Y-43687080D01*
X178627261Y-43702793D01*
X178609542Y-43722242D01*
X178592959Y-43747042D01*
X178578951Y-43775771D01*
X178566970Y-43810518D01*
X178558160Y-43849298D01*
X178552467Y-43894015D01*
X178550537Y-43942658D01*
X178445544Y-43942658D01*
X178446243Y-43912095D01*
X178457955Y-43817635D01*
X178482189Y-43737501D01*
X178516657Y-43672277D01*
X178559421Y-43621800D01*
X178609214Y-43585592D01*
X178665512Y-43563424D01*
X178696180Y-43557710D01*
X178728346Y-43555778D01*
X178732933Y-43555821D01*
G37*
G36*
X179370895Y-43555821D02*
G01*
X179401212Y-43558361D01*
X179430224Y-43564709D01*
X179458524Y-43575025D01*
X179485224Y-43589034D01*
X179511124Y-43607308D01*
X179535050Y-43629209D01*
X179557706Y-43655647D01*
X179577945Y-43685614D01*
X179596162Y-43720064D01*
X179611487Y-43757845D01*
X179623981Y-43799602D01*
X179633128Y-43844360D01*
X179638790Y-43892228D01*
X179640715Y-43942658D01*
X179640130Y-43970813D01*
X179628767Y-44065156D01*
X179604632Y-44145940D01*
X179570135Y-44212002D01*
X179527456Y-44263131D01*
X179478149Y-44299668D01*
X179422984Y-44321909D01*
X179393227Y-44327608D01*
X179362095Y-44329539D01*
X179355554Y-44329456D01*
X179324543Y-44326712D01*
X179294941Y-44320193D01*
X179266250Y-44309780D01*
X179239241Y-44295728D01*
X179213180Y-44277522D01*
X179189150Y-44255755D01*
X179166462Y-44229549D01*
X179146225Y-44199873D01*
X179128016Y-44165737D01*
X179112714Y-44128303D01*
X179100218Y-44086802D01*
X179091076Y-44042294D01*
X179085402Y-43994482D01*
X179083475Y-43944063D01*
X179083507Y-43942658D01*
X179188499Y-43942658D01*
X179195319Y-44030938D01*
X179214076Y-44102209D01*
X179241639Y-44155343D01*
X179275785Y-44192086D01*
X179315743Y-44214131D01*
X179338181Y-44219835D01*
X179362095Y-44221767D01*
X179396669Y-44217544D01*
X179418662Y-44209870D01*
X179439066Y-44198474D01*
X179458817Y-44182526D01*
X179476571Y-44162744D01*
X179493205Y-44137571D01*
X179507297Y-44108425D01*
X179519280Y-44073531D01*
X179528112Y-44034674D01*
X179533766Y-43990523D01*
X179535690Y-43942658D01*
X179529177Y-43857364D01*
X179510406Y-43785084D01*
X179482685Y-43730872D01*
X179448624Y-43693472D01*
X179409432Y-43671235D01*
X179387809Y-43665541D01*
X179364904Y-43663611D01*
X179327982Y-43668063D01*
X179305639Y-43675757D01*
X179285013Y-43687080D01*
X179265223Y-43702793D01*
X179247504Y-43722242D01*
X179230921Y-43747042D01*
X179216913Y-43775771D01*
X179204932Y-43810518D01*
X179196122Y-43849298D01*
X179190429Y-43894015D01*
X179188499Y-43942658D01*
X179083507Y-43942658D01*
X179084205Y-43912095D01*
X179095917Y-43817635D01*
X179120151Y-43737501D01*
X179154619Y-43672277D01*
X179197384Y-43621800D01*
X179247177Y-43585592D01*
X179303475Y-43563424D01*
X179334142Y-43557710D01*
X179366308Y-43555778D01*
X179370895Y-43555821D01*
G37*
G36*
X179976243Y-43681441D02*
G01*
X179976243Y-43579225D01*
X179878241Y-43579225D01*
X179878241Y-43374855D01*
X179777491Y-43374855D01*
X179777491Y-43579225D01*
X179696280Y-43579225D01*
X179696280Y-43681441D01*
X179777491Y-43681441D01*
X179777491Y-44164858D01*
X179779454Y-44203907D01*
X179785382Y-44237233D01*
X179793667Y-44261315D01*
X179804945Y-44281292D01*
X179817691Y-44295810D01*
X179832918Y-44307075D01*
X179870200Y-44319882D01*
X179895033Y-44321723D01*
X179930081Y-44317571D01*
X179968776Y-44310912D01*
X179974839Y-44310000D01*
X179974839Y-44213585D01*
X179939851Y-44213585D01*
X179917383Y-44212303D01*
X179900300Y-44206617D01*
X179890616Y-44199036D01*
X179883807Y-44188512D01*
X179878241Y-44156310D01*
X179878241Y-43681441D01*
X179976243Y-43681441D01*
G37*
G36*
X181006643Y-43599131D02*
G01*
X180998717Y-43526365D01*
X180986691Y-43471936D01*
X180964633Y-43418391D01*
X180947742Y-43391526D01*
X180927923Y-43367319D01*
X180880062Y-43327252D01*
X180821154Y-43298432D01*
X180750971Y-43281826D01*
X180695844Y-43278318D01*
X180654015Y-43280276D01*
X180615231Y-43286166D01*
X180581872Y-43295210D01*
X180551197Y-43307706D01*
X180524483Y-43322843D01*
X180500242Y-43341150D01*
X180470469Y-43372168D01*
X180435174Y-43430289D01*
X180411460Y-43499515D01*
X180404800Y-43537165D01*
X180401938Y-43576159D01*
X180401837Y-43585087D01*
X180403789Y-43623802D01*
X180409639Y-43659426D01*
X180418610Y-43689874D01*
X180430961Y-43717595D01*
X180445941Y-43741557D01*
X180464003Y-43762992D01*
X180508902Y-43797965D01*
X180567573Y-43823382D01*
X180576837Y-43826093D01*
X180746219Y-43873721D01*
X180804239Y-43892709D01*
X180848822Y-43912956D01*
X180872434Y-43928394D01*
X180890810Y-43945615D01*
X180902973Y-43962552D01*
X180911779Y-43981556D01*
X180920666Y-44028663D01*
X180921219Y-44047438D01*
X180919280Y-44076761D01*
X180913525Y-44103592D01*
X180904573Y-44126778D01*
X180892316Y-44147574D01*
X180858915Y-44181234D01*
X180812620Y-44205336D01*
X180751390Y-44218965D01*
X180709827Y-44221156D01*
X180672634Y-44219209D01*
X180638325Y-44213398D01*
X180608751Y-44204431D01*
X180581929Y-44192111D01*
X180558952Y-44177236D01*
X180538658Y-44159362D01*
X180511074Y-44123093D01*
X180496479Y-44094230D01*
X180486694Y-44063333D01*
X180479074Y-43994748D01*
X180478834Y-43985828D01*
X180373871Y-43985828D01*
X180376761Y-44048025D01*
X180384181Y-44099895D01*
X180393345Y-44134130D01*
X180405936Y-44165206D01*
X180434077Y-44211386D01*
X180457877Y-44241313D01*
X180483579Y-44266915D01*
X180509222Y-44286812D01*
X180536951Y-44303251D01*
X180598471Y-44325906D01*
X180674005Y-44336577D01*
X180704270Y-44337355D01*
X180749002Y-44335417D01*
X180790831Y-44329670D01*
X180828307Y-44320616D01*
X180862892Y-44308200D01*
X180893493Y-44293083D01*
X180921216Y-44274986D01*
X180945430Y-44254511D01*
X180966737Y-44231344D01*
X181000092Y-44177693D01*
X181021191Y-44113668D01*
X181029037Y-44038477D01*
X181029052Y-44034860D01*
X181027104Y-43993241D01*
X181021282Y-43954668D01*
X181012275Y-43921149D01*
X180999884Y-43890454D01*
X180984895Y-43863797D01*
X180966863Y-43839825D01*
X180946270Y-43818992D01*
X180922804Y-43800831D01*
X180866867Y-43772531D01*
X180841413Y-43764422D01*
X180606268Y-43698599D01*
X180579621Y-43689344D01*
X180557508Y-43677162D01*
X180541641Y-43663862D01*
X180529082Y-43648066D01*
X180513707Y-43609644D01*
X180509670Y-43568295D01*
X180511606Y-43537635D01*
X180517341Y-43509642D01*
X180526233Y-43485565D01*
X180538378Y-43464098D01*
X180553218Y-43445814D01*
X180570959Y-43430172D01*
X180615041Y-43407073D01*
X180671901Y-43395515D01*
X180695844Y-43394577D01*
X180728406Y-43396510D01*
X180758810Y-43402219D01*
X180786144Y-43411284D01*
X180811047Y-43423685D01*
X180832817Y-43438886D01*
X180851912Y-43457038D01*
X180869439Y-43480001D01*
X180884006Y-43509369D01*
X180893828Y-43541253D01*
X180901618Y-43599131D01*
X181006643Y-43599131D01*
G37*
G36*
X181435149Y-43556591D02*
G01*
X181492230Y-43567998D01*
X181517564Y-43578748D01*
X181541019Y-43592947D01*
X181563602Y-43611539D01*
X181584279Y-43634023D01*
X181604801Y-43663142D01*
X181623234Y-43697072D01*
X181637978Y-43730917D01*
X181651026Y-43770319D01*
X181660840Y-43813739D01*
X181670116Y-43887569D01*
X181675013Y-43982042D01*
X181236842Y-43982042D01*
X181238230Y-44012332D01*
X181247972Y-44085858D01*
X181257856Y-44116625D01*
X181271830Y-44144647D01*
X181279916Y-44157299D01*
X181313526Y-44192243D01*
X181333747Y-44204869D01*
X181355942Y-44214035D01*
X181380884Y-44219823D01*
X181407629Y-44221767D01*
X181440964Y-44218290D01*
X181465080Y-44211114D01*
X181487440Y-44200342D01*
X181507806Y-44186187D01*
X181525724Y-44168988D01*
X181552545Y-44127370D01*
X181565837Y-44078763D01*
X181666587Y-44078763D01*
X181646922Y-44154190D01*
X181616299Y-44216406D01*
X181576445Y-44264760D01*
X181528022Y-44299920D01*
X181500484Y-44312620D01*
X181470962Y-44321848D01*
X181438829Y-44327601D01*
X181404820Y-44329539D01*
X181401457Y-44329521D01*
X181337362Y-44321437D01*
X181308201Y-44312058D01*
X181280979Y-44299236D01*
X181255353Y-44282755D01*
X181231874Y-44262894D01*
X181209922Y-44238891D01*
X181190425Y-44211471D01*
X181172776Y-44179312D01*
X181157979Y-44143656D01*
X181145670Y-44102815D01*
X181136671Y-44058419D01*
X181130943Y-44008721D01*
X181129009Y-43955481D01*
X181130058Y-43914940D01*
X181133977Y-43884040D01*
X181236842Y-43884040D01*
X181569989Y-43884040D01*
X181557669Y-43796305D01*
X181546952Y-43763812D01*
X181532192Y-43734747D01*
X181529223Y-43730167D01*
X181496526Y-43694563D01*
X181456241Y-43672645D01*
X181433377Y-43666946D01*
X181409033Y-43665015D01*
X181391592Y-43665994D01*
X181367819Y-43670700D01*
X181345524Y-43679136D01*
X181324145Y-43691623D01*
X181304687Y-43707724D01*
X181286632Y-43728139D01*
X181271041Y-43752038D01*
X181257728Y-43780140D01*
X181247458Y-43811469D01*
X181240359Y-43846348D01*
X181236842Y-43884040D01*
X181133977Y-43884040D01*
X181142400Y-43817633D01*
X181166726Y-43736591D01*
X181200820Y-43671482D01*
X181243014Y-43621428D01*
X181292433Y-43585534D01*
X181319831Y-43572742D01*
X181349003Y-43563450D01*
X181380262Y-43557714D01*
X181413185Y-43555778D01*
X181435149Y-43556591D01*
G37*
G36*
X181898557Y-43305673D02*
G01*
X181797807Y-43305673D01*
X181797807Y-44310000D01*
X181898557Y-44310000D01*
X181898557Y-43305673D01*
G37*
G36*
X152607137Y-43719909D02*
G01*
X152177331Y-43719909D01*
X152177331Y-43305673D01*
X152065345Y-43305673D01*
X152065345Y-44310000D01*
X152177331Y-44310000D01*
X152177331Y-43841725D01*
X152607137Y-43841725D01*
X152607137Y-44310000D01*
X152719122Y-44310000D01*
X152719122Y-43305673D01*
X152607137Y-43305673D01*
X152607137Y-43719909D01*
G37*
G36*
X153157948Y-43556591D02*
G01*
X153215028Y-43567998D01*
X153240363Y-43578748D01*
X153263818Y-43592947D01*
X153286401Y-43611539D01*
X153307078Y-43634023D01*
X153327599Y-43663142D01*
X153346033Y-43697072D01*
X153360776Y-43730917D01*
X153373825Y-43770319D01*
X153383639Y-43813739D01*
X153392915Y-43887569D01*
X153397812Y-43982042D01*
X152959640Y-43982042D01*
X152961029Y-44012332D01*
X152970771Y-44085858D01*
X152980654Y-44116625D01*
X152994628Y-44144647D01*
X153002715Y-44157299D01*
X153036325Y-44192243D01*
X153056546Y-44204869D01*
X153078741Y-44214035D01*
X153103683Y-44219823D01*
X153130427Y-44221767D01*
X153163763Y-44218290D01*
X153187879Y-44211114D01*
X153210239Y-44200342D01*
X153230604Y-44186187D01*
X153248523Y-44168988D01*
X153275344Y-44127370D01*
X153288635Y-44078763D01*
X153389386Y-44078763D01*
X153369721Y-44154190D01*
X153339098Y-44216406D01*
X153299244Y-44264760D01*
X153250820Y-44299920D01*
X153223282Y-44312620D01*
X153193760Y-44321848D01*
X153161628Y-44327601D01*
X153127618Y-44329539D01*
X153124256Y-44329521D01*
X153060160Y-44321437D01*
X153030999Y-44312058D01*
X153003777Y-44299236D01*
X152978151Y-44282755D01*
X152954673Y-44262894D01*
X152932721Y-44238891D01*
X152913224Y-44211471D01*
X152895575Y-44179312D01*
X152880778Y-44143656D01*
X152868468Y-44102815D01*
X152859470Y-44058419D01*
X152853742Y-44008721D01*
X152851807Y-43955481D01*
X152852856Y-43914940D01*
X152856776Y-43884040D01*
X152959640Y-43884040D01*
X153292788Y-43884040D01*
X153280468Y-43796305D01*
X153269751Y-43763812D01*
X153254991Y-43734747D01*
X153252022Y-43730167D01*
X153219325Y-43694563D01*
X153179039Y-43672645D01*
X153156176Y-43666946D01*
X153131832Y-43665015D01*
X153114390Y-43665994D01*
X153090617Y-43670700D01*
X153068323Y-43679136D01*
X153046943Y-43691623D01*
X153027485Y-43707724D01*
X153009431Y-43728139D01*
X152993840Y-43752038D01*
X152980526Y-43780140D01*
X152970257Y-43811469D01*
X152963158Y-43846348D01*
X152959640Y-43884040D01*
X152856776Y-43884040D01*
X152865199Y-43817633D01*
X152889525Y-43736591D01*
X152923618Y-43671482D01*
X152965812Y-43621428D01*
X153015232Y-43585534D01*
X153042629Y-43572742D01*
X153071801Y-43563450D01*
X153103061Y-43557714D01*
X153135984Y-43555778D01*
X153157948Y-43556591D01*
G37*
G36*
X153819613Y-43561537D02*
G01*
X153877573Y-43579930D01*
X153922925Y-43609223D01*
X153941159Y-43627739D01*
X153956399Y-43648766D01*
X153968729Y-43672655D01*
X153977744Y-43698963D01*
X153983465Y-43728636D01*
X153985399Y-43760697D01*
X153985399Y-44184031D01*
X153986791Y-44199698D01*
X153996798Y-44220071D01*
X154005915Y-44225760D01*
X154017578Y-44227690D01*
X154052566Y-44220423D01*
X154052566Y-44310000D01*
X154050705Y-44310596D01*
X154039988Y-44315861D01*
X154038565Y-44316406D01*
X154015244Y-44323501D01*
X153993765Y-44325631D01*
X153955766Y-44321354D01*
X153925767Y-44306358D01*
X153913548Y-44293071D01*
X153904007Y-44275865D01*
X153895217Y-44247068D01*
X153890145Y-44210593D01*
X153846016Y-44260035D01*
X153795814Y-44298842D01*
X153769765Y-44312041D01*
X153742527Y-44321439D01*
X153711054Y-44327549D01*
X153677348Y-44329539D01*
X153639689Y-44326399D01*
X153613191Y-44319899D01*
X153588804Y-44310006D01*
X153566572Y-44296800D01*
X153546739Y-44280464D01*
X153529132Y-44260743D01*
X153514301Y-44238075D01*
X153502107Y-44211884D01*
X153493148Y-44182914D01*
X153487482Y-44150471D01*
X153485556Y-44115460D01*
X153485986Y-44104164D01*
X153590581Y-44104164D01*
X153591194Y-44121213D01*
X153601116Y-44167200D01*
X153621481Y-44199225D01*
X153635832Y-44211016D01*
X153652803Y-44219672D01*
X153674099Y-44225443D01*
X153698353Y-44227384D01*
X153717279Y-44226459D01*
X153745144Y-44221654D01*
X153771531Y-44213045D01*
X153796386Y-44200785D01*
X153818947Y-44185315D01*
X153855006Y-44147044D01*
X153877145Y-44102587D01*
X153884588Y-44055193D01*
X153884588Y-43934781D01*
X153866030Y-43947515D01*
X153836968Y-43957885D01*
X153717953Y-43980943D01*
X153708503Y-43982657D01*
X153653628Y-43999071D01*
X153619545Y-44021642D01*
X153607463Y-44036378D01*
X153598745Y-44053509D01*
X153592578Y-44076938D01*
X153590581Y-44104164D01*
X153485986Y-44104164D01*
X153486575Y-44088671D01*
X153498554Y-44026060D01*
X153522644Y-43975392D01*
X153539033Y-43954100D01*
X153558253Y-43935517D01*
X153580757Y-43919398D01*
X153606074Y-43906269D01*
X153635379Y-43895854D01*
X153667578Y-43888864D01*
X153834152Y-43863646D01*
X153860509Y-43854336D01*
X153871229Y-43844687D01*
X153879103Y-43831630D01*
X153885383Y-43809007D01*
X153887397Y-43779748D01*
X153885814Y-43755126D01*
X153873584Y-43715028D01*
X153863016Y-43699053D01*
X153849467Y-43685696D01*
X153831519Y-43674230D01*
X153810106Y-43665808D01*
X153781669Y-43659947D01*
X153748789Y-43657993D01*
X153727538Y-43658813D01*
X153682827Y-43668604D01*
X153650391Y-43689677D01*
X153636586Y-43706620D01*
X153625364Y-43727670D01*
X153614719Y-43759903D01*
X153607372Y-43799288D01*
X153514988Y-43800081D01*
X153516057Y-43783603D01*
X153526334Y-43711565D01*
X153536613Y-43680929D01*
X153551380Y-43652437D01*
X153579314Y-43617566D01*
X153600463Y-43599719D01*
X153624396Y-43584831D01*
X153652246Y-43572493D01*
X153682870Y-43563501D01*
X153717929Y-43557720D01*
X153755750Y-43555778D01*
X153819613Y-43561537D01*
G37*
G36*
X154654136Y-44310000D02*
G01*
X154558943Y-44310000D01*
X154558943Y-44204914D01*
X154522932Y-44265662D01*
X154487074Y-44301394D01*
X154466698Y-44313720D01*
X154444507Y-44322395D01*
X154416487Y-44328097D01*
X154385347Y-44329539D01*
X154382615Y-44329523D01*
X154352903Y-44327272D01*
X154324638Y-44321281D01*
X154297453Y-44311466D01*
X154271919Y-44298010D01*
X154247247Y-44280319D01*
X154224524Y-44258958D01*
X154202867Y-44232732D01*
X154183554Y-44202754D01*
X154165915Y-44167415D01*
X154151086Y-44128278D01*
X154138763Y-44083700D01*
X154129740Y-44035388D01*
X154124044Y-43982056D01*
X154122352Y-43932217D01*
X154227139Y-43932217D01*
X154232742Y-44023414D01*
X154249612Y-44100047D01*
X154274581Y-44154997D01*
X154305648Y-44192028D01*
X154342559Y-44214064D01*
X154363859Y-44219827D01*
X154386751Y-44221767D01*
X154420525Y-44217703D01*
X154442706Y-44210246D01*
X154463416Y-44199167D01*
X154482156Y-44184744D01*
X154498737Y-44167056D01*
X154523633Y-44126939D01*
X154535382Y-44096255D01*
X154543933Y-44061307D01*
X154549945Y-44015140D01*
X154551921Y-43962320D01*
X154545892Y-43863164D01*
X154529024Y-43786007D01*
X154504348Y-43731386D01*
X154473532Y-43694703D01*
X154436393Y-43672760D01*
X154414553Y-43666960D01*
X154390964Y-43665015D01*
X154362013Y-43667234D01*
X154318902Y-43681467D01*
X154300158Y-43693816D01*
X154283585Y-43709615D01*
X154268082Y-43730609D01*
X154255090Y-43755665D01*
X154243491Y-43788588D01*
X154235001Y-43826643D01*
X154229098Y-43876099D01*
X154227139Y-43932217D01*
X154122352Y-43932217D01*
X154122114Y-43925195D01*
X154129299Y-43825512D01*
X154149317Y-43741244D01*
X154179536Y-43673602D01*
X154217688Y-43622062D01*
X154262323Y-43585589D01*
X154312975Y-43563425D01*
X154340737Y-43557710D01*
X154369960Y-43555778D01*
X154422106Y-43561887D01*
X154445585Y-43569896D01*
X154467368Y-43581429D01*
X154489131Y-43597938D01*
X154509458Y-43618914D01*
X154531980Y-43649711D01*
X154553325Y-43687363D01*
X154553325Y-43305673D01*
X154654136Y-43305673D01*
X154654136Y-44310000D01*
G37*
G36*
X155110249Y-43560569D02*
G01*
X155137294Y-43568567D01*
X155162769Y-43580249D01*
X155187460Y-43596128D01*
X155210257Y-43615674D01*
X155232013Y-43639938D01*
X155251452Y-43667884D01*
X155269180Y-43700866D01*
X155284105Y-43737476D01*
X155296452Y-43778958D01*
X155305502Y-43823877D01*
X155311176Y-43872987D01*
X155313103Y-43925195D01*
X155312642Y-43953189D01*
X155301966Y-44056377D01*
X155279116Y-44142342D01*
X155246686Y-44210919D01*
X155206828Y-44262939D01*
X155160864Y-44299634D01*
X155109148Y-44321878D01*
X155080918Y-44327604D01*
X155051275Y-44329539D01*
X155016404Y-44326961D01*
X154969387Y-44312274D01*
X154947836Y-44299176D01*
X154927994Y-44282162D01*
X154906969Y-44257566D01*
X154887510Y-44227384D01*
X154887510Y-44598389D01*
X154786699Y-44598389D01*
X154786699Y-43965800D01*
X154883297Y-43965800D01*
X154887601Y-44034800D01*
X154903718Y-44104786D01*
X154928968Y-44156484D01*
X154961470Y-44192322D01*
X155000948Y-44214100D01*
X155023855Y-44219831D01*
X155048527Y-44221767D01*
X155076151Y-44218898D01*
X155096868Y-44212399D01*
X155115972Y-44202242D01*
X155134431Y-44187544D01*
X155150964Y-44168897D01*
X155166742Y-44144147D01*
X155180088Y-44114914D01*
X155191796Y-44078010D01*
X155200420Y-44036047D01*
X155206145Y-43985470D01*
X155208079Y-43929408D01*
X155204144Y-43854582D01*
X155189308Y-43781408D01*
X155166092Y-43729599D01*
X155135753Y-43694352D01*
X155117608Y-43681858D01*
X155097480Y-43672790D01*
X155074094Y-43666964D01*
X155048527Y-43665015D01*
X155014896Y-43668560D01*
X154974218Y-43685380D01*
X154955916Y-43699661D01*
X154939649Y-43717706D01*
X154924191Y-43741758D01*
X154911189Y-43770307D01*
X154899595Y-43807463D01*
X154891085Y-43850204D01*
X154885248Y-43904528D01*
X154883297Y-43965800D01*
X154786699Y-43965800D01*
X154786699Y-43579225D01*
X154881893Y-43579225D01*
X154881893Y-43687058D01*
X154919441Y-43630151D01*
X154959138Y-43589972D01*
X154980397Y-43576186D01*
X155003151Y-43566191D01*
X155032542Y-43558827D01*
X155065319Y-43555778D01*
X155110249Y-43560569D01*
G37*
G36*
X155532433Y-43305673D02*
G01*
X155431683Y-43305673D01*
X155431683Y-44310000D01*
X155532433Y-44310000D01*
X155532433Y-43910418D01*
X155534372Y-43864525D01*
X155540128Y-43822966D01*
X155548832Y-43788323D01*
X155560689Y-43757693D01*
X155574435Y-43732990D01*
X155590770Y-43711946D01*
X155608469Y-43695561D01*
X155628363Y-43682593D01*
X155673352Y-43667441D01*
X155703281Y-43665015D01*
X155729936Y-43666997D01*
X155752923Y-43673053D01*
X155769920Y-43681696D01*
X155784338Y-43693614D01*
X155805231Y-43726479D01*
X155817827Y-43777208D01*
X155820884Y-43830490D01*
X155820884Y-44310000D01*
X155921634Y-44310000D01*
X155921634Y-43810828D01*
X155919697Y-43767312D01*
X155913948Y-43727474D01*
X155905118Y-43693384D01*
X155893065Y-43662793D01*
X155878801Y-43637224D01*
X155861805Y-43614963D01*
X155843008Y-43596815D01*
X155821823Y-43581874D01*
X155773262Y-43562121D01*
X155718669Y-43555778D01*
X155685331Y-43557822D01*
X155655552Y-43564315D01*
X155632699Y-43573576D01*
X155611213Y-43586661D01*
X155570023Y-43625877D01*
X155532433Y-43677655D01*
X155532433Y-43305673D01*
G37*
G36*
X156323422Y-43555821D02*
G01*
X156353738Y-43558361D01*
X156382750Y-43564709D01*
X156411050Y-43575025D01*
X156437750Y-43589034D01*
X156463650Y-43607308D01*
X156487576Y-43629209D01*
X156510233Y-43655647D01*
X156530472Y-43685614D01*
X156548689Y-43720064D01*
X156564014Y-43757845D01*
X156576507Y-43799602D01*
X156585655Y-43844360D01*
X156591316Y-43892228D01*
X156593241Y-43942658D01*
X156592657Y-43970813D01*
X156581293Y-44065156D01*
X156557158Y-44145940D01*
X156522661Y-44212002D01*
X156479983Y-44263131D01*
X156430676Y-44299668D01*
X156375510Y-44321909D01*
X156345753Y-44327608D01*
X156314621Y-44329539D01*
X156308081Y-44329456D01*
X156277069Y-44326712D01*
X156247467Y-44320193D01*
X156218776Y-44309780D01*
X156191767Y-44295728D01*
X156165706Y-44277522D01*
X156141676Y-44255755D01*
X156118988Y-44229549D01*
X156098751Y-44199873D01*
X156080542Y-44165737D01*
X156065241Y-44128303D01*
X156052745Y-44086802D01*
X156043602Y-44042294D01*
X156037928Y-43994482D01*
X156036001Y-43944063D01*
X156036033Y-43942658D01*
X156141026Y-43942658D01*
X156147846Y-44030938D01*
X156166603Y-44102209D01*
X156194165Y-44155343D01*
X156228311Y-44192086D01*
X156268269Y-44214131D01*
X156290707Y-44219835D01*
X156314621Y-44221767D01*
X156349196Y-44217544D01*
X156371189Y-44209870D01*
X156391593Y-44198474D01*
X156411343Y-44182526D01*
X156429098Y-44162744D01*
X156445731Y-44137571D01*
X156459824Y-44108425D01*
X156471807Y-44073531D01*
X156480639Y-44034674D01*
X156486293Y-43990523D01*
X156488217Y-43942658D01*
X156481703Y-43857364D01*
X156462932Y-43785084D01*
X156435212Y-43730872D01*
X156401151Y-43693472D01*
X156361959Y-43671235D01*
X156340335Y-43665541D01*
X156317430Y-43663611D01*
X156280508Y-43668063D01*
X156258165Y-43675757D01*
X156237539Y-43687080D01*
X156217750Y-43702793D01*
X156200031Y-43722242D01*
X156183448Y-43747042D01*
X156169440Y-43775771D01*
X156157459Y-43810518D01*
X156148648Y-43849298D01*
X156142955Y-43894015D01*
X156141026Y-43942658D01*
X156036033Y-43942658D01*
X156036732Y-43912095D01*
X156048444Y-43817635D01*
X156072678Y-43737501D01*
X156107146Y-43672277D01*
X156149910Y-43621800D01*
X156199703Y-43585592D01*
X156256001Y-43563424D01*
X156286668Y-43557710D01*
X156318834Y-43555778D01*
X156323422Y-43555821D01*
G37*
G36*
X156802802Y-43579225D02*
G01*
X156707608Y-43579225D01*
X156707608Y-44310000D01*
X156808358Y-44310000D01*
X156808358Y-43911823D01*
X156810287Y-43866725D01*
X156815974Y-43825646D01*
X156824708Y-43790559D01*
X156836563Y-43759434D01*
X156850403Y-43733989D01*
X156866769Y-43712312D01*
X156884399Y-43695465D01*
X156904088Y-43682197D01*
X156924983Y-43672886D01*
X156947637Y-43667127D01*
X156973588Y-43665015D01*
X156998964Y-43666989D01*
X157021249Y-43672987D01*
X157038507Y-43681783D01*
X157053430Y-43693928D01*
X157076149Y-43727900D01*
X157091150Y-43780110D01*
X157096809Y-43858517D01*
X157096809Y-44310000D01*
X157197559Y-44310000D01*
X157197559Y-43810828D01*
X157195621Y-43767312D01*
X157189872Y-43727474D01*
X157181043Y-43693384D01*
X157168990Y-43662793D01*
X157154726Y-43637224D01*
X157137729Y-43614963D01*
X157118933Y-43596815D01*
X157097748Y-43581874D01*
X157049187Y-43562121D01*
X156994593Y-43555778D01*
X156962595Y-43558744D01*
X156933045Y-43565798D01*
X156908254Y-43575884D01*
X156885013Y-43589700D01*
X156842721Y-43628838D01*
X156802802Y-43687058D01*
X156802802Y-43579225D01*
G37*
G36*
X157623684Y-43556591D02*
G01*
X157680764Y-43567998D01*
X157706099Y-43578748D01*
X157729554Y-43592947D01*
X157752137Y-43611539D01*
X157772814Y-43634023D01*
X157793336Y-43663142D01*
X157811769Y-43697072D01*
X157826512Y-43730917D01*
X157839561Y-43770319D01*
X157849375Y-43813739D01*
X157858651Y-43887569D01*
X157863548Y-43982042D01*
X157425377Y-43982042D01*
X157426765Y-44012332D01*
X157436507Y-44085858D01*
X157446391Y-44116625D01*
X157460364Y-44144647D01*
X157468451Y-44157299D01*
X157502061Y-44192243D01*
X157522282Y-44204869D01*
X157544477Y-44214035D01*
X157569419Y-44219823D01*
X157596163Y-44221767D01*
X157629499Y-44218290D01*
X157653615Y-44211114D01*
X157675975Y-44200342D01*
X157696340Y-44186187D01*
X157714259Y-44168988D01*
X157741080Y-44127370D01*
X157754372Y-44078763D01*
X157855122Y-44078763D01*
X157835457Y-44154190D01*
X157804834Y-44216406D01*
X157764980Y-44264760D01*
X157716556Y-44299920D01*
X157689019Y-44312620D01*
X157659497Y-44321848D01*
X157627364Y-44327601D01*
X157593355Y-44329539D01*
X157589992Y-44329521D01*
X157525897Y-44321437D01*
X157496736Y-44312058D01*
X157469513Y-44299236D01*
X157443887Y-44282755D01*
X157420409Y-44262894D01*
X157398457Y-44238891D01*
X157378960Y-44211471D01*
X157361311Y-44179312D01*
X157346514Y-44143656D01*
X157334204Y-44102815D01*
X157325206Y-44058419D01*
X157319478Y-44008721D01*
X157317543Y-43955481D01*
X157318593Y-43914940D01*
X157322512Y-43884040D01*
X157425377Y-43884040D01*
X157758524Y-43884040D01*
X157746204Y-43796305D01*
X157735487Y-43763812D01*
X157720727Y-43734747D01*
X157717758Y-43730167D01*
X157685061Y-43694563D01*
X157644775Y-43672645D01*
X157621912Y-43666946D01*
X157597568Y-43665015D01*
X157580127Y-43665994D01*
X157556353Y-43670700D01*
X157534059Y-43679136D01*
X157512680Y-43691623D01*
X157493221Y-43707724D01*
X157475167Y-43728139D01*
X157459576Y-43752038D01*
X157446263Y-43780140D01*
X157435993Y-43811469D01*
X157428894Y-43846348D01*
X157425377Y-43884040D01*
X157322512Y-43884040D01*
X157330935Y-43817633D01*
X157355261Y-43736591D01*
X157389355Y-43671482D01*
X157431548Y-43621428D01*
X157480968Y-43585534D01*
X157508366Y-43572742D01*
X157537537Y-43563450D01*
X157568797Y-43557714D01*
X157601720Y-43555778D01*
X157623684Y-43556591D01*
G37*
G36*
X158421704Y-43785305D02*
G01*
X158417519Y-43746242D01*
X158409687Y-43710560D01*
X158399009Y-43680031D01*
X158385213Y-43652671D01*
X158369178Y-43629554D01*
X158350415Y-43609460D01*
X158329465Y-43592782D01*
X158306011Y-43579120D01*
X158251304Y-43560988D01*
X158194925Y-43555778D01*
X158160802Y-43557706D01*
X158128881Y-43563389D01*
X158099850Y-43572468D01*
X158073239Y-43584870D01*
X158049530Y-43600201D01*
X158028457Y-43618479D01*
X157994947Y-43663047D01*
X157973465Y-43717974D01*
X157965359Y-43782923D01*
X157965336Y-43786709D01*
X157967298Y-43819109D01*
X157973212Y-43848498D01*
X157982140Y-43872821D01*
X157994458Y-43894687D01*
X158027958Y-43930081D01*
X158075744Y-43957224D01*
X158103883Y-43967144D01*
X158221486Y-44002131D01*
X158272876Y-44019984D01*
X158307983Y-44038587D01*
X158322420Y-44051276D01*
X158332269Y-44065631D01*
X158340242Y-44098252D01*
X158340493Y-44107034D01*
X158338564Y-44129681D01*
X158332875Y-44150144D01*
X158323967Y-44167690D01*
X158311834Y-44182978D01*
X158278229Y-44206422D01*
X158230933Y-44219710D01*
X158199138Y-44221767D01*
X158164045Y-44219779D01*
X158133814Y-44213683D01*
X158111894Y-44205165D01*
X158093211Y-44193439D01*
X158066759Y-44162802D01*
X158050022Y-44118599D01*
X158043738Y-44073511D01*
X157945736Y-44073511D01*
X157951862Y-44139321D01*
X157963344Y-44187097D01*
X157977915Y-44218958D01*
X157992402Y-44242200D01*
X158009818Y-44262845D01*
X158053220Y-44296316D01*
X158108251Y-44318910D01*
X158175196Y-44329152D01*
X158192116Y-44329539D01*
X158229074Y-44327609D01*
X158263557Y-44321912D01*
X158294651Y-44312870D01*
X158323131Y-44300515D01*
X158348330Y-44285353D01*
X158370782Y-44267271D01*
X158390145Y-44246657D01*
X158406589Y-44223429D01*
X158430283Y-44169489D01*
X158440885Y-44105468D01*
X158441305Y-44088899D01*
X158439302Y-44054093D01*
X158433097Y-44023200D01*
X158424200Y-43999543D01*
X158411807Y-43978283D01*
X158377640Y-43943454D01*
X158325547Y-43913644D01*
X158273327Y-43894420D01*
X158171111Y-43863646D01*
X158119632Y-43845743D01*
X158087096Y-43827341D01*
X158075723Y-43815594D01*
X158068420Y-43802087D01*
X158063339Y-43767109D01*
X158065269Y-43745266D01*
X158070968Y-43725697D01*
X158079814Y-43709240D01*
X158091855Y-43695114D01*
X158125096Y-43674321D01*
X158172049Y-43664172D01*
X158187903Y-43663611D01*
X158219820Y-43665574D01*
X158247331Y-43671500D01*
X158267801Y-43679956D01*
X158285018Y-43691509D01*
X158308675Y-43721593D01*
X158321628Y-43764193D01*
X158323702Y-43785305D01*
X158421704Y-43785305D01*
G37*
G36*
X168867532Y-43307837D02*
G01*
X168935322Y-43321676D01*
X168989428Y-43346883D01*
X169032089Y-43383154D01*
X169049662Y-43406027D01*
X169064302Y-43431778D01*
X169076518Y-43461980D01*
X169085420Y-43495318D01*
X169091236Y-43534413D01*
X169093183Y-43577027D01*
X169087883Y-43650040D01*
X169071224Y-43707926D01*
X169057434Y-43734342D01*
X169039777Y-43759039D01*
X169012447Y-43787868D01*
X168978389Y-43816140D01*
X169006123Y-43831236D01*
X169039310Y-43860366D01*
X169052193Y-43880120D01*
X169062050Y-43903682D01*
X169072095Y-43947875D01*
X169077735Y-44005062D01*
X169083353Y-44186901D01*
X169084491Y-44206660D01*
X169091813Y-44248833D01*
X169104112Y-44269506D01*
X169125362Y-44287651D01*
X169125362Y-44310000D01*
X168988159Y-44310000D01*
X168976561Y-44223427D01*
X168969963Y-44058185D01*
X168963580Y-43986632D01*
X168947434Y-43940613D01*
X168921901Y-43908886D01*
X168904146Y-43896828D01*
X168883371Y-43887967D01*
X168855345Y-43881555D01*
X168822990Y-43879155D01*
X168552796Y-43879155D01*
X168552796Y-44310000D01*
X168440750Y-44310000D01*
X168440750Y-43762896D01*
X168552796Y-43762896D01*
X168810350Y-43762896D01*
X168822554Y-43762682D01*
X168879147Y-43754332D01*
X168920235Y-43735243D01*
X168936635Y-43721436D01*
X168950271Y-43704737D01*
X168961953Y-43683349D01*
X168970484Y-43658454D01*
X168976424Y-43625695D01*
X168978389Y-43588201D01*
X168972102Y-43526235D01*
X168955026Y-43481813D01*
X168927826Y-43450315D01*
X168909339Y-43438442D01*
X168887959Y-43429778D01*
X168860757Y-43423890D01*
X168829951Y-43421933D01*
X168552796Y-43421933D01*
X168552796Y-43762896D01*
X168440750Y-43762896D01*
X168440750Y-43305673D01*
X168822990Y-43305673D01*
X168867532Y-43307837D01*
G37*
G36*
X169520774Y-43556591D02*
G01*
X169577854Y-43567998D01*
X169603189Y-43578748D01*
X169626644Y-43592947D01*
X169649227Y-43611539D01*
X169669904Y-43634023D01*
X169690425Y-43663142D01*
X169708859Y-43697072D01*
X169723602Y-43730917D01*
X169736651Y-43770319D01*
X169746465Y-43813739D01*
X169755741Y-43887569D01*
X169760638Y-43982042D01*
X169322466Y-43982042D01*
X169323855Y-44012332D01*
X169333597Y-44085858D01*
X169343480Y-44116625D01*
X169357454Y-44144647D01*
X169365541Y-44157299D01*
X169399151Y-44192243D01*
X169419372Y-44204869D01*
X169441567Y-44214035D01*
X169466509Y-44219823D01*
X169493253Y-44221767D01*
X169526589Y-44218290D01*
X169550705Y-44211114D01*
X169573065Y-44200342D01*
X169593430Y-44186187D01*
X169611349Y-44168988D01*
X169638170Y-44127370D01*
X169651461Y-44078763D01*
X169752212Y-44078763D01*
X169732547Y-44154190D01*
X169701924Y-44216406D01*
X169662070Y-44264760D01*
X169613646Y-44299920D01*
X169586108Y-44312620D01*
X169556586Y-44321848D01*
X169524454Y-44327601D01*
X169490444Y-44329539D01*
X169487082Y-44329521D01*
X169422986Y-44321437D01*
X169393825Y-44312058D01*
X169366603Y-44299236D01*
X169340977Y-44282755D01*
X169317499Y-44262894D01*
X169295547Y-44238891D01*
X169276050Y-44211471D01*
X169258401Y-44179312D01*
X169243604Y-44143656D01*
X169231294Y-44102815D01*
X169222296Y-44058419D01*
X169216568Y-44008721D01*
X169214633Y-43955481D01*
X169215682Y-43914940D01*
X169219602Y-43884040D01*
X169322466Y-43884040D01*
X169655614Y-43884040D01*
X169643294Y-43796305D01*
X169632577Y-43763812D01*
X169617817Y-43734747D01*
X169614848Y-43730167D01*
X169582151Y-43694563D01*
X169541865Y-43672645D01*
X169519002Y-43666946D01*
X169494658Y-43665015D01*
X169477216Y-43665994D01*
X169453443Y-43670700D01*
X169431149Y-43679136D01*
X169409769Y-43691623D01*
X169390311Y-43707724D01*
X169372257Y-43728139D01*
X169356666Y-43752038D01*
X169343352Y-43780140D01*
X169333083Y-43811469D01*
X169325984Y-43846348D01*
X169322466Y-43884040D01*
X169219602Y-43884040D01*
X169228025Y-43817633D01*
X169252351Y-43736591D01*
X169286444Y-43671482D01*
X169328638Y-43621428D01*
X169378058Y-43585534D01*
X169405455Y-43572742D01*
X169434627Y-43563450D01*
X169465887Y-43557714D01*
X169498810Y-43555778D01*
X169520774Y-43556591D01*
G37*
G36*
X170318794Y-43785305D02*
G01*
X170314609Y-43746242D01*
X170306777Y-43710560D01*
X170296099Y-43680031D01*
X170282302Y-43652671D01*
X170266268Y-43629554D01*
X170247505Y-43609460D01*
X170226554Y-43592782D01*
X170203101Y-43579120D01*
X170148393Y-43560988D01*
X170092015Y-43555778D01*
X170057892Y-43557706D01*
X170025971Y-43563389D01*
X169996940Y-43572468D01*
X169970328Y-43584870D01*
X169946619Y-43600201D01*
X169925547Y-43618479D01*
X169892036Y-43663047D01*
X169870555Y-43717974D01*
X169862449Y-43782923D01*
X169862426Y-43786709D01*
X169864388Y-43819109D01*
X169870302Y-43848498D01*
X169879229Y-43872821D01*
X169891548Y-43894687D01*
X169925048Y-43930081D01*
X169972834Y-43957224D01*
X170000973Y-43967144D01*
X170118576Y-44002131D01*
X170169966Y-44019984D01*
X170205073Y-44038587D01*
X170219510Y-44051276D01*
X170229359Y-44065631D01*
X170237331Y-44098252D01*
X170237583Y-44107034D01*
X170235654Y-44129681D01*
X170229965Y-44150144D01*
X170221057Y-44167690D01*
X170208924Y-44182978D01*
X170175319Y-44206422D01*
X170128022Y-44219710D01*
X170096228Y-44221767D01*
X170061135Y-44219779D01*
X170030904Y-44213683D01*
X170008983Y-44205165D01*
X169990300Y-44193439D01*
X169963849Y-44162802D01*
X169947112Y-44118599D01*
X169940828Y-44073511D01*
X169842826Y-44073511D01*
X169848952Y-44139321D01*
X169860434Y-44187097D01*
X169875005Y-44218958D01*
X169889492Y-44242200D01*
X169906908Y-44262845D01*
X169950310Y-44296316D01*
X170005341Y-44318910D01*
X170072286Y-44329152D01*
X170089206Y-44329539D01*
X170126163Y-44327609D01*
X170160647Y-44321912D01*
X170191741Y-44312870D01*
X170220221Y-44300515D01*
X170245420Y-44285353D01*
X170267872Y-44267271D01*
X170287235Y-44246657D01*
X170303679Y-44223429D01*
X170327373Y-44169489D01*
X170337975Y-44105468D01*
X170338394Y-44088899D01*
X170336392Y-44054093D01*
X170330187Y-44023200D01*
X170321290Y-43999543D01*
X170308897Y-43978283D01*
X170274730Y-43943454D01*
X170222637Y-43913644D01*
X170170416Y-43894420D01*
X170068201Y-43863646D01*
X170016721Y-43845743D01*
X169984185Y-43827341D01*
X169972812Y-43815594D01*
X169965510Y-43802087D01*
X169960429Y-43767109D01*
X169962359Y-43745266D01*
X169968058Y-43725697D01*
X169976903Y-43709240D01*
X169988944Y-43695114D01*
X170022186Y-43674321D01*
X170069139Y-43664172D01*
X170084993Y-43663611D01*
X170116910Y-43665574D01*
X170144421Y-43671500D01*
X170164890Y-43679956D01*
X170182107Y-43691509D01*
X170205764Y-43721593D01*
X170218718Y-43764193D01*
X170220792Y-43785305D01*
X170318794Y-43785305D01*
G37*
G36*
X170732218Y-43556591D02*
G01*
X170789299Y-43567998D01*
X170814633Y-43578748D01*
X170838088Y-43592947D01*
X170860671Y-43611539D01*
X170881348Y-43634023D01*
X170901870Y-43663142D01*
X170920303Y-43697072D01*
X170935047Y-43730917D01*
X170948095Y-43770319D01*
X170957909Y-43813739D01*
X170967186Y-43887569D01*
X170972083Y-43982042D01*
X170533911Y-43982042D01*
X170535300Y-44012332D01*
X170545041Y-44085858D01*
X170554925Y-44116625D01*
X170568899Y-44144647D01*
X170576985Y-44157299D01*
X170610595Y-44192243D01*
X170630816Y-44204869D01*
X170653011Y-44214035D01*
X170677953Y-44219823D01*
X170704698Y-44221767D01*
X170738033Y-44218290D01*
X170762149Y-44211114D01*
X170784509Y-44200342D01*
X170804875Y-44186187D01*
X170822793Y-44168988D01*
X170849614Y-44127370D01*
X170862906Y-44078763D01*
X170963656Y-44078763D01*
X170943992Y-44154190D01*
X170913368Y-44216406D01*
X170873514Y-44264760D01*
X170825091Y-44299920D01*
X170797553Y-44312620D01*
X170768031Y-44321848D01*
X170735898Y-44327601D01*
X170701889Y-44329539D01*
X170698527Y-44329521D01*
X170634431Y-44321437D01*
X170605270Y-44312058D01*
X170578048Y-44299236D01*
X170552422Y-44282755D01*
X170528943Y-44262894D01*
X170506991Y-44238891D01*
X170487494Y-44211471D01*
X170469845Y-44179312D01*
X170455048Y-44143656D01*
X170442739Y-44102815D01*
X170433740Y-44058419D01*
X170428012Y-44008721D01*
X170426078Y-43955481D01*
X170427127Y-43914940D01*
X170431046Y-43884040D01*
X170533911Y-43884040D01*
X170867058Y-43884040D01*
X170854738Y-43796305D01*
X170844021Y-43763812D01*
X170829262Y-43734747D01*
X170826292Y-43730167D01*
X170793595Y-43694563D01*
X170753310Y-43672645D01*
X170730446Y-43666946D01*
X170706102Y-43665015D01*
X170688661Y-43665994D01*
X170664888Y-43670700D01*
X170642593Y-43679136D01*
X170621214Y-43691623D01*
X170601756Y-43707724D01*
X170583701Y-43728139D01*
X170568110Y-43752038D01*
X170554797Y-43780140D01*
X170544527Y-43811469D01*
X170537428Y-43846348D01*
X170533911Y-43884040D01*
X170431046Y-43884040D01*
X170439469Y-43817633D01*
X170463795Y-43736591D01*
X170497889Y-43671482D01*
X170540083Y-43621428D01*
X170589502Y-43585534D01*
X170616900Y-43572742D01*
X170646072Y-43563450D01*
X170677331Y-43557714D01*
X170710254Y-43555778D01*
X170732218Y-43556591D01*
G37*
G36*
X171313229Y-43681441D02*
G01*
X171313229Y-43579225D01*
X171215226Y-43579225D01*
X171215226Y-43374855D01*
X171114476Y-43374855D01*
X171114476Y-43579225D01*
X171033265Y-43579225D01*
X171033265Y-43681441D01*
X171114476Y-43681441D01*
X171114476Y-44164858D01*
X171116439Y-44203907D01*
X171122367Y-44237233D01*
X171130652Y-44261315D01*
X171141931Y-44281292D01*
X171154676Y-44295810D01*
X171169903Y-44307075D01*
X171207185Y-44319882D01*
X171232018Y-44321723D01*
X171267067Y-44317571D01*
X171305761Y-44310912D01*
X171311824Y-44310000D01*
X171311824Y-44213585D01*
X171276837Y-44213585D01*
X171254368Y-44212303D01*
X171237285Y-44206617D01*
X171227602Y-44199036D01*
X171220793Y-44188512D01*
X171215226Y-44156310D01*
X171215226Y-43681441D01*
X171313229Y-43681441D01*
G37*
X98261904Y-76920038D02*
X98166666Y-76872419D01*
X98166666Y-76872419D02*
X98023809Y-76872419D01*
X98023809Y-76872419D02*
X97880952Y-76920038D01*
X97880952Y-76920038D02*
X97785714Y-77015276D01*
X97785714Y-77015276D02*
X97738095Y-77110514D01*
X97738095Y-77110514D02*
X97690476Y-77300990D01*
X97690476Y-77300990D02*
X97690476Y-77443847D01*
X97690476Y-77443847D02*
X97738095Y-77634323D01*
X97738095Y-77634323D02*
X97785714Y-77729561D01*
X97785714Y-77729561D02*
X97880952Y-77824800D01*
X97880952Y-77824800D02*
X98023809Y-77872419D01*
X98023809Y-77872419D02*
X98119047Y-77872419D01*
X98119047Y-77872419D02*
X98261904Y-77824800D01*
X98261904Y-77824800D02*
X98309523Y-77777180D01*
X98309523Y-77777180D02*
X98309523Y-77443847D01*
X98309523Y-77443847D02*
X98119047Y-77443847D01*
X180903884Y-72372419D02*
X180903884Y-71372419D01*
X180903884Y-71372419D02*
X181237217Y-72086704D01*
X181237217Y-72086704D02*
X181570550Y-71372419D01*
X181570550Y-71372419D02*
X181570550Y-72372419D01*
X182189598Y-72372419D02*
X182094360Y-72324800D01*
X182094360Y-72324800D02*
X182046741Y-72277180D01*
X182046741Y-72277180D02*
X181999122Y-72181942D01*
X181999122Y-72181942D02*
X181999122Y-71896228D01*
X181999122Y-71896228D02*
X182046741Y-71800990D01*
X182046741Y-71800990D02*
X182094360Y-71753371D01*
X182094360Y-71753371D02*
X182189598Y-71705752D01*
X182189598Y-71705752D02*
X182332455Y-71705752D01*
X182332455Y-71705752D02*
X182427693Y-71753371D01*
X182427693Y-71753371D02*
X182475312Y-71800990D01*
X182475312Y-71800990D02*
X182522931Y-71896228D01*
X182522931Y-71896228D02*
X182522931Y-72181942D01*
X182522931Y-72181942D02*
X182475312Y-72277180D01*
X182475312Y-72277180D02*
X182427693Y-72324800D01*
X182427693Y-72324800D02*
X182332455Y-72372419D01*
X182332455Y-72372419D02*
X182189598Y-72372419D01*
X182951503Y-72372419D02*
X182951503Y-71705752D01*
X182951503Y-71800990D02*
X182999122Y-71753371D01*
X182999122Y-71753371D02*
X183094360Y-71705752D01*
X183094360Y-71705752D02*
X183237217Y-71705752D01*
X183237217Y-71705752D02*
X183332455Y-71753371D01*
X183332455Y-71753371D02*
X183380074Y-71848609D01*
X183380074Y-71848609D02*
X183380074Y-72372419D01*
X183380074Y-71848609D02*
X183427693Y-71753371D01*
X183427693Y-71753371D02*
X183522931Y-71705752D01*
X183522931Y-71705752D02*
X183665788Y-71705752D01*
X183665788Y-71705752D02*
X183761027Y-71753371D01*
X183761027Y-71753371D02*
X183808646Y-71848609D01*
X183808646Y-71848609D02*
X183808646Y-72372419D01*
X184665788Y-72324800D02*
X184570550Y-72372419D01*
X184570550Y-72372419D02*
X184380074Y-72372419D01*
X184380074Y-72372419D02*
X184284836Y-72324800D01*
X184284836Y-72324800D02*
X184237217Y-72229561D01*
X184237217Y-72229561D02*
X184237217Y-71848609D01*
X184237217Y-71848609D02*
X184284836Y-71753371D01*
X184284836Y-71753371D02*
X184380074Y-71705752D01*
X184380074Y-71705752D02*
X184570550Y-71705752D01*
X184570550Y-71705752D02*
X184665788Y-71753371D01*
X184665788Y-71753371D02*
X184713407Y-71848609D01*
X184713407Y-71848609D02*
X184713407Y-71943847D01*
X184713407Y-71943847D02*
X184237217Y-72039085D01*
X185141979Y-71705752D02*
X185141979Y-72372419D01*
X185141979Y-71800990D02*
X185189598Y-71753371D01*
X185189598Y-71753371D02*
X185284836Y-71705752D01*
X185284836Y-71705752D02*
X185427693Y-71705752D01*
X185427693Y-71705752D02*
X185522931Y-71753371D01*
X185522931Y-71753371D02*
X185570550Y-71848609D01*
X185570550Y-71848609D02*
X185570550Y-72372419D01*
X185903884Y-71705752D02*
X186284836Y-71705752D01*
X186046741Y-71372419D02*
X186046741Y-72229561D01*
X186046741Y-72229561D02*
X186094360Y-72324800D01*
X186094360Y-72324800D02*
X186189598Y-72372419D01*
X186189598Y-72372419D02*
X186284836Y-72372419D01*
X187046741Y-72372419D02*
X187046741Y-71848609D01*
X187046741Y-71848609D02*
X186999122Y-71753371D01*
X186999122Y-71753371D02*
X186903884Y-71705752D01*
X186903884Y-71705752D02*
X186713408Y-71705752D01*
X186713408Y-71705752D02*
X186618170Y-71753371D01*
X187046741Y-72324800D02*
X186951503Y-72372419D01*
X186951503Y-72372419D02*
X186713408Y-72372419D01*
X186713408Y-72372419D02*
X186618170Y-72324800D01*
X186618170Y-72324800D02*
X186570551Y-72229561D01*
X186570551Y-72229561D02*
X186570551Y-72134323D01*
X186570551Y-72134323D02*
X186618170Y-72039085D01*
X186618170Y-72039085D02*
X186713408Y-71991466D01*
X186713408Y-71991466D02*
X186951503Y-71991466D01*
X186951503Y-71991466D02*
X187046741Y-71943847D01*
X187522932Y-72372419D02*
X187522932Y-71705752D01*
X187522932Y-71896228D02*
X187570551Y-71800990D01*
X187570551Y-71800990D02*
X187618170Y-71753371D01*
X187618170Y-71753371D02*
X187713408Y-71705752D01*
X187713408Y-71705752D02*
X187808646Y-71705752D01*
X188046742Y-71705752D02*
X188284837Y-72372419D01*
X188522932Y-71705752D02*
X188284837Y-72372419D01*
X188284837Y-72372419D02*
X188189599Y-72610514D01*
X188189599Y-72610514D02*
X188141980Y-72658133D01*
X188141980Y-72658133D02*
X188046742Y-72705752D01*
X167666667Y-117872419D02*
X168333333Y-118872419D01*
X168333333Y-117872419D02*
X167666667Y-118872419D01*
X182666666Y-89872419D02*
X183238094Y-89872419D01*
X182952380Y-90872419D02*
X182952380Y-89872419D01*
X183714285Y-90872419D02*
X183619047Y-90824800D01*
X183619047Y-90824800D02*
X183571428Y-90777180D01*
X183571428Y-90777180D02*
X183523809Y-90681942D01*
X183523809Y-90681942D02*
X183523809Y-90396228D01*
X183523809Y-90396228D02*
X183571428Y-90300990D01*
X183571428Y-90300990D02*
X183619047Y-90253371D01*
X183619047Y-90253371D02*
X183714285Y-90205752D01*
X183714285Y-90205752D02*
X183857142Y-90205752D01*
X183857142Y-90205752D02*
X183952380Y-90253371D01*
X183952380Y-90253371D02*
X183999999Y-90300990D01*
X183999999Y-90300990D02*
X184047618Y-90396228D01*
X184047618Y-90396228D02*
X184047618Y-90681942D01*
X184047618Y-90681942D02*
X183999999Y-90777180D01*
X183999999Y-90777180D02*
X183952380Y-90824800D01*
X183952380Y-90824800D02*
X183857142Y-90872419D01*
X183857142Y-90872419D02*
X183714285Y-90872419D01*
X184904761Y-90205752D02*
X184904761Y-91015276D01*
X184904761Y-91015276D02*
X184857142Y-91110514D01*
X184857142Y-91110514D02*
X184809523Y-91158133D01*
X184809523Y-91158133D02*
X184714285Y-91205752D01*
X184714285Y-91205752D02*
X184571428Y-91205752D01*
X184571428Y-91205752D02*
X184476190Y-91158133D01*
X184904761Y-90824800D02*
X184809523Y-90872419D01*
X184809523Y-90872419D02*
X184619047Y-90872419D01*
X184619047Y-90872419D02*
X184523809Y-90824800D01*
X184523809Y-90824800D02*
X184476190Y-90777180D01*
X184476190Y-90777180D02*
X184428571Y-90681942D01*
X184428571Y-90681942D02*
X184428571Y-90396228D01*
X184428571Y-90396228D02*
X184476190Y-90300990D01*
X184476190Y-90300990D02*
X184523809Y-90253371D01*
X184523809Y-90253371D02*
X184619047Y-90205752D01*
X184619047Y-90205752D02*
X184809523Y-90205752D01*
X184809523Y-90205752D02*
X184904761Y-90253371D01*
X185809523Y-90205752D02*
X185809523Y-91015276D01*
X185809523Y-91015276D02*
X185761904Y-91110514D01*
X185761904Y-91110514D02*
X185714285Y-91158133D01*
X185714285Y-91158133D02*
X185619047Y-91205752D01*
X185619047Y-91205752D02*
X185476190Y-91205752D01*
X185476190Y-91205752D02*
X185380952Y-91158133D01*
X185809523Y-90824800D02*
X185714285Y-90872419D01*
X185714285Y-90872419D02*
X185523809Y-90872419D01*
X185523809Y-90872419D02*
X185428571Y-90824800D01*
X185428571Y-90824800D02*
X185380952Y-90777180D01*
X185380952Y-90777180D02*
X185333333Y-90681942D01*
X185333333Y-90681942D02*
X185333333Y-90396228D01*
X185333333Y-90396228D02*
X185380952Y-90300990D01*
X185380952Y-90300990D02*
X185428571Y-90253371D01*
X185428571Y-90253371D02*
X185523809Y-90205752D01*
X185523809Y-90205752D02*
X185714285Y-90205752D01*
X185714285Y-90205752D02*
X185809523Y-90253371D01*
X186428571Y-90872419D02*
X186333333Y-90824800D01*
X186333333Y-90824800D02*
X186285714Y-90729561D01*
X186285714Y-90729561D02*
X186285714Y-89872419D01*
X187190476Y-90824800D02*
X187095238Y-90872419D01*
X187095238Y-90872419D02*
X186904762Y-90872419D01*
X186904762Y-90872419D02*
X186809524Y-90824800D01*
X186809524Y-90824800D02*
X186761905Y-90729561D01*
X186761905Y-90729561D02*
X186761905Y-90348609D01*
X186761905Y-90348609D02*
X186809524Y-90253371D01*
X186809524Y-90253371D02*
X186904762Y-90205752D01*
X186904762Y-90205752D02*
X187095238Y-90205752D01*
X187095238Y-90205752D02*
X187190476Y-90253371D01*
X187190476Y-90253371D02*
X187238095Y-90348609D01*
X187238095Y-90348609D02*
X187238095Y-90443847D01*
X187238095Y-90443847D02*
X186761905Y-90539085D01*
X65303884Y-43872419D02*
X65303884Y-42872419D01*
X65780074Y-43205752D02*
X65780074Y-43872419D01*
X65780074Y-43300990D02*
X65827693Y-43253371D01*
X65827693Y-43253371D02*
X65922931Y-43205752D01*
X65922931Y-43205752D02*
X66065788Y-43205752D01*
X66065788Y-43205752D02*
X66161026Y-43253371D01*
X66161026Y-43253371D02*
X66208645Y-43348609D01*
X66208645Y-43348609D02*
X66208645Y-43872419D01*
X67161026Y-43872419D02*
X66684836Y-43872419D01*
X66684836Y-43872419D02*
X66684836Y-42872419D01*
X202066667Y-117872419D02*
X202733333Y-117872419D01*
X202733333Y-117872419D02*
X202066667Y-118872419D01*
X202066667Y-118872419D02*
X202733333Y-118872419D01*
G36*
X144317154Y-43305673D02*
G01*
X144317154Y-43941254D01*
X144315216Y-43987188D01*
X144309466Y-44029248D01*
X144300637Y-44065261D01*
X144288584Y-44097644D01*
X144274326Y-44124788D01*
X144257335Y-44148543D01*
X144238576Y-44168032D01*
X144217435Y-44184279D01*
X144169133Y-44206514D01*
X144111415Y-44215469D01*
X144102953Y-44215600D01*
X144071482Y-44213657D01*
X144042377Y-44207873D01*
X144016825Y-44198820D01*
X143993527Y-44186381D01*
X143954476Y-44152272D01*
X143924239Y-44104822D01*
X143903261Y-44041927D01*
X143893382Y-43960898D01*
X143892965Y-43938445D01*
X143892965Y-43305673D01*
X143780980Y-43305673D01*
X143780980Y-43976242D01*
X143782914Y-44023180D01*
X143788637Y-44067406D01*
X143797752Y-44107793D01*
X143810246Y-44145346D01*
X143825551Y-44179065D01*
X143843851Y-44209863D01*
X143864517Y-44237009D01*
X143887847Y-44261149D01*
X143913329Y-44281878D01*
X143941212Y-44299485D01*
X144003552Y-44324850D01*
X144074931Y-44336639D01*
X144098740Y-44337355D01*
X144137839Y-44335420D01*
X144174922Y-44329692D01*
X144209355Y-44320463D01*
X144241647Y-44307781D01*
X144271473Y-44291897D01*
X144299012Y-44272830D01*
X144346962Y-44225445D01*
X144385035Y-44165721D01*
X144412215Y-44093507D01*
X144426977Y-44008734D01*
X144429139Y-43958046D01*
X144429139Y-43305673D01*
X144317154Y-43305673D01*
G37*
G36*
X145207236Y-43599131D02*
G01*
X145199310Y-43526365D01*
X145187284Y-43471936D01*
X145165226Y-43418391D01*
X145148335Y-43391526D01*
X145128516Y-43367319D01*
X145080656Y-43327252D01*
X145021747Y-43298432D01*
X144951564Y-43281826D01*
X144896437Y-43278318D01*
X144854609Y-43280276D01*
X144815824Y-43286166D01*
X144782466Y-43295210D01*
X144751790Y-43307706D01*
X144725076Y-43322843D01*
X144700835Y-43341150D01*
X144671062Y-43372168D01*
X144635768Y-43430289D01*
X144612053Y-43499515D01*
X144605393Y-43537165D01*
X144602531Y-43576159D01*
X144602430Y-43585087D01*
X144604382Y-43623802D01*
X144610232Y-43659426D01*
X144619203Y-43689874D01*
X144631554Y-43717595D01*
X144646534Y-43741557D01*
X144664596Y-43762992D01*
X144709495Y-43797965D01*
X144768166Y-43823382D01*
X144777430Y-43826093D01*
X144946812Y-43873721D01*
X145004832Y-43892709D01*
X145049416Y-43912956D01*
X145073027Y-43928394D01*
X145091403Y-43945615D01*
X145103566Y-43962552D01*
X145112372Y-43981556D01*
X145121259Y-44028663D01*
X145121812Y-44047438D01*
X145119873Y-44076761D01*
X145114118Y-44103592D01*
X145105166Y-44126778D01*
X145092909Y-44147574D01*
X145059508Y-44181234D01*
X145013213Y-44205336D01*
X144951984Y-44218965D01*
X144910420Y-44221156D01*
X144873227Y-44219209D01*
X144838918Y-44213398D01*
X144809344Y-44204431D01*
X144782522Y-44192111D01*
X144759545Y-44177236D01*
X144739251Y-44159362D01*
X144711667Y-44123093D01*
X144697072Y-44094230D01*
X144687287Y-44063333D01*
X144679668Y-43994748D01*
X144679427Y-43985828D01*
X144574464Y-43985828D01*
X144577354Y-44048025D01*
X144584774Y-44099895D01*
X144593938Y-44134130D01*
X144606529Y-44165206D01*
X144634670Y-44211386D01*
X144658470Y-44241313D01*
X144684172Y-44266915D01*
X144709815Y-44286812D01*
X144737544Y-44303251D01*
X144799064Y-44325906D01*
X144874598Y-44336577D01*
X144904863Y-44337355D01*
X144949595Y-44335417D01*
X144991424Y-44329670D01*
X145028900Y-44320616D01*
X145063485Y-44308200D01*
X145094086Y-44293083D01*
X145121809Y-44274986D01*
X145146024Y-44254511D01*
X145167330Y-44231344D01*
X145200685Y-44177693D01*
X145221785Y-44113668D01*
X145229630Y-44038477D01*
X145229645Y-44034860D01*
X145227697Y-43993241D01*
X145221875Y-43954668D01*
X145212869Y-43921149D01*
X145200477Y-43890454D01*
X145185488Y-43863797D01*
X145167456Y-43839825D01*
X145146863Y-43818992D01*
X145123397Y-43800831D01*
X145067460Y-43772531D01*
X145042006Y-43764422D01*
X144806861Y-43698599D01*
X144780214Y-43689344D01*
X144758102Y-43677162D01*
X144742234Y-43663862D01*
X144729675Y-43648066D01*
X144714300Y-43609644D01*
X144710263Y-43568295D01*
X144712199Y-43537635D01*
X144717934Y-43509642D01*
X144726826Y-43485565D01*
X144738971Y-43464098D01*
X144753811Y-43445814D01*
X144771552Y-43430172D01*
X144815634Y-43407073D01*
X144872494Y-43395515D01*
X144896437Y-43394577D01*
X144928999Y-43396510D01*
X144959403Y-43402219D01*
X144986738Y-43411284D01*
X145011640Y-43423685D01*
X145033410Y-43438886D01*
X145052505Y-43457038D01*
X145070033Y-43480001D01*
X145084599Y-43509369D01*
X145094421Y-43541253D01*
X145102212Y-43599131D01*
X145207236Y-43599131D01*
G37*
G36*
X145744104Y-43305955D02*
G01*
X145805353Y-43316144D01*
X145832786Y-43326436D01*
X145857991Y-43340004D01*
X145880994Y-43356838D01*
X145901469Y-43376702D01*
X145919550Y-43399844D01*
X145934740Y-43425811D01*
X145947111Y-43455058D01*
X145956174Y-43486920D01*
X145961851Y-43521903D01*
X145963778Y-43559258D01*
X145957782Y-43623936D01*
X145939261Y-43678864D01*
X145924776Y-43703499D01*
X145906760Y-43726121D01*
X145882910Y-43748772D01*
X145854602Y-43769490D01*
X145891213Y-43789665D01*
X145940294Y-43827802D01*
X145973548Y-43871618D01*
X145985878Y-43898412D01*
X145994732Y-43928046D01*
X146000971Y-43967071D01*
X146002979Y-44011046D01*
X145998281Y-44073196D01*
X145979998Y-44141958D01*
X145949480Y-44199709D01*
X145908003Y-44246091D01*
X145883402Y-44264893D01*
X145856375Y-44280610D01*
X145826823Y-44293190D01*
X145795057Y-44302371D01*
X145760746Y-44308069D01*
X145724420Y-44310000D01*
X145368803Y-44310000D01*
X145368803Y-44193801D01*
X145480788Y-44193801D01*
X145718803Y-44193801D01*
X145736612Y-44193181D01*
X145789429Y-44182403D01*
X145831056Y-44159429D01*
X145848181Y-44143312D01*
X145862546Y-44124290D01*
X145874529Y-44101383D01*
X145883320Y-44075485D01*
X145889058Y-44044839D01*
X145890994Y-44011046D01*
X145890328Y-43991731D01*
X145879880Y-43939359D01*
X145857804Y-43899304D01*
X145841990Y-43882830D01*
X145823119Y-43869068D01*
X145799388Y-43857290D01*
X145772128Y-43848672D01*
X145737821Y-43842822D01*
X145699202Y-43840870D01*
X145480788Y-43840870D01*
X145480788Y-44193801D01*
X145368803Y-44193801D01*
X145368803Y-43731632D01*
X145480788Y-43731632D01*
X145681006Y-43731632D01*
X145689091Y-43731549D01*
X145749564Y-43724031D01*
X145792702Y-43706025D01*
X145809553Y-43693143D01*
X145823534Y-43677565D01*
X145835311Y-43657953D01*
X145843904Y-43635190D01*
X145849830Y-43605618D01*
X145851793Y-43571898D01*
X145846053Y-43519269D01*
X145829112Y-43479274D01*
X145816199Y-43463245D01*
X145800295Y-43449922D01*
X145779333Y-43438348D01*
X145754647Y-43429899D01*
X145721143Y-43423905D01*
X145682411Y-43421933D01*
X145480788Y-43421933D01*
X145480788Y-43731632D01*
X145368803Y-43731632D01*
X145368803Y-43305673D01*
X145731381Y-43305673D01*
X145744104Y-43305955D01*
G37*
G36*
X190928764Y-43599131D02*
G01*
X190920839Y-43526365D01*
X190908812Y-43471936D01*
X190886755Y-43418391D01*
X190869863Y-43391526D01*
X190850045Y-43367319D01*
X190802184Y-43327252D01*
X190743275Y-43298432D01*
X190673093Y-43281826D01*
X190617965Y-43278318D01*
X190576137Y-43280276D01*
X190537352Y-43286166D01*
X190503994Y-43295210D01*
X190473318Y-43307706D01*
X190446604Y-43322843D01*
X190422363Y-43341150D01*
X190392590Y-43372168D01*
X190357296Y-43430289D01*
X190333582Y-43499515D01*
X190326921Y-43537165D01*
X190324060Y-43576159D01*
X190323958Y-43585087D01*
X190325910Y-43623802D01*
X190331761Y-43659426D01*
X190340731Y-43689874D01*
X190353083Y-43717595D01*
X190368062Y-43741557D01*
X190386124Y-43762992D01*
X190431023Y-43797965D01*
X190489695Y-43823382D01*
X190498958Y-43826093D01*
X190668340Y-43873721D01*
X190726361Y-43892709D01*
X190770944Y-43912956D01*
X190794555Y-43928394D01*
X190812932Y-43945615D01*
X190825094Y-43962552D01*
X190833901Y-43981556D01*
X190842788Y-44028663D01*
X190843340Y-44047438D01*
X190841402Y-44076761D01*
X190835647Y-44103592D01*
X190826694Y-44126778D01*
X190814437Y-44147574D01*
X190781036Y-44181234D01*
X190734741Y-44205336D01*
X190673512Y-44218965D01*
X190631948Y-44221156D01*
X190594755Y-44219209D01*
X190560446Y-44213398D01*
X190530872Y-44204431D01*
X190504051Y-44192111D01*
X190481074Y-44177236D01*
X190460779Y-44159362D01*
X190433196Y-44123093D01*
X190418601Y-44094230D01*
X190408816Y-44063333D01*
X190401196Y-43994748D01*
X190400956Y-43985828D01*
X190295992Y-43985828D01*
X190298882Y-44048025D01*
X190306303Y-44099895D01*
X190315467Y-44134130D01*
X190328057Y-44165206D01*
X190356198Y-44211386D01*
X190379998Y-44241313D01*
X190405700Y-44266915D01*
X190431343Y-44286812D01*
X190459072Y-44303251D01*
X190520592Y-44325906D01*
X190596127Y-44336577D01*
X190626392Y-44337355D01*
X190671124Y-44335417D01*
X190712952Y-44329670D01*
X190750429Y-44320616D01*
X190785013Y-44308200D01*
X190815614Y-44293083D01*
X190843337Y-44274986D01*
X190867552Y-44254511D01*
X190888859Y-44231344D01*
X190922213Y-44177693D01*
X190943313Y-44113668D01*
X190951159Y-44038477D01*
X190951174Y-44034860D01*
X190949225Y-43993241D01*
X190943404Y-43954668D01*
X190934397Y-43921149D01*
X190922006Y-43890454D01*
X190907017Y-43863797D01*
X190888984Y-43839825D01*
X190868391Y-43818992D01*
X190844926Y-43800831D01*
X190788988Y-43772531D01*
X190763534Y-43764422D01*
X190528389Y-43698599D01*
X190501743Y-43689344D01*
X190479630Y-43677162D01*
X190463762Y-43663862D01*
X190451204Y-43648066D01*
X190435828Y-43609644D01*
X190431791Y-43568295D01*
X190433727Y-43537635D01*
X190439462Y-43509642D01*
X190448355Y-43485565D01*
X190460499Y-43464098D01*
X190475339Y-43445814D01*
X190493080Y-43430172D01*
X190537162Y-43407073D01*
X190594022Y-43395515D01*
X190617965Y-43394577D01*
X190650527Y-43396510D01*
X190680932Y-43402219D01*
X190708266Y-43411284D01*
X190733168Y-43423685D01*
X190754938Y-43438886D01*
X190774034Y-43457038D01*
X190791561Y-43480001D01*
X190806127Y-43509369D01*
X190815950Y-43541253D01*
X190823740Y-43599131D01*
X190928764Y-43599131D01*
G37*
G36*
X191500460Y-43312913D02*
G01*
X191533227Y-43322099D01*
X191564268Y-43334861D01*
X191594085Y-43351458D01*
X191621959Y-43371560D01*
X191648616Y-43395872D01*
X191673043Y-43423682D01*
X191695955Y-43456129D01*
X191716284Y-43492083D01*
X191734547Y-43532950D01*
X191749828Y-43577298D01*
X191762361Y-43626537D01*
X191771501Y-43679158D01*
X191777223Y-43736315D01*
X191779157Y-43796662D01*
X191778432Y-43834214D01*
X191766587Y-43948069D01*
X191741759Y-44048031D01*
X191706085Y-44132842D01*
X191661554Y-44202227D01*
X191620078Y-44244323D01*
X191593243Y-44263833D01*
X191564297Y-44280010D01*
X191532987Y-44292932D01*
X191499865Y-44302285D01*
X191464556Y-44308058D01*
X191427752Y-44310000D01*
X191097353Y-44310000D01*
X191097353Y-44193801D01*
X191209338Y-44193801D01*
X191424944Y-44193801D01*
X191468147Y-44189357D01*
X191494404Y-44181742D01*
X191519009Y-44170515D01*
X191542681Y-44155184D01*
X191564453Y-44136186D01*
X191585312Y-44112258D01*
X191603904Y-44084480D01*
X191621087Y-44050891D01*
X191635535Y-44013245D01*
X191647722Y-43969244D01*
X191656649Y-43921056D01*
X191662368Y-43866529D01*
X191664302Y-43807836D01*
X191664280Y-43801117D01*
X191656735Y-43690650D01*
X191637648Y-43603582D01*
X191609465Y-43536695D01*
X191573692Y-43486839D01*
X191530628Y-43451544D01*
X191505951Y-43438870D01*
X191479325Y-43429682D01*
X191449640Y-43423878D01*
X191417922Y-43421933D01*
X191209338Y-43421933D01*
X191209338Y-44193801D01*
X191097353Y-44193801D01*
X191097353Y-43305673D01*
X191431905Y-43305673D01*
X191500460Y-43312913D01*
G37*
G36*
X192924717Y-43607496D02*
G01*
X192914993Y-43547405D01*
X192901527Y-43499682D01*
X192871472Y-43437991D01*
X192851688Y-43407489D01*
X192829227Y-43379994D01*
X192804383Y-43355716D01*
X192777192Y-43334582D01*
X192716352Y-43302085D01*
X192647482Y-43283118D01*
X192587295Y-43278318D01*
X192548089Y-43280257D01*
X192510634Y-43286015D01*
X192475492Y-43295341D01*
X192442177Y-43308205D01*
X192381392Y-43344119D01*
X192328057Y-43393757D01*
X192282482Y-43457717D01*
X192245606Y-43536878D01*
X192218942Y-43632037D01*
X192204397Y-43743589D01*
X192202308Y-43809241D01*
X192204243Y-43872868D01*
X192209974Y-43933107D01*
X192219112Y-43988441D01*
X192231649Y-44040261D01*
X192246928Y-44086949D01*
X192265201Y-44130077D01*
X192285557Y-44168152D01*
X192308523Y-44202683D01*
X192333045Y-44232499D01*
X192359836Y-44258811D01*
X192387902Y-44280873D01*
X192417960Y-44299450D01*
X192449298Y-44314185D01*
X192482421Y-44325389D01*
X192517073Y-44332940D01*
X192553364Y-44336818D01*
X192573312Y-44337355D01*
X192610195Y-44335411D01*
X192646178Y-44329625D01*
X192680828Y-44320110D01*
X192714034Y-44306913D01*
X192745145Y-44290327D01*
X192774313Y-44270272D01*
X192811266Y-44236605D01*
X192837586Y-44206717D01*
X192860145Y-44174129D01*
X192892894Y-44104432D01*
X192920362Y-44005968D01*
X192933082Y-43940949D01*
X192825310Y-43940949D01*
X192809078Y-44013142D01*
X192790812Y-44066232D01*
X192765104Y-44113323D01*
X192743827Y-44141396D01*
X192720801Y-44164934D01*
X192697946Y-44182629D01*
X192673430Y-44196516D01*
X192620933Y-44212655D01*
X192583082Y-44215600D01*
X192550494Y-44213657D01*
X192519813Y-44207876D01*
X192491875Y-44198648D01*
X192465831Y-44185925D01*
X192419782Y-44150427D01*
X192381030Y-44100593D01*
X192349978Y-44034576D01*
X192328083Y-43950085D01*
X192317618Y-43844994D01*
X192317102Y-43813454D01*
X192319039Y-43753415D01*
X192324781Y-43697544D01*
X192333739Y-43648140D01*
X192345995Y-43602816D01*
X192360590Y-43563705D01*
X192377996Y-43528497D01*
X192397005Y-43498850D01*
X192418401Y-43472900D01*
X192440995Y-43451662D01*
X192465649Y-43433963D01*
X192491543Y-43420225D01*
X192519279Y-43409987D01*
X192579834Y-43400322D01*
X192590104Y-43400134D01*
X192650728Y-43407680D01*
X192679354Y-43416994D01*
X192706004Y-43429720D01*
X192739886Y-43453379D01*
X192761930Y-43475964D01*
X192779597Y-43500890D01*
X192803465Y-43556675D01*
X192816884Y-43607496D01*
X192924717Y-43607496D01*
G37*
G36*
X193356410Y-43561537D02*
G01*
X193414369Y-43579930D01*
X193459722Y-43609223D01*
X193477955Y-43627739D01*
X193493195Y-43648766D01*
X193505526Y-43672655D01*
X193514540Y-43698963D01*
X193520262Y-43728636D01*
X193522196Y-43760697D01*
X193522196Y-44184031D01*
X193523588Y-44199698D01*
X193533595Y-44220071D01*
X193542712Y-44225760D01*
X193554375Y-44227690D01*
X193589363Y-44220423D01*
X193589363Y-44310000D01*
X193587502Y-44310596D01*
X193576784Y-44315861D01*
X193575361Y-44316406D01*
X193552040Y-44323501D01*
X193530561Y-44325631D01*
X193492562Y-44321354D01*
X193462563Y-44306358D01*
X193450345Y-44293071D01*
X193440804Y-44275865D01*
X193432014Y-44247068D01*
X193426941Y-44210593D01*
X193382813Y-44260035D01*
X193332611Y-44298842D01*
X193306562Y-44312041D01*
X193279324Y-44321439D01*
X193247851Y-44327549D01*
X193214145Y-44329539D01*
X193176486Y-44326399D01*
X193149988Y-44319899D01*
X193125601Y-44310006D01*
X193103369Y-44296800D01*
X193083536Y-44280464D01*
X193065929Y-44260743D01*
X193051098Y-44238075D01*
X193038903Y-44211884D01*
X193029945Y-44182914D01*
X193024279Y-44150471D01*
X193022353Y-44115460D01*
X193022783Y-44104164D01*
X193127377Y-44104164D01*
X193127991Y-44121213D01*
X193137913Y-44167200D01*
X193158277Y-44199225D01*
X193172628Y-44211016D01*
X193189600Y-44219672D01*
X193210895Y-44225443D01*
X193235150Y-44227384D01*
X193254075Y-44226459D01*
X193281940Y-44221654D01*
X193308328Y-44213045D01*
X193333183Y-44200785D01*
X193355744Y-44185315D01*
X193391803Y-44147044D01*
X193413942Y-44102587D01*
X193421385Y-44055193D01*
X193421385Y-43934781D01*
X193402827Y-43947515D01*
X193373765Y-43957885D01*
X193254750Y-43980943D01*
X193245299Y-43982657D01*
X193190425Y-43999071D01*
X193156342Y-44021642D01*
X193144260Y-44036378D01*
X193135542Y-44053509D01*
X193129375Y-44076938D01*
X193127377Y-44104164D01*
X193022783Y-44104164D01*
X193023372Y-44088671D01*
X193035351Y-44026060D01*
X193059441Y-43975392D01*
X193075830Y-43954100D01*
X193095050Y-43935517D01*
X193117553Y-43919398D01*
X193142871Y-43906269D01*
X193172176Y-43895854D01*
X193204375Y-43888864D01*
X193370949Y-43863646D01*
X193397306Y-43854336D01*
X193408026Y-43844687D01*
X193415900Y-43831630D01*
X193422180Y-43809007D01*
X193424193Y-43779748D01*
X193422611Y-43755126D01*
X193410381Y-43715028D01*
X193399813Y-43699053D01*
X193386263Y-43685696D01*
X193368315Y-43674230D01*
X193346902Y-43665808D01*
X193318466Y-43659947D01*
X193285586Y-43657993D01*
X193264335Y-43658813D01*
X193219623Y-43668604D01*
X193187188Y-43689677D01*
X193173383Y-43706620D01*
X193162161Y-43727670D01*
X193151515Y-43759903D01*
X193144169Y-43799288D01*
X193051784Y-43800081D01*
X193052854Y-43783603D01*
X193063131Y-43711565D01*
X193073409Y-43680929D01*
X193088176Y-43652437D01*
X193116111Y-43617566D01*
X193137260Y-43599719D01*
X193161192Y-43584831D01*
X193189043Y-43572493D01*
X193219666Y-43563501D01*
X193254726Y-43557720D01*
X193292547Y-43555778D01*
X193356410Y-43561537D01*
G37*
G36*
X193999141Y-43686020D02*
G01*
X193999141Y-43559991D01*
X193972519Y-43555778D01*
X193946950Y-43557780D01*
X193923193Y-43563980D01*
X193883494Y-43586983D01*
X193845421Y-43628211D01*
X193801732Y-43701407D01*
X193801732Y-43579225D01*
X193706538Y-43579225D01*
X193706538Y-44310000D01*
X193807349Y-44310000D01*
X193807349Y-43883857D01*
X193809261Y-43851002D01*
X193814824Y-43820220D01*
X193823831Y-43791717D01*
X193836006Y-43765975D01*
X193850791Y-43743710D01*
X193868134Y-43724747D01*
X193886995Y-43709922D01*
X193907776Y-43698726D01*
X193929263Y-43691670D01*
X193952116Y-43688445D01*
X193961345Y-43688279D01*
X193999141Y-43686020D01*
G37*
G36*
X194572929Y-44310000D02*
G01*
X194477735Y-44310000D01*
X194477735Y-44204914D01*
X194441724Y-44265662D01*
X194405866Y-44301394D01*
X194385490Y-44313720D01*
X194363299Y-44322395D01*
X194335280Y-44328097D01*
X194304139Y-44329539D01*
X194301408Y-44329523D01*
X194271696Y-44327272D01*
X194243431Y-44321281D01*
X194216246Y-44311466D01*
X194190711Y-44298010D01*
X194166039Y-44280319D01*
X194143317Y-44258958D01*
X194121660Y-44232732D01*
X194102347Y-44202754D01*
X194084708Y-44167415D01*
X194069879Y-44128278D01*
X194057556Y-44083700D01*
X194048533Y-44035388D01*
X194042837Y-43982056D01*
X194041145Y-43932217D01*
X194145931Y-43932217D01*
X194151535Y-44023414D01*
X194168404Y-44100047D01*
X194193373Y-44154997D01*
X194224441Y-44192028D01*
X194261352Y-44214064D01*
X194282651Y-44219827D01*
X194305544Y-44221767D01*
X194339318Y-44217703D01*
X194361498Y-44210246D01*
X194382208Y-44199167D01*
X194400948Y-44184744D01*
X194417529Y-44167056D01*
X194442426Y-44126939D01*
X194454174Y-44096255D01*
X194462726Y-44061307D01*
X194468738Y-44015140D01*
X194470713Y-43962320D01*
X194464685Y-43863164D01*
X194447816Y-43786007D01*
X194423141Y-43731386D01*
X194392324Y-43694703D01*
X194355185Y-43672760D01*
X194333345Y-43666960D01*
X194309757Y-43665015D01*
X194280805Y-43667234D01*
X194237694Y-43681467D01*
X194218950Y-43693816D01*
X194202378Y-43709615D01*
X194186875Y-43730609D01*
X194173882Y-43755665D01*
X194162284Y-43788588D01*
X194153793Y-43826643D01*
X194147891Y-43876099D01*
X194145931Y-43932217D01*
X194041145Y-43932217D01*
X194040907Y-43925195D01*
X194048091Y-43825512D01*
X194068109Y-43741244D01*
X194098328Y-43673602D01*
X194136481Y-43622062D01*
X194181116Y-43585589D01*
X194231768Y-43563425D01*
X194259530Y-43557710D01*
X194288752Y-43555778D01*
X194340899Y-43561887D01*
X194364378Y-43569896D01*
X194386161Y-43581429D01*
X194407923Y-43597938D01*
X194428251Y-43618914D01*
X194450773Y-43649711D01*
X194472117Y-43687363D01*
X194472117Y-43305673D01*
X194572929Y-43305673D01*
X194572929Y-44310000D01*
G37*
X210637217Y-79574389D02*
X210780074Y-79622008D01*
X210780074Y-79622008D02*
X210827693Y-79669627D01*
X210827693Y-79669627D02*
X210875312Y-79764865D01*
X210875312Y-79764865D02*
X210875312Y-79907722D01*
X210875312Y-79907722D02*
X210827693Y-80002960D01*
X210827693Y-80002960D02*
X210780074Y-80050580D01*
X210780074Y-80050580D02*
X210684836Y-80098199D01*
X210684836Y-80098199D02*
X210303884Y-80098199D01*
X210303884Y-80098199D02*
X210303884Y-79098199D01*
X210303884Y-79098199D02*
X210637217Y-79098199D01*
X210637217Y-79098199D02*
X210732455Y-79145818D01*
X210732455Y-79145818D02*
X210780074Y-79193437D01*
X210780074Y-79193437D02*
X210827693Y-79288675D01*
X210827693Y-79288675D02*
X210827693Y-79383913D01*
X210827693Y-79383913D02*
X210780074Y-79479151D01*
X210780074Y-79479151D02*
X210732455Y-79526770D01*
X210732455Y-79526770D02*
X210637217Y-79574389D01*
X210637217Y-79574389D02*
X210303884Y-79574389D01*
M02*
