%TF.GenerationSoftware,KiCad,Pcbnew,9.0.5-9.0.5~ubuntu24.04.1*%
%TF.CreationDate,2025-11-03T10:22:09+00:00*%
%TF.ProjectId,memlnaut_0_3_joystick,6d656d6c-6e61-4757-945f-305f335f6a6f,rev?*%
%TF.SameCoordinates,Original*%
%TF.FileFunction,Legend,Top*%
%TF.FilePolarity,Positive*%
%FSLAX46Y46*%
G04 Gerber Fmt 4.6, Leading zero omitted, Abs format (unit mm)*
G04 Created by KiCad (PCBNEW 9.0.5-9.0.5~ubuntu24.04.1) date 2025-11-03 10:22:09*
%MOMM*%
%LPD*%
G01*
G04 APERTURE LIST*
%ADD10C,0.375000*%
%ADD11C,0.187500*%
%ADD12C,0.000000*%
G04 APERTURE END LIST*
D10*
X161506364Y-78981994D02*
X162934936Y-78981994D01*
X161220650Y-79839137D02*
X162220650Y-76839137D01*
X162220650Y-76839137D02*
X163220650Y-79839137D01*
D11*
X65480497Y-43806678D02*
X65480497Y-42306678D01*
X66194783Y-42806678D02*
X66194783Y-43806678D01*
X66194783Y-42949535D02*
X66266212Y-42878107D01*
X66266212Y-42878107D02*
X66409069Y-42806678D01*
X66409069Y-42806678D02*
X66623355Y-42806678D01*
X66623355Y-42806678D02*
X66766212Y-42878107D01*
X66766212Y-42878107D02*
X66837641Y-43020964D01*
X66837641Y-43020964D02*
X66837641Y-43806678D01*
X68266212Y-43806678D02*
X67551926Y-43806678D01*
X67551926Y-43806678D02*
X67551926Y-42306678D01*
X92205497Y-43806678D02*
X92205497Y-42306678D01*
X92919783Y-42806678D02*
X92919783Y-43806678D01*
X92919783Y-42949535D02*
X92991212Y-42878107D01*
X92991212Y-42878107D02*
X93134069Y-42806678D01*
X93134069Y-42806678D02*
X93348355Y-42806678D01*
X93348355Y-42806678D02*
X93491212Y-42878107D01*
X93491212Y-42878107D02*
X93562641Y-43020964D01*
X93562641Y-43020964D02*
X93562641Y-43806678D01*
X95134069Y-43806678D02*
X94634069Y-43092392D01*
X94276926Y-43806678D02*
X94276926Y-42306678D01*
X94276926Y-42306678D02*
X94848355Y-42306678D01*
X94848355Y-42306678D02*
X94991212Y-42378107D01*
X94991212Y-42378107D02*
X95062641Y-42449535D01*
X95062641Y-42449535D02*
X95134069Y-42592392D01*
X95134069Y-42592392D02*
X95134069Y-42806678D01*
X95134069Y-42806678D02*
X95062641Y-42949535D01*
X95062641Y-42949535D02*
X94991212Y-43020964D01*
X94991212Y-43020964D02*
X94848355Y-43092392D01*
X94848355Y-43092392D02*
X94276926Y-43092392D01*
X92641212Y-59306678D02*
X92926926Y-59306678D01*
X92926926Y-59306678D02*
X93069783Y-59378107D01*
X93069783Y-59378107D02*
X93212640Y-59520964D01*
X93212640Y-59520964D02*
X93284069Y-59806678D01*
X93284069Y-59806678D02*
X93284069Y-60306678D01*
X93284069Y-60306678D02*
X93212640Y-60592392D01*
X93212640Y-60592392D02*
X93069783Y-60735250D01*
X93069783Y-60735250D02*
X92926926Y-60806678D01*
X92926926Y-60806678D02*
X92641212Y-60806678D01*
X92641212Y-60806678D02*
X92498355Y-60735250D01*
X92498355Y-60735250D02*
X92355497Y-60592392D01*
X92355497Y-60592392D02*
X92284069Y-60306678D01*
X92284069Y-60306678D02*
X92284069Y-59806678D01*
X92284069Y-59806678D02*
X92355497Y-59520964D01*
X92355497Y-59520964D02*
X92498355Y-59378107D01*
X92498355Y-59378107D02*
X92641212Y-59306678D01*
X94569784Y-59806678D02*
X94569784Y-60806678D01*
X93926926Y-59806678D02*
X93926926Y-60592392D01*
X93926926Y-60592392D02*
X93998355Y-60735250D01*
X93998355Y-60735250D02*
X94141212Y-60806678D01*
X94141212Y-60806678D02*
X94355498Y-60806678D01*
X94355498Y-60806678D02*
X94498355Y-60735250D01*
X94498355Y-60735250D02*
X94569784Y-60663821D01*
X95069784Y-59806678D02*
X95641212Y-59806678D01*
X95284069Y-59306678D02*
X95284069Y-60592392D01*
X95284069Y-60592392D02*
X95355498Y-60735250D01*
X95355498Y-60735250D02*
X95498355Y-60806678D01*
X95498355Y-60806678D02*
X95641212Y-60806678D01*
X96998355Y-60806678D02*
X96498355Y-60092392D01*
X96141212Y-60806678D02*
X96141212Y-59306678D01*
X96141212Y-59306678D02*
X96712641Y-59306678D01*
X96712641Y-59306678D02*
X96855498Y-59378107D01*
X96855498Y-59378107D02*
X96926927Y-59449535D01*
X96926927Y-59449535D02*
X96998355Y-59592392D01*
X96998355Y-59592392D02*
X96998355Y-59806678D01*
X96998355Y-59806678D02*
X96926927Y-59949535D01*
X96926927Y-59949535D02*
X96855498Y-60020964D01*
X96855498Y-60020964D02*
X96712641Y-60092392D01*
X96712641Y-60092392D02*
X96141212Y-60092392D01*
G36*
X112302930Y-58915000D02*
G01*
X110177041Y-51628747D01*
X110133565Y-51628747D01*
X110188276Y-53084923D01*
X110188276Y-58915000D01*
X109674389Y-58915000D01*
X109674389Y-50911650D01*
X110466713Y-50911650D01*
X112258967Y-57031887D01*
X112465019Y-57816482D01*
X112570621Y-58411371D01*
X112614096Y-58411371D01*
X112708395Y-57939705D01*
X112953105Y-57042634D01*
X114729239Y-50911650D01*
X115549406Y-50911650D01*
X115549406Y-58915000D01*
X115013538Y-58915000D01*
X115013538Y-53128398D01*
X115068248Y-51639494D01*
X115024773Y-51639494D01*
X112909630Y-58915000D01*
X112302930Y-58915000D01*
G37*
G36*
X120198813Y-58915000D02*
G01*
X117302581Y-58915000D01*
X117302581Y-50911650D01*
X120198813Y-50911650D01*
X120198813Y-51425537D01*
X117837962Y-51425537D01*
X117837962Y-54475642D01*
X120067899Y-54475642D01*
X120067899Y-54989528D01*
X117837962Y-54989528D01*
X117837962Y-58401113D01*
X120198813Y-58401113D01*
X120198813Y-58915000D01*
G37*
G36*
X124237613Y-58915000D02*
G01*
X122111723Y-51628747D01*
X122068248Y-51628747D01*
X122122958Y-53084923D01*
X122122958Y-58915000D01*
X121609071Y-58915000D01*
X121609071Y-50911650D01*
X122401395Y-50911650D01*
X124193649Y-57031887D01*
X124399701Y-57816482D01*
X124505303Y-58411371D01*
X124548778Y-58411371D01*
X124643077Y-57939705D01*
X124887787Y-57042634D01*
X126663921Y-50911650D01*
X127484089Y-50911650D01*
X127484089Y-58915000D01*
X126948220Y-58915000D01*
X126948220Y-53128398D01*
X127002930Y-51639494D01*
X126959455Y-51639494D01*
X124844312Y-58915000D01*
X124237613Y-58915000D01*
G37*
G36*
X129237264Y-58915000D02*
G01*
X129237264Y-50911650D01*
X129772644Y-50911650D01*
X129772644Y-58401113D01*
X132024563Y-58401113D01*
X132024563Y-58915000D01*
X129237264Y-58915000D01*
G37*
G36*
X137329518Y-58915000D02*
G01*
X136646615Y-58915000D01*
X133624354Y-51738168D01*
X133580879Y-51738168D01*
X133630311Y-52476407D01*
X133646336Y-53172362D01*
X133646336Y-58915000D01*
X133121702Y-58915000D01*
X133121702Y-50911650D01*
X133815840Y-50911650D01*
X136816120Y-58006416D01*
X136848848Y-58006416D01*
X136804884Y-56506277D01*
X136804884Y-50911650D01*
X137329518Y-50911650D01*
X137329518Y-58915000D01*
G37*
G36*
X140701900Y-52914107D02*
G01*
X140988560Y-53004898D01*
X141215908Y-53147216D01*
X141394696Y-53342355D01*
X141557183Y-53669008D01*
X141672142Y-54162993D01*
X141717096Y-54883527D01*
X141717096Y-58915000D01*
X141290648Y-58915000D01*
X141225191Y-58099228D01*
X141203210Y-58099228D01*
X140946862Y-58531607D01*
X140651398Y-58816631D01*
X140312231Y-58983056D01*
X139913607Y-59040052D01*
X139550176Y-58987809D01*
X139244461Y-58835873D01*
X138981577Y-58576479D01*
X138793216Y-58249787D01*
X138672874Y-57842412D01*
X138630130Y-57342564D01*
X139175505Y-57342564D01*
X139206360Y-57773892D01*
X139287085Y-58082541D01*
X139405094Y-58298531D01*
X139576801Y-58467661D01*
X139780831Y-58567671D01*
X140027913Y-58602369D01*
X140289302Y-58568234D01*
X140515691Y-58468570D01*
X140716146Y-58299553D01*
X140894487Y-58047449D01*
X141054762Y-57663565D01*
X141162790Y-57150769D01*
X141203210Y-56475502D01*
X141203210Y-55851217D01*
X140585764Y-55884434D01*
X140122531Y-55952919D01*
X139777042Y-56089428D01*
X139522330Y-56284993D01*
X139337726Y-56547157D01*
X139219052Y-56891493D01*
X139175505Y-57342564D01*
X138630130Y-57342564D01*
X138629378Y-57333771D01*
X138664059Y-56913540D01*
X138762423Y-56556083D01*
X138919901Y-56250042D01*
X139137404Y-55987016D01*
X139404690Y-55774882D01*
X139724583Y-55612576D01*
X140106791Y-55501215D01*
X140563782Y-55446263D01*
X141203210Y-55413534D01*
X141203210Y-54926025D01*
X141174381Y-54374654D01*
X141100230Y-53988325D01*
X140995603Y-53726793D01*
X140828684Y-53519144D01*
X140605446Y-53394719D01*
X140306838Y-53350170D01*
X139976820Y-53384882D01*
X139633045Y-53492828D01*
X139268806Y-53683806D01*
X139044591Y-53272013D01*
X139469452Y-53052263D01*
X139898934Y-52923825D01*
X140340055Y-52881224D01*
X140701900Y-52914107D01*
G37*
G36*
X143775575Y-52975013D02*
G01*
X143775575Y-56862383D01*
X143804792Y-57455138D01*
X143879915Y-57870932D01*
X143985624Y-58152473D01*
X144155034Y-58381897D01*
X144366286Y-58513439D01*
X144633356Y-58558893D01*
X144956134Y-58522595D01*
X145220387Y-58419916D01*
X145439206Y-58252686D01*
X145619609Y-58012766D01*
X145777935Y-57631438D01*
X145890369Y-57063535D01*
X145934193Y-56247379D01*
X145934193Y-52975013D01*
X146448080Y-52975013D01*
X146448080Y-58915000D01*
X146010886Y-58915000D01*
X145945429Y-58095809D01*
X145901465Y-58095809D01*
X145667859Y-58506045D01*
X145371458Y-58795809D01*
X145015375Y-58979709D01*
X144633845Y-59040052D01*
X144284704Y-59004935D01*
X144002490Y-58906698D01*
X143772883Y-58749691D01*
X143587020Y-58529584D01*
X143420127Y-58170362D01*
X143302243Y-57634198D01*
X143256315Y-56860917D01*
X143256315Y-52975013D01*
X143775575Y-52975013D01*
G37*
G36*
X149117655Y-58558893D02*
G01*
X149350134Y-58541680D01*
X149544103Y-58493436D01*
X149544103Y-58930631D01*
X149283908Y-59010084D01*
X148926657Y-59040052D01*
X148609008Y-58989660D01*
X148367978Y-58847115D01*
X148184116Y-58604103D01*
X148057628Y-58226739D01*
X148008304Y-57662034D01*
X148008304Y-53434190D01*
X147472923Y-53434190D01*
X147472923Y-53127909D01*
X147997557Y-52975013D01*
X148167062Y-51568175D01*
X148527564Y-51568175D01*
X148527564Y-52975013D01*
X149467899Y-52975013D01*
X149467899Y-53434190D01*
X148527564Y-53434190D01*
X148527564Y-57515488D01*
X148568150Y-58068806D01*
X148658478Y-58339075D01*
X148763374Y-58457779D01*
X148911308Y-58531680D01*
X149117655Y-58558893D01*
G37*
D10*
X185000000Y-125677957D02*
X185000000Y-127106529D01*
X184000000Y-124106529D02*
X185000000Y-125677957D01*
X185000000Y-125677957D02*
X186000000Y-124106529D01*
D11*
G36*
X102450301Y-44225000D02*
G01*
X102450301Y-42718510D01*
X102213080Y-42718510D01*
X101860272Y-43998403D01*
X101505356Y-42718510D01*
X101265937Y-42718510D01*
X101265937Y-44225000D01*
X101427687Y-44225000D01*
X101427687Y-43335375D01*
X101425406Y-43131055D01*
X101423474Y-42949319D01*
X101776283Y-44225000D01*
X101940047Y-44225000D01*
X102292856Y-42947304D01*
X102289960Y-43199557D01*
X102288643Y-43335375D01*
X102288643Y-44225000D01*
X102450301Y-44225000D01*
G37*
G36*
X102896533Y-42718510D02*
G01*
X102730662Y-42718510D01*
X102730662Y-44225000D01*
X102896533Y-44225000D01*
X102896533Y-42718510D01*
G37*
G36*
X103794194Y-42729369D02*
G01*
X103843344Y-42743148D01*
X103889906Y-42762291D01*
X103934631Y-42787187D01*
X103976443Y-42817340D01*
X104016428Y-42853808D01*
X104053067Y-42895524D01*
X104087436Y-42944194D01*
X104117929Y-42998125D01*
X104145324Y-43059425D01*
X104168246Y-43125947D01*
X104187045Y-43199806D01*
X104200755Y-43278737D01*
X104209338Y-43364473D01*
X104212239Y-43454993D01*
X104211151Y-43511322D01*
X104193383Y-43682104D01*
X104156143Y-43832047D01*
X104102631Y-43959263D01*
X104035834Y-44063341D01*
X103973621Y-44126484D01*
X103933369Y-44155750D01*
X103889950Y-44180016D01*
X103842984Y-44199398D01*
X103793301Y-44213428D01*
X103740338Y-44222088D01*
X103685132Y-44225000D01*
X103189533Y-44225000D01*
X103189533Y-44050702D01*
X103357511Y-44050702D01*
X103680919Y-44050702D01*
X103745723Y-44044036D01*
X103785110Y-44032614D01*
X103822017Y-44015773D01*
X103857524Y-43992776D01*
X103890183Y-43964279D01*
X103921471Y-43928387D01*
X103949359Y-43886720D01*
X103975134Y-43836337D01*
X103996805Y-43779868D01*
X104015087Y-43713866D01*
X104028476Y-43641584D01*
X104037055Y-43559793D01*
X104039956Y-43471755D01*
X104039924Y-43461676D01*
X104028606Y-43295975D01*
X103999976Y-43165373D01*
X103957701Y-43065043D01*
X103904042Y-42990259D01*
X103839445Y-42937316D01*
X103802430Y-42918305D01*
X103762491Y-42904524D01*
X103717963Y-42895818D01*
X103670386Y-42892899D01*
X103357511Y-42892899D01*
X103357511Y-44050702D01*
X103189533Y-44050702D01*
X103189533Y-42718510D01*
X103691360Y-42718510D01*
X103794194Y-42729369D01*
G37*
G36*
X104616980Y-42718510D02*
G01*
X104451108Y-42718510D01*
X104451108Y-44225000D01*
X104616980Y-44225000D01*
X104616980Y-42718510D01*
G37*
G36*
X105980030Y-42679748D02*
G01*
X106088892Y-42700571D01*
X106139393Y-42718960D01*
X106187317Y-42742622D01*
X106233101Y-42771886D01*
X106276062Y-42806455D01*
X106317120Y-42847402D01*
X106355005Y-42893835D01*
X106390802Y-42947677D01*
X106422972Y-43007296D01*
X106452049Y-43075861D01*
X106476386Y-43149113D01*
X106496027Y-43227484D01*
X106510289Y-43308894D01*
X106521707Y-43473861D01*
X106520583Y-43526356D01*
X106502168Y-43688679D01*
X106463030Y-43836557D01*
X106406170Y-43966084D01*
X106334770Y-44074973D01*
X106318248Y-44094690D01*
X106280234Y-44133344D01*
X106238659Y-44167266D01*
X106193288Y-44196627D01*
X106144768Y-44220960D01*
X106092610Y-44240395D01*
X106037719Y-44254454D01*
X105979477Y-44263120D01*
X105918947Y-44266032D01*
X105885335Y-44265145D01*
X105771242Y-44247788D01*
X105668752Y-44209520D01*
X105579023Y-44151649D01*
X105539300Y-44115632D01*
X105503215Y-44074973D01*
X105485647Y-44051800D01*
X105448176Y-43994883D01*
X105415094Y-43933479D01*
X105385812Y-43866103D01*
X105361459Y-43794820D01*
X105341935Y-43718919D01*
X105327794Y-43639870D01*
X105319182Y-43558001D01*
X105316277Y-43473861D01*
X105488469Y-43473861D01*
X105490480Y-43541216D01*
X105510274Y-43686205D01*
X105548369Y-43808592D01*
X105601273Y-43907709D01*
X105666080Y-43984058D01*
X105740937Y-44038612D01*
X105825162Y-44071923D01*
X105870954Y-44080500D01*
X105918947Y-44083400D01*
X105943428Y-44082658D01*
X105990263Y-44076885D01*
X106034836Y-44065544D01*
X106077754Y-44048466D01*
X106118057Y-44025998D01*
X106156789Y-43997338D01*
X106192435Y-43963342D01*
X106226069Y-43922551D01*
X106256031Y-43876454D01*
X106283074Y-43823224D01*
X106305781Y-43764794D01*
X106324440Y-43699441D01*
X106338087Y-43629141D01*
X106346622Y-43552712D01*
X106349516Y-43471755D01*
X106347699Y-43407990D01*
X106328201Y-43262029D01*
X106290162Y-43138102D01*
X106237256Y-43037514D01*
X106172703Y-42960141D01*
X106098702Y-42905091D01*
X106016225Y-42871663D01*
X105971758Y-42863099D01*
X105925266Y-42860201D01*
X105896167Y-42861173D01*
X105848222Y-42867284D01*
X105802764Y-42878876D01*
X105759439Y-42896007D01*
X105718885Y-42918415D01*
X105680191Y-42946788D01*
X105644674Y-42980390D01*
X105611254Y-43020671D01*
X105581542Y-43066208D01*
X105554677Y-43119035D01*
X105532148Y-43177125D01*
X105513537Y-43242680D01*
X105499936Y-43313397D01*
X105491368Y-43391175D01*
X105488469Y-43473861D01*
X105316277Y-43473861D01*
X105317932Y-43409089D01*
X105337699Y-43245406D01*
X105377525Y-43098330D01*
X105433885Y-42972077D01*
X105503215Y-42868627D01*
X105520818Y-42848086D01*
X105601605Y-42775221D01*
X105646728Y-42746222D01*
X105694925Y-42722259D01*
X105747241Y-42703035D01*
X105802677Y-42689139D01*
X105863394Y-42680400D01*
X105927373Y-42677477D01*
X105980030Y-42679748D01*
G37*
G36*
X107430657Y-44225000D02*
G01*
X107430657Y-43128838D01*
X107279440Y-43128838D01*
X107279440Y-43732514D01*
X107276552Y-43796417D01*
X107268059Y-43855098D01*
X107254847Y-43906248D01*
X107236920Y-43951907D01*
X107215810Y-43989780D01*
X107190871Y-44022165D01*
X107163960Y-44047478D01*
X107133965Y-44067412D01*
X107102329Y-44081303D01*
X107068132Y-44089785D01*
X107031595Y-44092650D01*
X106995704Y-44089728D01*
X106963906Y-44080992D01*
X106938176Y-44067795D01*
X106915969Y-44049714D01*
X106882317Y-43999376D01*
X106861945Y-43924774D01*
X106857297Y-43854330D01*
X106857297Y-43128838D01*
X106706080Y-43128838D01*
X106706080Y-43914964D01*
X106708984Y-43973123D01*
X106717590Y-44026394D01*
X106730869Y-44072215D01*
X106748993Y-44113300D01*
X106770645Y-44147890D01*
X106796454Y-44177885D01*
X106825401Y-44202493D01*
X106858051Y-44222493D01*
X106934060Y-44248149D01*
X107002194Y-44254309D01*
X107054330Y-44252101D01*
X107100408Y-44243157D01*
X107134739Y-44230132D01*
X107166327Y-44211554D01*
X107222714Y-44157387D01*
X107281557Y-44066527D01*
X107287775Y-44054915D01*
X107287775Y-44225000D01*
X107430657Y-44225000D01*
G37*
G36*
X107988538Y-43282161D02*
G01*
X107988538Y-43128838D01*
X107841535Y-43128838D01*
X107841535Y-42822282D01*
X107690409Y-42822282D01*
X107690409Y-43128838D01*
X107568593Y-43128838D01*
X107568593Y-43282161D01*
X107690409Y-43282161D01*
X107690409Y-44007288D01*
X107693354Y-44065861D01*
X107702246Y-44115849D01*
X107714673Y-44151972D01*
X107731591Y-44181939D01*
X107750710Y-44203715D01*
X107773550Y-44220613D01*
X107829473Y-44239823D01*
X107866722Y-44242585D01*
X107919296Y-44236357D01*
X107977337Y-44226368D01*
X107986432Y-44225000D01*
X107986432Y-44080377D01*
X107933950Y-44080377D01*
X107900248Y-44078455D01*
X107874623Y-44069926D01*
X107860098Y-44058554D01*
X107849885Y-44042768D01*
X107841535Y-43994465D01*
X107841535Y-43282161D01*
X107988538Y-43282161D01*
G37*
G36*
X125600301Y-44225000D02*
G01*
X125600301Y-42718510D01*
X125363080Y-42718510D01*
X125010272Y-43998403D01*
X124655356Y-42718510D01*
X124415937Y-42718510D01*
X124415937Y-44225000D01*
X124577687Y-44225000D01*
X124577687Y-43335375D01*
X124575406Y-43131055D01*
X124573474Y-42949319D01*
X124926283Y-44225000D01*
X125090047Y-44225000D01*
X125442856Y-42947304D01*
X125439960Y-43199557D01*
X125438643Y-43335375D01*
X125438643Y-44225000D01*
X125600301Y-44225000D01*
G37*
G36*
X126046533Y-42718510D02*
G01*
X125880662Y-42718510D01*
X125880662Y-44225000D01*
X126046533Y-44225000D01*
X126046533Y-42718510D01*
G37*
G36*
X126944194Y-42729369D02*
G01*
X126993344Y-42743148D01*
X127039906Y-42762291D01*
X127084631Y-42787187D01*
X127126443Y-42817340D01*
X127166428Y-42853808D01*
X127203067Y-42895524D01*
X127237436Y-42944194D01*
X127267929Y-42998125D01*
X127295324Y-43059425D01*
X127318246Y-43125947D01*
X127337045Y-43199806D01*
X127350755Y-43278737D01*
X127359338Y-43364473D01*
X127362239Y-43454993D01*
X127361151Y-43511322D01*
X127343383Y-43682104D01*
X127306143Y-43832047D01*
X127252631Y-43959263D01*
X127185834Y-44063341D01*
X127123621Y-44126484D01*
X127083369Y-44155750D01*
X127039950Y-44180016D01*
X126992984Y-44199398D01*
X126943301Y-44213428D01*
X126890338Y-44222088D01*
X126835132Y-44225000D01*
X126339533Y-44225000D01*
X126339533Y-44050702D01*
X126507511Y-44050702D01*
X126830919Y-44050702D01*
X126895723Y-44044036D01*
X126935110Y-44032614D01*
X126972017Y-44015773D01*
X127007524Y-43992776D01*
X127040183Y-43964279D01*
X127071471Y-43928387D01*
X127099359Y-43886720D01*
X127125134Y-43836337D01*
X127146805Y-43779868D01*
X127165087Y-43713866D01*
X127178476Y-43641584D01*
X127187055Y-43559793D01*
X127189956Y-43471755D01*
X127189924Y-43461676D01*
X127178606Y-43295975D01*
X127149976Y-43165373D01*
X127107701Y-43065043D01*
X127054042Y-42990259D01*
X126989445Y-42937316D01*
X126952430Y-42918305D01*
X126912491Y-42904524D01*
X126867963Y-42895818D01*
X126820386Y-42892899D01*
X126507511Y-42892899D01*
X126507511Y-44050702D01*
X126339533Y-44050702D01*
X126339533Y-42718510D01*
X126841360Y-42718510D01*
X126944194Y-42729369D01*
G37*
G36*
X127766980Y-42718510D02*
G01*
X127601108Y-42718510D01*
X127601108Y-44225000D01*
X127766980Y-44225000D01*
X127766980Y-42718510D01*
G37*
G36*
X128722458Y-42718510D02*
G01*
X128556586Y-42718510D01*
X128556586Y-44225000D01*
X128722458Y-44225000D01*
X128722458Y-42718510D01*
G37*
G36*
X129130954Y-43128838D02*
G01*
X128988163Y-43128838D01*
X128988163Y-44225000D01*
X129139289Y-44225000D01*
X129139289Y-43627734D01*
X129142182Y-43560087D01*
X129150712Y-43498470D01*
X129163814Y-43445839D01*
X129181596Y-43399151D01*
X129202356Y-43360984D01*
X129226906Y-43328469D01*
X129253351Y-43303198D01*
X129282883Y-43283296D01*
X129314226Y-43269329D01*
X129348207Y-43260690D01*
X129387134Y-43257523D01*
X129425197Y-43260483D01*
X129458625Y-43269480D01*
X129484512Y-43282675D01*
X129506896Y-43300893D01*
X129540974Y-43351851D01*
X129563477Y-43430165D01*
X129571965Y-43547775D01*
X129571965Y-44225000D01*
X129723090Y-44225000D01*
X129723090Y-43476243D01*
X129720183Y-43410968D01*
X129711560Y-43351211D01*
X129698316Y-43300076D01*
X129680236Y-43254189D01*
X129658840Y-43215836D01*
X129633345Y-43182445D01*
X129605151Y-43155223D01*
X129573373Y-43132812D01*
X129500532Y-43103181D01*
X129418641Y-43093667D01*
X129370644Y-43098116D01*
X129326319Y-43108698D01*
X129289132Y-43123827D01*
X129254270Y-43144550D01*
X129190834Y-43203257D01*
X129130954Y-43290587D01*
X129130954Y-43128838D01*
G37*
X63941212Y-59306678D02*
X64226926Y-59306678D01*
X64226926Y-59306678D02*
X64369783Y-59378107D01*
X64369783Y-59378107D02*
X64512640Y-59520964D01*
X64512640Y-59520964D02*
X64584069Y-59806678D01*
X64584069Y-59806678D02*
X64584069Y-60306678D01*
X64584069Y-60306678D02*
X64512640Y-60592392D01*
X64512640Y-60592392D02*
X64369783Y-60735250D01*
X64369783Y-60735250D02*
X64226926Y-60806678D01*
X64226926Y-60806678D02*
X63941212Y-60806678D01*
X63941212Y-60806678D02*
X63798355Y-60735250D01*
X63798355Y-60735250D02*
X63655497Y-60592392D01*
X63655497Y-60592392D02*
X63584069Y-60306678D01*
X63584069Y-60306678D02*
X63584069Y-59806678D01*
X63584069Y-59806678D02*
X63655497Y-59520964D01*
X63655497Y-59520964D02*
X63798355Y-59378107D01*
X63798355Y-59378107D02*
X63941212Y-59306678D01*
X65869784Y-59806678D02*
X65869784Y-60806678D01*
X65226926Y-59806678D02*
X65226926Y-60592392D01*
X65226926Y-60592392D02*
X65298355Y-60735250D01*
X65298355Y-60735250D02*
X65441212Y-60806678D01*
X65441212Y-60806678D02*
X65655498Y-60806678D01*
X65655498Y-60806678D02*
X65798355Y-60735250D01*
X65798355Y-60735250D02*
X65869784Y-60663821D01*
X66369784Y-59806678D02*
X66941212Y-59806678D01*
X66584069Y-59306678D02*
X66584069Y-60592392D01*
X66584069Y-60592392D02*
X66655498Y-60735250D01*
X66655498Y-60735250D02*
X66798355Y-60806678D01*
X66798355Y-60806678D02*
X66941212Y-60806678D01*
X68155498Y-60806678D02*
X67441212Y-60806678D01*
X67441212Y-60806678D02*
X67441212Y-59306678D01*
G36*
X178330996Y-42718933D02*
G01*
X178422870Y-42734216D01*
X178464018Y-42749654D01*
X178501826Y-42770007D01*
X178536331Y-42795257D01*
X178567044Y-42825053D01*
X178594165Y-42859766D01*
X178616949Y-42898717D01*
X178635507Y-42942587D01*
X178649101Y-42990380D01*
X178657616Y-43042855D01*
X178660507Y-43098887D01*
X178651512Y-43195905D01*
X178623731Y-43278296D01*
X178602004Y-43315248D01*
X178574979Y-43349182D01*
X178539205Y-43383158D01*
X178496742Y-43414235D01*
X178551659Y-43444498D01*
X178625280Y-43501703D01*
X178675162Y-43567427D01*
X178693657Y-43607618D01*
X178706937Y-43652070D01*
X178716297Y-43710607D01*
X178719309Y-43776570D01*
X178712261Y-43869794D01*
X178684837Y-43972938D01*
X178639059Y-44059564D01*
X178576845Y-44129137D01*
X178539943Y-44157339D01*
X178499402Y-44180916D01*
X178455074Y-44199785D01*
X178407425Y-44213557D01*
X178355959Y-44222104D01*
X178301470Y-44225000D01*
X177768044Y-44225000D01*
X177768044Y-44050702D01*
X177936022Y-44050702D01*
X178293044Y-44050702D01*
X178319758Y-44049772D01*
X178398984Y-44033604D01*
X178461424Y-43999144D01*
X178487112Y-43974968D01*
X178508658Y-43946436D01*
X178526633Y-43912075D01*
X178539819Y-43873228D01*
X178548426Y-43827259D01*
X178551331Y-43776570D01*
X178550332Y-43747596D01*
X178534659Y-43669038D01*
X178501546Y-43608956D01*
X178477825Y-43584245D01*
X178449518Y-43563603D01*
X178413922Y-43545936D01*
X178373032Y-43533008D01*
X178321571Y-43524234D01*
X178263643Y-43521305D01*
X177936022Y-43521305D01*
X177936022Y-44050702D01*
X177768044Y-44050702D01*
X177768044Y-43357449D01*
X177936022Y-43357449D01*
X178236349Y-43357449D01*
X178248476Y-43357324D01*
X178339186Y-43346047D01*
X178403893Y-43319037D01*
X178429169Y-43299715D01*
X178450141Y-43276347D01*
X178467806Y-43246930D01*
X178480696Y-43212786D01*
X178489585Y-43168427D01*
X178492529Y-43117847D01*
X178483920Y-43038904D01*
X178458508Y-42978911D01*
X178439139Y-42954867D01*
X178415282Y-42934883D01*
X178383840Y-42917523D01*
X178346810Y-42904849D01*
X178296554Y-42895858D01*
X178238456Y-42892899D01*
X177936022Y-42892899D01*
X177936022Y-43357449D01*
X177768044Y-43357449D01*
X177768044Y-42718510D01*
X178311912Y-42718510D01*
X178330996Y-42718933D01*
G37*
G36*
X179279400Y-43093732D02*
G01*
X179324875Y-43097542D01*
X179368393Y-43107064D01*
X179410842Y-43122538D01*
X179450893Y-43143552D01*
X179489742Y-43170963D01*
X179525631Y-43203814D01*
X179559616Y-43243471D01*
X179589975Y-43288421D01*
X179617300Y-43340097D01*
X179640288Y-43396767D01*
X179659028Y-43459403D01*
X179672750Y-43526540D01*
X179681241Y-43598342D01*
X179684129Y-43673988D01*
X179683252Y-43716219D01*
X179666207Y-43857734D01*
X179630005Y-43978910D01*
X179578259Y-44078004D01*
X179514241Y-44154696D01*
X179440281Y-44209502D01*
X179357533Y-44242864D01*
X179312897Y-44251413D01*
X179266199Y-44254309D01*
X179256388Y-44254184D01*
X179209871Y-44250068D01*
X179165468Y-44240289D01*
X179122432Y-44224670D01*
X179081918Y-44203592D01*
X179042826Y-44176283D01*
X179006781Y-44143632D01*
X178972749Y-44104324D01*
X178942394Y-44059810D01*
X178915080Y-44008605D01*
X178892128Y-43952455D01*
X178873384Y-43890203D01*
X178859670Y-43823441D01*
X178851160Y-43751724D01*
X178848269Y-43676094D01*
X178848317Y-43673988D01*
X179005806Y-43673988D01*
X179016036Y-43806408D01*
X179044171Y-43913314D01*
X179085515Y-43993014D01*
X179136734Y-44048129D01*
X179196671Y-44081197D01*
X179230328Y-44089753D01*
X179266199Y-44092650D01*
X179318060Y-44086316D01*
X179351050Y-44074805D01*
X179381656Y-44057711D01*
X179411282Y-44033789D01*
X179437913Y-44004116D01*
X179462864Y-43966357D01*
X179484003Y-43922638D01*
X179501977Y-43870296D01*
X179515225Y-43812012D01*
X179523706Y-43745785D01*
X179526592Y-43673988D01*
X179516822Y-43546046D01*
X179488666Y-43437627D01*
X179447085Y-43356308D01*
X179395993Y-43300208D01*
X179337205Y-43266852D01*
X179304770Y-43258311D01*
X179270412Y-43255416D01*
X179215030Y-43262095D01*
X179181515Y-43273635D01*
X179150576Y-43290620D01*
X179120892Y-43314190D01*
X179094313Y-43343363D01*
X179069439Y-43380564D01*
X179048427Y-43423657D01*
X179030455Y-43475778D01*
X179017240Y-43533948D01*
X179008700Y-43601023D01*
X179005806Y-43673988D01*
X178848317Y-43673988D01*
X178849365Y-43628142D01*
X178866932Y-43486453D01*
X178903284Y-43366251D01*
X178954985Y-43268416D01*
X179019132Y-43192701D01*
X179093822Y-43138388D01*
X179178269Y-43105136D01*
X179224270Y-43096566D01*
X179272519Y-43093667D01*
X179279400Y-43093732D01*
G37*
G36*
X180236343Y-43093732D02*
G01*
X180281818Y-43097542D01*
X180325336Y-43107064D01*
X180367786Y-43122538D01*
X180407836Y-43143552D01*
X180446686Y-43170963D01*
X180482575Y-43203814D01*
X180516559Y-43243471D01*
X180546918Y-43288421D01*
X180574244Y-43340097D01*
X180597231Y-43396767D01*
X180615971Y-43459403D01*
X180629693Y-43526540D01*
X180638185Y-43598342D01*
X180641072Y-43673988D01*
X180640196Y-43716219D01*
X180623151Y-43857734D01*
X180586948Y-43978910D01*
X180535203Y-44078004D01*
X180471185Y-44154696D01*
X180397224Y-44209502D01*
X180314476Y-44242864D01*
X180269840Y-44251413D01*
X180223142Y-44254309D01*
X180213332Y-44254184D01*
X180166814Y-44250068D01*
X180122412Y-44240289D01*
X180079375Y-44224670D01*
X180038862Y-44203592D01*
X179999770Y-44176283D01*
X179963725Y-44143632D01*
X179929693Y-44104324D01*
X179899338Y-44059810D01*
X179872024Y-44008605D01*
X179849072Y-43952455D01*
X179830328Y-43890203D01*
X179816614Y-43823441D01*
X179808103Y-43751724D01*
X179805212Y-43676094D01*
X179805260Y-43673988D01*
X179962749Y-43673988D01*
X179972979Y-43806408D01*
X180001115Y-43913314D01*
X180042459Y-43993014D01*
X180093678Y-44048129D01*
X180153615Y-44081197D01*
X180187271Y-44089753D01*
X180223142Y-44092650D01*
X180275004Y-44086316D01*
X180307994Y-44074805D01*
X180338600Y-44057711D01*
X180368225Y-44033789D01*
X180394857Y-44004116D01*
X180419807Y-43966357D01*
X180440946Y-43922638D01*
X180458921Y-43870296D01*
X180472169Y-43812012D01*
X180480649Y-43745785D01*
X180483536Y-43673988D01*
X180473765Y-43546046D01*
X180445609Y-43437627D01*
X180404028Y-43356308D01*
X180352937Y-43300208D01*
X180294149Y-43266852D01*
X180261713Y-43258311D01*
X180227356Y-43255416D01*
X180171973Y-43262095D01*
X180138458Y-43273635D01*
X180107519Y-43290620D01*
X180077835Y-43314190D01*
X180051257Y-43343363D01*
X180026382Y-43380564D01*
X180005370Y-43423657D01*
X179987399Y-43475778D01*
X179974183Y-43533948D01*
X179965644Y-43601023D01*
X179962749Y-43673988D01*
X179805260Y-43673988D01*
X179806308Y-43628142D01*
X179823876Y-43486453D01*
X179860227Y-43366251D01*
X179911929Y-43268416D01*
X179976076Y-43192701D01*
X180050765Y-43138388D01*
X180135212Y-43105136D01*
X180181213Y-43096566D01*
X180229462Y-43093667D01*
X180236343Y-43093732D01*
G37*
G36*
X181144365Y-43282161D02*
G01*
X181144365Y-43128838D01*
X180997362Y-43128838D01*
X180997362Y-42822282D01*
X180846236Y-42822282D01*
X180846236Y-43128838D01*
X180724420Y-43128838D01*
X180724420Y-43282161D01*
X180846236Y-43282161D01*
X180846236Y-44007288D01*
X180849181Y-44065861D01*
X180858073Y-44115849D01*
X180870500Y-44151972D01*
X180887418Y-44181939D01*
X180906536Y-44203715D01*
X180929377Y-44220613D01*
X180985300Y-44239823D01*
X181022549Y-44242585D01*
X181075122Y-44236357D01*
X181133164Y-44226368D01*
X181142259Y-44225000D01*
X181142259Y-44080377D01*
X181089777Y-44080377D01*
X181056074Y-44078455D01*
X181030450Y-44069926D01*
X181015925Y-44058554D01*
X181005711Y-44042768D01*
X180997362Y-43994465D01*
X180997362Y-43282161D01*
X181144365Y-43282161D01*
G37*
G36*
X182689965Y-43158696D02*
G01*
X182678076Y-43049548D01*
X182660036Y-42967904D01*
X182626950Y-42887587D01*
X182601613Y-42847289D01*
X182571885Y-42810979D01*
X182500094Y-42750878D01*
X182411731Y-42707649D01*
X182306457Y-42682740D01*
X182223766Y-42677477D01*
X182161023Y-42680414D01*
X182102847Y-42689250D01*
X182052809Y-42702816D01*
X182006796Y-42721560D01*
X181966724Y-42744265D01*
X181930363Y-42771725D01*
X181885703Y-42818252D01*
X181832762Y-42905434D01*
X181797190Y-43009273D01*
X181787200Y-43065748D01*
X181782908Y-43124239D01*
X181782755Y-43137630D01*
X181785684Y-43195703D01*
X181794459Y-43249139D01*
X181807915Y-43294811D01*
X181826442Y-43336392D01*
X181848912Y-43372335D01*
X181876004Y-43404488D01*
X181943353Y-43456948D01*
X182031360Y-43495073D01*
X182045255Y-43499140D01*
X182299329Y-43570581D01*
X182386359Y-43599063D01*
X182453234Y-43629434D01*
X182488651Y-43652591D01*
X182516215Y-43678422D01*
X182534459Y-43703829D01*
X182547669Y-43732335D01*
X182561000Y-43802995D01*
X182561829Y-43831158D01*
X182558921Y-43875142D01*
X182550288Y-43915388D01*
X182536859Y-43950167D01*
X182518474Y-43981361D01*
X182468372Y-44031851D01*
X182398930Y-44068004D01*
X182307086Y-44088447D01*
X182244740Y-44091734D01*
X182188951Y-44088814D01*
X182137488Y-44080098D01*
X182093127Y-44066647D01*
X182052894Y-44048167D01*
X182018429Y-44025854D01*
X181987987Y-43999044D01*
X181946612Y-43944639D01*
X181924719Y-43901346D01*
X181910042Y-43854999D01*
X181898612Y-43752122D01*
X181898251Y-43738743D01*
X181740806Y-43738743D01*
X181745142Y-43832038D01*
X181756272Y-43909843D01*
X181770018Y-43961196D01*
X181788904Y-44007810D01*
X181831115Y-44077080D01*
X181866815Y-44121970D01*
X181905369Y-44160373D01*
X181943833Y-44190219D01*
X181985427Y-44214876D01*
X182077707Y-44248859D01*
X182191008Y-44264866D01*
X182236406Y-44266032D01*
X182303503Y-44263126D01*
X182366247Y-44254505D01*
X182422461Y-44240924D01*
X182474338Y-44222301D01*
X182520240Y-44199625D01*
X182561824Y-44172479D01*
X182598146Y-44141767D01*
X182630106Y-44107017D01*
X182680138Y-44026539D01*
X182711787Y-43930502D01*
X182723556Y-43817716D01*
X182723579Y-43812290D01*
X182720656Y-43749862D01*
X182711923Y-43692002D01*
X182698413Y-43641723D01*
X182679827Y-43595682D01*
X182657343Y-43555696D01*
X182630294Y-43519737D01*
X182599405Y-43488488D01*
X182564207Y-43461246D01*
X182480301Y-43418797D01*
X182442119Y-43406633D01*
X182089402Y-43307898D01*
X182049432Y-43294017D01*
X182016263Y-43275743D01*
X181992461Y-43255793D01*
X181973624Y-43232099D01*
X181950561Y-43174467D01*
X181944505Y-43112443D01*
X181947409Y-43066453D01*
X181956012Y-43024463D01*
X181969350Y-42988348D01*
X181987567Y-42956147D01*
X182009827Y-42928721D01*
X182036438Y-42905258D01*
X182102561Y-42870609D01*
X182187851Y-42853273D01*
X182223766Y-42851866D01*
X182272609Y-42854765D01*
X182318216Y-42863329D01*
X182359217Y-42876926D01*
X182396570Y-42895528D01*
X182429225Y-42918330D01*
X182457869Y-42945557D01*
X182484159Y-42980002D01*
X182506009Y-43024053D01*
X182520743Y-43071880D01*
X182532428Y-43158696D01*
X182689965Y-43158696D01*
G37*
G36*
X183332724Y-43094886D02*
G01*
X183418345Y-43111997D01*
X183456347Y-43128122D01*
X183491529Y-43149421D01*
X183525403Y-43177309D01*
X183556419Y-43211035D01*
X183587202Y-43254713D01*
X183614851Y-43305608D01*
X183636967Y-43356376D01*
X183656539Y-43415479D01*
X183671261Y-43480609D01*
X183685175Y-43591354D01*
X183692520Y-43733064D01*
X183035263Y-43733064D01*
X183037346Y-43778499D01*
X183051958Y-43888787D01*
X183066784Y-43934938D01*
X183087745Y-43976971D01*
X183099875Y-43995948D01*
X183150289Y-44048364D01*
X183180621Y-44067304D01*
X183213914Y-44081053D01*
X183251326Y-44089735D01*
X183291443Y-44092650D01*
X183341446Y-44087436D01*
X183377621Y-44076672D01*
X183411160Y-44060513D01*
X183441709Y-44039281D01*
X183468586Y-44013482D01*
X183508818Y-43951056D01*
X183528756Y-43878144D01*
X183679881Y-43878144D01*
X183650384Y-43991285D01*
X183604449Y-44084610D01*
X183544668Y-44157140D01*
X183472033Y-44209880D01*
X183430726Y-44228930D01*
X183386443Y-44242772D01*
X183338244Y-44251401D01*
X183287230Y-44254309D01*
X183282186Y-44254281D01*
X183186043Y-44242156D01*
X183142301Y-44228087D01*
X183101468Y-44208854D01*
X183063029Y-44184132D01*
X183027812Y-44154342D01*
X182994884Y-44118337D01*
X182965638Y-44077207D01*
X182939165Y-44028968D01*
X182916969Y-43975484D01*
X182898505Y-43914223D01*
X182885007Y-43847629D01*
X182876415Y-43773081D01*
X182873513Y-43693222D01*
X182875087Y-43632410D01*
X182880966Y-43586060D01*
X183035263Y-43586060D01*
X183534984Y-43586060D01*
X183516504Y-43454458D01*
X183500428Y-43405719D01*
X183478289Y-43362120D01*
X183473835Y-43355251D01*
X183424789Y-43301845D01*
X183364361Y-43268968D01*
X183330066Y-43260419D01*
X183293550Y-43257523D01*
X183267388Y-43258991D01*
X183231728Y-43266050D01*
X183198286Y-43278705D01*
X183166218Y-43297435D01*
X183137030Y-43321587D01*
X183109949Y-43352209D01*
X183086562Y-43388057D01*
X183066592Y-43430210D01*
X183051187Y-43477204D01*
X183040539Y-43529522D01*
X183035263Y-43586060D01*
X182880966Y-43586060D01*
X182893601Y-43486449D01*
X182930089Y-43364886D01*
X182981230Y-43267223D01*
X183044521Y-43192143D01*
X183118650Y-43138302D01*
X183159747Y-43119113D01*
X183203504Y-43105175D01*
X183250394Y-43096571D01*
X183299778Y-43093667D01*
X183332724Y-43094886D01*
G37*
G36*
X184027835Y-42718510D02*
G01*
X183876710Y-42718510D01*
X183876710Y-44225000D01*
X184027835Y-44225000D01*
X184027835Y-42718510D01*
G37*
G36*
X151295706Y-43339863D02*
G01*
X150650996Y-43339863D01*
X150650996Y-42718510D01*
X150483018Y-42718510D01*
X150483018Y-44225000D01*
X150650996Y-44225000D01*
X150650996Y-43522588D01*
X151295706Y-43522588D01*
X151295706Y-44225000D01*
X151463684Y-44225000D01*
X151463684Y-42718510D01*
X151295706Y-42718510D01*
X151295706Y-43339863D01*
G37*
G36*
X152121922Y-43094886D02*
G01*
X152207542Y-43111997D01*
X152245545Y-43128122D01*
X152280727Y-43149421D01*
X152314601Y-43177309D01*
X152345617Y-43211035D01*
X152376399Y-43254713D01*
X152404049Y-43305608D01*
X152426164Y-43356376D01*
X152445737Y-43415479D01*
X152460459Y-43480609D01*
X152474373Y-43591354D01*
X152481718Y-43733064D01*
X151824461Y-43733064D01*
X151826544Y-43778499D01*
X151841156Y-43888787D01*
X151855982Y-43934938D01*
X151876942Y-43976971D01*
X151889072Y-43995948D01*
X151939487Y-44048364D01*
X151969819Y-44067304D01*
X152003111Y-44081053D01*
X152040524Y-44089735D01*
X152080641Y-44092650D01*
X152130644Y-44087436D01*
X152166819Y-44076672D01*
X152200358Y-44060513D01*
X152230906Y-44039281D01*
X152257784Y-44013482D01*
X152298016Y-43951056D01*
X152317953Y-43878144D01*
X152469079Y-43878144D01*
X152439582Y-43991285D01*
X152393647Y-44084610D01*
X152333866Y-44157140D01*
X152261231Y-44209880D01*
X152219924Y-44228930D01*
X152175641Y-44242772D01*
X152127442Y-44251401D01*
X152076428Y-44254309D01*
X152071384Y-44254281D01*
X151975241Y-44242156D01*
X151931499Y-44228087D01*
X151890666Y-44208854D01*
X151852227Y-44184132D01*
X151817009Y-44154342D01*
X151784082Y-44118337D01*
X151754836Y-44077207D01*
X151728363Y-44028968D01*
X151706167Y-43975484D01*
X151687702Y-43914223D01*
X151674205Y-43847629D01*
X151665613Y-43773081D01*
X151662711Y-43693222D01*
X151664285Y-43632410D01*
X151670164Y-43586060D01*
X151824461Y-43586060D01*
X152324182Y-43586060D01*
X152305702Y-43454458D01*
X152289626Y-43405719D01*
X152267487Y-43362120D01*
X152263033Y-43355251D01*
X152213987Y-43301845D01*
X152153559Y-43268968D01*
X152119264Y-43260419D01*
X152082748Y-43257523D01*
X152056586Y-43258991D01*
X152020926Y-43266050D01*
X151987484Y-43278705D01*
X151955415Y-43297435D01*
X151926228Y-43321587D01*
X151899147Y-43352209D01*
X151875760Y-43388057D01*
X151855790Y-43430210D01*
X151840385Y-43477204D01*
X151829737Y-43529522D01*
X151824461Y-43586060D01*
X151670164Y-43586060D01*
X151682799Y-43486449D01*
X151719287Y-43364886D01*
X151770428Y-43267223D01*
X151833719Y-43192143D01*
X151907848Y-43138302D01*
X151948944Y-43119113D01*
X151992702Y-43105175D01*
X152039591Y-43096571D01*
X152088976Y-43093667D01*
X152121922Y-43094886D01*
G37*
G36*
X153114420Y-43102306D02*
G01*
X153201359Y-43129895D01*
X153269388Y-43173835D01*
X153296738Y-43201609D01*
X153319598Y-43233149D01*
X153338094Y-43268983D01*
X153351616Y-43308445D01*
X153360198Y-43352954D01*
X153363099Y-43401046D01*
X153363099Y-44036047D01*
X153365187Y-44059547D01*
X153380197Y-44090107D01*
X153393873Y-44098641D01*
X153411368Y-44101535D01*
X153463849Y-44090635D01*
X153463849Y-44225000D01*
X153461058Y-44225894D01*
X153444982Y-44233792D01*
X153442847Y-44234609D01*
X153407866Y-44245252D01*
X153375647Y-44248447D01*
X153318649Y-44242031D01*
X153273650Y-44219538D01*
X153255323Y-44199607D01*
X153241011Y-44173798D01*
X153227826Y-44130602D01*
X153220217Y-44075889D01*
X153154024Y-44150053D01*
X153078721Y-44208263D01*
X153039648Y-44228062D01*
X152998791Y-44242159D01*
X152951582Y-44251324D01*
X152901022Y-44254309D01*
X152844534Y-44249599D01*
X152804787Y-44239849D01*
X152768206Y-44225009D01*
X152734859Y-44205201D01*
X152705109Y-44180697D01*
X152678698Y-44151115D01*
X152656452Y-44117113D01*
X152638160Y-44077826D01*
X152624723Y-44034372D01*
X152616224Y-43985707D01*
X152613335Y-43933190D01*
X152613979Y-43916246D01*
X152770871Y-43916246D01*
X152771792Y-43941819D01*
X152786674Y-44010800D01*
X152817221Y-44058838D01*
X152838748Y-44076524D01*
X152864205Y-44089508D01*
X152896148Y-44098165D01*
X152932530Y-44101077D01*
X152960918Y-44099689D01*
X153002716Y-44092481D01*
X153042297Y-44079568D01*
X153079580Y-44061177D01*
X153113421Y-44037973D01*
X153167510Y-43980567D01*
X153200718Y-43913880D01*
X153211882Y-43842790D01*
X153211882Y-43662172D01*
X153184046Y-43681273D01*
X153140453Y-43696828D01*
X152961930Y-43731415D01*
X152947754Y-43733985D01*
X152865442Y-43758606D01*
X152814318Y-43792463D01*
X152796195Y-43814568D01*
X152783118Y-43840264D01*
X152773868Y-43875408D01*
X152770871Y-43916246D01*
X152613979Y-43916246D01*
X152614863Y-43893006D01*
X152632832Y-43799090D01*
X152668967Y-43723088D01*
X152693550Y-43691150D01*
X152722380Y-43663275D01*
X152756135Y-43639097D01*
X152794112Y-43619404D01*
X152838069Y-43603781D01*
X152886368Y-43593296D01*
X153136228Y-43555469D01*
X153175763Y-43541505D01*
X153191844Y-43527031D01*
X153203655Y-43507445D01*
X153213075Y-43473511D01*
X153216095Y-43429623D01*
X153213721Y-43392690D01*
X153195377Y-43332543D01*
X153179525Y-43308580D01*
X153159200Y-43288545D01*
X153132278Y-43271345D01*
X153100159Y-43258712D01*
X153057504Y-43249921D01*
X153008184Y-43246990D01*
X152976307Y-43248220D01*
X152909240Y-43262906D01*
X152860586Y-43294515D01*
X152839879Y-43319930D01*
X152823046Y-43351505D01*
X152807078Y-43399855D01*
X152796059Y-43458932D01*
X152657482Y-43460122D01*
X152659086Y-43435404D01*
X152674502Y-43327347D01*
X152689919Y-43281393D01*
X152712070Y-43238655D01*
X152753971Y-43186349D01*
X152785695Y-43159579D01*
X152821594Y-43137247D01*
X152863369Y-43118739D01*
X152909305Y-43105252D01*
X152961894Y-43096580D01*
X153018625Y-43093667D01*
X153114420Y-43102306D01*
G37*
G36*
X154366204Y-44225000D02*
G01*
X154223414Y-44225000D01*
X154223414Y-44067371D01*
X154169398Y-44158494D01*
X154115611Y-44212091D01*
X154085047Y-44230580D01*
X154051760Y-44243593D01*
X154009731Y-44252146D01*
X153963021Y-44254309D01*
X153958923Y-44254285D01*
X153914355Y-44250908D01*
X153871957Y-44241922D01*
X153831180Y-44227199D01*
X153792879Y-44207016D01*
X153755870Y-44180479D01*
X153721786Y-44148437D01*
X153689301Y-44109098D01*
X153660331Y-44064131D01*
X153633873Y-44011123D01*
X153611630Y-43952417D01*
X153593145Y-43885551D01*
X153579610Y-43813082D01*
X153571067Y-43733085D01*
X153568530Y-43658326D01*
X153725708Y-43658326D01*
X153734114Y-43795121D01*
X153759418Y-43910070D01*
X153796872Y-43992496D01*
X153843472Y-44048042D01*
X153898839Y-44081096D01*
X153930789Y-44089741D01*
X153965127Y-44092650D01*
X154015788Y-44086554D01*
X154049059Y-44075369D01*
X154080124Y-44058751D01*
X154108234Y-44037117D01*
X154133105Y-44010585D01*
X154170450Y-43950408D01*
X154188073Y-43904382D01*
X154200900Y-43851961D01*
X154209918Y-43782710D01*
X154212881Y-43703480D01*
X154203839Y-43554746D01*
X154178536Y-43439010D01*
X154141522Y-43357079D01*
X154095298Y-43302055D01*
X154039589Y-43269141D01*
X154006829Y-43260441D01*
X153971447Y-43257523D01*
X153928019Y-43260851D01*
X153863353Y-43282201D01*
X153835237Y-43300724D01*
X153810378Y-43324422D01*
X153787124Y-43355913D01*
X153767635Y-43393497D01*
X153750237Y-43442882D01*
X153737501Y-43499964D01*
X153728648Y-43574149D01*
X153725708Y-43658326D01*
X153568530Y-43658326D01*
X153568172Y-43647793D01*
X153578948Y-43498269D01*
X153608976Y-43371866D01*
X153654304Y-43270403D01*
X153711532Y-43193093D01*
X153778485Y-43138384D01*
X153854463Y-43105137D01*
X153896106Y-43096566D01*
X153939940Y-43093667D01*
X154018160Y-43102831D01*
X154053378Y-43114844D01*
X154086052Y-43132143D01*
X154118696Y-43156907D01*
X154149187Y-43188371D01*
X154182970Y-43234567D01*
X154214988Y-43291045D01*
X154214988Y-42718510D01*
X154366204Y-42718510D01*
X154366204Y-44225000D01*
G37*
G36*
X155050374Y-43100853D02*
G01*
X155090941Y-43112850D01*
X155129153Y-43130373D01*
X155166191Y-43154192D01*
X155200386Y-43183512D01*
X155233019Y-43219908D01*
X155262178Y-43261826D01*
X155288770Y-43311299D01*
X155311157Y-43366214D01*
X155329679Y-43428437D01*
X155343253Y-43495816D01*
X155351765Y-43569481D01*
X155354655Y-43647793D01*
X155353963Y-43689784D01*
X155337950Y-43844566D01*
X155303675Y-43973513D01*
X155255029Y-44076379D01*
X155195242Y-44154409D01*
X155126296Y-44209451D01*
X155048722Y-44242818D01*
X155006378Y-44251407D01*
X154961913Y-44254309D01*
X154909607Y-44250441D01*
X154839081Y-44228411D01*
X154806754Y-44208764D01*
X154776991Y-44183243D01*
X154745453Y-44146349D01*
X154716266Y-44101077D01*
X154716266Y-44657584D01*
X154565049Y-44657584D01*
X154565049Y-43708701D01*
X154709946Y-43708701D01*
X154716402Y-43812200D01*
X154740578Y-43917179D01*
X154778453Y-43994726D01*
X154827205Y-44048483D01*
X154886422Y-44081150D01*
X154920782Y-44089747D01*
X154957791Y-44092650D01*
X154999226Y-44088348D01*
X155030302Y-44078599D01*
X155058959Y-44063363D01*
X155086647Y-44041316D01*
X155111446Y-44013345D01*
X155135114Y-43976220D01*
X155155132Y-43932372D01*
X155172694Y-43877015D01*
X155185631Y-43814071D01*
X155194217Y-43738206D01*
X155197119Y-43654112D01*
X155191216Y-43541873D01*
X155168963Y-43432112D01*
X155134138Y-43354399D01*
X155088630Y-43301529D01*
X155061412Y-43282788D01*
X155031220Y-43269186D01*
X154996141Y-43260446D01*
X154957791Y-43257523D01*
X154907344Y-43262841D01*
X154846328Y-43288071D01*
X154818875Y-43309491D01*
X154794474Y-43336559D01*
X154771287Y-43372637D01*
X154751784Y-43415461D01*
X154734392Y-43471194D01*
X154721628Y-43535306D01*
X154712872Y-43616793D01*
X154709946Y-43708701D01*
X154565049Y-43708701D01*
X154565049Y-43128838D01*
X154707839Y-43128838D01*
X154707839Y-43290587D01*
X154764161Y-43205226D01*
X154823708Y-43144958D01*
X154855595Y-43124279D01*
X154889726Y-43109286D01*
X154933814Y-43098241D01*
X154982979Y-43093667D01*
X155050374Y-43100853D01*
G37*
G36*
X155683650Y-42718510D02*
G01*
X155532525Y-42718510D01*
X155532525Y-44225000D01*
X155683650Y-44225000D01*
X155683650Y-43625628D01*
X155686559Y-43556787D01*
X155695192Y-43494449D01*
X155708248Y-43442484D01*
X155726034Y-43396540D01*
X155746653Y-43359486D01*
X155771155Y-43327919D01*
X155797704Y-43303341D01*
X155827545Y-43283890D01*
X155895029Y-43261162D01*
X155939922Y-43257523D01*
X155979904Y-43260496D01*
X156014385Y-43269580D01*
X156039880Y-43282545D01*
X156061507Y-43300421D01*
X156092847Y-43349719D01*
X156111741Y-43425812D01*
X156116327Y-43505735D01*
X156116327Y-44225000D01*
X156267452Y-44225000D01*
X156267452Y-43476243D01*
X156264545Y-43410968D01*
X156255922Y-43351211D01*
X156242678Y-43300076D01*
X156224598Y-43254189D01*
X156203202Y-43215836D01*
X156177707Y-43182445D01*
X156149512Y-43155223D01*
X156117735Y-43132812D01*
X156044894Y-43103181D01*
X155963003Y-43093667D01*
X155912997Y-43096733D01*
X155868329Y-43106472D01*
X155834048Y-43120365D01*
X155801819Y-43139991D01*
X155740034Y-43198816D01*
X155683650Y-43276482D01*
X155683650Y-42718510D01*
G37*
G36*
X156870133Y-43093732D02*
G01*
X156915608Y-43097542D01*
X156959126Y-43107064D01*
X157001575Y-43122538D01*
X157041626Y-43143552D01*
X157080475Y-43170963D01*
X157116364Y-43203814D01*
X157150349Y-43243471D01*
X157180708Y-43288421D01*
X157208033Y-43340097D01*
X157231021Y-43396767D01*
X157249761Y-43459403D01*
X157263483Y-43526540D01*
X157271974Y-43598342D01*
X157274862Y-43673988D01*
X157273985Y-43716219D01*
X157256940Y-43857734D01*
X157220738Y-43978910D01*
X157168992Y-44078004D01*
X157104975Y-44154696D01*
X157031014Y-44209502D01*
X156948266Y-44242864D01*
X156903630Y-44251413D01*
X156856932Y-44254309D01*
X156847121Y-44254184D01*
X156800604Y-44250068D01*
X156756201Y-44240289D01*
X156713165Y-44224670D01*
X156672651Y-44203592D01*
X156633559Y-44176283D01*
X156597514Y-44143632D01*
X156563482Y-44104324D01*
X156533127Y-44059810D01*
X156505814Y-44008605D01*
X156482861Y-43952455D01*
X156464117Y-43890203D01*
X156450403Y-43823441D01*
X156441893Y-43751724D01*
X156439002Y-43676094D01*
X156439050Y-43673988D01*
X156596539Y-43673988D01*
X156606769Y-43806408D01*
X156634904Y-43913314D01*
X156676248Y-43993014D01*
X156727467Y-44048129D01*
X156787404Y-44081197D01*
X156821061Y-44089753D01*
X156856932Y-44092650D01*
X156908794Y-44086316D01*
X156941783Y-44074805D01*
X156972389Y-44057711D01*
X157002015Y-44033789D01*
X157028647Y-44004116D01*
X157053597Y-43966357D01*
X157074736Y-43922638D01*
X157092710Y-43870296D01*
X157105959Y-43812012D01*
X157114439Y-43745785D01*
X157117325Y-43673988D01*
X157107555Y-43546046D01*
X157079399Y-43437627D01*
X157037818Y-43356308D01*
X156986726Y-43300208D01*
X156927938Y-43266852D01*
X156895503Y-43258311D01*
X156861145Y-43255416D01*
X156805763Y-43262095D01*
X156772248Y-43273635D01*
X156741309Y-43290620D01*
X156711625Y-43314190D01*
X156685046Y-43343363D01*
X156660172Y-43380564D01*
X156639160Y-43423657D01*
X156621189Y-43475778D01*
X156607973Y-43533948D01*
X156599433Y-43601023D01*
X156596539Y-43673988D01*
X156439050Y-43673988D01*
X156440098Y-43628142D01*
X156457666Y-43486453D01*
X156494017Y-43366251D01*
X156545719Y-43268416D01*
X156609866Y-43192701D01*
X156684555Y-43138388D01*
X156769002Y-43105136D01*
X156815003Y-43096566D01*
X156863252Y-43093667D01*
X156870133Y-43093732D01*
G37*
G36*
X157589203Y-43128838D02*
G01*
X157446412Y-43128838D01*
X157446412Y-44225000D01*
X157597537Y-44225000D01*
X157597537Y-43627734D01*
X157600431Y-43560087D01*
X157608961Y-43498470D01*
X157622063Y-43445839D01*
X157639845Y-43399151D01*
X157660605Y-43360984D01*
X157685154Y-43328469D01*
X157711599Y-43303198D01*
X157741132Y-43283296D01*
X157772475Y-43269329D01*
X157806456Y-43260690D01*
X157845383Y-43257523D01*
X157883446Y-43260483D01*
X157916874Y-43269480D01*
X157942761Y-43282675D01*
X157965145Y-43300893D01*
X157999223Y-43351851D01*
X158021726Y-43430165D01*
X158030214Y-43547775D01*
X158030214Y-44225000D01*
X158181339Y-44225000D01*
X158181339Y-43476243D01*
X158178432Y-43410968D01*
X158169809Y-43351211D01*
X158156565Y-43300076D01*
X158138485Y-43254189D01*
X158117089Y-43215836D01*
X158091594Y-43182445D01*
X158063399Y-43155223D01*
X158031622Y-43132812D01*
X157958781Y-43103181D01*
X157876890Y-43093667D01*
X157828892Y-43098116D01*
X157784568Y-43108698D01*
X157747381Y-43123827D01*
X157712519Y-43144550D01*
X157649082Y-43203257D01*
X157589203Y-43290587D01*
X157589203Y-43128838D01*
G37*
G36*
X158820526Y-43094886D02*
G01*
X158906147Y-43111997D01*
X158944149Y-43128122D01*
X158979331Y-43149421D01*
X159013205Y-43177309D01*
X159044221Y-43211035D01*
X159075004Y-43254713D01*
X159102653Y-43305608D01*
X159124769Y-43356376D01*
X159144342Y-43415479D01*
X159159063Y-43480609D01*
X159172977Y-43591354D01*
X159180323Y-43733064D01*
X158523065Y-43733064D01*
X158525148Y-43778499D01*
X158539760Y-43888787D01*
X158554586Y-43934938D01*
X158575547Y-43976971D01*
X158587677Y-43995948D01*
X158638091Y-44048364D01*
X158668423Y-44067304D01*
X158701716Y-44081053D01*
X158739128Y-44089735D01*
X158779245Y-44092650D01*
X158829248Y-44087436D01*
X158865423Y-44076672D01*
X158898963Y-44060513D01*
X158929511Y-44039281D01*
X158956388Y-44013482D01*
X158996620Y-43951056D01*
X159016558Y-43878144D01*
X159167683Y-43878144D01*
X159138186Y-43991285D01*
X159092251Y-44084610D01*
X159032470Y-44157140D01*
X158959835Y-44209880D01*
X158918528Y-44228930D01*
X158874245Y-44242772D01*
X158826046Y-44251401D01*
X158775032Y-44254309D01*
X158769989Y-44254281D01*
X158673845Y-44242156D01*
X158630104Y-44228087D01*
X158589270Y-44208854D01*
X158550831Y-44184132D01*
X158515614Y-44154342D01*
X158482686Y-44118337D01*
X158453440Y-44077207D01*
X158426967Y-44028968D01*
X158404772Y-43975484D01*
X158386307Y-43914223D01*
X158372809Y-43847629D01*
X158364217Y-43773081D01*
X158361315Y-43693222D01*
X158362889Y-43632410D01*
X158368768Y-43586060D01*
X158523065Y-43586060D01*
X159022786Y-43586060D01*
X159004306Y-43454458D01*
X158988231Y-43405719D01*
X158966091Y-43362120D01*
X158961637Y-43355251D01*
X158912592Y-43301845D01*
X158852163Y-43268968D01*
X158817868Y-43260419D01*
X158781352Y-43257523D01*
X158755190Y-43258991D01*
X158719530Y-43266050D01*
X158686089Y-43278705D01*
X158654020Y-43297435D01*
X158624832Y-43321587D01*
X158597751Y-43352209D01*
X158574364Y-43388057D01*
X158554394Y-43430210D01*
X158538990Y-43477204D01*
X158528341Y-43529522D01*
X158523065Y-43586060D01*
X158368768Y-43586060D01*
X158381403Y-43486449D01*
X158417891Y-43364886D01*
X158469032Y-43267223D01*
X158532323Y-43192143D01*
X158606452Y-43138302D01*
X158647549Y-43119113D01*
X158691306Y-43105175D01*
X158738196Y-43096571D01*
X158787580Y-43093667D01*
X158820526Y-43094886D01*
G37*
G36*
X160017557Y-43437957D02*
G01*
X160011279Y-43379363D01*
X159999531Y-43325840D01*
X159983513Y-43280047D01*
X159962819Y-43239006D01*
X159938767Y-43204331D01*
X159910623Y-43174190D01*
X159879197Y-43149173D01*
X159844016Y-43128681D01*
X159761956Y-43101482D01*
X159677387Y-43093667D01*
X159626203Y-43096559D01*
X159578322Y-43105084D01*
X159534775Y-43118702D01*
X159494858Y-43137306D01*
X159459295Y-43160302D01*
X159427686Y-43187719D01*
X159377420Y-43254571D01*
X159345197Y-43336961D01*
X159333038Y-43434384D01*
X159333005Y-43440064D01*
X159335947Y-43488664D01*
X159344819Y-43532748D01*
X159358210Y-43569231D01*
X159376687Y-43602031D01*
X159426937Y-43655121D01*
X159498616Y-43695836D01*
X159540825Y-43710716D01*
X159717229Y-43763197D01*
X159794315Y-43789977D01*
X159846975Y-43817881D01*
X159868631Y-43836914D01*
X159883404Y-43858447D01*
X159895363Y-43907378D01*
X159895740Y-43920551D01*
X159892847Y-43954521D01*
X159884313Y-43985216D01*
X159870951Y-44011535D01*
X159852751Y-44034467D01*
X159802344Y-44069634D01*
X159731399Y-44089565D01*
X159683707Y-44092650D01*
X159631068Y-44089669D01*
X159585722Y-44080525D01*
X159552841Y-44067748D01*
X159524816Y-44050159D01*
X159485139Y-44004203D01*
X159460033Y-43937899D01*
X159450608Y-43870267D01*
X159303604Y-43870267D01*
X159312794Y-43968982D01*
X159330016Y-44040646D01*
X159351873Y-44088437D01*
X159373604Y-44123301D01*
X159399727Y-44154267D01*
X159464831Y-44204475D01*
X159547377Y-44238365D01*
X159647795Y-44253728D01*
X159673174Y-44254309D01*
X159728611Y-44251413D01*
X159780336Y-44242868D01*
X159826977Y-44229305D01*
X159869697Y-44210773D01*
X159907496Y-44188030D01*
X159941173Y-44160906D01*
X159970218Y-44129985D01*
X159994884Y-44095144D01*
X160030425Y-44014233D01*
X160046328Y-43918203D01*
X160046957Y-43893348D01*
X160043953Y-43841140D01*
X160034645Y-43794800D01*
X160021300Y-43759314D01*
X160002711Y-43727425D01*
X159951460Y-43675181D01*
X159873321Y-43630466D01*
X159794990Y-43601631D01*
X159641667Y-43555469D01*
X159564448Y-43528615D01*
X159515644Y-43501012D01*
X159498584Y-43483392D01*
X159487631Y-43463131D01*
X159480009Y-43410663D01*
X159482904Y-43377899D01*
X159491452Y-43348546D01*
X159504721Y-43323861D01*
X159522782Y-43302672D01*
X159572644Y-43271482D01*
X159643074Y-43256258D01*
X159666854Y-43255416D01*
X159714731Y-43258361D01*
X159755996Y-43267250D01*
X159786701Y-43279934D01*
X159812527Y-43297264D01*
X159848012Y-43342389D01*
X159867442Y-43406290D01*
X159870553Y-43437957D01*
X160017557Y-43437957D01*
G37*
G36*
X169131298Y-42721756D02*
G01*
X169232983Y-42742515D01*
X169314142Y-42780324D01*
X169378134Y-42834731D01*
X169404493Y-42869041D01*
X169426453Y-42907668D01*
X169444778Y-42952970D01*
X169458130Y-43002977D01*
X169466854Y-43061619D01*
X169469775Y-43125540D01*
X169461825Y-43235060D01*
X169436837Y-43321889D01*
X169416151Y-43361513D01*
X169389666Y-43398559D01*
X169348670Y-43441803D01*
X169297584Y-43484211D01*
X169339185Y-43506855D01*
X169388965Y-43550549D01*
X169408289Y-43580180D01*
X169423076Y-43615523D01*
X169438143Y-43681813D01*
X169446603Y-43767594D01*
X169455029Y-44040352D01*
X169456737Y-44069990D01*
X169467719Y-44133250D01*
X169486168Y-44164260D01*
X169518044Y-44191477D01*
X169518044Y-44225000D01*
X169312239Y-44225000D01*
X169294842Y-44095141D01*
X169284945Y-43847278D01*
X169275370Y-43739948D01*
X169251151Y-43670920D01*
X169212851Y-43623329D01*
X169186219Y-43605242D01*
X169155057Y-43591951D01*
X169113018Y-43582333D01*
X169064485Y-43578733D01*
X168659194Y-43578733D01*
X168659194Y-44225000D01*
X168491125Y-44225000D01*
X168491125Y-43404344D01*
X168659194Y-43404344D01*
X169045525Y-43404344D01*
X169063832Y-43404023D01*
X169148721Y-43391498D01*
X169210352Y-43362865D01*
X169234953Y-43342154D01*
X169255406Y-43317106D01*
X169272930Y-43285023D01*
X169285726Y-43247681D01*
X169294636Y-43198542D01*
X169297584Y-43142301D01*
X169288153Y-43049353D01*
X169262540Y-42982719D01*
X169221739Y-42935472D01*
X169194009Y-42917663D01*
X169161938Y-42904668D01*
X169121135Y-42895836D01*
X169074926Y-42892899D01*
X168659194Y-42892899D01*
X168659194Y-43404344D01*
X168491125Y-43404344D01*
X168491125Y-42718510D01*
X169064485Y-42718510D01*
X169131298Y-42721756D01*
G37*
G36*
X170111161Y-43094886D02*
G01*
X170196781Y-43111997D01*
X170234784Y-43128122D01*
X170269966Y-43149421D01*
X170303840Y-43177309D01*
X170334856Y-43211035D01*
X170365638Y-43254713D01*
X170393288Y-43305608D01*
X170415403Y-43356376D01*
X170434976Y-43415479D01*
X170449698Y-43480609D01*
X170463612Y-43591354D01*
X170470957Y-43733064D01*
X169813700Y-43733064D01*
X169815783Y-43778499D01*
X169830395Y-43888787D01*
X169845221Y-43934938D01*
X169866181Y-43976971D01*
X169878311Y-43995948D01*
X169928726Y-44048364D01*
X169959058Y-44067304D01*
X169992350Y-44081053D01*
X170029763Y-44089735D01*
X170069880Y-44092650D01*
X170119883Y-44087436D01*
X170156058Y-44076672D01*
X170189597Y-44060513D01*
X170220145Y-44039281D01*
X170247023Y-44013482D01*
X170287255Y-43951056D01*
X170307192Y-43878144D01*
X170458318Y-43878144D01*
X170428821Y-43991285D01*
X170382886Y-44084610D01*
X170323105Y-44157140D01*
X170250470Y-44209880D01*
X170209163Y-44228930D01*
X170164880Y-44242772D01*
X170116681Y-44251401D01*
X170065667Y-44254309D01*
X170060623Y-44254281D01*
X169964480Y-44242156D01*
X169920738Y-44228087D01*
X169879905Y-44208854D01*
X169841466Y-44184132D01*
X169806248Y-44154342D01*
X169773321Y-44118337D01*
X169744075Y-44077207D01*
X169717602Y-44028968D01*
X169695406Y-43975484D01*
X169676941Y-43914223D01*
X169663444Y-43847629D01*
X169654852Y-43773081D01*
X169651950Y-43693222D01*
X169653524Y-43632410D01*
X169659403Y-43586060D01*
X169813700Y-43586060D01*
X170313421Y-43586060D01*
X170294941Y-43454458D01*
X170278865Y-43405719D01*
X170256726Y-43362120D01*
X170252272Y-43355251D01*
X170203226Y-43301845D01*
X170142798Y-43268968D01*
X170108503Y-43260419D01*
X170071987Y-43257523D01*
X170045825Y-43258991D01*
X170010165Y-43266050D01*
X169976723Y-43278705D01*
X169944654Y-43297435D01*
X169915467Y-43321587D01*
X169888386Y-43352209D01*
X169864999Y-43388057D01*
X169845029Y-43430210D01*
X169829624Y-43477204D01*
X169818976Y-43529522D01*
X169813700Y-43586060D01*
X169659403Y-43586060D01*
X169672038Y-43486449D01*
X169708526Y-43364886D01*
X169759667Y-43267223D01*
X169822958Y-43192143D01*
X169897087Y-43138302D01*
X169938183Y-43119113D01*
X169981941Y-43105175D01*
X170028830Y-43096571D01*
X170078215Y-43093667D01*
X170111161Y-43094886D01*
G37*
G36*
X171308191Y-43437957D02*
G01*
X171301913Y-43379363D01*
X171290165Y-43325840D01*
X171274148Y-43280047D01*
X171253454Y-43239006D01*
X171229402Y-43204331D01*
X171201257Y-43174190D01*
X171169832Y-43149173D01*
X171134651Y-43128681D01*
X171052590Y-43101482D01*
X170968022Y-43093667D01*
X170916838Y-43096559D01*
X170868957Y-43105084D01*
X170825410Y-43118702D01*
X170785493Y-43137306D01*
X170749929Y-43160302D01*
X170718321Y-43187719D01*
X170668055Y-43254571D01*
X170635832Y-43336961D01*
X170623673Y-43434384D01*
X170623640Y-43440064D01*
X170626582Y-43488664D01*
X170635453Y-43532748D01*
X170648844Y-43569231D01*
X170667322Y-43602031D01*
X170717572Y-43655121D01*
X170789251Y-43695836D01*
X170831460Y-43710716D01*
X171007864Y-43763197D01*
X171084950Y-43789977D01*
X171137610Y-43817881D01*
X171159266Y-43836914D01*
X171174038Y-43858447D01*
X171185997Y-43907378D01*
X171186375Y-43920551D01*
X171183481Y-43954521D01*
X171174947Y-43985216D01*
X171161586Y-44011535D01*
X171143386Y-44034467D01*
X171092979Y-44069634D01*
X171022034Y-44089565D01*
X170974342Y-44092650D01*
X170921702Y-44089669D01*
X170876356Y-44080525D01*
X170843475Y-44067748D01*
X170815451Y-44050159D01*
X170775774Y-44004203D01*
X170750668Y-43937899D01*
X170741243Y-43870267D01*
X170594239Y-43870267D01*
X170603428Y-43968982D01*
X170620651Y-44040646D01*
X170642507Y-44088437D01*
X170664239Y-44123301D01*
X170690362Y-44154267D01*
X170755465Y-44204475D01*
X170838011Y-44238365D01*
X170938430Y-44253728D01*
X170963809Y-44254309D01*
X171019245Y-44251413D01*
X171070971Y-44242868D01*
X171117612Y-44229305D01*
X171160331Y-44210773D01*
X171198130Y-44188030D01*
X171231808Y-44160906D01*
X171260853Y-44129985D01*
X171285519Y-44095144D01*
X171321060Y-44014233D01*
X171336963Y-43918203D01*
X171337592Y-43893348D01*
X171334588Y-43841140D01*
X171325280Y-43794800D01*
X171311935Y-43759314D01*
X171293345Y-43727425D01*
X171242095Y-43675181D01*
X171163956Y-43630466D01*
X171085625Y-43601631D01*
X170932301Y-43555469D01*
X170855082Y-43528615D01*
X170806278Y-43501012D01*
X170789219Y-43483392D01*
X170778265Y-43463131D01*
X170770643Y-43410663D01*
X170773539Y-43377899D01*
X170782087Y-43348546D01*
X170795355Y-43323861D01*
X170813417Y-43302672D01*
X170863279Y-43271482D01*
X170933709Y-43256258D01*
X170957489Y-43255416D01*
X171005365Y-43258361D01*
X171046631Y-43267250D01*
X171077336Y-43279934D01*
X171103161Y-43297264D01*
X171138647Y-43342389D01*
X171158077Y-43406290D01*
X171161188Y-43437957D01*
X171308191Y-43437957D01*
G37*
G36*
X171928328Y-43094886D02*
G01*
X172013948Y-43111997D01*
X172051950Y-43128122D01*
X172087133Y-43149421D01*
X172121007Y-43177309D01*
X172152022Y-43211035D01*
X172182805Y-43254713D01*
X172210455Y-43305608D01*
X172232570Y-43356376D01*
X172252143Y-43415479D01*
X172266864Y-43480609D01*
X172280779Y-43591354D01*
X172288124Y-43733064D01*
X171630867Y-43733064D01*
X171632950Y-43778499D01*
X171647562Y-43888787D01*
X171662388Y-43934938D01*
X171683348Y-43976971D01*
X171695478Y-43995948D01*
X171745893Y-44048364D01*
X171776224Y-44067304D01*
X171809517Y-44081053D01*
X171846930Y-44089735D01*
X171887047Y-44092650D01*
X171937050Y-44087436D01*
X171973224Y-44076672D01*
X172006764Y-44060513D01*
X172037312Y-44039281D01*
X172064190Y-44013482D01*
X172104422Y-43951056D01*
X172124359Y-43878144D01*
X172275484Y-43878144D01*
X172245988Y-43991285D01*
X172200053Y-44084610D01*
X172140272Y-44157140D01*
X172067636Y-44209880D01*
X172026330Y-44228930D01*
X171982046Y-44242772D01*
X171933847Y-44251401D01*
X171882834Y-44254309D01*
X171877790Y-44254281D01*
X171781647Y-44242156D01*
X171737905Y-44228087D01*
X171697072Y-44208854D01*
X171658633Y-44184132D01*
X171623415Y-44154342D01*
X171590487Y-44118337D01*
X171561242Y-44077207D01*
X171534768Y-44028968D01*
X171512573Y-43975484D01*
X171494108Y-43914223D01*
X171480610Y-43847629D01*
X171472019Y-43773081D01*
X171469117Y-43693222D01*
X171470691Y-43632410D01*
X171476570Y-43586060D01*
X171630867Y-43586060D01*
X172130587Y-43586060D01*
X172112108Y-43454458D01*
X172096032Y-43405719D01*
X172073893Y-43362120D01*
X172069439Y-43355251D01*
X172020393Y-43301845D01*
X171959965Y-43268968D01*
X171925669Y-43260419D01*
X171889153Y-43257523D01*
X171862992Y-43258991D01*
X171827332Y-43266050D01*
X171793890Y-43278705D01*
X171761821Y-43297435D01*
X171732634Y-43321587D01*
X171705552Y-43352209D01*
X171682166Y-43388057D01*
X171662196Y-43430210D01*
X171646791Y-43477204D01*
X171636143Y-43529522D01*
X171630867Y-43586060D01*
X171476570Y-43586060D01*
X171489204Y-43486449D01*
X171525693Y-43364886D01*
X171576834Y-43267223D01*
X171640124Y-43192143D01*
X171714253Y-43138302D01*
X171755350Y-43119113D01*
X171799108Y-43105175D01*
X171845997Y-43096571D01*
X171895382Y-43093667D01*
X171928328Y-43094886D01*
G37*
G36*
X172799843Y-43282161D02*
G01*
X172799843Y-43128838D01*
X172652840Y-43128838D01*
X172652840Y-42822282D01*
X172501714Y-42822282D01*
X172501714Y-43128838D01*
X172379898Y-43128838D01*
X172379898Y-43282161D01*
X172501714Y-43282161D01*
X172501714Y-44007288D01*
X172504659Y-44065861D01*
X172513551Y-44115849D01*
X172525978Y-44151972D01*
X172542896Y-44181939D01*
X172562015Y-44203715D01*
X172584855Y-44220613D01*
X172640778Y-44239823D01*
X172678027Y-44242585D01*
X172730601Y-44236357D01*
X172788642Y-44226368D01*
X172797737Y-44225000D01*
X172797737Y-44080377D01*
X172745255Y-44080377D01*
X172711553Y-44078455D01*
X172685928Y-44069926D01*
X172671403Y-44058554D01*
X172661189Y-44042768D01*
X172652840Y-43994465D01*
X172652840Y-43282161D01*
X172799843Y-43282161D01*
G37*
X98392857Y-76378107D02*
X98250000Y-76306678D01*
X98250000Y-76306678D02*
X98035714Y-76306678D01*
X98035714Y-76306678D02*
X97821428Y-76378107D01*
X97821428Y-76378107D02*
X97678571Y-76520964D01*
X97678571Y-76520964D02*
X97607142Y-76663821D01*
X97607142Y-76663821D02*
X97535714Y-76949535D01*
X97535714Y-76949535D02*
X97535714Y-77163821D01*
X97535714Y-77163821D02*
X97607142Y-77449535D01*
X97607142Y-77449535D02*
X97678571Y-77592392D01*
X97678571Y-77592392D02*
X97821428Y-77735250D01*
X97821428Y-77735250D02*
X98035714Y-77806678D01*
X98035714Y-77806678D02*
X98178571Y-77806678D01*
X98178571Y-77806678D02*
X98392857Y-77735250D01*
X98392857Y-77735250D02*
X98464285Y-77663821D01*
X98464285Y-77663821D02*
X98464285Y-77163821D01*
X98464285Y-77163821D02*
X98178571Y-77163821D01*
X179280497Y-72306678D02*
X179280497Y-70806678D01*
X179280497Y-70806678D02*
X179780497Y-71878107D01*
X179780497Y-71878107D02*
X180280497Y-70806678D01*
X180280497Y-70806678D02*
X180280497Y-72306678D01*
X181209069Y-72306678D02*
X181066212Y-72235250D01*
X181066212Y-72235250D02*
X180994783Y-72163821D01*
X180994783Y-72163821D02*
X180923355Y-72020964D01*
X180923355Y-72020964D02*
X180923355Y-71592392D01*
X180923355Y-71592392D02*
X180994783Y-71449535D01*
X180994783Y-71449535D02*
X181066212Y-71378107D01*
X181066212Y-71378107D02*
X181209069Y-71306678D01*
X181209069Y-71306678D02*
X181423355Y-71306678D01*
X181423355Y-71306678D02*
X181566212Y-71378107D01*
X181566212Y-71378107D02*
X181637641Y-71449535D01*
X181637641Y-71449535D02*
X181709069Y-71592392D01*
X181709069Y-71592392D02*
X181709069Y-72020964D01*
X181709069Y-72020964D02*
X181637641Y-72163821D01*
X181637641Y-72163821D02*
X181566212Y-72235250D01*
X181566212Y-72235250D02*
X181423355Y-72306678D01*
X181423355Y-72306678D02*
X181209069Y-72306678D01*
X182351926Y-72306678D02*
X182351926Y-71306678D01*
X182351926Y-71449535D02*
X182423355Y-71378107D01*
X182423355Y-71378107D02*
X182566212Y-71306678D01*
X182566212Y-71306678D02*
X182780498Y-71306678D01*
X182780498Y-71306678D02*
X182923355Y-71378107D01*
X182923355Y-71378107D02*
X182994784Y-71520964D01*
X182994784Y-71520964D02*
X182994784Y-72306678D01*
X182994784Y-71520964D02*
X183066212Y-71378107D01*
X183066212Y-71378107D02*
X183209069Y-71306678D01*
X183209069Y-71306678D02*
X183423355Y-71306678D01*
X183423355Y-71306678D02*
X183566212Y-71378107D01*
X183566212Y-71378107D02*
X183637641Y-71520964D01*
X183637641Y-71520964D02*
X183637641Y-72306678D01*
X184923355Y-72235250D02*
X184780498Y-72306678D01*
X184780498Y-72306678D02*
X184494784Y-72306678D01*
X184494784Y-72306678D02*
X184351926Y-72235250D01*
X184351926Y-72235250D02*
X184280498Y-72092392D01*
X184280498Y-72092392D02*
X184280498Y-71520964D01*
X184280498Y-71520964D02*
X184351926Y-71378107D01*
X184351926Y-71378107D02*
X184494784Y-71306678D01*
X184494784Y-71306678D02*
X184780498Y-71306678D01*
X184780498Y-71306678D02*
X184923355Y-71378107D01*
X184923355Y-71378107D02*
X184994784Y-71520964D01*
X184994784Y-71520964D02*
X184994784Y-71663821D01*
X184994784Y-71663821D02*
X184280498Y-71806678D01*
X185637640Y-71306678D02*
X185637640Y-72306678D01*
X185637640Y-71449535D02*
X185709069Y-71378107D01*
X185709069Y-71378107D02*
X185851926Y-71306678D01*
X185851926Y-71306678D02*
X186066212Y-71306678D01*
X186066212Y-71306678D02*
X186209069Y-71378107D01*
X186209069Y-71378107D02*
X186280498Y-71520964D01*
X186280498Y-71520964D02*
X186280498Y-72306678D01*
X186780498Y-71306678D02*
X187351926Y-71306678D01*
X186994783Y-70806678D02*
X186994783Y-72092392D01*
X186994783Y-72092392D02*
X187066212Y-72235250D01*
X187066212Y-72235250D02*
X187209069Y-72306678D01*
X187209069Y-72306678D02*
X187351926Y-72306678D01*
X188494784Y-72306678D02*
X188494784Y-71520964D01*
X188494784Y-71520964D02*
X188423355Y-71378107D01*
X188423355Y-71378107D02*
X188280498Y-71306678D01*
X188280498Y-71306678D02*
X187994784Y-71306678D01*
X187994784Y-71306678D02*
X187851926Y-71378107D01*
X188494784Y-72235250D02*
X188351926Y-72306678D01*
X188351926Y-72306678D02*
X187994784Y-72306678D01*
X187994784Y-72306678D02*
X187851926Y-72235250D01*
X187851926Y-72235250D02*
X187780498Y-72092392D01*
X187780498Y-72092392D02*
X187780498Y-71949535D01*
X187780498Y-71949535D02*
X187851926Y-71806678D01*
X187851926Y-71806678D02*
X187994784Y-71735250D01*
X187994784Y-71735250D02*
X188351926Y-71735250D01*
X188351926Y-71735250D02*
X188494784Y-71663821D01*
X189209069Y-72306678D02*
X189209069Y-71306678D01*
X189209069Y-71592392D02*
X189280498Y-71449535D01*
X189280498Y-71449535D02*
X189351927Y-71378107D01*
X189351927Y-71378107D02*
X189494784Y-71306678D01*
X189494784Y-71306678D02*
X189637641Y-71306678D01*
X189994783Y-71306678D02*
X190351926Y-72306678D01*
X190709069Y-71306678D02*
X190351926Y-72306678D01*
X190351926Y-72306678D02*
X190209069Y-72663821D01*
X190209069Y-72663821D02*
X190137640Y-72735250D01*
X190137640Y-72735250D02*
X189994783Y-72806678D01*
D10*
X167000000Y-115613357D02*
X169000000Y-118613357D01*
X169000000Y-115613357D02*
X167000000Y-118613357D01*
D11*
X181500000Y-89306678D02*
X182357143Y-89306678D01*
X181928571Y-90806678D02*
X181928571Y-89306678D01*
X183071428Y-90806678D02*
X182928571Y-90735250D01*
X182928571Y-90735250D02*
X182857142Y-90663821D01*
X182857142Y-90663821D02*
X182785714Y-90520964D01*
X182785714Y-90520964D02*
X182785714Y-90092392D01*
X182785714Y-90092392D02*
X182857142Y-89949535D01*
X182857142Y-89949535D02*
X182928571Y-89878107D01*
X182928571Y-89878107D02*
X183071428Y-89806678D01*
X183071428Y-89806678D02*
X183285714Y-89806678D01*
X183285714Y-89806678D02*
X183428571Y-89878107D01*
X183428571Y-89878107D02*
X183500000Y-89949535D01*
X183500000Y-89949535D02*
X183571428Y-90092392D01*
X183571428Y-90092392D02*
X183571428Y-90520964D01*
X183571428Y-90520964D02*
X183500000Y-90663821D01*
X183500000Y-90663821D02*
X183428571Y-90735250D01*
X183428571Y-90735250D02*
X183285714Y-90806678D01*
X183285714Y-90806678D02*
X183071428Y-90806678D01*
X184857143Y-89806678D02*
X184857143Y-91020964D01*
X184857143Y-91020964D02*
X184785714Y-91163821D01*
X184785714Y-91163821D02*
X184714285Y-91235250D01*
X184714285Y-91235250D02*
X184571428Y-91306678D01*
X184571428Y-91306678D02*
X184357143Y-91306678D01*
X184357143Y-91306678D02*
X184214285Y-91235250D01*
X184857143Y-90735250D02*
X184714285Y-90806678D01*
X184714285Y-90806678D02*
X184428571Y-90806678D01*
X184428571Y-90806678D02*
X184285714Y-90735250D01*
X184285714Y-90735250D02*
X184214285Y-90663821D01*
X184214285Y-90663821D02*
X184142857Y-90520964D01*
X184142857Y-90520964D02*
X184142857Y-90092392D01*
X184142857Y-90092392D02*
X184214285Y-89949535D01*
X184214285Y-89949535D02*
X184285714Y-89878107D01*
X184285714Y-89878107D02*
X184428571Y-89806678D01*
X184428571Y-89806678D02*
X184714285Y-89806678D01*
X184714285Y-89806678D02*
X184857143Y-89878107D01*
X186214286Y-89806678D02*
X186214286Y-91020964D01*
X186214286Y-91020964D02*
X186142857Y-91163821D01*
X186142857Y-91163821D02*
X186071428Y-91235250D01*
X186071428Y-91235250D02*
X185928571Y-91306678D01*
X185928571Y-91306678D02*
X185714286Y-91306678D01*
X185714286Y-91306678D02*
X185571428Y-91235250D01*
X186214286Y-90735250D02*
X186071428Y-90806678D01*
X186071428Y-90806678D02*
X185785714Y-90806678D01*
X185785714Y-90806678D02*
X185642857Y-90735250D01*
X185642857Y-90735250D02*
X185571428Y-90663821D01*
X185571428Y-90663821D02*
X185500000Y-90520964D01*
X185500000Y-90520964D02*
X185500000Y-90092392D01*
X185500000Y-90092392D02*
X185571428Y-89949535D01*
X185571428Y-89949535D02*
X185642857Y-89878107D01*
X185642857Y-89878107D02*
X185785714Y-89806678D01*
X185785714Y-89806678D02*
X186071428Y-89806678D01*
X186071428Y-89806678D02*
X186214286Y-89878107D01*
X187142857Y-90806678D02*
X187000000Y-90735250D01*
X187000000Y-90735250D02*
X186928571Y-90592392D01*
X186928571Y-90592392D02*
X186928571Y-89306678D01*
X188285714Y-90735250D02*
X188142857Y-90806678D01*
X188142857Y-90806678D02*
X187857143Y-90806678D01*
X187857143Y-90806678D02*
X187714285Y-90735250D01*
X187714285Y-90735250D02*
X187642857Y-90592392D01*
X187642857Y-90592392D02*
X187642857Y-90020964D01*
X187642857Y-90020964D02*
X187714285Y-89878107D01*
X187714285Y-89878107D02*
X187857143Y-89806678D01*
X187857143Y-89806678D02*
X188142857Y-89806678D01*
X188142857Y-89806678D02*
X188285714Y-89878107D01*
X188285714Y-89878107D02*
X188357143Y-90020964D01*
X188357143Y-90020964D02*
X188357143Y-90163821D01*
X188357143Y-90163821D02*
X187642857Y-90306678D01*
D10*
X201400000Y-115613357D02*
X203400000Y-115613357D01*
X203400000Y-115613357D02*
X201400000Y-118613357D01*
X201400000Y-118613357D02*
X203400000Y-118613357D01*
D11*
G36*
X144630731Y-42718510D02*
G01*
X144630731Y-43671881D01*
X144627824Y-43740782D01*
X144619199Y-43803873D01*
X144605956Y-43857892D01*
X144587876Y-43906466D01*
X144566489Y-43947183D01*
X144541003Y-43982814D01*
X144512864Y-44012048D01*
X144481152Y-44036419D01*
X144408700Y-44069771D01*
X144322123Y-44083204D01*
X144309430Y-44083400D01*
X144262224Y-44080486D01*
X144218565Y-44071810D01*
X144180237Y-44058231D01*
X144145291Y-44039571D01*
X144086714Y-43988408D01*
X144041359Y-43917234D01*
X144009892Y-43822891D01*
X143995073Y-43701347D01*
X143994448Y-43667668D01*
X143994448Y-42718510D01*
X143826470Y-42718510D01*
X143826470Y-43724363D01*
X143829371Y-43794770D01*
X143837955Y-43861110D01*
X143851628Y-43921690D01*
X143870369Y-43978020D01*
X143893327Y-44028598D01*
X143920777Y-44074794D01*
X143951776Y-44115513D01*
X143986771Y-44151724D01*
X144024994Y-44182817D01*
X144066818Y-44209228D01*
X144160328Y-44247275D01*
X144267396Y-44264958D01*
X144303110Y-44266032D01*
X144361759Y-44263130D01*
X144417384Y-44254538D01*
X144469032Y-44240695D01*
X144517471Y-44221672D01*
X144562210Y-44197846D01*
X144603518Y-44169245D01*
X144675444Y-44098167D01*
X144732553Y-44008581D01*
X144773323Y-43900260D01*
X144795465Y-43773102D01*
X144798709Y-43697069D01*
X144798709Y-42718510D01*
X144630731Y-42718510D01*
G37*
G36*
X145965854Y-43158696D02*
G01*
X145953966Y-43049548D01*
X145935926Y-42967904D01*
X145902840Y-42887587D01*
X145877503Y-42847289D01*
X145847775Y-42810979D01*
X145775984Y-42750878D01*
X145687621Y-42707649D01*
X145582347Y-42682740D01*
X145499656Y-42677477D01*
X145436913Y-42680414D01*
X145378736Y-42689250D01*
X145328699Y-42702816D01*
X145282685Y-42721560D01*
X145242614Y-42744265D01*
X145206252Y-42771725D01*
X145161593Y-42818252D01*
X145108652Y-42905434D01*
X145073080Y-43009273D01*
X145063089Y-43065748D01*
X145058797Y-43124239D01*
X145058645Y-43137630D01*
X145061573Y-43195703D01*
X145070349Y-43249139D01*
X145083805Y-43294811D01*
X145102332Y-43336392D01*
X145124801Y-43372335D01*
X145151894Y-43404488D01*
X145219243Y-43456948D01*
X145307250Y-43495073D01*
X145321145Y-43499140D01*
X145575218Y-43570581D01*
X145662249Y-43599063D01*
X145729124Y-43629434D01*
X145764540Y-43652591D01*
X145792105Y-43678422D01*
X145810349Y-43703829D01*
X145823559Y-43732335D01*
X145836889Y-43802995D01*
X145837718Y-43831158D01*
X145834810Y-43875142D01*
X145826178Y-43915388D01*
X145812749Y-43950167D01*
X145794364Y-43981361D01*
X145744262Y-44031851D01*
X145674819Y-44068004D01*
X145582976Y-44088447D01*
X145520630Y-44091734D01*
X145464841Y-44088814D01*
X145413378Y-44080098D01*
X145369017Y-44066647D01*
X145328784Y-44048167D01*
X145294318Y-44025854D01*
X145263877Y-43999044D01*
X145222501Y-43944639D01*
X145200609Y-43901346D01*
X145185931Y-43854999D01*
X145174502Y-43752122D01*
X145174141Y-43738743D01*
X145016696Y-43738743D01*
X145021031Y-43832038D01*
X145032162Y-43909843D01*
X145045908Y-43961196D01*
X145064794Y-44007810D01*
X145107005Y-44077080D01*
X145142705Y-44121970D01*
X145181258Y-44160373D01*
X145219723Y-44190219D01*
X145261317Y-44214876D01*
X145353596Y-44248859D01*
X145466898Y-44264866D01*
X145512295Y-44266032D01*
X145579393Y-44263126D01*
X145642137Y-44254505D01*
X145698351Y-44240924D01*
X145750228Y-44222301D01*
X145796129Y-44199625D01*
X145837713Y-44172479D01*
X145874036Y-44141767D01*
X145905996Y-44107017D01*
X145956028Y-44026539D01*
X145987677Y-43930502D01*
X145999446Y-43817716D01*
X145999468Y-43812290D01*
X145996546Y-43749862D01*
X145987813Y-43692002D01*
X145974303Y-43641723D01*
X145955716Y-43595682D01*
X145933233Y-43555696D01*
X145906184Y-43519737D01*
X145875295Y-43488488D01*
X145840096Y-43461246D01*
X145756191Y-43418797D01*
X145718009Y-43406633D01*
X145365292Y-43307898D01*
X145325322Y-43294017D01*
X145292153Y-43275743D01*
X145268351Y-43255793D01*
X145249513Y-43232099D01*
X145226451Y-43174467D01*
X145220395Y-43112443D01*
X145223298Y-43066453D01*
X145231901Y-43024463D01*
X145245240Y-42988348D01*
X145263457Y-42956147D01*
X145285717Y-42928721D01*
X145312328Y-42905258D01*
X145378451Y-42870609D01*
X145463741Y-42853273D01*
X145499656Y-42851866D01*
X145548498Y-42854765D01*
X145594105Y-42863329D01*
X145635107Y-42876926D01*
X145672460Y-42895528D01*
X145705115Y-42918330D01*
X145733758Y-42945557D01*
X145760049Y-42980002D01*
X145781898Y-43024053D01*
X145796632Y-43071880D01*
X145808318Y-43158696D01*
X145965854Y-43158696D01*
G37*
G36*
X146771157Y-42718933D02*
G01*
X146863030Y-42734216D01*
X146904179Y-42749654D01*
X146941987Y-42770007D01*
X146976491Y-42795257D01*
X147007204Y-42825053D01*
X147034326Y-42859766D01*
X147057110Y-42898717D01*
X147075667Y-42942587D01*
X147089262Y-42990380D01*
X147097777Y-43042855D01*
X147100668Y-43098887D01*
X147091673Y-43195905D01*
X147063891Y-43278296D01*
X147042165Y-43315248D01*
X147015140Y-43349182D01*
X146979366Y-43383158D01*
X146936903Y-43414235D01*
X146991819Y-43444498D01*
X147065441Y-43501703D01*
X147115322Y-43567427D01*
X147133818Y-43607618D01*
X147147098Y-43652070D01*
X147156457Y-43710607D01*
X147159469Y-43776570D01*
X147152421Y-43869794D01*
X147124998Y-43972938D01*
X147079220Y-44059564D01*
X147017005Y-44129137D01*
X146980104Y-44157339D01*
X146939563Y-44180916D01*
X146895234Y-44199785D01*
X146847585Y-44213557D01*
X146796119Y-44222104D01*
X146741631Y-44225000D01*
X146208204Y-44225000D01*
X146208204Y-44050702D01*
X146376182Y-44050702D01*
X146733204Y-44050702D01*
X146759918Y-44049772D01*
X146839144Y-44033604D01*
X146901585Y-43999144D01*
X146927272Y-43974968D01*
X146948819Y-43946436D01*
X146966794Y-43912075D01*
X146979980Y-43873228D01*
X146988587Y-43827259D01*
X146991491Y-43776570D01*
X146990493Y-43747596D01*
X146974820Y-43669038D01*
X146941707Y-43608956D01*
X146917986Y-43584245D01*
X146889679Y-43563603D01*
X146854083Y-43545936D01*
X146813193Y-43533008D01*
X146761731Y-43524234D01*
X146703804Y-43521305D01*
X146376182Y-43521305D01*
X146376182Y-44050702D01*
X146208204Y-44050702D01*
X146208204Y-43357449D01*
X146376182Y-43357449D01*
X146676509Y-43357449D01*
X146688636Y-43357324D01*
X146779347Y-43346047D01*
X146844054Y-43319037D01*
X146869329Y-43299715D01*
X146890301Y-43276347D01*
X146907967Y-43246930D01*
X146920856Y-43212786D01*
X146929745Y-43168427D01*
X146932690Y-43117847D01*
X146924080Y-43038904D01*
X146898669Y-42978911D01*
X146879299Y-42954867D01*
X146855443Y-42934883D01*
X146824000Y-42917523D01*
X146786970Y-42904849D01*
X146736715Y-42895858D01*
X146678616Y-42892899D01*
X146376182Y-42892899D01*
X146376182Y-43357449D01*
X146208204Y-43357449D01*
X146208204Y-42718510D01*
X146752072Y-42718510D01*
X146771157Y-42718933D01*
G37*
G36*
X191273147Y-43158696D02*
G01*
X191261258Y-43049548D01*
X191243218Y-42967904D01*
X191210132Y-42887587D01*
X191184795Y-42847289D01*
X191155067Y-42810979D01*
X191083276Y-42750878D01*
X190994913Y-42707649D01*
X190889639Y-42682740D01*
X190806948Y-42677477D01*
X190744206Y-42680414D01*
X190686029Y-42689250D01*
X190635991Y-42702816D01*
X190589978Y-42721560D01*
X190549906Y-42744265D01*
X190513545Y-42771725D01*
X190468886Y-42818252D01*
X190415944Y-42905434D01*
X190380373Y-43009273D01*
X190370382Y-43065748D01*
X190366090Y-43124239D01*
X190365937Y-43137630D01*
X190368866Y-43195703D01*
X190377641Y-43249139D01*
X190391097Y-43294811D01*
X190409624Y-43336392D01*
X190432094Y-43372335D01*
X190459186Y-43404488D01*
X190526535Y-43456948D01*
X190614542Y-43495073D01*
X190628437Y-43499140D01*
X190882511Y-43570581D01*
X190969541Y-43599063D01*
X191036416Y-43629434D01*
X191071833Y-43652591D01*
X191099398Y-43678422D01*
X191117642Y-43703829D01*
X191130851Y-43732335D01*
X191144182Y-43802995D01*
X191145011Y-43831158D01*
X191142103Y-43875142D01*
X191133470Y-43915388D01*
X191120041Y-43950167D01*
X191101656Y-43981361D01*
X191051554Y-44031851D01*
X190982112Y-44068004D01*
X190890268Y-44088447D01*
X190827923Y-44091734D01*
X190772133Y-44088814D01*
X190720670Y-44080098D01*
X190676309Y-44066647D01*
X190636076Y-44048167D01*
X190601611Y-44025854D01*
X190571169Y-43999044D01*
X190529794Y-43944639D01*
X190507901Y-43901346D01*
X190493224Y-43854999D01*
X190481794Y-43752122D01*
X190481434Y-43738743D01*
X190323989Y-43738743D01*
X190328324Y-43832038D01*
X190339454Y-43909843D01*
X190353200Y-43961196D01*
X190372086Y-44007810D01*
X190414297Y-44077080D01*
X190449997Y-44121970D01*
X190488551Y-44160373D01*
X190527015Y-44190219D01*
X190568609Y-44214876D01*
X190660889Y-44248859D01*
X190774190Y-44264866D01*
X190819588Y-44266032D01*
X190886686Y-44263126D01*
X190949429Y-44254505D01*
X191005643Y-44240924D01*
X191057520Y-44222301D01*
X191103422Y-44199625D01*
X191145006Y-44172479D01*
X191181328Y-44141767D01*
X191213288Y-44107017D01*
X191263320Y-44026539D01*
X191294969Y-43930502D01*
X191306738Y-43817716D01*
X191306761Y-43812290D01*
X191303838Y-43749862D01*
X191295106Y-43692002D01*
X191281596Y-43641723D01*
X191263009Y-43595682D01*
X191240525Y-43555696D01*
X191213476Y-43519737D01*
X191182587Y-43488488D01*
X191147389Y-43461246D01*
X191063483Y-43418797D01*
X191025301Y-43406633D01*
X190672584Y-43307898D01*
X190632614Y-43294017D01*
X190599445Y-43275743D01*
X190575643Y-43255793D01*
X190556806Y-43232099D01*
X190533743Y-43174467D01*
X190527687Y-43112443D01*
X190530591Y-43066453D01*
X190539194Y-43024463D01*
X190552532Y-42988348D01*
X190570749Y-42956147D01*
X190593009Y-42928721D01*
X190619621Y-42905258D01*
X190685743Y-42870609D01*
X190771034Y-42853273D01*
X190806948Y-42851866D01*
X190855791Y-42854765D01*
X190901398Y-42863329D01*
X190942399Y-42876926D01*
X190979752Y-42895528D01*
X191012407Y-42918330D01*
X191041051Y-42945557D01*
X191067342Y-42980002D01*
X191089191Y-43024053D01*
X191103925Y-43071880D01*
X191115610Y-43158696D01*
X191273147Y-43158696D01*
G37*
G36*
X192130691Y-42729369D02*
G01*
X192179841Y-42743148D01*
X192226403Y-42762291D01*
X192271128Y-42787187D01*
X192312939Y-42817340D01*
X192352925Y-42853808D01*
X192389564Y-42895524D01*
X192423933Y-42944194D01*
X192454426Y-42998125D01*
X192481821Y-43059425D01*
X192504743Y-43125947D01*
X192523542Y-43199806D01*
X192537252Y-43278737D01*
X192545835Y-43364473D01*
X192548736Y-43454993D01*
X192547648Y-43511322D01*
X192529880Y-43682104D01*
X192492639Y-43832047D01*
X192439128Y-43959263D01*
X192372331Y-44063341D01*
X192310118Y-44126484D01*
X192269865Y-44155750D01*
X192226446Y-44180016D01*
X192179481Y-44199398D01*
X192129798Y-44213428D01*
X192076835Y-44222088D01*
X192021629Y-44225000D01*
X191526030Y-44225000D01*
X191526030Y-44050702D01*
X191694008Y-44050702D01*
X192017416Y-44050702D01*
X192082220Y-44044036D01*
X192121607Y-44032614D01*
X192158514Y-44015773D01*
X192194021Y-43992776D01*
X192226680Y-43964279D01*
X192257968Y-43928387D01*
X192285856Y-43886720D01*
X192311631Y-43836337D01*
X192333302Y-43779868D01*
X192351583Y-43713866D01*
X192364973Y-43641584D01*
X192373552Y-43559793D01*
X192376453Y-43471755D01*
X192376420Y-43461676D01*
X192365103Y-43295975D01*
X192336473Y-43165373D01*
X192294198Y-43065043D01*
X192240539Y-42990259D01*
X192175942Y-42937316D01*
X192138927Y-42918305D01*
X192098988Y-42904524D01*
X192054460Y-42895818D01*
X192006883Y-42892899D01*
X191694008Y-42892899D01*
X191694008Y-44050702D01*
X191526030Y-44050702D01*
X191526030Y-42718510D01*
X192027857Y-42718510D01*
X192130691Y-42729369D01*
G37*
G36*
X194267076Y-43171244D02*
G01*
X194252490Y-43081108D01*
X194232290Y-43009523D01*
X194187208Y-42916987D01*
X194157532Y-42871234D01*
X194123841Y-42829991D01*
X194086575Y-42793574D01*
X194045788Y-42761873D01*
X193954528Y-42713128D01*
X193851224Y-42684678D01*
X193760943Y-42677477D01*
X193702134Y-42680385D01*
X193645951Y-42689022D01*
X193593239Y-42703011D01*
X193543266Y-42722308D01*
X193452089Y-42776179D01*
X193372086Y-42850635D01*
X193303723Y-42946575D01*
X193248409Y-43065317D01*
X193208414Y-43208055D01*
X193186596Y-43375384D01*
X193183462Y-43473861D01*
X193186365Y-43569302D01*
X193194961Y-43659660D01*
X193208668Y-43742661D01*
X193227474Y-43820392D01*
X193250392Y-43890423D01*
X193277802Y-43955116D01*
X193308336Y-44012228D01*
X193342784Y-44064025D01*
X193379567Y-44108749D01*
X193419755Y-44148217D01*
X193461853Y-44181310D01*
X193506940Y-44209175D01*
X193553947Y-44231278D01*
X193603631Y-44248084D01*
X193655610Y-44259410D01*
X193710046Y-44265228D01*
X193739969Y-44266032D01*
X193795293Y-44263117D01*
X193849268Y-44254437D01*
X193901243Y-44240165D01*
X193951052Y-44220370D01*
X193997717Y-44195491D01*
X194041470Y-44165408D01*
X194096899Y-44114907D01*
X194136379Y-44070076D01*
X194170217Y-44021193D01*
X194219341Y-43916648D01*
X194260544Y-43768953D01*
X194279624Y-43671423D01*
X194117965Y-43671423D01*
X194093617Y-43779713D01*
X194066218Y-43859348D01*
X194027657Y-43929985D01*
X193995740Y-43972094D01*
X193961202Y-44007401D01*
X193926919Y-44033944D01*
X193890146Y-44054775D01*
X193811400Y-44078982D01*
X193754624Y-44083400D01*
X193705741Y-44080486D01*
X193659720Y-44071815D01*
X193617813Y-44057972D01*
X193578746Y-44038887D01*
X193509673Y-43985640D01*
X193451545Y-43910890D01*
X193404968Y-43811864D01*
X193372125Y-43685128D01*
X193356427Y-43527491D01*
X193355653Y-43480181D01*
X193358558Y-43390123D01*
X193367171Y-43306316D01*
X193380609Y-43232210D01*
X193398992Y-43164224D01*
X193420885Y-43105557D01*
X193446994Y-43052745D01*
X193475507Y-43008275D01*
X193507601Y-42969350D01*
X193541493Y-42937494D01*
X193578474Y-42910945D01*
X193617315Y-42890338D01*
X193658919Y-42874981D01*
X193749752Y-42860484D01*
X193765157Y-42860201D01*
X193856092Y-42871521D01*
X193899031Y-42885492D01*
X193939006Y-42904580D01*
X193989829Y-42940068D01*
X194022895Y-42973946D01*
X194049396Y-43011336D01*
X194085198Y-43095013D01*
X194105326Y-43171244D01*
X194267076Y-43171244D01*
G37*
G36*
X194914615Y-43102306D02*
G01*
X195001554Y-43129895D01*
X195069583Y-43173835D01*
X195096933Y-43201609D01*
X195119793Y-43233149D01*
X195138289Y-43268983D01*
X195151811Y-43308445D01*
X195160393Y-43352954D01*
X195163294Y-43401046D01*
X195163294Y-44036047D01*
X195165382Y-44059547D01*
X195180392Y-44090107D01*
X195194068Y-44098641D01*
X195211563Y-44101535D01*
X195264044Y-44090635D01*
X195264044Y-44225000D01*
X195261253Y-44225894D01*
X195245177Y-44233792D01*
X195243042Y-44234609D01*
X195208061Y-44245252D01*
X195175842Y-44248447D01*
X195118844Y-44242031D01*
X195073845Y-44219538D01*
X195055518Y-44199607D01*
X195041206Y-44173798D01*
X195028021Y-44130602D01*
X195020412Y-44075889D01*
X194954219Y-44150053D01*
X194878916Y-44208263D01*
X194839843Y-44228062D01*
X194798986Y-44242159D01*
X194751777Y-44251324D01*
X194701217Y-44254309D01*
X194644729Y-44249599D01*
X194604982Y-44239849D01*
X194568401Y-44225009D01*
X194535054Y-44205201D01*
X194505304Y-44180697D01*
X194478893Y-44151115D01*
X194456647Y-44117113D01*
X194438355Y-44077826D01*
X194424918Y-44034372D01*
X194416419Y-43985707D01*
X194413530Y-43933190D01*
X194414174Y-43916246D01*
X194571066Y-43916246D01*
X194571987Y-43941819D01*
X194586869Y-44010800D01*
X194617416Y-44058838D01*
X194638943Y-44076524D01*
X194664400Y-44089508D01*
X194696343Y-44098165D01*
X194732725Y-44101077D01*
X194761113Y-44099689D01*
X194802911Y-44092481D01*
X194842492Y-44079568D01*
X194879775Y-44061177D01*
X194913616Y-44037973D01*
X194967705Y-43980567D01*
X195000913Y-43913880D01*
X195012077Y-43842790D01*
X195012077Y-43662172D01*
X194984241Y-43681273D01*
X194940648Y-43696828D01*
X194762125Y-43731415D01*
X194747949Y-43733985D01*
X194665637Y-43758606D01*
X194614513Y-43792463D01*
X194596390Y-43814568D01*
X194583313Y-43840264D01*
X194574063Y-43875408D01*
X194571066Y-43916246D01*
X194414174Y-43916246D01*
X194415058Y-43893006D01*
X194433027Y-43799090D01*
X194469162Y-43723088D01*
X194493745Y-43691150D01*
X194522575Y-43663275D01*
X194556330Y-43639097D01*
X194594307Y-43619404D01*
X194638264Y-43603781D01*
X194686563Y-43593296D01*
X194936423Y-43555469D01*
X194975959Y-43541505D01*
X194992039Y-43527031D01*
X195003850Y-43507445D01*
X195013270Y-43473511D01*
X195016290Y-43429623D01*
X195013916Y-43392690D01*
X194995572Y-43332543D01*
X194979720Y-43308580D01*
X194959395Y-43288545D01*
X194932473Y-43271345D01*
X194900354Y-43258712D01*
X194857699Y-43249921D01*
X194808379Y-43246990D01*
X194776502Y-43248220D01*
X194709435Y-43262906D01*
X194660782Y-43294515D01*
X194640074Y-43319930D01*
X194623241Y-43351505D01*
X194607273Y-43399855D01*
X194596254Y-43458932D01*
X194457677Y-43460122D01*
X194459281Y-43435404D01*
X194474697Y-43327347D01*
X194490114Y-43281393D01*
X194512265Y-43238655D01*
X194554166Y-43186349D01*
X194585890Y-43159579D01*
X194621789Y-43137247D01*
X194663564Y-43118739D01*
X194709500Y-43105252D01*
X194762089Y-43096580D01*
X194818820Y-43093667D01*
X194914615Y-43102306D01*
G37*
G36*
X195878712Y-43289030D02*
G01*
X195878712Y-43099986D01*
X195838778Y-43093667D01*
X195800426Y-43096670D01*
X195764789Y-43105971D01*
X195705241Y-43140474D01*
X195648132Y-43202316D01*
X195582598Y-43312111D01*
X195582598Y-43128838D01*
X195439808Y-43128838D01*
X195439808Y-44225000D01*
X195591024Y-44225000D01*
X195591024Y-43585785D01*
X195593891Y-43536504D01*
X195602236Y-43490331D01*
X195615747Y-43447576D01*
X195634010Y-43408963D01*
X195656187Y-43375565D01*
X195682202Y-43347121D01*
X195710493Y-43324883D01*
X195741665Y-43308089D01*
X195773895Y-43297505D01*
X195808175Y-43292668D01*
X195822017Y-43292419D01*
X195878712Y-43289030D01*
G37*
G36*
X196739393Y-44225000D02*
G01*
X196596603Y-44225000D01*
X196596603Y-44067371D01*
X196542587Y-44158494D01*
X196488800Y-44212091D01*
X196458236Y-44230580D01*
X196424949Y-44243593D01*
X196382920Y-44252146D01*
X196336209Y-44254309D01*
X196332112Y-44254285D01*
X196287544Y-44250908D01*
X196245146Y-44241922D01*
X196204369Y-44227199D01*
X196166067Y-44207016D01*
X196129059Y-44180479D01*
X196094975Y-44148437D01*
X196062490Y-44109098D01*
X196033520Y-44064131D01*
X196007062Y-44011123D01*
X195984818Y-43952417D01*
X195966334Y-43885551D01*
X195952799Y-43813082D01*
X195944256Y-43733085D01*
X195941718Y-43658326D01*
X196098897Y-43658326D01*
X196107302Y-43795121D01*
X196132606Y-43910070D01*
X196170060Y-43992496D01*
X196216661Y-44048042D01*
X196272028Y-44081096D01*
X196303977Y-44089741D01*
X196338316Y-44092650D01*
X196388977Y-44086554D01*
X196422248Y-44075369D01*
X196453313Y-44058751D01*
X196481423Y-44037117D01*
X196506294Y-44010585D01*
X196543639Y-43950408D01*
X196561262Y-43904382D01*
X196574089Y-43851961D01*
X196583107Y-43782710D01*
X196586070Y-43703480D01*
X196577028Y-43554746D01*
X196551725Y-43439010D01*
X196514711Y-43357079D01*
X196468487Y-43302055D01*
X196412778Y-43269141D01*
X196380018Y-43260441D01*
X196344636Y-43257523D01*
X196301208Y-43260851D01*
X196236541Y-43282201D01*
X196208425Y-43300724D01*
X196183567Y-43324422D01*
X196160312Y-43355913D01*
X196140824Y-43393497D01*
X196123426Y-43442882D01*
X196110690Y-43499964D01*
X196101837Y-43574149D01*
X196098897Y-43658326D01*
X195941718Y-43658326D01*
X195941360Y-43647793D01*
X195952137Y-43498269D01*
X195982164Y-43371866D01*
X196027492Y-43270403D01*
X196084721Y-43193093D01*
X196151674Y-43138384D01*
X196227652Y-43105137D01*
X196269295Y-43096566D01*
X196313128Y-43093667D01*
X196391349Y-43102831D01*
X196426567Y-43114844D01*
X196459241Y-43132143D01*
X196491885Y-43156907D01*
X196522376Y-43188371D01*
X196556159Y-43234567D01*
X196588176Y-43291045D01*
X196588176Y-42718510D01*
X196739393Y-42718510D01*
X196739393Y-44225000D01*
G37*
D10*
X209335995Y-78266928D02*
X209764567Y-78409785D01*
X209764567Y-78409785D02*
X209907424Y-78552642D01*
X209907424Y-78552642D02*
X210050281Y-78838357D01*
X210050281Y-78838357D02*
X210050281Y-79266928D01*
X210050281Y-79266928D02*
X209907424Y-79552642D01*
X209907424Y-79552642D02*
X209764567Y-79695500D01*
X209764567Y-79695500D02*
X209478852Y-79838357D01*
X209478852Y-79838357D02*
X208335995Y-79838357D01*
X208335995Y-79838357D02*
X208335995Y-76838357D01*
X208335995Y-76838357D02*
X209335995Y-76838357D01*
X209335995Y-76838357D02*
X209621710Y-76981214D01*
X209621710Y-76981214D02*
X209764567Y-77124071D01*
X209764567Y-77124071D02*
X209907424Y-77409785D01*
X209907424Y-77409785D02*
X209907424Y-77695500D01*
X209907424Y-77695500D02*
X209764567Y-77981214D01*
X209764567Y-77981214D02*
X209621710Y-78124071D01*
X209621710Y-78124071D02*
X209335995Y-78266928D01*
X209335995Y-78266928D02*
X208335995Y-78266928D01*
D12*
G36*
X259779958Y-62947189D02*
G01*
X259859426Y-62953251D01*
X259937752Y-62963232D01*
X260014835Y-62977035D01*
X260090578Y-62994559D01*
X260164880Y-63015706D01*
X260237644Y-63040375D01*
X260308769Y-63068469D01*
X260378156Y-63099887D01*
X260445706Y-63134531D01*
X260511320Y-63172302D01*
X260574899Y-63213100D01*
X260636343Y-63256825D01*
X260695554Y-63303380D01*
X260752431Y-63352664D01*
X260806877Y-63404579D01*
X260858792Y-63459025D01*
X260908076Y-63515902D01*
X260954630Y-63575113D01*
X260998356Y-63636558D01*
X261039153Y-63700137D01*
X261076924Y-63765751D01*
X261111568Y-63833301D01*
X261142986Y-63902688D01*
X261171079Y-63973813D01*
X261195749Y-64046576D01*
X261216895Y-64120879D01*
X261234420Y-64196622D01*
X261248222Y-64273705D01*
X261258204Y-64352031D01*
X261264265Y-64431499D01*
X261266308Y-64512010D01*
X261264265Y-64592521D01*
X261258204Y-64671989D01*
X261248222Y-64750314D01*
X261234420Y-64827398D01*
X261216895Y-64903141D01*
X261195749Y-64977443D01*
X261171079Y-65050207D01*
X261142986Y-65121332D01*
X261111568Y-65190719D01*
X261076924Y-65258269D01*
X261039153Y-65323883D01*
X260998356Y-65387462D01*
X260954630Y-65448907D01*
X260908076Y-65508117D01*
X260858792Y-65564995D01*
X260806877Y-65619441D01*
X260752431Y-65671356D01*
X260695554Y-65720640D01*
X260636343Y-65767194D01*
X260574899Y-65810920D01*
X260511320Y-65851718D01*
X260445706Y-65889488D01*
X260378156Y-65924132D01*
X260308769Y-65955551D01*
X260237644Y-65983644D01*
X260164880Y-66008314D01*
X260090578Y-66029461D01*
X260014835Y-66046985D01*
X259937752Y-66060787D01*
X259859426Y-66070769D01*
X259779958Y-66076831D01*
X259699447Y-66078874D01*
X259618936Y-66076831D01*
X259539469Y-66070769D01*
X259461144Y-66060787D01*
X259384061Y-66046985D01*
X259308318Y-66029461D01*
X259234016Y-66008314D01*
X259161253Y-65983644D01*
X259090128Y-65955550D01*
X259020741Y-65924132D01*
X258953191Y-65889488D01*
X258887577Y-65851717D01*
X258823998Y-65810919D01*
X258762554Y-65767194D01*
X258703343Y-65720639D01*
X258646465Y-65671355D01*
X258592019Y-65619440D01*
X258540105Y-65564994D01*
X258490820Y-65508116D01*
X258444266Y-65448905D01*
X258400540Y-65387461D01*
X258359742Y-65323882D01*
X258321972Y-65258268D01*
X258287328Y-65190718D01*
X258255909Y-65121331D01*
X258227815Y-65050206D01*
X258203146Y-64977442D01*
X258181999Y-64903140D01*
X258164475Y-64827397D01*
X258150672Y-64750314D01*
X258140691Y-64671989D01*
X258134629Y-64592521D01*
X258132586Y-64512010D01*
X258134629Y-64431499D01*
X258140691Y-64352031D01*
X258150672Y-64273705D01*
X258164475Y-64196622D01*
X258181999Y-64120879D01*
X258203145Y-64046576D01*
X258227815Y-63973813D01*
X258255908Y-63902688D01*
X258287327Y-63833301D01*
X258321971Y-63765751D01*
X258359741Y-63700137D01*
X258400539Y-63636558D01*
X258444264Y-63575113D01*
X258490819Y-63515902D01*
X258540103Y-63459025D01*
X258592017Y-63404579D01*
X258646463Y-63352664D01*
X258703341Y-63303380D01*
X258762551Y-63256825D01*
X258823996Y-63213100D01*
X258887575Y-63172302D01*
X258953189Y-63134531D01*
X259020739Y-63099887D01*
X259090126Y-63068469D01*
X259161251Y-63040375D01*
X259234014Y-63015706D01*
X259308316Y-62994559D01*
X259384059Y-62977035D01*
X259461143Y-62963232D01*
X259539468Y-62953251D01*
X259618936Y-62947189D01*
X259699447Y-62945146D01*
X259779958Y-62947189D01*
G37*
G36*
X254380866Y-62555061D02*
G01*
X254480183Y-62562640D01*
X254578075Y-62575120D01*
X254674416Y-62592378D01*
X254769084Y-62614287D01*
X254861954Y-62640726D01*
X254952901Y-62671569D01*
X255041803Y-62706693D01*
X255128533Y-62745973D01*
X255212970Y-62789285D01*
X255294987Y-62836505D01*
X255374462Y-62887510D01*
X255451270Y-62942174D01*
X255525287Y-63000374D01*
X255596388Y-63061985D01*
X255664451Y-63126884D01*
X255729350Y-63194946D01*
X255790962Y-63266048D01*
X255849161Y-63340065D01*
X255903826Y-63416872D01*
X255954830Y-63496347D01*
X256002050Y-63578364D01*
X256045363Y-63662800D01*
X256084643Y-63749531D01*
X256119766Y-63838432D01*
X256150610Y-63929379D01*
X256177048Y-64022248D01*
X256198958Y-64116916D01*
X256216215Y-64213257D01*
X256228695Y-64311148D01*
X256236275Y-64410465D01*
X256238829Y-64511083D01*
X256236275Y-64611702D01*
X256228695Y-64711019D01*
X256216215Y-64808910D01*
X256198958Y-64905252D01*
X256177048Y-64999919D01*
X256150609Y-65092789D01*
X256119766Y-65183736D01*
X256084642Y-65272637D01*
X256045362Y-65359368D01*
X256002049Y-65443804D01*
X255954829Y-65525822D01*
X255903824Y-65605296D01*
X255849160Y-65682104D01*
X255790960Y-65756121D01*
X255729348Y-65827222D01*
X255664449Y-65895285D01*
X255596386Y-65960184D01*
X255525285Y-66021795D01*
X255451268Y-66079995D01*
X255374460Y-66134659D01*
X255294985Y-66185664D01*
X255212967Y-66232884D01*
X255128531Y-66276196D01*
X255041800Y-66315476D01*
X254952899Y-66350600D01*
X254861952Y-66381443D01*
X254769082Y-66407882D01*
X254674415Y-66429792D01*
X254578073Y-66447049D01*
X254480182Y-66459529D01*
X254380865Y-66467108D01*
X254280247Y-66469662D01*
X254179628Y-66467108D01*
X254080311Y-66459529D01*
X253982419Y-66447049D01*
X253886078Y-66429792D01*
X253791410Y-66407882D01*
X253698540Y-66381443D01*
X253607593Y-66350600D01*
X253518691Y-66315476D01*
X253431961Y-66276196D01*
X253347524Y-66232884D01*
X253265507Y-66185664D01*
X253186032Y-66134659D01*
X253109224Y-66079995D01*
X253035207Y-66021795D01*
X252964106Y-65960184D01*
X252896043Y-65895285D01*
X252831144Y-65827222D01*
X252769532Y-65756121D01*
X252711333Y-65682104D01*
X252656668Y-65605296D01*
X252605664Y-65525822D01*
X252558444Y-65443804D01*
X252515131Y-65359368D01*
X252475851Y-65272637D01*
X252440728Y-65183736D01*
X252409884Y-65092789D01*
X252383446Y-64999919D01*
X252361536Y-64905252D01*
X252344279Y-64808910D01*
X252331799Y-64711019D01*
X252324219Y-64611702D01*
X252321665Y-64511083D01*
X252324219Y-64410465D01*
X252331799Y-64311148D01*
X252344279Y-64213257D01*
X252361536Y-64116916D01*
X252383446Y-64022248D01*
X252409885Y-63929379D01*
X252440728Y-63838432D01*
X252475852Y-63749531D01*
X252515132Y-63662800D01*
X252558445Y-63578364D01*
X252605665Y-63496347D01*
X252656670Y-63416872D01*
X252711334Y-63340065D01*
X252769534Y-63266048D01*
X252831146Y-63194946D01*
X252896045Y-63126884D01*
X252964108Y-63061985D01*
X253035209Y-63000374D01*
X253109226Y-62942174D01*
X253186034Y-62887510D01*
X253265509Y-62836505D01*
X253347527Y-62789285D01*
X253431963Y-62745973D01*
X253518694Y-62706693D01*
X253607595Y-62671569D01*
X253698542Y-62640726D01*
X253791412Y-62614287D01*
X253886079Y-62592378D01*
X253982421Y-62575120D01*
X254080312Y-62562640D01*
X254179629Y-62555061D01*
X254280247Y-62552507D01*
X254380866Y-62555061D01*
G37*
G36*
X225273834Y-47004543D02*
G01*
X225572714Y-47027345D01*
X225867300Y-47064891D01*
X226157217Y-47116809D01*
X226442093Y-47182726D01*
X226721554Y-47262268D01*
X226995227Y-47355062D01*
X227262739Y-47460734D01*
X227523717Y-47578913D01*
X227777787Y-47709223D01*
X228024577Y-47851293D01*
X228263712Y-48004749D01*
X228494821Y-48169218D01*
X228717529Y-48344326D01*
X228931463Y-48529701D01*
X229136251Y-48724969D01*
X229331519Y-48929757D01*
X229516894Y-49143691D01*
X229692002Y-49366400D01*
X229856471Y-49597508D01*
X230009927Y-49836644D01*
X230151997Y-50083433D01*
X230282307Y-50337503D01*
X230400486Y-50598481D01*
X230506158Y-50865993D01*
X230598952Y-51139666D01*
X230678494Y-51419127D01*
X230744411Y-51704002D01*
X230796329Y-51993919D01*
X230833875Y-52288505D01*
X230856676Y-52587385D01*
X230864360Y-52890187D01*
X230864360Y-61448663D01*
X236647491Y-49432350D01*
X236661259Y-49404337D01*
X236675504Y-49376498D01*
X236690270Y-49348745D01*
X236705600Y-49320993D01*
X236721538Y-49293154D01*
X236738127Y-49265141D01*
X236755411Y-49236868D01*
X236773432Y-49208247D01*
X236924430Y-48973542D01*
X237084383Y-48751964D01*
X237252845Y-48543791D01*
X237429375Y-48349300D01*
X237613528Y-48168771D01*
X237804862Y-48002482D01*
X238002931Y-47850709D01*
X238207293Y-47713732D01*
X238417505Y-47591828D01*
X238633122Y-47485276D01*
X238853701Y-47394354D01*
X239078799Y-47319340D01*
X239307972Y-47260511D01*
X239540776Y-47218146D01*
X239776768Y-47192523D01*
X240015504Y-47183920D01*
X240138782Y-47186185D01*
X240261326Y-47192955D01*
X240383079Y-47204193D01*
X240503986Y-47219864D01*
X240623990Y-47239931D01*
X240743035Y-47264356D01*
X240861065Y-47293105D01*
X240978024Y-47326140D01*
X241093855Y-47363425D01*
X241208503Y-47404923D01*
X241321912Y-47450599D01*
X241434025Y-47500415D01*
X241544786Y-47554335D01*
X241654140Y-47612323D01*
X241868398Y-47740355D01*
X242076352Y-47884221D01*
X242277551Y-48043629D01*
X242471548Y-48218286D01*
X242657892Y-48407901D01*
X242836135Y-48612183D01*
X243005829Y-48830840D01*
X243166523Y-49063580D01*
X243317769Y-49310112D01*
X243335638Y-49342754D01*
X243353073Y-49375397D01*
X243369989Y-49408040D01*
X243386297Y-49440684D01*
X250230670Y-63659128D01*
X250270744Y-63748188D01*
X250306227Y-63838516D01*
X250337106Y-63929966D01*
X250363369Y-64022396D01*
X250385003Y-64115662D01*
X250401997Y-64209620D01*
X250414337Y-64304125D01*
X250422013Y-64399035D01*
X250425012Y-64494205D01*
X250423321Y-64589492D01*
X250416929Y-64684752D01*
X250405822Y-64779841D01*
X250389990Y-64874615D01*
X250369419Y-64968931D01*
X250344098Y-65062644D01*
X250314015Y-65155611D01*
X250279434Y-65247011D01*
X250240693Y-65336044D01*
X250197889Y-65422604D01*
X250151116Y-65506581D01*
X250100469Y-65587866D01*
X250046043Y-65666352D01*
X249987932Y-65741929D01*
X249926232Y-65814489D01*
X249861038Y-65883924D01*
X249792445Y-65950125D01*
X249720547Y-66012984D01*
X249645439Y-66072391D01*
X249567217Y-66128240D01*
X249485976Y-66180420D01*
X249401810Y-66228824D01*
X249314814Y-66273343D01*
X249225754Y-66313559D01*
X249135426Y-66349127D01*
X249043976Y-66380043D01*
X248951545Y-66406301D01*
X248858280Y-66427899D01*
X248764322Y-66444831D01*
X248669816Y-66457095D01*
X248574906Y-66464685D01*
X248479735Y-66467598D01*
X248384448Y-66465830D01*
X248289188Y-66459377D01*
X248194099Y-66448234D01*
X248099325Y-66432398D01*
X248005009Y-66411864D01*
X247911296Y-66386629D01*
X247818329Y-66356688D01*
X247726929Y-66322107D01*
X247637895Y-66283367D01*
X247551335Y-66240563D01*
X247467359Y-66193790D01*
X247386073Y-66143143D01*
X247307588Y-66088717D01*
X247232011Y-66030606D01*
X247159450Y-65968906D01*
X247090015Y-65903712D01*
X247023814Y-65835118D01*
X246960956Y-65763220D01*
X246901548Y-65688113D01*
X246845700Y-65609891D01*
X246793520Y-65528649D01*
X246745116Y-65444483D01*
X246700597Y-65357487D01*
X240015501Y-51467790D01*
X233883254Y-64210123D01*
X233875182Y-64226746D01*
X233866948Y-64243271D01*
X233858562Y-64259688D01*
X233850034Y-64275986D01*
X233841376Y-64292154D01*
X233832599Y-64308181D01*
X233814729Y-64339768D01*
X233667027Y-64576880D01*
X233504445Y-64802715D01*
X233327927Y-65016718D01*
X233138414Y-65218336D01*
X232936850Y-65407012D01*
X232724178Y-65582192D01*
X232501341Y-65743322D01*
X232269280Y-65889846D01*
X232028939Y-66021210D01*
X231781261Y-66136859D01*
X231527189Y-66236238D01*
X231267664Y-66318792D01*
X231003631Y-66383967D01*
X230736031Y-66431207D01*
X230465808Y-66459958D01*
X230193904Y-66469665D01*
X230072249Y-66467713D01*
X229951136Y-66461866D01*
X229830675Y-66452134D01*
X229710973Y-66438527D01*
X229592139Y-66421057D01*
X229474283Y-66399734D01*
X229357511Y-66374570D01*
X229241933Y-66345574D01*
X229112730Y-66308264D01*
X228986489Y-66266375D01*
X228863284Y-66220002D01*
X228743190Y-66169243D01*
X228512633Y-66054953D01*
X228295418Y-65924283D01*
X228092143Y-65778007D01*
X227903404Y-65616902D01*
X227729802Y-65441744D01*
X227571934Y-65253308D01*
X227430398Y-65052370D01*
X227305792Y-64839707D01*
X227198716Y-64616094D01*
X227109766Y-64382307D01*
X227039542Y-64139123D01*
X226988641Y-63887317D01*
X226970624Y-63758423D01*
X226957662Y-63627664D01*
X226949830Y-63495139D01*
X226947202Y-63360942D01*
X226947202Y-52891116D01*
X226944627Y-52789551D01*
X226936983Y-52689305D01*
X226924397Y-52590502D01*
X226906994Y-52493268D01*
X226884897Y-52397727D01*
X226858232Y-52304005D01*
X226827125Y-52212227D01*
X226791700Y-52122517D01*
X226752081Y-52035000D01*
X226708395Y-51949802D01*
X226660766Y-51867047D01*
X226609319Y-51786861D01*
X226554178Y-51709368D01*
X226495470Y-51634693D01*
X226433318Y-51562962D01*
X226367848Y-51494298D01*
X226299185Y-51428828D01*
X226227454Y-51366677D01*
X226152779Y-51307968D01*
X226075286Y-51252827D01*
X225995100Y-51201380D01*
X225912345Y-51153751D01*
X225827147Y-51110064D01*
X225739630Y-51070446D01*
X225649920Y-51035020D01*
X225558142Y-51003913D01*
X225464420Y-50977248D01*
X225368879Y-50955152D01*
X225271645Y-50937748D01*
X225172842Y-50925162D01*
X225072595Y-50917519D01*
X224971030Y-50914943D01*
X224869465Y-50917519D01*
X224769219Y-50925162D01*
X224670416Y-50937748D01*
X224573182Y-50955152D01*
X224477641Y-50977248D01*
X224383919Y-51003913D01*
X224292141Y-51035020D01*
X224202431Y-51070445D01*
X224114914Y-51110064D01*
X224029716Y-51153750D01*
X223946961Y-51201379D01*
X223866775Y-51252827D01*
X223789282Y-51307967D01*
X223714607Y-51366676D01*
X223642876Y-51428827D01*
X223574213Y-51494297D01*
X223508743Y-51562961D01*
X223446591Y-51634692D01*
X223387883Y-51709367D01*
X223332742Y-51786860D01*
X223281295Y-51867046D01*
X223233665Y-51949801D01*
X223189979Y-52034999D01*
X223150361Y-52122515D01*
X223114935Y-52212226D01*
X223083828Y-52304004D01*
X223057163Y-52397726D01*
X223035067Y-52493267D01*
X223017663Y-52590501D01*
X223005077Y-52689304D01*
X222997434Y-52789551D01*
X222994858Y-52891116D01*
X222994858Y-64509233D01*
X222992304Y-64609851D01*
X222984725Y-64709168D01*
X222972245Y-64807060D01*
X222954988Y-64903401D01*
X222933078Y-64998069D01*
X222906639Y-65090938D01*
X222875796Y-65181886D01*
X222840672Y-65270786D01*
X222801392Y-65357517D01*
X222758080Y-65441953D01*
X222710860Y-65523970D01*
X222659855Y-65603445D01*
X222605191Y-65680253D01*
X222546991Y-65754269D01*
X222485380Y-65825371D01*
X222420481Y-65893433D01*
X222352419Y-65958332D01*
X222281317Y-66019943D01*
X222207300Y-66078143D01*
X222130493Y-66132807D01*
X222051018Y-66183811D01*
X221969000Y-66231031D01*
X221884564Y-66274344D01*
X221797834Y-66313624D01*
X221708933Y-66348747D01*
X221617986Y-66379590D01*
X221525116Y-66406029D01*
X221430449Y-66427939D01*
X221334107Y-66445196D01*
X221236216Y-66457676D01*
X221136899Y-66465255D01*
X221036281Y-66467809D01*
X220935662Y-66465255D01*
X220836345Y-66457676D01*
X220738454Y-66445196D01*
X220642113Y-66427939D01*
X220547445Y-66406029D01*
X220454576Y-66379590D01*
X220363629Y-66348747D01*
X220274728Y-66313624D01*
X220187997Y-66274344D01*
X220103561Y-66231031D01*
X220021544Y-66183811D01*
X219942069Y-66132807D01*
X219865261Y-66078143D01*
X219791245Y-66019943D01*
X219720143Y-65958332D01*
X219652081Y-65893433D01*
X219587182Y-65825371D01*
X219525570Y-65754269D01*
X219467370Y-65680253D01*
X219412706Y-65603445D01*
X219361702Y-65523970D01*
X219314481Y-65441953D01*
X219271169Y-65357517D01*
X219231889Y-65270786D01*
X219196765Y-65181886D01*
X219165922Y-65090938D01*
X219139483Y-64998069D01*
X219117573Y-64903401D01*
X219100316Y-64807060D01*
X219087836Y-64709168D01*
X219080257Y-64609851D01*
X219077703Y-64509233D01*
X219077703Y-52890187D01*
X219085386Y-52587385D01*
X219108188Y-52288505D01*
X219145734Y-51993919D01*
X219197652Y-51704002D01*
X219263569Y-51419127D01*
X219343111Y-51139666D01*
X219435905Y-50865993D01*
X219541577Y-50598481D01*
X219659756Y-50337503D01*
X219790067Y-50083433D01*
X219932136Y-49836644D01*
X220085592Y-49597508D01*
X220250061Y-49366400D01*
X220425170Y-49143691D01*
X220610544Y-48929757D01*
X220805812Y-48724969D01*
X221010600Y-48529701D01*
X221224535Y-48344326D01*
X221447243Y-48169218D01*
X221678351Y-48004749D01*
X221917487Y-47851293D01*
X222164276Y-47709223D01*
X222418347Y-47578913D01*
X222679324Y-47460734D01*
X222946836Y-47355062D01*
X223220510Y-47262268D01*
X223499971Y-47182726D01*
X223784846Y-47116809D01*
X224074763Y-47064891D01*
X224369349Y-47027345D01*
X224668229Y-47004543D01*
X224971031Y-46996860D01*
X225273834Y-47004543D01*
G37*
G36*
X264397735Y-63259783D02*
G01*
X264461284Y-63264631D01*
X264523925Y-63272614D01*
X264585577Y-63283654D01*
X264646163Y-63297670D01*
X264705600Y-63314584D01*
X264763811Y-63334316D01*
X264820716Y-63356788D01*
X264876234Y-63381919D01*
X264930286Y-63409632D01*
X264982792Y-63439846D01*
X265033673Y-63472483D01*
X265082848Y-63507464D01*
X265130239Y-63544708D01*
X265175766Y-63584138D01*
X265219348Y-63625673D01*
X265260906Y-63669235D01*
X265300361Y-63714744D01*
X265337632Y-63762122D01*
X265372641Y-63811288D01*
X265405306Y-63862165D01*
X265435550Y-63914672D01*
X265463291Y-63968731D01*
X265488450Y-64024262D01*
X265510948Y-64081186D01*
X265530705Y-64139424D01*
X265547641Y-64198896D01*
X265561677Y-64259525D01*
X265572732Y-64321229D01*
X265580727Y-64383931D01*
X265585583Y-64447551D01*
X265587219Y-64512010D01*
X265585583Y-64576469D01*
X265580727Y-64640089D01*
X265572732Y-64702791D01*
X265561677Y-64764496D01*
X265547641Y-64825124D01*
X265530706Y-64884597D01*
X265510949Y-64942836D01*
X265488451Y-64999760D01*
X265463292Y-65055291D01*
X265435551Y-65109350D01*
X265405308Y-65161857D01*
X265372642Y-65212734D01*
X265337634Y-65261900D01*
X265300363Y-65309278D01*
X265260908Y-65354787D01*
X265219350Y-65398349D01*
X265175768Y-65439885D01*
X265130242Y-65479314D01*
X265082851Y-65516559D01*
X265033675Y-65551539D01*
X264982794Y-65584176D01*
X264930288Y-65614390D01*
X264876236Y-65642103D01*
X264820718Y-65667235D01*
X264763814Y-65689706D01*
X264705602Y-65709439D01*
X264646164Y-65726353D01*
X264585579Y-65740369D01*
X264523926Y-65751408D01*
X264461285Y-65759391D01*
X264397736Y-65764239D01*
X264333358Y-65765873D01*
X264268900Y-65764237D01*
X264205280Y-65759381D01*
X264142579Y-65751386D01*
X264080874Y-65740331D01*
X264020246Y-65726295D01*
X263960774Y-65709359D01*
X263902536Y-65689603D01*
X263845612Y-65667105D01*
X263790081Y-65641945D01*
X263736023Y-65614204D01*
X263683516Y-65583960D01*
X263632640Y-65551295D01*
X263583473Y-65516286D01*
X263536096Y-65479015D01*
X263490587Y-65439560D01*
X263447025Y-65398002D01*
X263405490Y-65354420D01*
X263366061Y-65308893D01*
X263328816Y-65261502D01*
X263293836Y-65212326D01*
X263261199Y-65161445D01*
X263230985Y-65108939D01*
X263203272Y-65054887D01*
X263178141Y-64999369D01*
X263155669Y-64942464D01*
X263135937Y-64884253D01*
X263119023Y-64824815D01*
X263105007Y-64764230D01*
X263093968Y-64702577D01*
X263085985Y-64639936D01*
X263081137Y-64576387D01*
X263079503Y-64512010D01*
X263081139Y-64447551D01*
X263085995Y-64383931D01*
X263093990Y-64321229D01*
X263105045Y-64259525D01*
X263119080Y-64198896D01*
X263136016Y-64139424D01*
X263155773Y-64081186D01*
X263178271Y-64024262D01*
X263203430Y-63968731D01*
X263231171Y-63914672D01*
X263261414Y-63862165D01*
X263294080Y-63811288D01*
X263329088Y-63762122D01*
X263366359Y-63714744D01*
X263405813Y-63669235D01*
X263447371Y-63625673D01*
X263490953Y-63584138D01*
X263536479Y-63544708D01*
X263583870Y-63507464D01*
X263633046Y-63472483D01*
X263683926Y-63439846D01*
X263736432Y-63409632D01*
X263790484Y-63381919D01*
X263846002Y-63356788D01*
X263902906Y-63334316D01*
X263961117Y-63314584D01*
X264020554Y-63297670D01*
X264081139Y-63283654D01*
X264142792Y-63272614D01*
X264205432Y-63264631D01*
X264268981Y-63259783D01*
X264333358Y-63258149D01*
X264397735Y-63259783D01*
G37*
M02*
