%TF.GenerationSoftware,KiCad,Pcbnew,9.0.6-9.0.6~ubuntu24.04.1*%
%TF.CreationDate,2025-11-13T13:41:52+00:00*%
%TF.ProjectId,memlnaut_0_2_backplate,6d656d6c-6e61-4757-945f-305f325f6261,rev?*%
%TF.SameCoordinates,Original*%
%TF.FileFunction,Soldermask,Top*%
%TF.FilePolarity,Negative*%
%FSLAX46Y46*%
G04 Gerber Fmt 4.6, Leading zero omitted, Abs format (unit mm)*
G04 Created by KiCad (PCBNEW 9.0.6-9.0.6~ubuntu24.04.1) date 2025-11-13 13:41:52*
%MOMM*%
%LPD*%
G01*
G04 APERTURE LIST*
%ADD10C,0.000000*%
%ADD11C,3.200000*%
G04 APERTURE END LIST*
D10*
G36*
X259312576Y-111183542D02*
G01*
X259494144Y-111197393D01*
X259673117Y-111220203D01*
X259849268Y-111251744D01*
X260022368Y-111291790D01*
X260192191Y-111340115D01*
X260358508Y-111396493D01*
X260521091Y-111460698D01*
X260679714Y-111532503D01*
X260834148Y-111611682D01*
X260984166Y-111698009D01*
X261129540Y-111791257D01*
X261270042Y-111891201D01*
X261405444Y-111997614D01*
X261535520Y-112110269D01*
X261660040Y-112228941D01*
X261778778Y-112353404D01*
X261891506Y-112483431D01*
X261997995Y-112618795D01*
X262098019Y-112759271D01*
X262191350Y-112904633D01*
X262277760Y-113054653D01*
X262357020Y-113209106D01*
X262428904Y-113367766D01*
X262493184Y-113530406D01*
X262549632Y-113696801D01*
X262598021Y-113866723D01*
X262638122Y-114039947D01*
X262669708Y-114216246D01*
X262692552Y-114395394D01*
X262706425Y-114577165D01*
X262711100Y-114761333D01*
X262706425Y-114945501D01*
X262692552Y-115127273D01*
X262669709Y-115306422D01*
X262638123Y-115482722D01*
X262598022Y-115655946D01*
X262549634Y-115825869D01*
X262493186Y-115992263D01*
X262428907Y-116154904D01*
X262357023Y-116313564D01*
X262277763Y-116468018D01*
X262191354Y-116618039D01*
X262098023Y-116763401D01*
X261998000Y-116903877D01*
X261891511Y-117039242D01*
X261778783Y-117169268D01*
X261660046Y-117293731D01*
X261535526Y-117412403D01*
X261405451Y-117525059D01*
X261270048Y-117631472D01*
X261129547Y-117731416D01*
X260984173Y-117824665D01*
X260834155Y-117910992D01*
X260679721Y-117990171D01*
X260521098Y-118061976D01*
X260358514Y-118126180D01*
X260192196Y-118182558D01*
X260022373Y-118230884D01*
X259849272Y-118270930D01*
X259673120Y-118302471D01*
X259494147Y-118325280D01*
X259312578Y-118339132D01*
X259128642Y-118343799D01*
X258944474Y-118339124D01*
X258762704Y-118325251D01*
X258583557Y-118302407D01*
X258407258Y-118270821D01*
X258234035Y-118230720D01*
X258064114Y-118182332D01*
X257897720Y-118125883D01*
X257735080Y-118061603D01*
X257576421Y-117989719D01*
X257421968Y-117910458D01*
X257271949Y-117824049D01*
X257126588Y-117730718D01*
X256986112Y-117630694D01*
X256850748Y-117524204D01*
X256720722Y-117411476D01*
X256596260Y-117292738D01*
X256477589Y-117168218D01*
X256364934Y-117038142D01*
X256258521Y-116902739D01*
X256158578Y-116762237D01*
X256065330Y-116616863D01*
X255979003Y-116466845D01*
X255899825Y-116312410D01*
X255828020Y-116153787D01*
X255763816Y-115991203D01*
X255707438Y-115824886D01*
X255659113Y-115655062D01*
X255619067Y-115481961D01*
X255587526Y-115305810D01*
X255564717Y-115126837D01*
X255550866Y-114945268D01*
X255546198Y-114761333D01*
X255550873Y-114577165D01*
X255564746Y-114395394D01*
X255587589Y-114216246D01*
X255619175Y-114039947D01*
X255659276Y-113866723D01*
X255707664Y-113696801D01*
X255764112Y-113530406D01*
X255828391Y-113367766D01*
X255900275Y-113209106D01*
X255979535Y-113054653D01*
X256065944Y-112904633D01*
X256159274Y-112759271D01*
X256259297Y-112618795D01*
X256365786Y-112483431D01*
X256478513Y-112353404D01*
X256597250Y-112228941D01*
X256721770Y-112110269D01*
X256851845Y-111997614D01*
X256987247Y-111891201D01*
X257127748Y-111791257D01*
X257273121Y-111698009D01*
X257423138Y-111611682D01*
X257577572Y-111532503D01*
X257736194Y-111460698D01*
X257898777Y-111396493D01*
X258065094Y-111340115D01*
X258234916Y-111291790D01*
X258408016Y-111251744D01*
X258584166Y-111220203D01*
X258763139Y-111197393D01*
X258944707Y-111183542D01*
X259128642Y-111178874D01*
X259312576Y-111183542D01*
G37*
G36*
X246118927Y-110290416D02*
G01*
X246345979Y-110307735D01*
X246569765Y-110336255D01*
X246790004Y-110375690D01*
X247006412Y-110425759D01*
X247218705Y-110486178D01*
X247426600Y-110556662D01*
X247629814Y-110636930D01*
X247828062Y-110726697D01*
X248021063Y-110825680D01*
X248208531Y-110933596D01*
X248390185Y-111050161D01*
X248565740Y-111175091D01*
X248734914Y-111308104D01*
X248897422Y-111448916D01*
X249052981Y-111597244D01*
X249201308Y-111752803D01*
X249342119Y-111915312D01*
X249475132Y-112084485D01*
X249600062Y-112260041D01*
X249716627Y-112441695D01*
X249824542Y-112629164D01*
X249923525Y-112822165D01*
X250013292Y-113020414D01*
X250093559Y-113223627D01*
X250164044Y-113431523D01*
X250224462Y-113643816D01*
X250274531Y-113860224D01*
X250313966Y-114080463D01*
X250342485Y-114304250D01*
X250359805Y-114531301D01*
X250365641Y-114761333D01*
X250359805Y-114991365D01*
X250342485Y-115218416D01*
X250313966Y-115442203D01*
X250274531Y-115662442D01*
X250224462Y-115878850D01*
X250164044Y-116091143D01*
X250093559Y-116299039D01*
X250013292Y-116502252D01*
X249923525Y-116700501D01*
X249824542Y-116893502D01*
X249716627Y-117080971D01*
X249600062Y-117262625D01*
X249475132Y-117438181D01*
X249342119Y-117607354D01*
X249201308Y-117769862D01*
X249052981Y-117925422D01*
X248897422Y-118073750D01*
X248734914Y-118214561D01*
X248565740Y-118347574D01*
X248390185Y-118472505D01*
X248208531Y-118589070D01*
X248021063Y-118696986D01*
X247828062Y-118795969D01*
X247629814Y-118885736D01*
X247426600Y-118966003D01*
X247218705Y-119036488D01*
X247006412Y-119096907D01*
X246790004Y-119146975D01*
X246569765Y-119186411D01*
X246345979Y-119214931D01*
X246118927Y-119232250D01*
X245888895Y-119238086D01*
X245658865Y-119232250D01*
X245431815Y-119214931D01*
X245208029Y-119186411D01*
X244987791Y-119146975D01*
X244771384Y-119096906D01*
X244559091Y-119036487D01*
X244351197Y-118966002D01*
X244147984Y-118885735D01*
X243949735Y-118795967D01*
X243756735Y-118696984D01*
X243569266Y-118589068D01*
X243387612Y-118472503D01*
X243212057Y-118347572D01*
X243042884Y-118214559D01*
X242880375Y-118073747D01*
X242724816Y-117925419D01*
X242576488Y-117769859D01*
X242435676Y-117607351D01*
X242302663Y-117438177D01*
X242177732Y-117262622D01*
X242061167Y-117080968D01*
X241953252Y-116893499D01*
X241854268Y-116700498D01*
X241764501Y-116502249D01*
X241684233Y-116299035D01*
X241613748Y-116091140D01*
X241553330Y-115878847D01*
X241503261Y-115662440D01*
X241463825Y-115442201D01*
X241435305Y-115218415D01*
X241417986Y-114991364D01*
X241412150Y-114761333D01*
X241417986Y-114531301D01*
X241435305Y-114304250D01*
X241463824Y-114080463D01*
X241503260Y-113860224D01*
X241553329Y-113643816D01*
X241613747Y-113431523D01*
X241684232Y-113223627D01*
X241764499Y-113020414D01*
X241854266Y-112822165D01*
X241953248Y-112629164D01*
X242061164Y-112441695D01*
X242177728Y-112260041D01*
X242302659Y-112084485D01*
X242435671Y-111915312D01*
X242576483Y-111752803D01*
X242724810Y-111597244D01*
X242880369Y-111448916D01*
X243042877Y-111308104D01*
X243212050Y-111175091D01*
X243387606Y-111050161D01*
X243569259Y-110933596D01*
X243756728Y-110825680D01*
X243949728Y-110726697D01*
X244147977Y-110636930D01*
X244351191Y-110556662D01*
X244559086Y-110486178D01*
X244771379Y-110425759D01*
X244987787Y-110375690D01*
X245208025Y-110336255D01*
X245431812Y-110307735D01*
X245658863Y-110290416D01*
X245888895Y-110284580D01*
X246118927Y-110290416D01*
G37*
G36*
X230692949Y-109170050D02*
G01*
X230976713Y-109191705D01*
X231256403Y-109227363D01*
X231531665Y-109276669D01*
X231802144Y-109339269D01*
X232067486Y-109414808D01*
X232327336Y-109502931D01*
X232581340Y-109603285D01*
X232829142Y-109715513D01*
X233070388Y-109839262D01*
X233304724Y-109974177D01*
X233531795Y-110119904D01*
X233751246Y-110276087D01*
X233962723Y-110442372D01*
X234165871Y-110618405D01*
X234360335Y-110803831D01*
X234545761Y-110998294D01*
X234721794Y-111201442D01*
X234888079Y-111412918D01*
X235044263Y-111632368D01*
X235189989Y-111859439D01*
X235324904Y-112093774D01*
X235448654Y-112335020D01*
X235560882Y-112582821D01*
X235661236Y-112836824D01*
X235749359Y-113096673D01*
X235824898Y-113362014D01*
X235887498Y-113632492D01*
X235936804Y-113907753D01*
X235972462Y-114187442D01*
X235994117Y-114471204D01*
X236001414Y-114758685D01*
X235994117Y-115046167D01*
X235972462Y-115329930D01*
X235936804Y-115609620D01*
X235887498Y-115884881D01*
X235824897Y-116155360D01*
X235749358Y-116420702D01*
X235661234Y-116680551D01*
X235560880Y-116934554D01*
X235448651Y-117182356D01*
X235324901Y-117423602D01*
X235189986Y-117657938D01*
X235044259Y-117885008D01*
X234888075Y-118104459D01*
X234721789Y-118315936D01*
X234545755Y-118519083D01*
X234360329Y-118713547D01*
X234165865Y-118898973D01*
X233962716Y-119075006D01*
X233751240Y-119241291D01*
X233531788Y-119397474D01*
X233304718Y-119543201D01*
X233070382Y-119678116D01*
X232829135Y-119801865D01*
X232581333Y-119914094D01*
X232327330Y-120014447D01*
X232067481Y-120102571D01*
X231802139Y-120178110D01*
X231531660Y-120240710D01*
X231256399Y-120290016D01*
X230976710Y-120325673D01*
X230692947Y-120347328D01*
X230405466Y-120354625D01*
X230117984Y-120347328D01*
X229834220Y-120325673D01*
X229554530Y-120290016D01*
X229279268Y-120240710D01*
X229008789Y-120178110D01*
X228743447Y-120102571D01*
X228483597Y-120014447D01*
X228229593Y-119914094D01*
X227981791Y-119801865D01*
X227740545Y-119678116D01*
X227506209Y-119543201D01*
X227279138Y-119397474D01*
X227059687Y-119241291D01*
X226848210Y-119075006D01*
X226645062Y-118898973D01*
X226450598Y-118713547D01*
X226265172Y-118519083D01*
X226089139Y-118315936D01*
X225922854Y-118104459D01*
X225766670Y-117885008D01*
X225620944Y-117657938D01*
X225486028Y-117423602D01*
X225362279Y-117182356D01*
X225250050Y-116934554D01*
X225149697Y-116680551D01*
X225061573Y-116420702D01*
X224986035Y-116155360D01*
X224923435Y-115884881D01*
X224874129Y-115609620D01*
X224838471Y-115329930D01*
X224816816Y-115046167D01*
X224809519Y-114758685D01*
X224816816Y-114471204D01*
X224838471Y-114187442D01*
X224874129Y-113907753D01*
X224923435Y-113632492D01*
X224986036Y-113362014D01*
X225061575Y-113096673D01*
X225149699Y-112836824D01*
X225250053Y-112582821D01*
X225362282Y-112335020D01*
X225486031Y-112093774D01*
X225620947Y-111859439D01*
X225766674Y-111632368D01*
X225922858Y-111412918D01*
X226089144Y-111201442D01*
X226265178Y-110998294D01*
X226450604Y-110803831D01*
X226645068Y-110618405D01*
X226848216Y-110442372D01*
X227059693Y-110276087D01*
X227279145Y-110119904D01*
X227506215Y-109974177D01*
X227740551Y-109839262D01*
X227981798Y-109715513D01*
X228229600Y-109603285D01*
X228483603Y-109502931D01*
X228743452Y-109414808D01*
X229008794Y-109339269D01*
X229279272Y-109276669D01*
X229554534Y-109227363D01*
X229834223Y-109191705D01*
X230117985Y-109170050D01*
X230405466Y-109162754D01*
X230692949Y-109170050D01*
G37*
G36*
X147530000Y-64740000D02*
G01*
X148383945Y-64805148D01*
X149225617Y-64912423D01*
X150053952Y-65060760D01*
X150867883Y-65249093D01*
X151666343Y-65476356D01*
X152448266Y-65741481D01*
X153212587Y-66043403D01*
X153958237Y-66381055D01*
X154684152Y-66753372D01*
X155389265Y-67159286D01*
X156072510Y-67597731D01*
X156732820Y-68067642D01*
X157369129Y-68567952D01*
X157980371Y-69097594D01*
X158565479Y-69655502D01*
X159123387Y-70240610D01*
X159653029Y-70851852D01*
X160153338Y-71488160D01*
X160623249Y-72148470D01*
X161061694Y-72831715D01*
X161467608Y-73536828D01*
X161839925Y-74262742D01*
X162177577Y-75008393D01*
X162479499Y-75772713D01*
X162744624Y-76554636D01*
X162971886Y-77353096D01*
X163160219Y-78167026D01*
X163308557Y-78995360D01*
X163415832Y-79837032D01*
X163480979Y-80690976D01*
X163502932Y-81556125D01*
X163502932Y-106008914D01*
X180026163Y-71676589D01*
X180065500Y-71596553D01*
X180106200Y-71517012D01*
X180148389Y-71437719D01*
X180192190Y-71358427D01*
X180237727Y-71278886D01*
X180285124Y-71198850D01*
X180334506Y-71118069D01*
X180385996Y-71036296D01*
X180817419Y-70365710D01*
X181274425Y-69732630D01*
X181755747Y-69137849D01*
X182260118Y-68582163D01*
X182786270Y-68066366D01*
X183332936Y-67591252D01*
X183898849Y-67157616D01*
X184482742Y-66766253D01*
X185083346Y-66417957D01*
X185699395Y-66113523D01*
X186329622Y-65853745D01*
X186972758Y-65639418D01*
X187627537Y-65471335D01*
X188292692Y-65350293D01*
X188966954Y-65277085D01*
X189649058Y-65252506D01*
X190001281Y-65258976D01*
X190351406Y-65278319D01*
X190699273Y-65310429D01*
X191044720Y-65355202D01*
X191387588Y-65412535D01*
X191727717Y-65482323D01*
X192064945Y-65564462D01*
X192399114Y-65658848D01*
X192730061Y-65765376D01*
X193057627Y-65883943D01*
X193381652Y-66014444D01*
X193701975Y-66156776D01*
X194018436Y-66310833D01*
X194330874Y-66476513D01*
X194943041Y-66842320D01*
X195537194Y-67253366D01*
X196112050Y-67708815D01*
X196666325Y-68207836D01*
X197198738Y-68749594D01*
X197708005Y-69333257D01*
X198192843Y-69957991D01*
X198651969Y-70622962D01*
X199084101Y-71327339D01*
X199135155Y-71420603D01*
X199184970Y-71513868D01*
X199233300Y-71607134D01*
X199279894Y-71700401D01*
X218835245Y-112324527D01*
X218949744Y-112578985D01*
X219051124Y-112837063D01*
X219139349Y-113098351D01*
X219214385Y-113362437D01*
X219276198Y-113628910D01*
X219324751Y-113897360D01*
X219360010Y-114167377D01*
X219381941Y-114438548D01*
X219390509Y-114710463D01*
X219385678Y-114982711D01*
X219367414Y-115254882D01*
X219335681Y-115526564D01*
X219290446Y-115797348D01*
X219231673Y-116066820D01*
X219159327Y-116334572D01*
X219073374Y-116600192D01*
X218974571Y-116861335D01*
X218863885Y-117115717D01*
X218741587Y-117363031D01*
X218607950Y-117602964D01*
X218463243Y-117835208D01*
X218307739Y-118059453D01*
X218141709Y-118275388D01*
X217965424Y-118482703D01*
X217779155Y-118681088D01*
X217583174Y-118870234D01*
X217377751Y-119049830D01*
X217163158Y-119219566D01*
X216939667Y-119379132D01*
X216707549Y-119528219D01*
X216467075Y-119666515D01*
X216218516Y-119793712D01*
X215964058Y-119908617D01*
X215705979Y-120010240D01*
X215444691Y-120098569D01*
X215180605Y-120173593D01*
X214914131Y-120235301D01*
X214645680Y-120283679D01*
X214375663Y-120318718D01*
X214104492Y-120340405D01*
X213832576Y-120348728D01*
X213560327Y-120343677D01*
X213288155Y-120325239D01*
X213016472Y-120293402D01*
X212745689Y-120248156D01*
X212476215Y-120189488D01*
X212208463Y-120117387D01*
X211942843Y-120031841D01*
X211681701Y-119933039D01*
X211427318Y-119822354D01*
X211180005Y-119700057D01*
X210940071Y-119566420D01*
X210707827Y-119421713D01*
X210483583Y-119266209D01*
X210267648Y-119100179D01*
X210060333Y-118923893D01*
X209861947Y-118737624D01*
X209672801Y-118541642D01*
X209493206Y-118336219D01*
X209323469Y-118121626D01*
X209163903Y-117898135D01*
X209014816Y-117666016D01*
X208876520Y-117425541D01*
X208749323Y-117176982D01*
X189649050Y-77492133D01*
X172128344Y-113898799D01*
X172105282Y-113946292D01*
X172081755Y-113993508D01*
X172057794Y-114040414D01*
X172033429Y-114086979D01*
X172008693Y-114133173D01*
X171983615Y-114178965D01*
X171932558Y-114269214D01*
X171510552Y-114946676D01*
X171046032Y-115591919D01*
X170541694Y-116203357D01*
X170000229Y-116779407D01*
X169424333Y-117318482D01*
X168816699Y-117818998D01*
X168180019Y-118279368D01*
X167516989Y-118698009D01*
X166830301Y-119073334D01*
X166122650Y-119403760D01*
X165396728Y-119687699D01*
X164655230Y-119923568D01*
X163900848Y-120109781D01*
X163136278Y-120244753D01*
X162364212Y-120326899D01*
X161587344Y-120354633D01*
X161239757Y-120349057D01*
X160893721Y-120332351D01*
X160549546Y-120304544D01*
X160207541Y-120265668D01*
X159868016Y-120215754D01*
X159531282Y-120154832D01*
X159197649Y-120082933D01*
X158867426Y-120000087D01*
X158498276Y-119893489D01*
X158137586Y-119773804D01*
X157785572Y-119641310D01*
X157442446Y-119496284D01*
X156783713Y-119169743D01*
X156163099Y-118796399D01*
X155582311Y-118378468D01*
X155043059Y-117918168D01*
X154547052Y-117417715D01*
X154096000Y-116879326D01*
X153691612Y-116305219D01*
X153335596Y-115697610D01*
X153029663Y-115058716D01*
X152775521Y-114390755D01*
X152574880Y-113695942D01*
X152429449Y-112976495D01*
X152377971Y-112608227D01*
X152340937Y-112234632D01*
X152318559Y-111855986D01*
X152311053Y-111472568D01*
X152311053Y-81558780D01*
X152303694Y-81268594D01*
X152281856Y-80982176D01*
X152245896Y-80699882D01*
X152196171Y-80422070D01*
X152133038Y-80149097D01*
X152056853Y-79881319D01*
X151967975Y-79619095D01*
X151866760Y-79362781D01*
X151753565Y-79112733D01*
X151628747Y-78869310D01*
X151492663Y-78632868D01*
X151345671Y-78403764D01*
X151188127Y-78182355D01*
X151020388Y-77968999D01*
X150842812Y-77764052D01*
X150655755Y-77567871D01*
X150459575Y-77380814D01*
X150254628Y-77203238D01*
X150041272Y-77035499D01*
X149819863Y-76877954D01*
X149590760Y-76730962D01*
X149354318Y-76594878D01*
X149110895Y-76470060D01*
X148860847Y-76356864D01*
X148604533Y-76255649D01*
X148342309Y-76166770D01*
X148074531Y-76090586D01*
X147801558Y-76027452D01*
X147523746Y-75977727D01*
X147241452Y-75941767D01*
X146955033Y-75919929D01*
X146664847Y-75912570D01*
X146374661Y-75919929D01*
X146088242Y-75941767D01*
X145805949Y-75977727D01*
X145528137Y-76027452D01*
X145255164Y-76090585D01*
X144987386Y-76166770D01*
X144725162Y-76255648D01*
X144468848Y-76356863D01*
X144218801Y-76470058D01*
X143975378Y-76594876D01*
X143738936Y-76730960D01*
X143509832Y-76877952D01*
X143288423Y-77035497D01*
X143075067Y-77203235D01*
X142870120Y-77380812D01*
X142673940Y-77567869D01*
X142486883Y-77764049D01*
X142309307Y-77968996D01*
X142141568Y-78182352D01*
X141984024Y-78403761D01*
X141837031Y-78632865D01*
X141700947Y-78869307D01*
X141576129Y-79112730D01*
X141462934Y-79362777D01*
X141361719Y-79619092D01*
X141272841Y-79881317D01*
X141196656Y-80149094D01*
X141133523Y-80422068D01*
X141083798Y-80699880D01*
X141047837Y-80982174D01*
X141025999Y-81268593D01*
X141018641Y-81558780D01*
X141018641Y-114753398D01*
X141011344Y-115040880D01*
X140989689Y-115324643D01*
X140954031Y-115604333D01*
X140904725Y-115879594D01*
X140842126Y-116150073D01*
X140766587Y-116415414D01*
X140678463Y-116675263D01*
X140578110Y-116929266D01*
X140465881Y-117177068D01*
X140342132Y-117418313D01*
X140207217Y-117652649D01*
X140061490Y-117879719D01*
X139905307Y-118099169D01*
X139739022Y-118310645D01*
X139562989Y-118513793D01*
X139377563Y-118708256D01*
X139183100Y-118893681D01*
X138979952Y-119069714D01*
X138768476Y-119235999D01*
X138549025Y-119392182D01*
X138321955Y-119537908D01*
X138087619Y-119672823D01*
X137846373Y-119796572D01*
X137598572Y-119908800D01*
X137344569Y-120009153D01*
X137084719Y-120097277D01*
X136819378Y-120172816D01*
X136548900Y-120235415D01*
X136273638Y-120284721D01*
X135993949Y-120320379D01*
X135710186Y-120342033D01*
X135422705Y-120349330D01*
X135135224Y-120342033D01*
X134851462Y-120320379D01*
X134571773Y-120284721D01*
X134296512Y-120235415D01*
X134026033Y-120172816D01*
X133760692Y-120097277D01*
X133500843Y-120009153D01*
X133246840Y-119908800D01*
X132999038Y-119796572D01*
X132757793Y-119672823D01*
X132523457Y-119537908D01*
X132296387Y-119392182D01*
X132076936Y-119235999D01*
X131865460Y-119069714D01*
X131662312Y-118893681D01*
X131467848Y-118708256D01*
X131282422Y-118513793D01*
X131106390Y-118310645D01*
X130940104Y-118099169D01*
X130783921Y-117879719D01*
X130638194Y-117652649D01*
X130503279Y-117418313D01*
X130379529Y-117177068D01*
X130267301Y-116929266D01*
X130166947Y-116675263D01*
X130078824Y-116415414D01*
X130003285Y-116150073D01*
X129940685Y-115879594D01*
X129891379Y-115604333D01*
X129855721Y-115324643D01*
X129834066Y-115040880D01*
X129826769Y-114753398D01*
X129826769Y-81556125D01*
X129848722Y-80690976D01*
X129913869Y-79837032D01*
X130021145Y-78995360D01*
X130169482Y-78167026D01*
X130357815Y-77353096D01*
X130585077Y-76554636D01*
X130850203Y-75772713D01*
X131152125Y-75008393D01*
X131489777Y-74262742D01*
X131862094Y-73536828D01*
X132268008Y-72831715D01*
X132706453Y-72148470D01*
X133176364Y-71488160D01*
X133676674Y-70851852D01*
X134206316Y-70240610D01*
X134764224Y-69655502D01*
X135349332Y-69097594D01*
X135960574Y-68567952D01*
X136596883Y-68067642D01*
X137257193Y-67597731D01*
X137940437Y-67159286D01*
X138645550Y-66753372D01*
X139371465Y-66381055D01*
X140117116Y-66043403D01*
X140881436Y-65741481D01*
X141663360Y-65476356D01*
X142461819Y-65249093D01*
X143275750Y-65060760D01*
X144104085Y-64912423D01*
X144945757Y-64805148D01*
X145799701Y-64740000D01*
X146664851Y-64718048D01*
X147530000Y-64740000D01*
G37*
D11*
%TO.C,REF\u002A\u002A*%
X268040000Y-45390000D03*
%TD*%
%TO.C,REF\u002A\u002A*%
X95060000Y-45440000D03*
%TD*%
%TO.C,REF\u002A\u002A*%
X89980000Y-140570000D03*
%TD*%
%TO.C,REF\u002A\u002A*%
X52000000Y-45000000D03*
%TD*%
%TO.C,REF\u002A\u002A*%
X52000000Y-140540000D03*
%TD*%
%TO.C,REF\u002A\u002A*%
X267740000Y-140240000D03*
%TD*%
M02*
