%TF.GenerationSoftware,KiCad,Pcbnew,8.0.8*%
%TF.CreationDate,2025-03-17T17:13:05+00:00*%
%TF.ProjectId,memlnaut_0_1_backplate,6d656d6c-6e61-4757-945f-305f315f6261,rev?*%
%TF.SameCoordinates,Original*%
%TF.FileFunction,Legend,Top*%
%TF.FilePolarity,Positive*%
%FSLAX46Y46*%
G04 Gerber Fmt 4.6, Leading zero omitted, Abs format (unit mm)*
G04 Created by KiCad (PCBNEW 8.0.8) date 2025-03-17 17:13:05*
%MOMM*%
%LPD*%
G01*
G04 APERTURE LIST*
%ADD10C,0.000000*%
%ADD11C,0.100000*%
G04 APERTURE END LIST*
D10*
G36*
X151580000Y-66540000D02*
G01*
X152433944Y-66605147D01*
X153275617Y-66712422D01*
X154103952Y-66860760D01*
X154917883Y-67049093D01*
X155716343Y-67276355D01*
X156498266Y-67541480D01*
X157262586Y-67843402D01*
X158008237Y-68181055D01*
X158734152Y-68553371D01*
X159439265Y-68959285D01*
X160122510Y-69397731D01*
X160782820Y-69867641D01*
X161419129Y-70367951D01*
X162030370Y-70897593D01*
X162615479Y-71455501D01*
X163173387Y-72040609D01*
X163703029Y-72651851D01*
X164203338Y-73288160D01*
X164673249Y-73948470D01*
X165111694Y-74631714D01*
X165517608Y-75336827D01*
X165889924Y-76062742D01*
X166227577Y-76808392D01*
X166529499Y-77572712D01*
X166794624Y-78354635D01*
X167021886Y-79153095D01*
X167210219Y-79967025D01*
X167358556Y-80795360D01*
X167465832Y-81637032D01*
X167530979Y-82490976D01*
X167552932Y-83356125D01*
X167552932Y-107808914D01*
X184076163Y-73476589D01*
X184115499Y-73396552D01*
X184156200Y-73317011D01*
X184198388Y-73237719D01*
X184242189Y-73158426D01*
X184287727Y-73078886D01*
X184335124Y-72998849D01*
X184384506Y-72918069D01*
X184435996Y-72836296D01*
X184867419Y-72165710D01*
X185324425Y-71532629D01*
X185805747Y-70937849D01*
X186310118Y-70382162D01*
X186836270Y-69866365D01*
X187382936Y-69391252D01*
X187948849Y-68957616D01*
X188532742Y-68566253D01*
X189133346Y-68217957D01*
X189749395Y-67913523D01*
X190379621Y-67653745D01*
X191022758Y-67439417D01*
X191677537Y-67271335D01*
X192342692Y-67150293D01*
X193016954Y-67077084D01*
X193699057Y-67052505D01*
X194051281Y-67058976D01*
X194401406Y-67078318D01*
X194749272Y-67110428D01*
X195094720Y-67155202D01*
X195437588Y-67212535D01*
X195777717Y-67282322D01*
X196114945Y-67364461D01*
X196449113Y-67458847D01*
X196780061Y-67565376D01*
X197107627Y-67683942D01*
X197431652Y-67814444D01*
X197751975Y-67956775D01*
X198068435Y-68110833D01*
X198380874Y-68276512D01*
X198993041Y-68642320D01*
X199587194Y-69053365D01*
X200162050Y-69508815D01*
X200716325Y-70007835D01*
X201248738Y-70549593D01*
X201758004Y-71133256D01*
X202242842Y-71757990D01*
X202701969Y-72422962D01*
X203134101Y-73127338D01*
X203185155Y-73220602D01*
X203234970Y-73313868D01*
X203283299Y-73407134D01*
X203329894Y-73500400D01*
X222885245Y-114124527D01*
X222999744Y-114378985D01*
X223101124Y-114637063D01*
X223189349Y-114898350D01*
X223264385Y-115162436D01*
X223326197Y-115428910D01*
X223374751Y-115697360D01*
X223410010Y-115967376D01*
X223431941Y-116238547D01*
X223440508Y-116510462D01*
X223435678Y-116782711D01*
X223417413Y-117054881D01*
X223385681Y-117326564D01*
X223340446Y-117597347D01*
X223281673Y-117866820D01*
X223209327Y-118134572D01*
X223123374Y-118400192D01*
X223024571Y-118661334D01*
X222913885Y-118915717D01*
X222791587Y-119163030D01*
X222657950Y-119402964D01*
X222513243Y-119635208D01*
X222357739Y-119859452D01*
X222191709Y-120075387D01*
X222015424Y-120282702D01*
X221829155Y-120481088D01*
X221633173Y-120670233D01*
X221427751Y-120849829D01*
X221213158Y-121019565D01*
X220989667Y-121179132D01*
X220757549Y-121328218D01*
X220517075Y-121466515D01*
X220268516Y-121593712D01*
X220014057Y-121708616D01*
X219755979Y-121810239D01*
X219494691Y-121898569D01*
X219230605Y-121973593D01*
X218964131Y-122035300D01*
X218695680Y-122083679D01*
X218425663Y-122118717D01*
X218154491Y-122140404D01*
X217882575Y-122148728D01*
X217610326Y-122143676D01*
X217338155Y-122125238D01*
X217066472Y-122093402D01*
X216795688Y-122048155D01*
X216526215Y-121989487D01*
X216258463Y-121917386D01*
X215992843Y-121831840D01*
X215731700Y-121733038D01*
X215477318Y-121622353D01*
X215230004Y-121500056D01*
X214990071Y-121366419D01*
X214757827Y-121221713D01*
X214533582Y-121066209D01*
X214317648Y-120900178D01*
X214110332Y-120723893D01*
X213911947Y-120537623D01*
X213722801Y-120341642D01*
X213543205Y-120136219D01*
X213373469Y-119921626D01*
X213213903Y-119698134D01*
X213064816Y-119466015D01*
X212926520Y-119225541D01*
X212799323Y-118976982D01*
X193699050Y-79292133D01*
X176178344Y-115698799D01*
X176155282Y-115746292D01*
X176131754Y-115793507D01*
X176107793Y-115840413D01*
X176083429Y-115886979D01*
X176058693Y-115933173D01*
X176033615Y-115978964D01*
X175982558Y-116069213D01*
X175560552Y-116746675D01*
X175096032Y-117391918D01*
X174591694Y-118003357D01*
X174050229Y-118579406D01*
X173474333Y-119118482D01*
X172866698Y-119618997D01*
X172230019Y-120079368D01*
X171566989Y-120498008D01*
X170880301Y-120873334D01*
X170172650Y-121203759D01*
X169446728Y-121487699D01*
X168705229Y-121723568D01*
X167950848Y-121909781D01*
X167186278Y-122044752D01*
X166414212Y-122126898D01*
X165637343Y-122154632D01*
X165289757Y-122149057D01*
X164943721Y-122132350D01*
X164599546Y-122104544D01*
X164257541Y-122065668D01*
X163918016Y-122015753D01*
X163581282Y-121954831D01*
X163247649Y-121882932D01*
X162917426Y-121800087D01*
X162548276Y-121693488D01*
X162187586Y-121573804D01*
X161835572Y-121441309D01*
X161492445Y-121296283D01*
X160833713Y-120969742D01*
X160213098Y-120596398D01*
X159632310Y-120178467D01*
X159093059Y-119718167D01*
X158597052Y-119217714D01*
X158146000Y-118679326D01*
X157741611Y-118105218D01*
X157385596Y-117497609D01*
X157079663Y-116858716D01*
X156825521Y-116190754D01*
X156624880Y-115495941D01*
X156479449Y-114776495D01*
X156427971Y-114408227D01*
X156390936Y-114034631D01*
X156368559Y-113655986D01*
X156361053Y-113272567D01*
X156361053Y-83358780D01*
X156353694Y-83068593D01*
X156331856Y-82782175D01*
X156295896Y-82499881D01*
X156246171Y-82222069D01*
X156183037Y-81949096D01*
X156106853Y-81681319D01*
X156017975Y-81419094D01*
X155916760Y-81162780D01*
X155803565Y-80912733D01*
X155678747Y-80669309D01*
X155542663Y-80432867D01*
X155395671Y-80203764D01*
X155238126Y-79982355D01*
X155070388Y-79768998D01*
X154892812Y-79564051D01*
X154705755Y-79367871D01*
X154509574Y-79180814D01*
X154304628Y-79003237D01*
X154091272Y-78835498D01*
X153869863Y-78677954D01*
X153640759Y-78530961D01*
X153404317Y-78394877D01*
X153160894Y-78270059D01*
X152910847Y-78156864D01*
X152654533Y-78055648D01*
X152392308Y-77966770D01*
X152124531Y-77890585D01*
X151851558Y-77827452D01*
X151573746Y-77777727D01*
X151291452Y-77741766D01*
X151005033Y-77719928D01*
X150714847Y-77712570D01*
X150424660Y-77719928D01*
X150138242Y-77741766D01*
X149855948Y-77777726D01*
X149578136Y-77827452D01*
X149305163Y-77890585D01*
X149037386Y-77966769D01*
X148775162Y-78055647D01*
X148518848Y-78156863D01*
X148268800Y-78270058D01*
X148025377Y-78394876D01*
X147788935Y-78530959D01*
X147559832Y-78677952D01*
X147338423Y-78835496D01*
X147125067Y-79003235D01*
X146920120Y-79180811D01*
X146723940Y-79367868D01*
X146536883Y-79564049D01*
X146359306Y-79768995D01*
X146191568Y-79982352D01*
X146034023Y-80203760D01*
X145887031Y-80432864D01*
X145750947Y-80669306D01*
X145626129Y-80912729D01*
X145512934Y-81162777D01*
X145411719Y-81419091D01*
X145322840Y-81681316D01*
X145246656Y-81949094D01*
X145183523Y-82222067D01*
X145133797Y-82499879D01*
X145097837Y-82782174D01*
X145075999Y-83068593D01*
X145068641Y-83358780D01*
X145068641Y-116553398D01*
X145061344Y-116840880D01*
X145039689Y-117124642D01*
X145004031Y-117404332D01*
X144954725Y-117679593D01*
X144892125Y-117950072D01*
X144816586Y-118215413D01*
X144728463Y-118475263D01*
X144628110Y-118729265D01*
X144515881Y-118977067D01*
X144392132Y-119218313D01*
X144257217Y-119452648D01*
X144111490Y-119679718D01*
X143955307Y-119899169D01*
X143789022Y-120110645D01*
X143612989Y-120313792D01*
X143427563Y-120508256D01*
X143233099Y-120693681D01*
X143029952Y-120869713D01*
X142818475Y-121035999D01*
X142599025Y-121192181D01*
X142371955Y-121337908D01*
X142137619Y-121472823D01*
X141896373Y-121596571D01*
X141648572Y-121708800D01*
X141394569Y-121809153D01*
X141134719Y-121897276D01*
X140869378Y-121972815D01*
X140598899Y-122035415D01*
X140323638Y-122084721D01*
X140043949Y-122120378D01*
X139760186Y-122142033D01*
X139472705Y-122149330D01*
X139185224Y-122142033D01*
X138901461Y-122120378D01*
X138621772Y-122084721D01*
X138346511Y-122035415D01*
X138076033Y-121972815D01*
X137810692Y-121897276D01*
X137550843Y-121809153D01*
X137296840Y-121708800D01*
X137049038Y-121596571D01*
X136807792Y-121472823D01*
X136573457Y-121337908D01*
X136346387Y-121192181D01*
X136126936Y-121035999D01*
X135915459Y-120869713D01*
X135712312Y-120693681D01*
X135517848Y-120508256D01*
X135332422Y-120313792D01*
X135156389Y-120110645D01*
X134990104Y-119899169D01*
X134833920Y-119679718D01*
X134688194Y-119452648D01*
X134553279Y-119218313D01*
X134429529Y-118977067D01*
X134317301Y-118729265D01*
X134216947Y-118475263D01*
X134128824Y-118215413D01*
X134053285Y-117950072D01*
X133990685Y-117679593D01*
X133941379Y-117404332D01*
X133905721Y-117124642D01*
X133884066Y-116840880D01*
X133876769Y-116553398D01*
X133876769Y-83356125D01*
X133898722Y-82490976D01*
X133963869Y-81637032D01*
X134071144Y-80795360D01*
X134219482Y-79967025D01*
X134407815Y-79153095D01*
X134635077Y-78354635D01*
X134900203Y-77572712D01*
X135202124Y-76808392D01*
X135539777Y-76062742D01*
X135912093Y-75336827D01*
X136318007Y-74631714D01*
X136756453Y-73948470D01*
X137226364Y-73288160D01*
X137726673Y-72651851D01*
X138256315Y-72040609D01*
X138814224Y-71455501D01*
X139399332Y-70897593D01*
X140010574Y-70367951D01*
X140646883Y-69867641D01*
X141307193Y-69397731D01*
X141990437Y-68959285D01*
X142695550Y-68553371D01*
X143421465Y-68181055D01*
X144167116Y-67843402D01*
X144931436Y-67541480D01*
X145713359Y-67276355D01*
X146511819Y-67049093D01*
X147325750Y-66860760D01*
X148154084Y-66712422D01*
X148995757Y-66605147D01*
X149849701Y-66540000D01*
X150714850Y-66518047D01*
X151580000Y-66540000D01*
G37*
G36*
X250168927Y-112090415D02*
G01*
X250395978Y-112107735D01*
X250619765Y-112136254D01*
X250840004Y-112175690D01*
X251056412Y-112225759D01*
X251268705Y-112286177D01*
X251476600Y-112356662D01*
X251679813Y-112436930D01*
X251878062Y-112526697D01*
X252071062Y-112625680D01*
X252258531Y-112733595D01*
X252440185Y-112850160D01*
X252615740Y-112975091D01*
X252784913Y-113108104D01*
X252947421Y-113248916D01*
X253102981Y-113397243D01*
X253251308Y-113552803D01*
X253392119Y-113715311D01*
X253525132Y-113884485D01*
X253650062Y-114060040D01*
X253766627Y-114241694D01*
X253874542Y-114429163D01*
X253973525Y-114622164D01*
X254063292Y-114820413D01*
X254143559Y-115023627D01*
X254214043Y-115231522D01*
X254274462Y-115443815D01*
X254324530Y-115660223D01*
X254363966Y-115880462D01*
X254392485Y-116104249D01*
X254409805Y-116331300D01*
X254415641Y-116561332D01*
X254409805Y-116791364D01*
X254392485Y-117018416D01*
X254363966Y-117242202D01*
X254324530Y-117462441D01*
X254274462Y-117678849D01*
X254214043Y-117891143D01*
X254143559Y-118099038D01*
X254063292Y-118302252D01*
X253973525Y-118500501D01*
X253874542Y-118693501D01*
X253766627Y-118880971D01*
X253650062Y-119062625D01*
X253525132Y-119238180D01*
X253392119Y-119407354D01*
X253251308Y-119569862D01*
X253102981Y-119725422D01*
X252947421Y-119873749D01*
X252784913Y-120014561D01*
X252615740Y-120147574D01*
X252440185Y-120272505D01*
X252258531Y-120389069D01*
X252071062Y-120496985D01*
X251878062Y-120595968D01*
X251679813Y-120685735D01*
X251476600Y-120766003D01*
X251268705Y-120836487D01*
X251056412Y-120896906D01*
X250840004Y-120946975D01*
X250619765Y-120986411D01*
X250395978Y-121014930D01*
X250168927Y-121032249D01*
X249938895Y-121038086D01*
X249708864Y-121032249D01*
X249481814Y-121014930D01*
X249258029Y-120986410D01*
X249037791Y-120946975D01*
X248821384Y-120896906D01*
X248609091Y-120836487D01*
X248401197Y-120766002D01*
X248197983Y-120685734D01*
X247999735Y-120595967D01*
X247806735Y-120496984D01*
X247619266Y-120389068D01*
X247437612Y-120272503D01*
X247262057Y-120147572D01*
X247092883Y-120014559D01*
X246930375Y-119873746D01*
X246774815Y-119725419D01*
X246626488Y-119569859D01*
X246485676Y-119407351D01*
X246352663Y-119238177D01*
X246227732Y-119062621D01*
X246111167Y-118880967D01*
X246003251Y-118693498D01*
X245904268Y-118500497D01*
X245814501Y-118302249D01*
X245734233Y-118099035D01*
X245663748Y-117891140D01*
X245603330Y-117678847D01*
X245553260Y-117462439D01*
X245513825Y-117242201D01*
X245485305Y-117018414D01*
X245467986Y-116791364D01*
X245462150Y-116561332D01*
X245467986Y-116331300D01*
X245485305Y-116104249D01*
X245513824Y-115880462D01*
X245553260Y-115660223D01*
X245603329Y-115443815D01*
X245663747Y-115231522D01*
X245734232Y-115023627D01*
X245814499Y-114820413D01*
X245904266Y-114622164D01*
X246003248Y-114429163D01*
X246111164Y-114241694D01*
X246227728Y-114060040D01*
X246352658Y-113884485D01*
X246485671Y-113715311D01*
X246626483Y-113552803D01*
X246774810Y-113397243D01*
X246930369Y-113248916D01*
X247092877Y-113108104D01*
X247262050Y-112975091D01*
X247437605Y-112850160D01*
X247619259Y-112733595D01*
X247806728Y-112625680D01*
X247999728Y-112526697D01*
X248197977Y-112436930D01*
X248401191Y-112356662D01*
X248609086Y-112286177D01*
X248821379Y-112225759D01*
X249037786Y-112175690D01*
X249258025Y-112136254D01*
X249481812Y-112107735D01*
X249708863Y-112090415D01*
X249938895Y-112084579D01*
X250168927Y-112090415D01*
G37*
G36*
X263362576Y-112983541D02*
G01*
X263544144Y-112997393D01*
X263723117Y-113020202D01*
X263899267Y-113051743D01*
X264072368Y-113091789D01*
X264242190Y-113140114D01*
X264408507Y-113196492D01*
X264571091Y-113260697D01*
X264729714Y-113332502D01*
X264884148Y-113411681D01*
X265034166Y-113498008D01*
X265179540Y-113591256D01*
X265320042Y-113691200D01*
X265455444Y-113797613D01*
X265585520Y-113910269D01*
X265710040Y-114028941D01*
X265828778Y-114153403D01*
X265941506Y-114283430D01*
X266047995Y-114418794D01*
X266148019Y-114559270D01*
X266241350Y-114704632D01*
X266327759Y-114854652D01*
X266407020Y-115009106D01*
X266478904Y-115167766D01*
X266543184Y-115330406D01*
X266599632Y-115496800D01*
X266648021Y-115666722D01*
X266688122Y-115839946D01*
X266719708Y-116016245D01*
X266742552Y-116195394D01*
X266756425Y-116377165D01*
X266761100Y-116561332D01*
X266756425Y-116745501D01*
X266742552Y-116927272D01*
X266719709Y-117106421D01*
X266688123Y-117282721D01*
X266648022Y-117455945D01*
X266599634Y-117625868D01*
X266543186Y-117792263D01*
X266478906Y-117954904D01*
X266407023Y-118113564D01*
X266327762Y-118268018D01*
X266241353Y-118418038D01*
X266148023Y-118563400D01*
X266048000Y-118703876D01*
X265941511Y-118839241D01*
X265828783Y-118969268D01*
X265710046Y-119093731D01*
X265585526Y-119212403D01*
X265455450Y-119325059D01*
X265320048Y-119431472D01*
X265179546Y-119531416D01*
X265034173Y-119624664D01*
X264884155Y-119710991D01*
X264729721Y-119790170D01*
X264571098Y-119861975D01*
X264408513Y-119926180D01*
X264242196Y-119982558D01*
X264072373Y-120030883D01*
X263899272Y-120070929D01*
X263723120Y-120102470D01*
X263544146Y-120125280D01*
X263362577Y-120139131D01*
X263178641Y-120143799D01*
X262994474Y-120139124D01*
X262812704Y-120125250D01*
X262633556Y-120102407D01*
X262457258Y-120070821D01*
X262284035Y-120030720D01*
X262114113Y-119982331D01*
X261947720Y-119925883D01*
X261785080Y-119861603D01*
X261626421Y-119789719D01*
X261471968Y-119710458D01*
X261321948Y-119624048D01*
X261176588Y-119530718D01*
X261036112Y-119430694D01*
X260900748Y-119324204D01*
X260770722Y-119211476D01*
X260646260Y-119092738D01*
X260527589Y-118968217D01*
X260414933Y-118838142D01*
X260308521Y-118702739D01*
X260208578Y-118562237D01*
X260115330Y-118416862D01*
X260029003Y-118266844D01*
X259949825Y-118112410D01*
X259878020Y-117953787D01*
X259813816Y-117791202D01*
X259757438Y-117624885D01*
X259709113Y-117455062D01*
X259669067Y-117281961D01*
X259637526Y-117105810D01*
X259614717Y-116926836D01*
X259600865Y-116745268D01*
X259596198Y-116561332D01*
X259600873Y-116377165D01*
X259614746Y-116195394D01*
X259637589Y-116016245D01*
X259669175Y-115839946D01*
X259709276Y-115666722D01*
X259757664Y-115496800D01*
X259814112Y-115330406D01*
X259878391Y-115167766D01*
X259950275Y-115009106D01*
X260029535Y-114854652D01*
X260115944Y-114704632D01*
X260209274Y-114559270D01*
X260309297Y-114418794D01*
X260415786Y-114283430D01*
X260528513Y-114153403D01*
X260647250Y-114028941D01*
X260771770Y-113910269D01*
X260901845Y-113797613D01*
X261037246Y-113691200D01*
X261177748Y-113591256D01*
X261323121Y-113498008D01*
X261473138Y-113411681D01*
X261627572Y-113332502D01*
X261786194Y-113260697D01*
X261948777Y-113196492D01*
X262115094Y-113140114D01*
X262284916Y-113091789D01*
X262458016Y-113051743D01*
X262634166Y-113020202D01*
X262813139Y-112997393D01*
X262994707Y-112983541D01*
X263178641Y-112978874D01*
X263362576Y-112983541D01*
G37*
G36*
X234742949Y-110970050D02*
G01*
X235026712Y-110991705D01*
X235306402Y-111027362D01*
X235581665Y-111076669D01*
X235852144Y-111139268D01*
X236117486Y-111214807D01*
X236377336Y-111302931D01*
X236631340Y-111403284D01*
X236879142Y-111515512D01*
X237120388Y-111639262D01*
X237354724Y-111774177D01*
X237581795Y-111919903D01*
X237801246Y-112076087D01*
X238012723Y-112242372D01*
X238215870Y-112418405D01*
X238410334Y-112603830D01*
X238595760Y-112798294D01*
X238771793Y-113001441D01*
X238938079Y-113212917D01*
X239094262Y-113432368D01*
X239239989Y-113659438D01*
X239374904Y-113893773D01*
X239498654Y-114135019D01*
X239610882Y-114382821D01*
X239711236Y-114636823D01*
X239799359Y-114896672D01*
X239874898Y-115162013D01*
X239937498Y-115432492D01*
X239986804Y-115707753D01*
X240022462Y-115987442D01*
X240044116Y-116271204D01*
X240051413Y-116558685D01*
X240044116Y-116846167D01*
X240022462Y-117129930D01*
X239986804Y-117409619D01*
X239937497Y-117684881D01*
X239874897Y-117955360D01*
X239799358Y-118220701D01*
X239711234Y-118480551D01*
X239610880Y-118734554D01*
X239498651Y-118982356D01*
X239374901Y-119223602D01*
X239239985Y-119457937D01*
X239094258Y-119685008D01*
X238938075Y-119904459D01*
X238771789Y-120115935D01*
X238595755Y-120319083D01*
X238410329Y-120513547D01*
X238215864Y-120698972D01*
X238012716Y-120875005D01*
X237801239Y-121041291D01*
X237581788Y-121197474D01*
X237354717Y-121343200D01*
X237120381Y-121478116D01*
X236879135Y-121601865D01*
X236631333Y-121714093D01*
X236377330Y-121814447D01*
X236117480Y-121902570D01*
X235852139Y-121978109D01*
X235581660Y-122040709D01*
X235306399Y-122090015D01*
X235026710Y-122125673D01*
X234742947Y-122147328D01*
X234455466Y-122154625D01*
X234167984Y-122147328D01*
X233884220Y-122125673D01*
X233604530Y-122090015D01*
X233329268Y-122040709D01*
X233058788Y-121978109D01*
X232793446Y-121902570D01*
X232533596Y-121814447D01*
X232279593Y-121714093D01*
X232031791Y-121601865D01*
X231790544Y-121478116D01*
X231556208Y-121343200D01*
X231329138Y-121197474D01*
X231109687Y-121041291D01*
X230898210Y-120875005D01*
X230695062Y-120698972D01*
X230500598Y-120513547D01*
X230315172Y-120319083D01*
X230139139Y-120115935D01*
X229972853Y-119904459D01*
X229816670Y-119685008D01*
X229670943Y-119457937D01*
X229536028Y-119223602D01*
X229412279Y-118982356D01*
X229300050Y-118734554D01*
X229199697Y-118480551D01*
X229111573Y-118220701D01*
X229036034Y-117955360D01*
X228973434Y-117684881D01*
X228924128Y-117409619D01*
X228888471Y-117129930D01*
X228866816Y-116846167D01*
X228859519Y-116558685D01*
X228866816Y-116271204D01*
X228888471Y-115987442D01*
X228924129Y-115707753D01*
X228973435Y-115432492D01*
X229036035Y-115162013D01*
X229111575Y-114896672D01*
X229199699Y-114636823D01*
X229300052Y-114382821D01*
X229412281Y-114135019D01*
X229536031Y-113893773D01*
X229670947Y-113659438D01*
X229816674Y-113432368D01*
X229972858Y-113212917D01*
X230139144Y-113001441D01*
X230315177Y-112798294D01*
X230500604Y-112603830D01*
X230695068Y-112418405D01*
X230898216Y-112242372D01*
X231109693Y-112076087D01*
X231329144Y-111919903D01*
X231556215Y-111774177D01*
X231790551Y-111639262D01*
X232031797Y-111515512D01*
X232279599Y-111403284D01*
X232533603Y-111302931D01*
X232793452Y-111214807D01*
X233058794Y-111139268D01*
X233329272Y-111076669D01*
X233604533Y-111027362D01*
X233884223Y-110991705D01*
X234167985Y-110970050D01*
X234455466Y-110962753D01*
X234742949Y-110970050D01*
G37*
D11*
G36*
X75341479Y-66130000D02*
G01*
X74272672Y-62486873D01*
X74250202Y-62486873D01*
X74259498Y-62687492D01*
X74267913Y-62884128D01*
X74275393Y-63095130D01*
X74277557Y-63214717D01*
X74277557Y-66130000D01*
X74019637Y-66130000D01*
X74019637Y-62128325D01*
X74418241Y-62128325D01*
X75319986Y-65188199D01*
X75374818Y-65383349D01*
X75423951Y-65584792D01*
X75462953Y-65786140D01*
X75476301Y-65877941D01*
X75498771Y-65877941D01*
X75540024Y-65667512D01*
X75590874Y-65467804D01*
X75651385Y-65253175D01*
X75668764Y-65194061D01*
X76561716Y-62128325D01*
X76973021Y-62128325D01*
X76973021Y-66130000D01*
X76704354Y-66130000D01*
X76704354Y-63237187D01*
X76708869Y-63032315D01*
X76717284Y-62812273D01*
X76726821Y-62596891D01*
X76731709Y-62492735D01*
X76709239Y-62492735D01*
X75646294Y-66130000D01*
X75341479Y-66130000D01*
G37*
G36*
X79290397Y-66130000D02*
G01*
X77833733Y-66130000D01*
X77833733Y-62128325D01*
X79290397Y-62128325D01*
X79290397Y-62386245D01*
X78103377Y-62386245D01*
X78103377Y-63879057D01*
X79223963Y-63879057D01*
X79223963Y-64136978D01*
X78103377Y-64136978D01*
X78103377Y-65872079D01*
X79290397Y-65872079D01*
X79290397Y-66130000D01*
G37*
G36*
X81308820Y-66130000D02*
G01*
X80240013Y-62486873D01*
X80217543Y-62486873D01*
X80226840Y-62687492D01*
X80235255Y-62884128D01*
X80242734Y-63095130D01*
X80244898Y-63214717D01*
X80244898Y-66130000D01*
X79986978Y-66130000D01*
X79986978Y-62128325D01*
X80385582Y-62128325D01*
X81287327Y-65188199D01*
X81342159Y-65383349D01*
X81391292Y-65584792D01*
X81430295Y-65786140D01*
X81443642Y-65877941D01*
X81466113Y-65877941D01*
X81507365Y-65667512D01*
X81558215Y-65467804D01*
X81618726Y-65253175D01*
X81636106Y-65194061D01*
X82529057Y-62128325D01*
X82940362Y-62128325D01*
X82940362Y-66130000D01*
X82671695Y-66130000D01*
X82671695Y-63237187D01*
X82676210Y-63032315D01*
X82684625Y-62812273D01*
X82694162Y-62596891D01*
X82699050Y-62492735D01*
X82676580Y-62492735D01*
X81613635Y-66130000D01*
X81308820Y-66130000D01*
G37*
G36*
X83801074Y-66130000D02*
G01*
X83801074Y-62128325D01*
X84070718Y-62128325D01*
X84070718Y-65872079D01*
X85202051Y-65872079D01*
X85202051Y-66130000D01*
X83801074Y-66130000D01*
G37*
G36*
X87859413Y-66130000D02*
G01*
X87515519Y-66130000D01*
X85996329Y-62541584D01*
X85973859Y-62541584D01*
X85989916Y-62748797D01*
X86000718Y-62951683D01*
X86006265Y-63150241D01*
X86007076Y-63258681D01*
X86007076Y-66130000D01*
X85743293Y-66130000D01*
X85743293Y-62128325D01*
X86092072Y-62128325D01*
X87600516Y-65675708D01*
X87617124Y-65675708D01*
X87607721Y-65460652D01*
X87601004Y-65263914D01*
X87596660Y-65064481D01*
X87595631Y-64925394D01*
X87595631Y-62128325D01*
X87859413Y-62128325D01*
X87859413Y-66130000D01*
G37*
G36*
X89565224Y-63089115D02*
G01*
X89749797Y-63167196D01*
X89885652Y-63300690D01*
X89971175Y-63477442D01*
X90021064Y-63689215D01*
X90042128Y-63888442D01*
X90047829Y-64083244D01*
X90047829Y-66130000D01*
X89833872Y-66130000D01*
X89800655Y-65714787D01*
X89789909Y-65714787D01*
X89685403Y-65900937D01*
X89540323Y-66057695D01*
X89367888Y-66154736D01*
X89168097Y-66192059D01*
X89141200Y-66192526D01*
X88938784Y-66159965D01*
X88768241Y-66062283D01*
X88672254Y-65960983D01*
X88571577Y-65782656D01*
X88516317Y-65588483D01*
X88496112Y-65387623D01*
X88495520Y-65346468D01*
X88770928Y-65346468D01*
X88782186Y-65541825D01*
X88830483Y-65742728D01*
X88886210Y-65846678D01*
X89042178Y-65974653D01*
X89199818Y-66004947D01*
X89391930Y-65964143D01*
X89549146Y-65841732D01*
X89634570Y-65714787D01*
X89709661Y-65532483D01*
X89755777Y-65338386D01*
X89780200Y-65143808D01*
X89789757Y-64926135D01*
X89789909Y-64893154D01*
X89789909Y-64566845D01*
X89479232Y-64584431D01*
X89272560Y-64613244D01*
X89086876Y-64683286D01*
X88944829Y-64793503D01*
X88838858Y-64960107D01*
X88784683Y-65155793D01*
X88770928Y-65346468D01*
X88495520Y-65346468D01*
X88495422Y-65339630D01*
X88511359Y-65138190D01*
X88567387Y-64937992D01*
X88663755Y-64765770D01*
X88750411Y-64666496D01*
X88910698Y-64544368D01*
X89103598Y-64458253D01*
X89302442Y-64411938D01*
X89468485Y-64395875D01*
X89789909Y-64379267D01*
X89789909Y-64128185D01*
X89783375Y-63930593D01*
X89756833Y-63724131D01*
X89698031Y-63535820D01*
X89685373Y-63510739D01*
X89546643Y-63364926D01*
X89354473Y-63316512D01*
X89339525Y-63316322D01*
X89129779Y-63343894D01*
X88933018Y-63418289D01*
X88816845Y-63483384D01*
X88704494Y-63274312D01*
X88881568Y-63173719D01*
X89083755Y-63100561D01*
X89291667Y-63068046D01*
X89355157Y-63066217D01*
X89565224Y-63089115D01*
G37*
G36*
X91071695Y-63128743D02*
G01*
X91071695Y-65093433D01*
X91078290Y-65301589D01*
X91101474Y-65499709D01*
X91152479Y-65690011D01*
X91177208Y-65745073D01*
X91312030Y-65898946D01*
X91503517Y-65950237D01*
X91697136Y-65923332D01*
X91882883Y-65820017D01*
X91998841Y-65674731D01*
X92075348Y-65492316D01*
X92122334Y-65285015D01*
X92147219Y-65068764D01*
X92156492Y-64857510D01*
X92157110Y-64781779D01*
X92157110Y-63128743D01*
X92415031Y-63128743D01*
X92415031Y-66130000D01*
X92195212Y-66130000D01*
X92161995Y-65715764D01*
X92140502Y-65715764D01*
X92041847Y-65896458D01*
X91905018Y-66045236D01*
X91873789Y-66069427D01*
X91695980Y-66161751D01*
X91502540Y-66192526D01*
X91296727Y-66167338D01*
X91113970Y-66081449D01*
X90976929Y-65934605D01*
X90889345Y-65741443D01*
X90842634Y-65540890D01*
X90818791Y-65331845D01*
X90811006Y-65127735D01*
X90810844Y-65091479D01*
X90810844Y-63128743D01*
X91071695Y-63128743D01*
G37*
G36*
X93744689Y-65950237D02*
G01*
X93940828Y-65922956D01*
X93958646Y-65917020D01*
X93958646Y-66137815D01*
X93759748Y-66187183D01*
X93647969Y-66192526D01*
X93446224Y-66148989D01*
X93288161Y-65995932D01*
X93215659Y-65800699D01*
X93188640Y-65580297D01*
X93186838Y-65495945D01*
X93186838Y-63359309D01*
X92917194Y-63359309D01*
X92917194Y-63205924D01*
X93180976Y-63128743D01*
X93265973Y-62440956D01*
X93447690Y-62440956D01*
X93447690Y-63128743D01*
X93920544Y-63128743D01*
X93920544Y-63359309D01*
X93447690Y-63359309D01*
X93447690Y-65422672D01*
X93456895Y-65624676D01*
X93501449Y-65817247D01*
X93513147Y-65839839D01*
X93686242Y-65946356D01*
X93744689Y-65950237D01*
G37*
G36*
X96411332Y-62097733D02*
G01*
X96593538Y-62193538D01*
X96745457Y-62353211D01*
X96853542Y-62545319D01*
X96867090Y-62576755D01*
X96939469Y-62786578D01*
X96988347Y-62989820D01*
X97026824Y-63218869D01*
X97050119Y-63420690D01*
X97066758Y-63639028D01*
X97076741Y-63873883D01*
X97080069Y-64125254D01*
X97076604Y-64372046D01*
X97066209Y-64603421D01*
X97048883Y-64819377D01*
X97024626Y-65019916D01*
X96984560Y-65248908D01*
X96933665Y-65453809D01*
X96858297Y-65667892D01*
X96767839Y-65846185D01*
X96642944Y-66007572D01*
X96474676Y-66130533D01*
X96279175Y-66187915D01*
X96198841Y-66192526D01*
X95982442Y-66162240D01*
X95798283Y-66071381D01*
X95646364Y-65919951D01*
X95539882Y-65737761D01*
X95526685Y-65707948D01*
X95456297Y-65504661D01*
X95408765Y-65302302D01*
X95371346Y-65069986D01*
X95348693Y-64862562D01*
X95332512Y-64635966D01*
X95322803Y-64390197D01*
X95319769Y-64193287D01*
X95319567Y-64125254D01*
X95598981Y-64125254D01*
X95601225Y-64344584D01*
X95607957Y-64549748D01*
X95622683Y-64786282D01*
X95644421Y-65000682D01*
X95679764Y-65228743D01*
X95725205Y-65424931D01*
X95742595Y-65483244D01*
X95825272Y-65680715D01*
X95957812Y-65848212D01*
X96141072Y-65930638D01*
X96197864Y-65934605D01*
X96402387Y-65870995D01*
X96540499Y-65720805D01*
X96629830Y-65537043D01*
X96700356Y-65296738D01*
X96740908Y-65079404D01*
X96770881Y-64830265D01*
X96790275Y-64549321D01*
X96797328Y-64344355D01*
X96799678Y-64125254D01*
X96797328Y-63907100D01*
X96790275Y-63703019D01*
X96770881Y-63423289D01*
X96740908Y-63175226D01*
X96700356Y-62958831D01*
X96629830Y-62719564D01*
X96540499Y-62536596D01*
X96402387Y-62387054D01*
X96197864Y-62323719D01*
X96003899Y-62376361D01*
X95861628Y-62515579D01*
X95771166Y-62689602D01*
X95742595Y-62769218D01*
X95686636Y-62986043D01*
X95649610Y-63207464D01*
X95626469Y-63417064D01*
X95610341Y-63649467D01*
X95602487Y-63851807D01*
X95599121Y-64068741D01*
X95598981Y-64125254D01*
X95319567Y-64125254D01*
X95323002Y-63875867D01*
X95333306Y-63642569D01*
X95350479Y-63425361D01*
X95374521Y-63224242D01*
X95423465Y-62952732D01*
X95487865Y-62717423D01*
X95567721Y-62518316D01*
X95698239Y-62309152D01*
X95856233Y-62164347D01*
X96041705Y-62083899D01*
X96198841Y-62065799D01*
X96411332Y-62097733D01*
G37*
G36*
X97681884Y-65901388D02*
G01*
X97722836Y-65700365D01*
X97895840Y-65607320D01*
X98047271Y-65673754D01*
X98109782Y-65862355D01*
X98110774Y-65901388D01*
X98068852Y-66096710D01*
X98047271Y-66125115D01*
X97895840Y-66192526D01*
X97722836Y-66100408D01*
X97681884Y-65901388D01*
G37*
G36*
X99876161Y-66130000D02*
G01*
X99612379Y-66130000D01*
X99612379Y-63187362D01*
X99614157Y-62981119D01*
X99619489Y-62765757D01*
X99627213Y-62566668D01*
X99634849Y-62412623D01*
X99502500Y-62561001D01*
X99365205Y-62699853D01*
X99022288Y-63012484D01*
X98881605Y-62839560D01*
X99656343Y-62128325D01*
X99876161Y-62128325D01*
X99876161Y-66130000D01*
G37*
G36*
X74832163Y-81938527D02*
G01*
X74901219Y-82013298D01*
X74945885Y-82104782D01*
X74981148Y-82224415D01*
X75001424Y-82332613D01*
X75016410Y-82456644D01*
X75026107Y-82596509D01*
X75029634Y-82698550D01*
X75030809Y-82807627D01*
X75029634Y-82917177D01*
X75026107Y-83019660D01*
X75016410Y-83160132D01*
X75001424Y-83284702D01*
X74981148Y-83393369D01*
X74945885Y-83513521D01*
X74901219Y-83605402D01*
X74832163Y-83680497D01*
X74729902Y-83712302D01*
X74701506Y-83710319D01*
X74609876Y-83669106D01*
X74543606Y-83585357D01*
X74502267Y-83486622D01*
X74493572Y-83457465D01*
X74470852Y-83359371D01*
X74453180Y-83245341D01*
X74442311Y-83138141D01*
X74434948Y-83019874D01*
X74431582Y-82917292D01*
X74430460Y-82807627D01*
X74430530Y-82779370D01*
X74432213Y-82670903D01*
X74436140Y-82569733D01*
X74444204Y-82453532D01*
X74455775Y-82348732D01*
X74474288Y-82238021D01*
X74502267Y-82129609D01*
X74516553Y-82089801D01*
X74561784Y-82002789D01*
X74632919Y-81933180D01*
X74729902Y-81906859D01*
X74832163Y-81938527D01*
G37*
G36*
X77532153Y-80390084D02*
G01*
X77628221Y-80409618D01*
X77711618Y-80462212D01*
X77728906Y-80481606D01*
X77773206Y-80571330D01*
X77785380Y-80670795D01*
X77776840Y-80759401D01*
X77743210Y-80852374D01*
X77677424Y-80934577D01*
X77594258Y-80989365D01*
X77493199Y-81021411D01*
X77385799Y-81030809D01*
X77349841Y-81029565D01*
X77249111Y-81008337D01*
X77163538Y-80951186D01*
X77138636Y-80919146D01*
X77100569Y-80827423D01*
X77090265Y-80729902D01*
X77094496Y-80665815D01*
X77121435Y-80569003D01*
X77178681Y-80482728D01*
X77213617Y-80450854D01*
X77300270Y-80404418D01*
X77401919Y-80388939D01*
X77498150Y-80388939D01*
X77532153Y-80390084D01*
G37*
G36*
X77431926Y-79025503D02*
G01*
X77525878Y-79055141D01*
X77595359Y-79131577D01*
X77632568Y-79222687D01*
X77651590Y-79326601D01*
X77656420Y-79426133D01*
X77652687Y-79517725D01*
X77637525Y-79615040D01*
X77596702Y-79719225D01*
X77522056Y-79792498D01*
X77417550Y-79816922D01*
X77410632Y-79816829D01*
X77311622Y-79789901D01*
X77238764Y-79721179D01*
X77200385Y-79644735D01*
X77177936Y-79547049D01*
X77171353Y-79439811D01*
X77171415Y-79427593D01*
X77177507Y-79325360D01*
X77195968Y-79228083D01*
X77234368Y-79134019D01*
X77242525Y-79120828D01*
X77317694Y-79049022D01*
X77417550Y-79025087D01*
X77431926Y-79025503D01*
G37*
G36*
X75033618Y-79045450D02*
G01*
X75117784Y-79099223D01*
X75175401Y-79182379D01*
X75208312Y-79261666D01*
X75234098Y-79365827D01*
X75247028Y-79471714D01*
X75250628Y-79574633D01*
X74677634Y-79574633D01*
X74687915Y-79448466D01*
X74705813Y-79339122D01*
X74738898Y-79226098D01*
X74783885Y-79139358D01*
X74866862Y-79062081D01*
X74973168Y-79036322D01*
X75033618Y-79045450D01*
G37*
G36*
X79736758Y-79045450D02*
G01*
X79820925Y-79099223D01*
X79878541Y-79182379D01*
X79911453Y-79261666D01*
X79937238Y-79365827D01*
X79950168Y-79471714D01*
X79953768Y-79574633D01*
X79380774Y-79574633D01*
X79391055Y-79448466D01*
X79408954Y-79339122D01*
X79442039Y-79226098D01*
X79487025Y-79139358D01*
X79570003Y-79062081D01*
X79676308Y-79036322D01*
X79736758Y-79045450D01*
G37*
G36*
X80880433Y-79060512D02*
G01*
X80965147Y-79116964D01*
X81024528Y-79200942D01*
X81060432Y-79292014D01*
X81083433Y-79390485D01*
X81096897Y-79488842D01*
X81104591Y-79600080D01*
X81106594Y-79702616D01*
X81106594Y-79788590D01*
X81106264Y-79823709D01*
X81101312Y-79922588D01*
X81088025Y-80025660D01*
X81062937Y-80127258D01*
X81022086Y-80220900D01*
X80968832Y-80291740D01*
X80880034Y-80350129D01*
X80780774Y-80367445D01*
X80680675Y-80347589D01*
X80601355Y-80288021D01*
X80547278Y-80199406D01*
X80518918Y-80118149D01*
X80497523Y-80021838D01*
X80483094Y-79910474D01*
X80476271Y-79803037D01*
X80474494Y-79705059D01*
X80475585Y-79626832D01*
X80481315Y-79518394D01*
X80494208Y-79405384D01*
X80513786Y-79306912D01*
X80544347Y-79212177D01*
X80597136Y-79122274D01*
X80675590Y-79061840D01*
X80775401Y-79041695D01*
X80880433Y-79060512D01*
G37*
G36*
X82709764Y-79058705D02*
G01*
X82789084Y-79117061D01*
X82843161Y-79203872D01*
X82867896Y-79271175D01*
X82892916Y-79378810D01*
X82907345Y-79489770D01*
X82914168Y-79597343D01*
X82915945Y-79695778D01*
X82914108Y-79797987D01*
X82907056Y-79909179D01*
X82894714Y-80007868D01*
X82873630Y-80107205D01*
X82840718Y-80199895D01*
X82798586Y-80271275D01*
X82717528Y-80340105D01*
X82615038Y-80363049D01*
X82594662Y-80362431D01*
X82485989Y-80332779D01*
X82400603Y-80258647D01*
X82347237Y-80162894D01*
X82316188Y-80064052D01*
X82295488Y-79945441D01*
X82286755Y-79843511D01*
X82283845Y-79730460D01*
X82283845Y-79695778D01*
X82285043Y-79611407D01*
X82291334Y-79496357D01*
X82303018Y-79395115D01*
X82323464Y-79294449D01*
X82360537Y-79192637D01*
X82365453Y-79183201D01*
X82424797Y-79105310D01*
X82511452Y-79054232D01*
X82609665Y-79039253D01*
X82709764Y-79058705D01*
G37*
G36*
X91870743Y-79045450D02*
G01*
X91954909Y-79099223D01*
X92012526Y-79182379D01*
X92045437Y-79261666D01*
X92071223Y-79365827D01*
X92084153Y-79471714D01*
X92087752Y-79574633D01*
X91514759Y-79574633D01*
X91525040Y-79448466D01*
X91542938Y-79339122D01*
X91576023Y-79226098D01*
X91621010Y-79139358D01*
X91703987Y-79062081D01*
X91810293Y-79036322D01*
X91870743Y-79045450D01*
G37*
G36*
X93586304Y-79045450D02*
G01*
X93670471Y-79099223D01*
X93728087Y-79182379D01*
X93760999Y-79261666D01*
X93786785Y-79365827D01*
X93799715Y-79471714D01*
X93803314Y-79574633D01*
X93230321Y-79574633D01*
X93240602Y-79448466D01*
X93258500Y-79339122D01*
X93291585Y-79226098D01*
X93336572Y-79139358D01*
X93419549Y-79062081D01*
X93525854Y-79036322D01*
X93586304Y-79045450D01*
G37*
G36*
X96102616Y-79831577D02*
G01*
X96102541Y-79848067D01*
X96097762Y-79956904D01*
X96085550Y-80054193D01*
X96062492Y-80151241D01*
X96024947Y-80242393D01*
X95982235Y-80305866D01*
X95903627Y-80367071D01*
X95807571Y-80387473D01*
X95728751Y-80372326D01*
X95650767Y-80308339D01*
X95622903Y-80256364D01*
X95598755Y-80155912D01*
X95593126Y-80058234D01*
X95600004Y-79962896D01*
X95627091Y-79865053D01*
X95680076Y-79781751D01*
X95751100Y-79726643D01*
X95843942Y-79691622D01*
X95947278Y-79677215D01*
X96102616Y-79668422D01*
X96102616Y-79831577D01*
G37*
G36*
X98278339Y-79060512D02*
G01*
X98363053Y-79116964D01*
X98422435Y-79200942D01*
X98458339Y-79292014D01*
X98481339Y-79390485D01*
X98494803Y-79488842D01*
X98502497Y-79600080D01*
X98504501Y-79702616D01*
X98504501Y-79788590D01*
X98504170Y-79823709D01*
X98499219Y-79922588D01*
X98485932Y-80025660D01*
X98460844Y-80127258D01*
X98419993Y-80220900D01*
X98366738Y-80291740D01*
X98277941Y-80350129D01*
X98178681Y-80367445D01*
X98078581Y-80347589D01*
X97999261Y-80288021D01*
X97945184Y-80199406D01*
X97916824Y-80118149D01*
X97895429Y-80021838D01*
X97881001Y-79910474D01*
X97874177Y-79803037D01*
X97872400Y-79705059D01*
X97873492Y-79626832D01*
X97879222Y-79518394D01*
X97892115Y-79405384D01*
X97911693Y-79306912D01*
X97942254Y-79212177D01*
X97995042Y-79122274D01*
X98073496Y-79061840D01*
X98173307Y-79041695D01*
X98278339Y-79060512D01*
G37*
G36*
X102321047Y-79060512D02*
G01*
X102405761Y-79116964D01*
X102465143Y-79200942D01*
X102501046Y-79292014D01*
X102524047Y-79390485D01*
X102537511Y-79488842D01*
X102545205Y-79600080D01*
X102547208Y-79702616D01*
X102547208Y-79788590D01*
X102546878Y-79823709D01*
X102541926Y-79922588D01*
X102528639Y-80025660D01*
X102503551Y-80127258D01*
X102462700Y-80220900D01*
X102409446Y-80291740D01*
X102320648Y-80350129D01*
X102221388Y-80367445D01*
X102121289Y-80347589D01*
X102041969Y-80288021D01*
X101987892Y-80199406D01*
X101959532Y-80118149D01*
X101938137Y-80021838D01*
X101923708Y-79910474D01*
X101916885Y-79803037D01*
X101915108Y-79705059D01*
X101916199Y-79626832D01*
X101921929Y-79518394D01*
X101934822Y-79405384D01*
X101954400Y-79306912D01*
X101984961Y-79212177D01*
X102037750Y-79122274D01*
X102116204Y-79061840D01*
X102216015Y-79041695D01*
X102321047Y-79060512D01*
G37*
G36*
X104227477Y-79045450D02*
G01*
X104311643Y-79099223D01*
X104369260Y-79182379D01*
X104402172Y-79261666D01*
X104427957Y-79365827D01*
X104440887Y-79471714D01*
X104444487Y-79574633D01*
X103871493Y-79574633D01*
X103881774Y-79448466D01*
X103899672Y-79339122D01*
X103932757Y-79226098D01*
X103977744Y-79139358D01*
X104060721Y-79062081D01*
X104167027Y-79036322D01*
X104227477Y-79045450D01*
G37*
G36*
X105426831Y-79831577D02*
G01*
X105426755Y-79848067D01*
X105421977Y-79956904D01*
X105409765Y-80054193D01*
X105386707Y-80151241D01*
X105349162Y-80242393D01*
X105306450Y-80305866D01*
X105227842Y-80367071D01*
X105131786Y-80387473D01*
X105052966Y-80372326D01*
X104974982Y-80308339D01*
X104947118Y-80256364D01*
X104922970Y-80155912D01*
X104917341Y-80058234D01*
X104924219Y-79962896D01*
X104951306Y-79865053D01*
X105004291Y-79781751D01*
X105075315Y-79726643D01*
X105168157Y-79691622D01*
X105271493Y-79677215D01*
X105426831Y-79668422D01*
X105426831Y-79831577D01*
G37*
G36*
X108930251Y-79831577D02*
G01*
X108930175Y-79848067D01*
X108925396Y-79956904D01*
X108913185Y-80054193D01*
X108890127Y-80151241D01*
X108852581Y-80242393D01*
X108809870Y-80305866D01*
X108731261Y-80367071D01*
X108635205Y-80387473D01*
X108556386Y-80372326D01*
X108478401Y-80308339D01*
X108450538Y-80256364D01*
X108426389Y-80155912D01*
X108420760Y-80058234D01*
X108427638Y-79962896D01*
X108454725Y-79865053D01*
X108507711Y-79781751D01*
X108578734Y-79726643D01*
X108671577Y-79691622D01*
X108774912Y-79677215D01*
X108930251Y-79668422D01*
X108930251Y-79831577D01*
G37*
G36*
X111247993Y-79045450D02*
G01*
X111332160Y-79099223D01*
X111389776Y-79182379D01*
X111422688Y-79261666D01*
X111448474Y-79365827D01*
X111461403Y-79471714D01*
X111465003Y-79574633D01*
X110892009Y-79574633D01*
X110902290Y-79448466D01*
X110920189Y-79339122D01*
X110953274Y-79226098D01*
X110998261Y-79139358D01*
X111081238Y-79062081D01*
X111187543Y-79036322D01*
X111247993Y-79045450D01*
G37*
G36*
X113374151Y-79042335D02*
G01*
X113479137Y-79073041D01*
X113561626Y-79149806D01*
X113613182Y-79248960D01*
X113643178Y-79351313D01*
X113663175Y-79474137D01*
X113671612Y-79579688D01*
X113674424Y-79696755D01*
X113674111Y-79737417D01*
X113669424Y-79851658D01*
X113659113Y-79954281D01*
X113636616Y-80073041D01*
X113604120Y-80171146D01*
X113549440Y-80264734D01*
X113463201Y-80334440D01*
X113354466Y-80357676D01*
X113252178Y-80337993D01*
X113170324Y-80278944D01*
X113113642Y-80191102D01*
X113083759Y-80110345D01*
X113061216Y-80014255D01*
X113046012Y-79902831D01*
X113038822Y-79795120D01*
X113036950Y-79696755D01*
X113038118Y-79617597D01*
X113044249Y-79508392D01*
X113058043Y-79395441D01*
X113078990Y-79298059D01*
X113111688Y-79205826D01*
X113167721Y-79119273D01*
X113250184Y-79061090D01*
X113354466Y-79041695D01*
X113374151Y-79042335D01*
G37*
G36*
X73659897Y-78573615D02*
G01*
X73757790Y-78590292D01*
X73855701Y-78635339D01*
X73938713Y-78708108D01*
X73999127Y-78794521D01*
X74006821Y-78808549D01*
X74047854Y-78900987D01*
X74080094Y-79007610D01*
X74100244Y-79107299D01*
X74114288Y-79216839D01*
X74122226Y-79336229D01*
X74124180Y-79438834D01*
X74124060Y-79465713D01*
X74121198Y-79569204D01*
X74112254Y-79689507D01*
X74097346Y-79799746D01*
X74076476Y-79899919D01*
X74043560Y-80006840D01*
X74002058Y-80099267D01*
X73977941Y-80139860D01*
X73912184Y-80219051D01*
X73820776Y-80282935D01*
X73726569Y-80315543D01*
X73619085Y-80326413D01*
X73404640Y-80326413D01*
X73404640Y-78572749D01*
X73629832Y-78572749D01*
X73659897Y-78573615D01*
G37*
G36*
X99908065Y-78639822D02*
G01*
X99925323Y-78740908D01*
X99945533Y-78839462D01*
X100122854Y-79574633D01*
X99692986Y-79574633D01*
X99864445Y-78839462D01*
X99870818Y-78810153D01*
X99889638Y-78707571D01*
X99903035Y-78604989D01*
X99908065Y-78639822D01*
G37*
G36*
X84107362Y-75775484D02*
G01*
X84085380Y-76187766D01*
X84082888Y-76230744D01*
X84074271Y-76334814D01*
X84061146Y-76433574D01*
X84037997Y-76535080D01*
X84018763Y-76584020D01*
X83941277Y-76646943D01*
X83932471Y-76646602D01*
X83848608Y-76589381D01*
X83815063Y-76496736D01*
X83801645Y-76398642D01*
X83798150Y-76298164D01*
X83800056Y-76203946D01*
X83807099Y-76105441D01*
X83823779Y-75996858D01*
X83852372Y-75900048D01*
X83855807Y-75891724D01*
X83913617Y-75802926D01*
X84008199Y-75764738D01*
X84107362Y-75775484D01*
G37*
G36*
X78331873Y-75685450D02*
G01*
X78416040Y-75739223D01*
X78473656Y-75822379D01*
X78506568Y-75901666D01*
X78532354Y-76005827D01*
X78545283Y-76111714D01*
X78548883Y-76214633D01*
X77975889Y-76214633D01*
X77986170Y-76088466D01*
X78004069Y-75979122D01*
X78037154Y-75866098D01*
X78082141Y-75779358D01*
X78165118Y-75702081D01*
X78271423Y-75676322D01*
X78331873Y-75685450D01*
G37*
G36*
X81055303Y-76471577D02*
G01*
X81055227Y-76488067D01*
X81050449Y-76596904D01*
X81038237Y-76694193D01*
X81015179Y-76791241D01*
X80977634Y-76882393D01*
X80934922Y-76945866D01*
X80856314Y-77007071D01*
X80760258Y-77027473D01*
X80681438Y-77012326D01*
X80603454Y-76948339D01*
X80575590Y-76896364D01*
X80551442Y-76795912D01*
X80545812Y-76698234D01*
X80552690Y-76602896D01*
X80579778Y-76505053D01*
X80632763Y-76421751D01*
X80703787Y-76366643D01*
X80796629Y-76331622D01*
X80899965Y-76317215D01*
X81055303Y-76308422D01*
X81055303Y-76471577D01*
G37*
G36*
X82127489Y-75698705D02*
G01*
X82206809Y-75757061D01*
X82260886Y-75843872D01*
X82285621Y-75911175D01*
X82310641Y-76018810D01*
X82325070Y-76129770D01*
X82331893Y-76237343D01*
X82333670Y-76335778D01*
X82331834Y-76437987D01*
X82324781Y-76549179D01*
X82312439Y-76647868D01*
X82291355Y-76747205D01*
X82258443Y-76839895D01*
X82216311Y-76911275D01*
X82135253Y-76980105D01*
X82032763Y-77003049D01*
X82012387Y-77002431D01*
X81903714Y-76972779D01*
X81818328Y-76898647D01*
X81764962Y-76802894D01*
X81733913Y-76704052D01*
X81713213Y-76585441D01*
X81704481Y-76483511D01*
X81701570Y-76370460D01*
X81701570Y-76335778D01*
X81702768Y-76251407D01*
X81709059Y-76136357D01*
X81720743Y-76035115D01*
X81741189Y-75934449D01*
X81778262Y-75832637D01*
X81783178Y-75823201D01*
X81842522Y-75745310D01*
X81929177Y-75694232D01*
X82027390Y-75679253D01*
X82127489Y-75698705D01*
G37*
G36*
X89940247Y-75685450D02*
G01*
X90024414Y-75739223D01*
X90082030Y-75822379D01*
X90114942Y-75901666D01*
X90140728Y-76005827D01*
X90153657Y-76111714D01*
X90157257Y-76214633D01*
X89584263Y-76214633D01*
X89594544Y-76088466D01*
X89612443Y-75979122D01*
X89645528Y-75866098D01*
X89690515Y-75779358D01*
X89773492Y-75702081D01*
X89879797Y-75676322D01*
X89940247Y-75685450D01*
G37*
G36*
X95218114Y-75682335D02*
G01*
X95323101Y-75713041D01*
X95405590Y-75789806D01*
X95457146Y-75888960D01*
X95487142Y-75991313D01*
X95507139Y-76114137D01*
X95515575Y-76219688D01*
X95518387Y-76336755D01*
X95518075Y-76377417D01*
X95513388Y-76491658D01*
X95503077Y-76594281D01*
X95480580Y-76713041D01*
X95448084Y-76811146D01*
X95393404Y-76904734D01*
X95307165Y-76974440D01*
X95198429Y-76997676D01*
X95096142Y-76977993D01*
X95014287Y-76918944D01*
X94957606Y-76831102D01*
X94927723Y-76750345D01*
X94905180Y-76654255D01*
X94889976Y-76542831D01*
X94882786Y-76435120D01*
X94880914Y-76336755D01*
X94882081Y-76257597D01*
X94888212Y-76148392D01*
X94902007Y-76035441D01*
X94922954Y-75938059D01*
X94955652Y-75845826D01*
X95011685Y-75759273D01*
X95094148Y-75701090D01*
X95198429Y-75681695D01*
X95218114Y-75682335D01*
G37*
G36*
X101601378Y-75685450D02*
G01*
X101685544Y-75739223D01*
X101743161Y-75822379D01*
X101776072Y-75901666D01*
X101801858Y-76005827D01*
X101814788Y-76111714D01*
X101818387Y-76214633D01*
X101245394Y-76214633D01*
X101255675Y-76088466D01*
X101273573Y-75979122D01*
X101306658Y-75866098D01*
X101351645Y-75779358D01*
X101434622Y-75702081D01*
X101540928Y-75676322D01*
X101601378Y-75685450D01*
G37*
G36*
X107574024Y-73670084D02*
G01*
X107670091Y-73689618D01*
X107753489Y-73742212D01*
X107770776Y-73761606D01*
X107815077Y-73851330D01*
X107827250Y-73950795D01*
X107818711Y-74039401D01*
X107785080Y-74132374D01*
X107719295Y-74214577D01*
X107636129Y-74269365D01*
X107535069Y-74301411D01*
X107427669Y-74310809D01*
X107391712Y-74309565D01*
X107290981Y-74288337D01*
X107205408Y-74231186D01*
X107180506Y-74199146D01*
X107142439Y-74107423D01*
X107132135Y-74009902D01*
X107136366Y-73945815D01*
X107163305Y-73849003D01*
X107220551Y-73762728D01*
X107255487Y-73730854D01*
X107342140Y-73684418D01*
X107443789Y-73668939D01*
X107540020Y-73668939D01*
X107574024Y-73670084D01*
G37*
G36*
X107473796Y-72305503D02*
G01*
X107567749Y-72335141D01*
X107637229Y-72411577D01*
X107674438Y-72502687D01*
X107693460Y-72606601D01*
X107698290Y-72706133D01*
X107694557Y-72797725D01*
X107679395Y-72895040D01*
X107638572Y-72999225D01*
X107563926Y-73072498D01*
X107459420Y-73096922D01*
X107452502Y-73096829D01*
X107353492Y-73069901D01*
X107280635Y-73001179D01*
X107242255Y-72924735D01*
X107219807Y-72827049D01*
X107213224Y-72719811D01*
X107213285Y-72707593D01*
X107219377Y-72605360D01*
X107237839Y-72508083D01*
X107276238Y-72414019D01*
X107284395Y-72400828D01*
X107359565Y-72329022D01*
X107459420Y-72305087D01*
X107473796Y-72305503D01*
G37*
G36*
X79173656Y-73111577D02*
G01*
X79173580Y-73128067D01*
X79168802Y-73236904D01*
X79156590Y-73334193D01*
X79133532Y-73431241D01*
X79095987Y-73522393D01*
X79053275Y-73585866D01*
X78974667Y-73647071D01*
X78878611Y-73667473D01*
X78799791Y-73652326D01*
X78721807Y-73588339D01*
X78693943Y-73536364D01*
X78669795Y-73435912D01*
X78664166Y-73338234D01*
X78671044Y-73242896D01*
X78698131Y-73145053D01*
X78751116Y-73061751D01*
X78822140Y-73006643D01*
X78914982Y-72971622D01*
X79018318Y-72957215D01*
X79173656Y-72948422D01*
X79173656Y-73111577D01*
G37*
G36*
X85572290Y-72338705D02*
G01*
X85651610Y-72397061D01*
X85705687Y-72483872D01*
X85730422Y-72551175D01*
X85755442Y-72658810D01*
X85769871Y-72769770D01*
X85776694Y-72877343D01*
X85778471Y-72975778D01*
X85776635Y-73077987D01*
X85769582Y-73189179D01*
X85757240Y-73287868D01*
X85736156Y-73387205D01*
X85703244Y-73479895D01*
X85661113Y-73551275D01*
X85580054Y-73620105D01*
X85477564Y-73643049D01*
X85457188Y-73642431D01*
X85348515Y-73612779D01*
X85263129Y-73538647D01*
X85209763Y-73442894D01*
X85178714Y-73344052D01*
X85158014Y-73225441D01*
X85149282Y-73123511D01*
X85146371Y-73010460D01*
X85146371Y-72975778D01*
X85147569Y-72891407D01*
X85153860Y-72776357D01*
X85165544Y-72675115D01*
X85185990Y-72574449D01*
X85223063Y-72472637D01*
X85227979Y-72463201D01*
X85287323Y-72385310D01*
X85373978Y-72334232D01*
X85472191Y-72319253D01*
X85572290Y-72338705D01*
G37*
G36*
X86638352Y-72322335D02*
G01*
X86743338Y-72353041D01*
X86825827Y-72429806D01*
X86877383Y-72528960D01*
X86907379Y-72631313D01*
X86927376Y-72754137D01*
X86935813Y-72859688D01*
X86938625Y-72976755D01*
X86938312Y-73017417D01*
X86933625Y-73131658D01*
X86923314Y-73234281D01*
X86900817Y-73353041D01*
X86868321Y-73451146D01*
X86813641Y-73544734D01*
X86727402Y-73614440D01*
X86618667Y-73637676D01*
X86516379Y-73617993D01*
X86434525Y-73558944D01*
X86377843Y-73471102D01*
X86347960Y-73390345D01*
X86325417Y-73294255D01*
X86310213Y-73182831D01*
X86303023Y-73075120D01*
X86301151Y-72976755D01*
X86302319Y-72897597D01*
X86308450Y-72788392D01*
X86322244Y-72675441D01*
X86343191Y-72578059D01*
X86375889Y-72485826D01*
X86431922Y-72399273D01*
X86514385Y-72341090D01*
X86618667Y-72321695D01*
X86638352Y-72322335D01*
G37*
G36*
X87867732Y-72340512D02*
G01*
X87952446Y-72396964D01*
X88011828Y-72480942D01*
X88047732Y-72572014D01*
X88070732Y-72670485D01*
X88084196Y-72768842D01*
X88091890Y-72880080D01*
X88093893Y-72982616D01*
X88093893Y-73068590D01*
X88093563Y-73103709D01*
X88088612Y-73202588D01*
X88075325Y-73305660D01*
X88050236Y-73407258D01*
X88009385Y-73500900D01*
X87956131Y-73571740D01*
X87867333Y-73630129D01*
X87768073Y-73647445D01*
X87667974Y-73627589D01*
X87588654Y-73568021D01*
X87534577Y-73479406D01*
X87506217Y-73398149D01*
X87484822Y-73301838D01*
X87470393Y-73190474D01*
X87463570Y-73083037D01*
X87461793Y-72985059D01*
X87462884Y-72906832D01*
X87468615Y-72798394D01*
X87481507Y-72685384D01*
X87501086Y-72586912D01*
X87531646Y-72492177D01*
X87584435Y-72402274D01*
X87662889Y-72341840D01*
X87762700Y-72321695D01*
X87867732Y-72340512D01*
G37*
G36*
X89565090Y-72325450D02*
G01*
X89649257Y-72379223D01*
X89706873Y-72462379D01*
X89739785Y-72541666D01*
X89765571Y-72645827D01*
X89778500Y-72751714D01*
X89782100Y-72854633D01*
X89209106Y-72854633D01*
X89219387Y-72728466D01*
X89237286Y-72619122D01*
X89270371Y-72506098D01*
X89315358Y-72419358D01*
X89398335Y-72342081D01*
X89504640Y-72316322D01*
X89565090Y-72325450D01*
G37*
G36*
X90708765Y-72340512D02*
G01*
X90793479Y-72396964D01*
X90852861Y-72480942D01*
X90888764Y-72572014D01*
X90911765Y-72670485D01*
X90925229Y-72768842D01*
X90932923Y-72880080D01*
X90934926Y-72982616D01*
X90934926Y-73068590D01*
X90934596Y-73103709D01*
X90929644Y-73202588D01*
X90916358Y-73305660D01*
X90891269Y-73407258D01*
X90850418Y-73500900D01*
X90797164Y-73571740D01*
X90708366Y-73630129D01*
X90609106Y-73647445D01*
X90509007Y-73627589D01*
X90429687Y-73568021D01*
X90375610Y-73479406D01*
X90347250Y-73398149D01*
X90325855Y-73301838D01*
X90311426Y-73190474D01*
X90304603Y-73083037D01*
X90302826Y-72985059D01*
X90303917Y-72906832D01*
X90309647Y-72798394D01*
X90322540Y-72685384D01*
X90342118Y-72586912D01*
X90372679Y-72492177D01*
X90425468Y-72402274D01*
X90503922Y-72341840D01*
X90603733Y-72321695D01*
X90708765Y-72340512D01*
G37*
G36*
X94443719Y-73111577D02*
G01*
X94443643Y-73128067D01*
X94438865Y-73236904D01*
X94426653Y-73334193D01*
X94403595Y-73431241D01*
X94366050Y-73522393D01*
X94323338Y-73585866D01*
X94244730Y-73647071D01*
X94148674Y-73667473D01*
X94069854Y-73652326D01*
X93991870Y-73588339D01*
X93964006Y-73536364D01*
X93939857Y-73435912D01*
X93934228Y-73338234D01*
X93941106Y-73242896D01*
X93968193Y-73145053D01*
X94021179Y-73061751D01*
X94092202Y-73006643D01*
X94185045Y-72971622D01*
X94288381Y-72957215D01*
X94443719Y-72948422D01*
X94443719Y-73111577D01*
G37*
G36*
X99153087Y-72325450D02*
G01*
X99237254Y-72379223D01*
X99294870Y-72462379D01*
X99327782Y-72541666D01*
X99353568Y-72645827D01*
X99366497Y-72751714D01*
X99370097Y-72854633D01*
X98797103Y-72854633D01*
X98807385Y-72728466D01*
X98825283Y-72619122D01*
X98858368Y-72506098D01*
X98903355Y-72419358D01*
X98986332Y-72342081D01*
X99092637Y-72316322D01*
X99153087Y-72325450D01*
G37*
G36*
X101745969Y-72325450D02*
G01*
X101830136Y-72379223D01*
X101887752Y-72462379D01*
X101920664Y-72541666D01*
X101946450Y-72645827D01*
X101959380Y-72751714D01*
X101962979Y-72854633D01*
X101389986Y-72854633D01*
X101400267Y-72728466D01*
X101418165Y-72619122D01*
X101451250Y-72506098D01*
X101496237Y-72419358D01*
X101579214Y-72342081D01*
X101685519Y-72316322D01*
X101745969Y-72325450D01*
G37*
G36*
X102972679Y-73111577D02*
G01*
X102972603Y-73128067D01*
X102967825Y-73236904D01*
X102955613Y-73334193D01*
X102932555Y-73431241D01*
X102895010Y-73522393D01*
X102852298Y-73585866D01*
X102773690Y-73647071D01*
X102677634Y-73667473D01*
X102598814Y-73652326D01*
X102520830Y-73588339D01*
X102492966Y-73536364D01*
X102468818Y-73435912D01*
X102463189Y-73338234D01*
X102470067Y-73242896D01*
X102497154Y-73145053D01*
X102550139Y-73061751D01*
X102621163Y-73006643D01*
X102714005Y-72971622D01*
X102817341Y-72957215D01*
X102972679Y-72948422D01*
X102972679Y-73111577D01*
G37*
G36*
X115694273Y-84063485D02*
G01*
X72929383Y-84063485D01*
X72929383Y-83703021D01*
X73151605Y-83703021D01*
X73151605Y-83810000D01*
X74051395Y-83810000D01*
X74051395Y-83686413D01*
X73305478Y-83686413D01*
X73305478Y-83675666D01*
X73675261Y-83130027D01*
X73717562Y-83068103D01*
X73777058Y-82976863D01*
X73831949Y-82885750D01*
X73873326Y-82807627D01*
X74290753Y-82807627D01*
X74290854Y-82841643D01*
X74292371Y-82940098D01*
X74297226Y-83062983D01*
X74305316Y-83176281D01*
X74316643Y-83279993D01*
X74335352Y-83396151D01*
X74359118Y-83497330D01*
X74394312Y-83598974D01*
X74400911Y-83613880D01*
X74454152Y-83704975D01*
X74530111Y-83780690D01*
X74622191Y-83826120D01*
X74730390Y-83841263D01*
X74770557Y-83838957D01*
X74868308Y-83810266D01*
X74952442Y-83748786D01*
X74987858Y-83703021D01*
X75390823Y-83703021D01*
X75390823Y-83810000D01*
X76290614Y-83810000D01*
X76290614Y-83686413D01*
X75544696Y-83686413D01*
X75544696Y-83675666D01*
X75586408Y-83614117D01*
X76543649Y-83614117D01*
X76543649Y-83765547D01*
X76583644Y-83787360D01*
X76677372Y-83819894D01*
X76777390Y-83836530D01*
X76878750Y-83841263D01*
X76893677Y-83841087D01*
X76992903Y-83830027D01*
X77095027Y-83796322D01*
X77185122Y-83740146D01*
X77263189Y-83661500D01*
X77312327Y-83589647D01*
X77356806Y-83495052D01*
X77387447Y-83388864D01*
X77402697Y-83288617D01*
X77407780Y-83179853D01*
X77407652Y-83163690D01*
X77399537Y-83056663D01*
X77374808Y-82947456D01*
X77333592Y-82852232D01*
X77275889Y-82770990D01*
X77213699Y-82712937D01*
X77120551Y-82659249D01*
X77025296Y-82631314D01*
X76918318Y-82622002D01*
X76882089Y-82622670D01*
X76778492Y-82631646D01*
X76679448Y-82649357D01*
X76728785Y-81938122D01*
X77297871Y-81938122D01*
X77297871Y-81809162D01*
X76617899Y-81809162D01*
X76558792Y-82694787D01*
X76626203Y-82781249D01*
X76706952Y-82761413D01*
X76804806Y-82745986D01*
X76910502Y-82740216D01*
X76998872Y-82748987D01*
X77091661Y-82783531D01*
X77173796Y-82851102D01*
X77201519Y-82888497D01*
X77242868Y-82979745D01*
X77264013Y-83080629D01*
X77270027Y-83185226D01*
X77264885Y-83285217D01*
X77246414Y-83388959D01*
X77214510Y-83481466D01*
X77162561Y-83572107D01*
X77148894Y-83590030D01*
X77071748Y-83662301D01*
X76979909Y-83705664D01*
X76873377Y-83720118D01*
X76829116Y-83718462D01*
X76722269Y-83699829D01*
X76630757Y-83665358D01*
X76543649Y-83614117D01*
X75586408Y-83614117D01*
X75914480Y-83130027D01*
X75956781Y-83068103D01*
X76016277Y-82976863D01*
X76071167Y-82885750D01*
X76117201Y-82798834D01*
X76146022Y-82734751D01*
X76182841Y-82637367D01*
X76211967Y-82538471D01*
X76229742Y-82453664D01*
X76241690Y-82356298D01*
X76245673Y-82254661D01*
X76242846Y-82188339D01*
X76226566Y-82091451D01*
X76190953Y-81996027D01*
X76129902Y-81906859D01*
X76091622Y-81869708D01*
X76001538Y-81814295D01*
X75905046Y-81785959D01*
X75807013Y-81777899D01*
X75799833Y-81777929D01*
X75698325Y-81785471D01*
X75602826Y-81808185D01*
X75591743Y-81812078D01*
X75500885Y-81855309D01*
X75418178Y-81910767D01*
X75490963Y-82013349D01*
X75544383Y-81975499D01*
X75633112Y-81929818D01*
X75699670Y-81910450D01*
X75798709Y-81901486D01*
X75850784Y-81904869D01*
X75948885Y-81935411D01*
X76026831Y-81997718D01*
X76067446Y-82056790D01*
X76100923Y-82151781D01*
X76110851Y-82255150D01*
X76108601Y-82332893D01*
X76098602Y-82432224D01*
X76077793Y-82538059D01*
X76046859Y-82637634D01*
X76007200Y-82730141D01*
X75959926Y-82822605D01*
X75910067Y-82910418D01*
X75851586Y-83006130D01*
X75796266Y-83091926D01*
X75390823Y-83703021D01*
X74987858Y-83703021D01*
X75014889Y-83668092D01*
X75060118Y-83578946D01*
X75097802Y-83471904D01*
X75123250Y-83369454D01*
X75143283Y-83254958D01*
X75155411Y-83154688D01*
X75164074Y-83046710D01*
X75169272Y-82931023D01*
X75171004Y-82807627D01*
X75169340Y-82681941D01*
X75164349Y-82564514D01*
X75156029Y-82455345D01*
X75144382Y-82354434D01*
X75125143Y-82239910D01*
X75100704Y-82138289D01*
X75064515Y-82033377D01*
X75057741Y-82017659D01*
X75003698Y-81921605D01*
X74927739Y-81841769D01*
X74836636Y-81793866D01*
X74730390Y-81777899D01*
X74651822Y-81786949D01*
X74559086Y-81827173D01*
X74480089Y-81899576D01*
X74414830Y-82004158D01*
X74374902Y-82103711D01*
X74342702Y-82221366D01*
X74318230Y-82357121D01*
X74306209Y-82457680D01*
X74297622Y-82566284D01*
X74292470Y-82682933D01*
X74290753Y-82807627D01*
X73873326Y-82807627D01*
X73877983Y-82798834D01*
X73906803Y-82734751D01*
X73943623Y-82637367D01*
X73972749Y-82538471D01*
X73990523Y-82453664D01*
X74002472Y-82356298D01*
X74006454Y-82254661D01*
X74003628Y-82188339D01*
X73987348Y-82091451D01*
X73951735Y-81996027D01*
X73890683Y-81906859D01*
X73852404Y-81869708D01*
X73762320Y-81814295D01*
X73665827Y-81785959D01*
X73567794Y-81777899D01*
X73560615Y-81777929D01*
X73459106Y-81785471D01*
X73363607Y-81808185D01*
X73352525Y-81812078D01*
X73261666Y-81855309D01*
X73178960Y-81910767D01*
X73251744Y-82013349D01*
X73305165Y-81975499D01*
X73393893Y-81929818D01*
X73460452Y-81910450D01*
X73559490Y-81901486D01*
X73611565Y-81904869D01*
X73709667Y-81935411D01*
X73787613Y-81997718D01*
X73828228Y-82056790D01*
X73861704Y-82151781D01*
X73871632Y-82255150D01*
X73869383Y-82332893D01*
X73859384Y-82432224D01*
X73838574Y-82538059D01*
X73807641Y-82637634D01*
X73767982Y-82730141D01*
X73720708Y-82822605D01*
X73670848Y-82910418D01*
X73612367Y-83006130D01*
X73557048Y-83091926D01*
X73151605Y-83703021D01*
X72929383Y-83703021D01*
X72929383Y-80740648D01*
X76960816Y-80740648D01*
X76961240Y-80764353D01*
X76973630Y-80862289D01*
X77007519Y-80954338D01*
X77069260Y-81035205D01*
X77083182Y-81047627D01*
X77172849Y-81101623D01*
X77273599Y-81129673D01*
X77379937Y-81137787D01*
X77481213Y-81131663D01*
X77585909Y-81109666D01*
X77678821Y-81071671D01*
X77769260Y-81009804D01*
X77782262Y-80996615D01*
X83143091Y-80996615D01*
X83143091Y-81114340D01*
X83163365Y-81121095D01*
X83261304Y-81137787D01*
X83292743Y-81136223D01*
X83390156Y-81106103D01*
X83467934Y-81037648D01*
X83472759Y-81031323D01*
X83526122Y-80940396D01*
X83564190Y-80843424D01*
X83593475Y-80739672D01*
X83908294Y-79446161D01*
X84687683Y-79446161D01*
X84687759Y-79466135D01*
X84691423Y-79582410D01*
X84700582Y-79692571D01*
X84715236Y-79796618D01*
X84735386Y-79894552D01*
X84765840Y-80001081D01*
X84803334Y-80097976D01*
X84853739Y-80195834D01*
X84912205Y-80279953D01*
X84987613Y-80358164D01*
X85033649Y-80393627D01*
X85122345Y-80442313D01*
X85218537Y-80471525D01*
X85322226Y-80481263D01*
X85405421Y-80477416D01*
X85505956Y-80459564D01*
X85529506Y-80450000D01*
X85908897Y-80450000D01*
X86039323Y-80450000D01*
X86039323Y-79626901D01*
X86039634Y-79589438D01*
X86044299Y-79484721D01*
X86056818Y-79377094D01*
X86080456Y-79273268D01*
X86118946Y-79180914D01*
X86169955Y-79112435D01*
X86257321Y-79055992D01*
X86356838Y-79039253D01*
X86453982Y-79058036D01*
X86528785Y-79124738D01*
X86561231Y-79205178D01*
X86577818Y-79308242D01*
X86582030Y-79413433D01*
X86582030Y-80450000D01*
X86710990Y-80450000D01*
X86710990Y-79413921D01*
X86709047Y-79339814D01*
X86697849Y-79233644D01*
X86673356Y-79132451D01*
X86631367Y-79042672D01*
X86626283Y-79035009D01*
X86556194Y-78966766D01*
X86513131Y-78949371D01*
X87096894Y-78949371D01*
X87096894Y-80450000D01*
X87227320Y-80450000D01*
X87860886Y-80450000D01*
X87991311Y-80450000D01*
X87991311Y-79292777D01*
X88288799Y-79292777D01*
X88293878Y-79369545D01*
X88319574Y-79465212D01*
X88346456Y-79517213D01*
X88406524Y-79595638D01*
X88445499Y-79631427D01*
X88528810Y-79694037D01*
X88614619Y-79750976D01*
X88646615Y-79772546D01*
X88726482Y-79833775D01*
X88795359Y-79907292D01*
X88829369Y-79978382D01*
X88842742Y-80075819D01*
X88842484Y-80091676D01*
X88826256Y-80191346D01*
X88776796Y-80280983D01*
X88692667Y-80340824D01*
X88595080Y-80357676D01*
X88518891Y-80351785D01*
X88423133Y-80326901D01*
X88369573Y-80303319D01*
X88288799Y-80244836D01*
X88288799Y-80397732D01*
X88315409Y-80414892D01*
X88407990Y-80454884D01*
X88485713Y-80473818D01*
X88586775Y-80481263D01*
X88695072Y-80470768D01*
X88752628Y-80450000D01*
X89813852Y-80450000D01*
X89948674Y-80450000D01*
X89948674Y-79656210D01*
X90103524Y-79452512D01*
X90576378Y-80450000D01*
X90727320Y-80450000D01*
X90920760Y-80450000D01*
X91051186Y-80450000D01*
X91051186Y-79710921D01*
X91378960Y-79710921D01*
X91380076Y-79777660D01*
X91386898Y-79882654D01*
X91399921Y-79979848D01*
X91423734Y-80086185D01*
X91456478Y-80181291D01*
X91505966Y-80278053D01*
X91514011Y-80290555D01*
X91586062Y-80376284D01*
X91671792Y-80436612D01*
X91771198Y-80471539D01*
X91869399Y-80481263D01*
X91879276Y-80481175D01*
X91985903Y-80468692D01*
X92079631Y-80439010D01*
X92170307Y-80391870D01*
X92170307Y-80265840D01*
X92074699Y-80314269D01*
X91972946Y-80346824D01*
X91874773Y-80357676D01*
X91841600Y-80356220D01*
X91742681Y-80330346D01*
X91661699Y-80272128D01*
X91604152Y-80192079D01*
X91565073Y-80098595D01*
X91539694Y-79999666D01*
X91524490Y-79902145D01*
X91515331Y-79792877D01*
X91512316Y-79692847D01*
X92218178Y-79692847D01*
X92218178Y-79571702D01*
X92216499Y-79498643D01*
X92207683Y-79396267D01*
X92187848Y-79287768D01*
X92157728Y-79191050D01*
X92110711Y-79094940D01*
X92082745Y-79053495D01*
X92020685Y-78990404D01*
X92370586Y-78990404D01*
X92370586Y-79064654D01*
X92560118Y-79064654D01*
X92560118Y-80450000D01*
X92689567Y-80450000D01*
X92689567Y-79710921D01*
X93094521Y-79710921D01*
X93095638Y-79777660D01*
X93102459Y-79882654D01*
X93115482Y-79979848D01*
X93139296Y-80086185D01*
X93172040Y-80181291D01*
X93221528Y-80278053D01*
X93229573Y-80290555D01*
X93301624Y-80376284D01*
X93387353Y-80436612D01*
X93486760Y-80471539D01*
X93584961Y-80481263D01*
X93594838Y-80481175D01*
X93701465Y-80468692D01*
X93795193Y-80439010D01*
X93885868Y-80391870D01*
X93885868Y-80265840D01*
X93790261Y-80314269D01*
X93688508Y-80346824D01*
X93590334Y-80357676D01*
X93557161Y-80356220D01*
X93458243Y-80330346D01*
X93377261Y-80272128D01*
X93319713Y-80192079D01*
X93280635Y-80098595D01*
X93255256Y-79999666D01*
X93240052Y-79902145D01*
X93230893Y-79792877D01*
X93227878Y-79692847D01*
X93933740Y-79692847D01*
X93933740Y-79571702D01*
X93932061Y-79498643D01*
X93923245Y-79396267D01*
X93903410Y-79287768D01*
X93873290Y-79191050D01*
X93826273Y-79094940D01*
X93798307Y-79053495D01*
X93726454Y-78980448D01*
X93665820Y-78949371D01*
X94258094Y-78949371D01*
X94258094Y-80450000D01*
X94388520Y-80450000D01*
X94388520Y-80054815D01*
X95455373Y-80054815D01*
X95455422Y-80058234D01*
X95455718Y-80078811D01*
X95465820Y-80179241D01*
X95493450Y-80276328D01*
X95543789Y-80365491D01*
X95591782Y-80416141D01*
X95677054Y-80464982D01*
X95778262Y-80481263D01*
X95791711Y-80481029D01*
X95891606Y-80462368D01*
X95977824Y-80413847D01*
X96050364Y-80335468D01*
X96102616Y-80242393D01*
X96107990Y-80242393D01*
X96124598Y-80450000D01*
X96231577Y-80450000D01*
X96231577Y-79426622D01*
X96228726Y-79329221D01*
X96218194Y-79229607D01*
X96193250Y-79123721D01*
X96150488Y-79035345D01*
X96082560Y-78968598D01*
X96037111Y-78949371D01*
X96618457Y-78949371D01*
X96618457Y-80450000D01*
X96748883Y-80450000D01*
X96748883Y-79623970D01*
X96749186Y-79586513D01*
X96753737Y-79481882D01*
X96765949Y-79374485D01*
X96789007Y-79271094D01*
X96826552Y-79179448D01*
X96877351Y-79111678D01*
X96967202Y-79055819D01*
X97071772Y-79039253D01*
X97135099Y-79048388D01*
X97222039Y-79110873D01*
X97265616Y-79200399D01*
X97286224Y-79305637D01*
X97291591Y-79413433D01*
X97291591Y-80450000D01*
X97420551Y-80450000D01*
X97420551Y-79702616D01*
X97736113Y-79702616D01*
X97736157Y-79705059D01*
X97737809Y-79796906D01*
X97746715Y-79926933D01*
X97763254Y-80043274D01*
X97787427Y-80145928D01*
X97831532Y-80261508D01*
X97889207Y-80352756D01*
X97960454Y-80419670D01*
X98068596Y-80469096D01*
X98170376Y-80481263D01*
X98177221Y-80481202D01*
X98274057Y-80465875D01*
X98365282Y-80419713D01*
X98386157Y-80403372D01*
X98455602Y-80327273D01*
X98504501Y-80242393D01*
X98516713Y-80242393D01*
X98527948Y-80450000D01*
X98634926Y-80450000D01*
X99352023Y-80450000D01*
X99492219Y-80450000D01*
X99666608Y-79710432D01*
X100154605Y-79710432D01*
X100331437Y-80450000D01*
X100469190Y-80450000D01*
X100098063Y-78949371D01*
X100661165Y-78949371D01*
X100661165Y-80450000D01*
X100791591Y-80450000D01*
X100791591Y-79623970D01*
X100791894Y-79586513D01*
X100796445Y-79481882D01*
X100808657Y-79374485D01*
X100831715Y-79271094D01*
X100869260Y-79179448D01*
X100920058Y-79111678D01*
X101009909Y-79055819D01*
X101114480Y-79039253D01*
X101177806Y-79048388D01*
X101264746Y-79110873D01*
X101308324Y-79200399D01*
X101328932Y-79305637D01*
X101334298Y-79413433D01*
X101334298Y-80450000D01*
X101463258Y-80450000D01*
X101463258Y-79702616D01*
X101778820Y-79702616D01*
X101778864Y-79705059D01*
X101780516Y-79796906D01*
X101789422Y-79926933D01*
X101805962Y-80043274D01*
X101830135Y-80145928D01*
X101874239Y-80261508D01*
X101931915Y-80352756D01*
X102003162Y-80419670D01*
X102111303Y-80469096D01*
X102213084Y-80481263D01*
X102219929Y-80481202D01*
X102316765Y-80465875D01*
X102407990Y-80419713D01*
X102428865Y-80403372D01*
X102498309Y-80327273D01*
X102547208Y-80242393D01*
X102559420Y-80242393D01*
X102570655Y-80450000D01*
X102677634Y-80450000D01*
X102677634Y-78949371D01*
X103068422Y-78949371D01*
X103068422Y-80450000D01*
X103198848Y-80450000D01*
X103198848Y-79710921D01*
X103735694Y-79710921D01*
X103736810Y-79777660D01*
X103743632Y-79882654D01*
X103756655Y-79979848D01*
X103780469Y-80086185D01*
X103813212Y-80181291D01*
X103862700Y-80278053D01*
X103870745Y-80290555D01*
X103942797Y-80376284D01*
X104028526Y-80436612D01*
X104127933Y-80471539D01*
X104226133Y-80481263D01*
X104236010Y-80481175D01*
X104342637Y-80468692D01*
X104436366Y-80439010D01*
X104527041Y-80391870D01*
X104527041Y-80265840D01*
X104431433Y-80314269D01*
X104329681Y-80346824D01*
X104231507Y-80357676D01*
X104198334Y-80356220D01*
X104099415Y-80330346D01*
X104018434Y-80272128D01*
X103960886Y-80192079D01*
X103921807Y-80098595D01*
X103910576Y-80054815D01*
X104779588Y-80054815D01*
X104779637Y-80058234D01*
X104779933Y-80078811D01*
X104790035Y-80179241D01*
X104817665Y-80276328D01*
X104868004Y-80365491D01*
X104915997Y-80416141D01*
X105001269Y-80464982D01*
X105102477Y-80481263D01*
X105115925Y-80481029D01*
X105215821Y-80462368D01*
X105302038Y-80413847D01*
X105374579Y-80335468D01*
X105426831Y-80242393D01*
X105432205Y-80242393D01*
X105448813Y-80450000D01*
X105555792Y-80450000D01*
X106488799Y-80450000D01*
X106617759Y-80450000D01*
X106617759Y-78992358D01*
X106616678Y-78932565D01*
X106612938Y-78827064D01*
X106608730Y-78728746D01*
X106604082Y-78628436D01*
X106615317Y-78628436D01*
X107149720Y-80450000D01*
X107302128Y-80450000D01*
X107833600Y-78631367D01*
X107844836Y-78631367D01*
X107842391Y-78683445D01*
X107837623Y-78791136D01*
X107833415Y-78901157D01*
X107831158Y-79003593D01*
X107831158Y-80450000D01*
X107965491Y-80450000D01*
X107965491Y-80054815D01*
X108283007Y-80054815D01*
X108283056Y-80058234D01*
X108283353Y-80078811D01*
X108293455Y-80179241D01*
X108321085Y-80276328D01*
X108371423Y-80365491D01*
X108419417Y-80416141D01*
X108504688Y-80464982D01*
X108605896Y-80481263D01*
X108619345Y-80481029D01*
X108719240Y-80462368D01*
X108805458Y-80413847D01*
X108877998Y-80335468D01*
X108930251Y-80242393D01*
X108935624Y-80242393D01*
X108952233Y-80450000D01*
X109059211Y-80450000D01*
X109059211Y-79426622D01*
X109056360Y-79329221D01*
X109045828Y-79229607D01*
X109020884Y-79123721D01*
X108978122Y-79035345D01*
X108910195Y-78968598D01*
X108864746Y-78949371D01*
X109446092Y-78949371D01*
X109446092Y-80450000D01*
X109576517Y-80450000D01*
X109576517Y-79652791D01*
X109580143Y-79550018D01*
X109592506Y-79443580D01*
X109613642Y-79344068D01*
X109623358Y-79309988D01*
X109660946Y-79212619D01*
X109715736Y-79125715D01*
X109761950Y-79080939D01*
X109856908Y-79047069D01*
X109860172Y-79047089D01*
X109958513Y-79067585D01*
X109977897Y-78987962D01*
X110069888Y-78987962D01*
X110069888Y-79064654D01*
X110204710Y-79064654D01*
X110204710Y-80132972D01*
X110205611Y-80175148D01*
X110219120Y-80285349D01*
X110255371Y-80382966D01*
X110334403Y-80459494D01*
X110435275Y-80481263D01*
X110491165Y-80478591D01*
X110590614Y-80453907D01*
X110590614Y-80343510D01*
X110581705Y-80346478D01*
X110483635Y-80360118D01*
X110454412Y-80358178D01*
X110367864Y-80304919D01*
X110362015Y-80293623D01*
X110339738Y-80197338D01*
X110335136Y-80096336D01*
X110335136Y-79710921D01*
X110756210Y-79710921D01*
X110757327Y-79777660D01*
X110764148Y-79882654D01*
X110777171Y-79979848D01*
X110800985Y-80086185D01*
X110833729Y-80181291D01*
X110883217Y-80278053D01*
X110891261Y-80290555D01*
X110963313Y-80376284D01*
X111049042Y-80436612D01*
X111148449Y-80471539D01*
X111246650Y-80481263D01*
X111256526Y-80481175D01*
X111363154Y-80468692D01*
X111422178Y-80450000D01*
X111919783Y-80450000D01*
X112050209Y-80450000D01*
X112445394Y-80450000D01*
X112575819Y-80450000D01*
X112575819Y-79696755D01*
X112900662Y-79696755D01*
X112901680Y-79766537D01*
X112907898Y-79875876D01*
X112919769Y-79976509D01*
X112941476Y-80085778D01*
X112971324Y-80182509D01*
X113016434Y-80279518D01*
X113080975Y-80367781D01*
X113158339Y-80430826D01*
X113248525Y-80468654D01*
X113351535Y-80481263D01*
X113455552Y-80468654D01*
X113546807Y-80430826D01*
X113625300Y-80367781D01*
X113691032Y-80279518D01*
X113725369Y-80211967D01*
X113758892Y-80119414D01*
X113784033Y-80014325D01*
X113798583Y-79917174D01*
X113807313Y-79811317D01*
X113810223Y-79696755D01*
X113809171Y-79628788D01*
X113802743Y-79521999D01*
X113790471Y-79423319D01*
X113768031Y-79315608D01*
X113737177Y-79219575D01*
X113690544Y-79122295D01*
X113633840Y-79042734D01*
X113557873Y-78975735D01*
X113499289Y-78949371D01*
X114131646Y-78949371D01*
X114131646Y-80450000D01*
X114262072Y-80450000D01*
X114262072Y-79623970D01*
X114262375Y-79586513D01*
X114266926Y-79481882D01*
X114279138Y-79374485D01*
X114302196Y-79271094D01*
X114339741Y-79179448D01*
X114390540Y-79111678D01*
X114480391Y-79055819D01*
X114584961Y-79039253D01*
X114648288Y-79048388D01*
X114735228Y-79110873D01*
X114778805Y-79200399D01*
X114799413Y-79305637D01*
X114804780Y-79413433D01*
X114804780Y-80450000D01*
X114933740Y-80450000D01*
X115319644Y-80450000D01*
X115450069Y-80450000D01*
X115450069Y-78949371D01*
X115319644Y-78949371D01*
X115319644Y-80450000D01*
X114933740Y-80450000D01*
X114933740Y-79410990D01*
X114931629Y-79333555D01*
X114919470Y-79224096D01*
X114892873Y-79122194D01*
X114847278Y-79035345D01*
X114777561Y-78968598D01*
X114687295Y-78929557D01*
X114587404Y-78918108D01*
X114490317Y-78933740D01*
X114399337Y-78980635D01*
X114383211Y-78992722D01*
X114313401Y-79066810D01*
X114264515Y-79156489D01*
X114252302Y-79156489D01*
X114241556Y-78949371D01*
X114131646Y-78949371D01*
X113499289Y-78949371D01*
X113458177Y-78930870D01*
X113356908Y-78918108D01*
X113249976Y-78930275D01*
X113157301Y-78966774D01*
X113078883Y-79027605D01*
X113014724Y-79112770D01*
X112964822Y-79222267D01*
X112936752Y-79320358D01*
X112916702Y-79432137D01*
X112904672Y-79557602D01*
X112900662Y-79696755D01*
X112575819Y-79696755D01*
X112575819Y-78543440D01*
X115300104Y-78543440D01*
X115325505Y-78634298D01*
X115390963Y-78668004D01*
X115450069Y-78634298D01*
X115472051Y-78543440D01*
X115450069Y-78451116D01*
X115390963Y-78417899D01*
X115325505Y-78451116D01*
X115300104Y-78543440D01*
X112575819Y-78543440D01*
X112575819Y-78324110D01*
X112445394Y-78324110D01*
X112445394Y-80450000D01*
X112050209Y-80450000D01*
X112050209Y-78324110D01*
X111919783Y-78324110D01*
X111919783Y-80450000D01*
X111422178Y-80450000D01*
X111456882Y-80439010D01*
X111547557Y-80391870D01*
X111547557Y-80265840D01*
X111451949Y-80314269D01*
X111350197Y-80346824D01*
X111252023Y-80357676D01*
X111218850Y-80356220D01*
X111119932Y-80330346D01*
X111038950Y-80272128D01*
X110981402Y-80192079D01*
X110942323Y-80098595D01*
X110916945Y-79999666D01*
X110901741Y-79902145D01*
X110892582Y-79792877D01*
X110889567Y-79692847D01*
X111595429Y-79692847D01*
X111595429Y-79571702D01*
X111593750Y-79498643D01*
X111584934Y-79396267D01*
X111565099Y-79287768D01*
X111534979Y-79191050D01*
X111487962Y-79094940D01*
X111459996Y-79053495D01*
X111388143Y-78980448D01*
X111293804Y-78932096D01*
X111195847Y-78918108D01*
X111107437Y-78927856D01*
X111007780Y-78969033D01*
X110932431Y-79032689D01*
X110869539Y-79121807D01*
X110836891Y-79189770D01*
X110805017Y-79283102D01*
X110781112Y-79389279D01*
X110767278Y-79487572D01*
X110760537Y-79574633D01*
X110758977Y-79594786D01*
X110756210Y-79710921D01*
X110335136Y-79710921D01*
X110335136Y-79064654D01*
X110571563Y-79064654D01*
X110571563Y-78949371D01*
X110335136Y-78949371D01*
X110335136Y-78605478D01*
X110244277Y-78605478D01*
X110201779Y-78949371D01*
X110069888Y-78987962D01*
X109977897Y-78987962D01*
X109990265Y-78937159D01*
X109959398Y-78928825D01*
X109859839Y-78918108D01*
X109837781Y-78919249D01*
X109745697Y-78952626D01*
X109673707Y-79021090D01*
X109618329Y-79110950D01*
X109576517Y-79210223D01*
X109566748Y-79210223D01*
X109553070Y-78949371D01*
X109446092Y-78949371D01*
X108864746Y-78949371D01*
X108817909Y-78929557D01*
X108712875Y-78918108D01*
X108681130Y-78919023D01*
X108577174Y-78935280D01*
X108476080Y-78971859D01*
X108387543Y-79022156D01*
X108443719Y-79126692D01*
X108501805Y-79094144D01*
X108600186Y-79056947D01*
X108705059Y-79043161D01*
X108712533Y-79043256D01*
X108808618Y-79067463D01*
X108877983Y-79140369D01*
X108884312Y-79152910D01*
X108913713Y-79247065D01*
X108926984Y-79350296D01*
X108930251Y-79449092D01*
X108930251Y-79574633D01*
X108769539Y-79582937D01*
X108686517Y-79590969D01*
X108587095Y-79614126D01*
X108490646Y-79657184D01*
X108410502Y-79718248D01*
X108367174Y-79767885D01*
X108318990Y-79853996D01*
X108290976Y-79954095D01*
X108283007Y-80054815D01*
X107965491Y-80054815D01*
X107965491Y-78449162D01*
X107759839Y-78449162D01*
X107313363Y-79982030D01*
X107304673Y-80011587D01*
X107274418Y-80118902D01*
X107248993Y-80218756D01*
X107228367Y-80323970D01*
X107217131Y-80323970D01*
X107210458Y-80278070D01*
X107190956Y-80177396D01*
X107166390Y-80076674D01*
X107138974Y-79979099D01*
X106688101Y-78449162D01*
X106488799Y-78449162D01*
X106488799Y-80450000D01*
X105555792Y-80450000D01*
X105555792Y-79426622D01*
X105552941Y-79329221D01*
X105542409Y-79229607D01*
X105517464Y-79123721D01*
X105474703Y-79035345D01*
X105406775Y-78968598D01*
X105314489Y-78929557D01*
X105209455Y-78918108D01*
X105177710Y-78919023D01*
X105073754Y-78935280D01*
X104972661Y-78971859D01*
X104884124Y-79022156D01*
X104940300Y-79126692D01*
X104998386Y-79094144D01*
X105096766Y-79056947D01*
X105201639Y-79043161D01*
X105209114Y-79043256D01*
X105305198Y-79067463D01*
X105374563Y-79140369D01*
X105380893Y-79152910D01*
X105410293Y-79247065D01*
X105423565Y-79350296D01*
X105426831Y-79449092D01*
X105426831Y-79574633D01*
X105266120Y-79582937D01*
X105183098Y-79590969D01*
X105083676Y-79614126D01*
X104987226Y-79657184D01*
X104907083Y-79718248D01*
X104863754Y-79767885D01*
X104815570Y-79853996D01*
X104787556Y-79954095D01*
X104779588Y-80054815D01*
X103910576Y-80054815D01*
X103896429Y-79999666D01*
X103881224Y-79902145D01*
X103872065Y-79792877D01*
X103869050Y-79692847D01*
X104574912Y-79692847D01*
X104574912Y-79571702D01*
X104573233Y-79498643D01*
X104564417Y-79396267D01*
X104544582Y-79287768D01*
X104514462Y-79191050D01*
X104467445Y-79094940D01*
X104439480Y-79053495D01*
X104367626Y-78980448D01*
X104273288Y-78932096D01*
X104175331Y-78918108D01*
X104086921Y-78927856D01*
X103987264Y-78969033D01*
X103911915Y-79032689D01*
X103849023Y-79121807D01*
X103816374Y-79189770D01*
X103784500Y-79283102D01*
X103760595Y-79389279D01*
X103746761Y-79487572D01*
X103740021Y-79574633D01*
X103738461Y-79594786D01*
X103735694Y-79710921D01*
X103198848Y-79710921D01*
X103198848Y-79652791D01*
X103202474Y-79550018D01*
X103214836Y-79443580D01*
X103235973Y-79344068D01*
X103245689Y-79309988D01*
X103283276Y-79212619D01*
X103338066Y-79125715D01*
X103384280Y-79080939D01*
X103479239Y-79047069D01*
X103482503Y-79047089D01*
X103580844Y-79067585D01*
X103612595Y-78937159D01*
X103581729Y-78928825D01*
X103482170Y-78918108D01*
X103460112Y-78919249D01*
X103368028Y-78952626D01*
X103296038Y-79021090D01*
X103240659Y-79110950D01*
X103198848Y-79210223D01*
X103189078Y-79210223D01*
X103175401Y-78949371D01*
X103068422Y-78949371D01*
X102677634Y-78949371D01*
X102677634Y-78324110D01*
X102547208Y-78324110D01*
X102547208Y-78975750D01*
X102552581Y-79137438D01*
X102541346Y-79137438D01*
X102534546Y-79124789D01*
X102474296Y-79040991D01*
X102397732Y-78976727D01*
X102305286Y-78932763D01*
X102207711Y-78918108D01*
X102131999Y-78925167D01*
X102031956Y-78962222D01*
X101948142Y-79031040D01*
X101887264Y-79118876D01*
X101861847Y-79171808D01*
X101825523Y-79278213D01*
X101802648Y-79383371D01*
X101789410Y-79480842D01*
X101781468Y-79587257D01*
X101778820Y-79702616D01*
X101463258Y-79702616D01*
X101463258Y-79410990D01*
X101461148Y-79333555D01*
X101448989Y-79224096D01*
X101422392Y-79122194D01*
X101376796Y-79035345D01*
X101307079Y-78968598D01*
X101216814Y-78929557D01*
X101116922Y-78918108D01*
X101019836Y-78933740D01*
X100928855Y-78980635D01*
X100912729Y-78992722D01*
X100842920Y-79066810D01*
X100794033Y-79156489D01*
X100781821Y-79156489D01*
X100771074Y-78949371D01*
X100661165Y-78949371D01*
X100098063Y-78949371D01*
X99974354Y-78449162D01*
X99835624Y-78449162D01*
X99563599Y-79574633D01*
X99352023Y-80450000D01*
X98634926Y-80450000D01*
X98634926Y-78324110D01*
X98504501Y-78324110D01*
X98504501Y-78975750D01*
X98509874Y-79137438D01*
X98498639Y-79137438D01*
X98491838Y-79124789D01*
X98431588Y-79040991D01*
X98355024Y-78976727D01*
X98262578Y-78932763D01*
X98165003Y-78918108D01*
X98089292Y-78925167D01*
X97989248Y-78962222D01*
X97905434Y-79031040D01*
X97844556Y-79118876D01*
X97819140Y-79171808D01*
X97782815Y-79278213D01*
X97759941Y-79383371D01*
X97746703Y-79480842D01*
X97738760Y-79587257D01*
X97736113Y-79702616D01*
X97420551Y-79702616D01*
X97420551Y-79410990D01*
X97418440Y-79333555D01*
X97406281Y-79224096D01*
X97379684Y-79122194D01*
X97334089Y-79035345D01*
X97264372Y-78968598D01*
X97174106Y-78929557D01*
X97074214Y-78918108D01*
X96977128Y-78933740D01*
X96886147Y-78980635D01*
X96870022Y-78992722D01*
X96800212Y-79066810D01*
X96751325Y-79156489D01*
X96739113Y-79156489D01*
X96728367Y-78949371D01*
X96618457Y-78949371D01*
X96037111Y-78949371D01*
X95990274Y-78929557D01*
X95885240Y-78918108D01*
X95853495Y-78919023D01*
X95749540Y-78935280D01*
X95648446Y-78971859D01*
X95559909Y-79022156D01*
X95616085Y-79126692D01*
X95674171Y-79094144D01*
X95772551Y-79056947D01*
X95877424Y-79043161D01*
X95884899Y-79043256D01*
X95980983Y-79067463D01*
X96050348Y-79140369D01*
X96056678Y-79152910D01*
X96086078Y-79247065D01*
X96099350Y-79350296D01*
X96102616Y-79449092D01*
X96102616Y-79574633D01*
X95941905Y-79582937D01*
X95858883Y-79590969D01*
X95759461Y-79614126D01*
X95663011Y-79657184D01*
X95582868Y-79718248D01*
X95539539Y-79767885D01*
X95491355Y-79853996D01*
X95463341Y-79954095D01*
X95455373Y-80054815D01*
X94388520Y-80054815D01*
X94388520Y-79652791D01*
X94392146Y-79550018D01*
X94404508Y-79443580D01*
X94425645Y-79344068D01*
X94435361Y-79309988D01*
X94472948Y-79212619D01*
X94527739Y-79125715D01*
X94573952Y-79080939D01*
X94668911Y-79047069D01*
X94672175Y-79047089D01*
X94770516Y-79067585D01*
X94802267Y-78937159D01*
X94771401Y-78928825D01*
X94671842Y-78918108D01*
X94649784Y-78919249D01*
X94557700Y-78952626D01*
X94485710Y-79021090D01*
X94430331Y-79110950D01*
X94388520Y-79210223D01*
X94378750Y-79210223D01*
X94365073Y-78949371D01*
X94258094Y-78949371D01*
X93665820Y-78949371D01*
X93632115Y-78932096D01*
X93534159Y-78918108D01*
X93445748Y-78927856D01*
X93346092Y-78969033D01*
X93270743Y-79032689D01*
X93207850Y-79121807D01*
X93175202Y-79189770D01*
X93143328Y-79283102D01*
X93119423Y-79389279D01*
X93105589Y-79487572D01*
X93098848Y-79574633D01*
X93097288Y-79594786D01*
X93094521Y-79710921D01*
X92689567Y-79710921D01*
X92689567Y-79064654D01*
X92923063Y-79064654D01*
X92923063Y-78949371D01*
X92689567Y-78949371D01*
X92689567Y-78833112D01*
X92689713Y-78806018D01*
X92693719Y-78701709D01*
X92706175Y-78602547D01*
X92713022Y-78573020D01*
X92756978Y-78482379D01*
X92763681Y-78475744D01*
X92858583Y-78445254D01*
X92896860Y-78448641D01*
X92990474Y-78479937D01*
X93035903Y-78358304D01*
X92958552Y-78333760D01*
X92861025Y-78324110D01*
X92793085Y-78329766D01*
X92698586Y-78365785D01*
X92627529Y-78442323D01*
X92598037Y-78510589D01*
X92574930Y-78609868D01*
X92563344Y-78718098D01*
X92560118Y-78828227D01*
X92560118Y-78934228D01*
X92370586Y-78990404D01*
X92020685Y-78990404D01*
X92010892Y-78980448D01*
X91916553Y-78932096D01*
X91818597Y-78918108D01*
X91730187Y-78927856D01*
X91630530Y-78969033D01*
X91555181Y-79032689D01*
X91492288Y-79121807D01*
X91459640Y-79189770D01*
X91427766Y-79283102D01*
X91403861Y-79389279D01*
X91390027Y-79487572D01*
X91383287Y-79574633D01*
X91381727Y-79594786D01*
X91378960Y-79710921D01*
X91051186Y-79710921D01*
X91051186Y-78949371D01*
X90920760Y-78949371D01*
X90920760Y-80450000D01*
X90727320Y-80450000D01*
X90184612Y-79328925D01*
X90635143Y-78543440D01*
X90901221Y-78543440D01*
X90926622Y-78634298D01*
X90992079Y-78668004D01*
X91051186Y-78634298D01*
X91073168Y-78543440D01*
X91051186Y-78451116D01*
X90992079Y-78417899D01*
X90926622Y-78451116D01*
X90901221Y-78543440D01*
X90635143Y-78543440D01*
X90689218Y-78449162D01*
X90542184Y-78449162D01*
X90478499Y-78562006D01*
X90418360Y-78668630D01*
X90361766Y-78769032D01*
X90308718Y-78863215D01*
X90235793Y-78992825D01*
X90170845Y-79108438D01*
X90113874Y-79210056D01*
X90050321Y-79323774D01*
X90000950Y-79412609D01*
X89948674Y-79508199D01*
X89948674Y-78449162D01*
X89813852Y-78449162D01*
X89813852Y-80450000D01*
X88752628Y-80450000D01*
X88794254Y-80434980D01*
X88872540Y-80373796D01*
X88884548Y-80359981D01*
X88936744Y-80272538D01*
X88963858Y-80176215D01*
X88971702Y-80075819D01*
X88967924Y-80009233D01*
X88944836Y-79911688D01*
X88920701Y-79859619D01*
X88862770Y-79780774D01*
X88824615Y-79744397D01*
X88743444Y-79680801D01*
X88660048Y-79622993D01*
X88615278Y-79593777D01*
X88534752Y-79534455D01*
X88461723Y-79460327D01*
X88428414Y-79389938D01*
X88415317Y-79292777D01*
X88430344Y-79196649D01*
X88483705Y-79111060D01*
X88570121Y-79056937D01*
X88668353Y-79041695D01*
X88722859Y-79045318D01*
X88820737Y-79071272D01*
X88907222Y-79117411D01*
X88974633Y-79003105D01*
X88967004Y-78997876D01*
X88875532Y-78951310D01*
X88780353Y-78926409D01*
X88673726Y-78918108D01*
X88574731Y-78928508D01*
X88479061Y-78963970D01*
X88397243Y-79024598D01*
X88340056Y-79096335D01*
X88301613Y-79187918D01*
X88288799Y-79292777D01*
X87991311Y-79292777D01*
X87991311Y-78949371D01*
X87860886Y-78949371D01*
X87860886Y-80450000D01*
X87227320Y-80450000D01*
X87227320Y-79652791D01*
X87230945Y-79550018D01*
X87243308Y-79443580D01*
X87264445Y-79344068D01*
X87274161Y-79309988D01*
X87311748Y-79212619D01*
X87366538Y-79125715D01*
X87412752Y-79080939D01*
X87507711Y-79047069D01*
X87510974Y-79047089D01*
X87609316Y-79067585D01*
X87641067Y-78937159D01*
X87610201Y-78928825D01*
X87510642Y-78918108D01*
X87488583Y-78919249D01*
X87396500Y-78952626D01*
X87324509Y-79021090D01*
X87269131Y-79110950D01*
X87227320Y-79210223D01*
X87217550Y-79210223D01*
X87203872Y-78949371D01*
X87096894Y-78949371D01*
X86513131Y-78949371D01*
X86460130Y-78927962D01*
X86362212Y-78918108D01*
X86267812Y-78933496D01*
X86177076Y-78979658D01*
X86160888Y-78991645D01*
X86091673Y-79064975D01*
X86044696Y-79153558D01*
X86033949Y-79153558D01*
X86037428Y-79098471D01*
X86039323Y-78999685D01*
X86039323Y-78543440D01*
X87841346Y-78543440D01*
X87866748Y-78634298D01*
X87932205Y-78668004D01*
X87991311Y-78634298D01*
X88013293Y-78543440D01*
X87991311Y-78451116D01*
X87932205Y-78417899D01*
X87866748Y-78451116D01*
X87841346Y-78543440D01*
X86039323Y-78543440D01*
X86039323Y-78324110D01*
X85908897Y-78324110D01*
X85908897Y-80450000D01*
X85529506Y-80450000D01*
X85604082Y-80419713D01*
X85604082Y-80296127D01*
X85537170Y-80323282D01*
X85437256Y-80345664D01*
X85334926Y-80352302D01*
X85243249Y-80341617D01*
X85150669Y-80305179D01*
X85066748Y-80242882D01*
X85032022Y-80206233D01*
X84970369Y-80119126D01*
X84923774Y-80024986D01*
X84889427Y-79928785D01*
X84871696Y-79863236D01*
X84851921Y-79765616D01*
X84838036Y-79661170D01*
X84830042Y-79549900D01*
X84827878Y-79449092D01*
X84828009Y-79422773D01*
X84831146Y-79321110D01*
X84840949Y-79202169D01*
X84857287Y-79092266D01*
X84880161Y-78991404D01*
X84916237Y-78882302D01*
X84961723Y-78786217D01*
X84978816Y-78757232D01*
X85044353Y-78670512D01*
X85118771Y-78606699D01*
X85214698Y-78561819D01*
X85322226Y-78546859D01*
X85393758Y-78551500D01*
X85493615Y-78575863D01*
X85584542Y-78621109D01*
X85646580Y-78502896D01*
X85620431Y-78487706D01*
X85527313Y-78447864D01*
X85425037Y-78424622D01*
X85325157Y-78417899D01*
X85288701Y-78418971D01*
X85185175Y-78435057D01*
X85090407Y-78470446D01*
X85004397Y-78525137D01*
X84927146Y-78599131D01*
X84858653Y-78692428D01*
X84848134Y-78709756D01*
X84800550Y-78802423D01*
X84761313Y-78905132D01*
X84730425Y-79017882D01*
X84711725Y-79115312D01*
X84698368Y-79219168D01*
X84690354Y-79329451D01*
X84687683Y-79446161D01*
X83908294Y-79446161D01*
X84029204Y-78949371D01*
X83897313Y-78949371D01*
X83677494Y-79884333D01*
X83660796Y-79958705D01*
X83640722Y-80056158D01*
X83621132Y-80163457D01*
X83604710Y-80268283D01*
X83593963Y-80268283D01*
X83579938Y-80190293D01*
X83560918Y-80091008D01*
X83539082Y-79985736D01*
X83516782Y-79887264D01*
X83291591Y-78949371D01*
X83159699Y-78949371D01*
X83531926Y-80450000D01*
X83465980Y-80712805D01*
X83456523Y-80751136D01*
X83426046Y-80849825D01*
X83380495Y-80943370D01*
X83343485Y-80984531D01*
X83250069Y-81015666D01*
X83240331Y-81015498D01*
X83143091Y-80996615D01*
X77782262Y-80996615D01*
X77819560Y-80958782D01*
X77875498Y-80870206D01*
X77908020Y-80767179D01*
X77917271Y-80663468D01*
X77916842Y-80639463D01*
X77904284Y-80540322D01*
X77869937Y-80447204D01*
X77807362Y-80365491D01*
X77793274Y-80353010D01*
X77703307Y-80298757D01*
X77603187Y-80270574D01*
X77498150Y-80262421D01*
X77404849Y-80262421D01*
X77365007Y-80260162D01*
X77271493Y-80226273D01*
X77259929Y-80216778D01*
X77222156Y-80124668D01*
X77223074Y-80105052D01*
X77259769Y-80012316D01*
X77289254Y-79979069D01*
X77363817Y-79915596D01*
X77392637Y-79918527D01*
X77425366Y-79918527D01*
X77528467Y-79902423D01*
X77616791Y-79854110D01*
X77684263Y-79782240D01*
X77717631Y-79728195D01*
X77754738Y-79636116D01*
X77776312Y-79530822D01*
X77782449Y-79426133D01*
X77782423Y-79419544D01*
X77775854Y-79321842D01*
X77756071Y-79219993D01*
X77736482Y-79156016D01*
X77689148Y-79064654D01*
X77892358Y-79041207D01*
X77892358Y-78949371D01*
X78124389Y-78949371D01*
X78124389Y-80450000D01*
X78254815Y-80450000D01*
X78254815Y-79623970D01*
X78255118Y-79586513D01*
X78259669Y-79481882D01*
X78271881Y-79374485D01*
X78294939Y-79271094D01*
X78332484Y-79179448D01*
X78383282Y-79111678D01*
X78473133Y-79055819D01*
X78577704Y-79039253D01*
X78641030Y-79048388D01*
X78727970Y-79110873D01*
X78771548Y-79200399D01*
X78792156Y-79305637D01*
X78797522Y-79413433D01*
X78797522Y-80450000D01*
X78926482Y-80450000D01*
X78926482Y-79710921D01*
X79244975Y-79710921D01*
X79246091Y-79777660D01*
X79252913Y-79882654D01*
X79265936Y-79979848D01*
X79289750Y-80086185D01*
X79322494Y-80181291D01*
X79371981Y-80278053D01*
X79380026Y-80290555D01*
X79452078Y-80376284D01*
X79537807Y-80436612D01*
X79637214Y-80471539D01*
X79735415Y-80481263D01*
X79745291Y-80481175D01*
X79851919Y-80468692D01*
X79945647Y-80439010D01*
X80036322Y-80391870D01*
X80036322Y-80265840D01*
X79940714Y-80314269D01*
X79838962Y-80346824D01*
X79740788Y-80357676D01*
X79707615Y-80356220D01*
X79608697Y-80330346D01*
X79527715Y-80272128D01*
X79470167Y-80192079D01*
X79431088Y-80098595D01*
X79405710Y-79999666D01*
X79390506Y-79902145D01*
X79381347Y-79792877D01*
X79378626Y-79702616D01*
X80338206Y-79702616D01*
X80338250Y-79705059D01*
X80339902Y-79796906D01*
X80348808Y-79926933D01*
X80365348Y-80043274D01*
X80389520Y-80145928D01*
X80433625Y-80261508D01*
X80491301Y-80352756D01*
X80562547Y-80419670D01*
X80670689Y-80469096D01*
X80772470Y-80481263D01*
X80779315Y-80481202D01*
X80876151Y-80465875D01*
X80967376Y-80419713D01*
X80988251Y-80403372D01*
X81057695Y-80327273D01*
X81106594Y-80242393D01*
X81118806Y-80242393D01*
X81130041Y-80450000D01*
X81237020Y-80450000D01*
X81237020Y-79695778D01*
X82153419Y-79695778D01*
X82153419Y-79730460D01*
X82153419Y-80450000D01*
X82260397Y-80450000D01*
X82278471Y-80244836D01*
X82289218Y-80244836D01*
X82300375Y-80266228D01*
X82359253Y-80352888D01*
X82434787Y-80421667D01*
X82527599Y-80466364D01*
X82630181Y-80481263D01*
X82703551Y-80474204D01*
X82800920Y-80437149D01*
X82883064Y-80368331D01*
X82943300Y-80280495D01*
X82968717Y-80227326D01*
X83005041Y-80120544D01*
X83027916Y-80015099D01*
X83041154Y-79917417D01*
X83049097Y-79810813D01*
X83051744Y-79695289D01*
X83050038Y-79601177D01*
X83041082Y-79471394D01*
X83024450Y-79355273D01*
X83000141Y-79252812D01*
X82955788Y-79137449D01*
X82897788Y-79046374D01*
X82826141Y-78979585D01*
X82717391Y-78930252D01*
X82615038Y-78918108D01*
X82516822Y-78932183D01*
X82419685Y-78981663D01*
X82345214Y-79055555D01*
X82289218Y-79143300D01*
X82278471Y-79143300D01*
X82283845Y-78968422D01*
X82283845Y-78324110D01*
X82153419Y-78324110D01*
X82153419Y-79695778D01*
X81237020Y-79695778D01*
X81237020Y-78324110D01*
X81106594Y-78324110D01*
X81106594Y-78975750D01*
X81111967Y-79137438D01*
X81100732Y-79137438D01*
X81093932Y-79124789D01*
X81033682Y-79040991D01*
X80957117Y-78976727D01*
X80864672Y-78932763D01*
X80767096Y-78918108D01*
X80691385Y-78925167D01*
X80591342Y-78962222D01*
X80507527Y-79031040D01*
X80446650Y-79118876D01*
X80421233Y-79171808D01*
X80384909Y-79278213D01*
X80362034Y-79383371D01*
X80348796Y-79480842D01*
X80340854Y-79587257D01*
X80338206Y-79702616D01*
X79378626Y-79702616D01*
X79378332Y-79692847D01*
X80084193Y-79692847D01*
X80084193Y-79571702D01*
X80082514Y-79498643D01*
X80073699Y-79396267D01*
X80053863Y-79287768D01*
X80023743Y-79191050D01*
X79976727Y-79094940D01*
X79948761Y-79053495D01*
X79876908Y-78980448D01*
X79782569Y-78932096D01*
X79684612Y-78918108D01*
X79596202Y-78927856D01*
X79496545Y-78969033D01*
X79421196Y-79032689D01*
X79358304Y-79121807D01*
X79325655Y-79189770D01*
X79293782Y-79283102D01*
X79269876Y-79389279D01*
X79256042Y-79487572D01*
X79249302Y-79574633D01*
X79247742Y-79594786D01*
X79244975Y-79710921D01*
X78926482Y-79710921D01*
X78926482Y-79410990D01*
X78924372Y-79333555D01*
X78912213Y-79224096D01*
X78885616Y-79122194D01*
X78840020Y-79035345D01*
X78770303Y-78968598D01*
X78680038Y-78929557D01*
X78580146Y-78918108D01*
X78483060Y-78933740D01*
X78392079Y-78980635D01*
X78375953Y-78992722D01*
X78306144Y-79066810D01*
X78257257Y-79156489D01*
X78245045Y-79156489D01*
X78234298Y-78949371D01*
X78124389Y-78949371D01*
X77892358Y-78949371D01*
X77576308Y-78949371D01*
X77520110Y-78929130D01*
X77419993Y-78918108D01*
X77409136Y-78918244D01*
X77308595Y-78934559D01*
X77214861Y-78983911D01*
X77144975Y-79057327D01*
X77101164Y-79133286D01*
X77066839Y-79233922D01*
X77049627Y-79336870D01*
X77044836Y-79437369D01*
X77044966Y-79439811D01*
X77049434Y-79523974D01*
X77067542Y-79621009D01*
X77102965Y-79715806D01*
X77126905Y-79757834D01*
X77192206Y-79833108D01*
X77275889Y-79886775D01*
X77219263Y-79932205D01*
X77148394Y-80003035D01*
X77128947Y-80031092D01*
X77103942Y-80126622D01*
X77107265Y-80167589D01*
X77145952Y-80257536D01*
X77174784Y-80289650D01*
X77256350Y-80343510D01*
X77193528Y-80370738D01*
X77103781Y-80426769D01*
X77032135Y-80500802D01*
X77004346Y-80546339D01*
X76970845Y-80641203D01*
X76961900Y-80729902D01*
X76960816Y-80740648D01*
X72929383Y-80740648D01*
X72929383Y-78572749D01*
X73269818Y-78572749D01*
X73269818Y-80326413D01*
X73269818Y-80450000D01*
X73626901Y-80450000D01*
X73741087Y-80441039D01*
X73844041Y-80414159D01*
X73935763Y-80369358D01*
X74016255Y-80306637D01*
X74085515Y-80225995D01*
X74143543Y-80127433D01*
X74190341Y-80010951D01*
X74225907Y-79876548D01*
X74243378Y-79776990D01*
X74251046Y-79710921D01*
X74541835Y-79710921D01*
X74542951Y-79777660D01*
X74549773Y-79882654D01*
X74562796Y-79979848D01*
X74586609Y-80086185D01*
X74619353Y-80181291D01*
X74668841Y-80278053D01*
X74676886Y-80290555D01*
X74748937Y-80376284D01*
X74834667Y-80436612D01*
X74934074Y-80471539D01*
X75032274Y-80481263D01*
X75042151Y-80481175D01*
X75148778Y-80468692D01*
X75242506Y-80439010D01*
X75333182Y-80391870D01*
X75333182Y-80265840D01*
X75237574Y-80314269D01*
X75135821Y-80346824D01*
X75037648Y-80357676D01*
X75004475Y-80356220D01*
X74905556Y-80330346D01*
X74824575Y-80272128D01*
X74767027Y-80192079D01*
X74727948Y-80098595D01*
X74702570Y-79999666D01*
X74687365Y-79902145D01*
X74678206Y-79792877D01*
X74675191Y-79692847D01*
X75381053Y-79692847D01*
X75381053Y-79571702D01*
X75379374Y-79498643D01*
X75370558Y-79396267D01*
X75351639Y-79292777D01*
X75607711Y-79292777D01*
X75612790Y-79369545D01*
X75638485Y-79465212D01*
X75665367Y-79517213D01*
X75725436Y-79595638D01*
X75764411Y-79631427D01*
X75847721Y-79694037D01*
X75933531Y-79750976D01*
X75965526Y-79772546D01*
X76045394Y-79833775D01*
X76114270Y-79907292D01*
X76148281Y-79978382D01*
X76161653Y-80075819D01*
X76161396Y-80091676D01*
X76145167Y-80191346D01*
X76095708Y-80280983D01*
X76011579Y-80340824D01*
X75913991Y-80357676D01*
X75837803Y-80351785D01*
X75742044Y-80326901D01*
X75688484Y-80303319D01*
X75607711Y-80244836D01*
X75607711Y-80397732D01*
X75634321Y-80414892D01*
X75726901Y-80454884D01*
X75804625Y-80473818D01*
X75905687Y-80481263D01*
X76013984Y-80470768D01*
X76071539Y-80450000D01*
X76586636Y-80450000D01*
X76717062Y-80450000D01*
X76717062Y-78949371D01*
X76586636Y-78949371D01*
X76586636Y-80450000D01*
X76071539Y-80450000D01*
X76113165Y-80434980D01*
X76191451Y-80373796D01*
X76203459Y-80359981D01*
X76255655Y-80272538D01*
X76282770Y-80176215D01*
X76290614Y-80075819D01*
X76286835Y-80009233D01*
X76263747Y-79911688D01*
X76239613Y-79859619D01*
X76181681Y-79780774D01*
X76143526Y-79744397D01*
X76062355Y-79680801D01*
X75978960Y-79622993D01*
X75934190Y-79593777D01*
X75853663Y-79534455D01*
X75780635Y-79460327D01*
X75747325Y-79389938D01*
X75734228Y-79292777D01*
X75749255Y-79196649D01*
X75802616Y-79111060D01*
X75889033Y-79056937D01*
X75987264Y-79041695D01*
X76041771Y-79045318D01*
X76139649Y-79071272D01*
X76226133Y-79117411D01*
X76293545Y-79003105D01*
X76285916Y-78997876D01*
X76194443Y-78951310D01*
X76099265Y-78926409D01*
X75992637Y-78918108D01*
X75893643Y-78928508D01*
X75797972Y-78963970D01*
X75716154Y-79024598D01*
X75658967Y-79096335D01*
X75620525Y-79187918D01*
X75607711Y-79292777D01*
X75351639Y-79292777D01*
X75350723Y-79287768D01*
X75320603Y-79191050D01*
X75273586Y-79094940D01*
X75245621Y-79053495D01*
X75173767Y-78980448D01*
X75079429Y-78932096D01*
X74981472Y-78918108D01*
X74893062Y-78927856D01*
X74793405Y-78969033D01*
X74718056Y-79032689D01*
X74655163Y-79121807D01*
X74622515Y-79189770D01*
X74590641Y-79283102D01*
X74566736Y-79389279D01*
X74552902Y-79487572D01*
X74546162Y-79574633D01*
X74544602Y-79594786D01*
X74541835Y-79710921D01*
X74251046Y-79710921D01*
X74255857Y-79669468D01*
X74263345Y-79553981D01*
X74265840Y-79430530D01*
X74264432Y-79342260D01*
X74258173Y-79230912D01*
X74246908Y-79126815D01*
X74225785Y-79006891D01*
X74196838Y-78898296D01*
X74160068Y-78801030D01*
X74105617Y-78699267D01*
X74085061Y-78668981D01*
X74016316Y-78589846D01*
X73956483Y-78543440D01*
X76567096Y-78543440D01*
X76592498Y-78634298D01*
X76657955Y-78668004D01*
X76717062Y-78634298D01*
X76739043Y-78543440D01*
X76717062Y-78451116D01*
X76657955Y-78417899D01*
X76592498Y-78451116D01*
X76567096Y-78543440D01*
X73956483Y-78543440D01*
X73936958Y-78528297D01*
X73846987Y-78484333D01*
X73746403Y-78457955D01*
X73635205Y-78449162D01*
X73269818Y-78449162D01*
X73269818Y-78572749D01*
X72929383Y-78572749D01*
X72929383Y-77636615D01*
X93194173Y-77636615D01*
X93194173Y-77754340D01*
X93214447Y-77761095D01*
X93312386Y-77777787D01*
X93343825Y-77776223D01*
X93441238Y-77746103D01*
X93519016Y-77677648D01*
X93523841Y-77671323D01*
X93577204Y-77580396D01*
X93615272Y-77483424D01*
X93644556Y-77379672D01*
X93898385Y-76336755D01*
X94744626Y-76336755D01*
X94745644Y-76406537D01*
X94751862Y-76515876D01*
X94763733Y-76616509D01*
X94785440Y-76725778D01*
X94815287Y-76822509D01*
X94860397Y-76919518D01*
X94924938Y-77007781D01*
X95002302Y-77070826D01*
X95092489Y-77108654D01*
X95195498Y-77121263D01*
X95299515Y-77108654D01*
X95390771Y-77070826D01*
X95469264Y-77007781D01*
X95534996Y-76919518D01*
X95569333Y-76851967D01*
X95602855Y-76759414D01*
X95627997Y-76654325D01*
X95642547Y-76557174D01*
X95651277Y-76451317D01*
X95654187Y-76336755D01*
X95653135Y-76268788D01*
X95646707Y-76161999D01*
X95634435Y-76063319D01*
X95611995Y-75955608D01*
X95581140Y-75859575D01*
X95534508Y-75762295D01*
X95477804Y-75682734D01*
X95418469Y-75630404D01*
X95803663Y-75630404D01*
X95803663Y-75704654D01*
X95993196Y-75704654D01*
X95993196Y-77090000D01*
X96122644Y-77090000D01*
X96122644Y-76905840D01*
X97039532Y-76905840D01*
X97039532Y-77051409D01*
X97118239Y-77081970D01*
X97220944Y-77105914D01*
X97324824Y-77117920D01*
X97425436Y-77121263D01*
X97502143Y-77115887D01*
X97607416Y-77087667D01*
X97700942Y-77035259D01*
X97774214Y-76968367D01*
X97782689Y-76958688D01*
X97840804Y-76874669D01*
X97881699Y-76778926D01*
X97905376Y-76671459D01*
X97911781Y-76570739D01*
X98221179Y-76570739D01*
X98221260Y-76588867D01*
X98225153Y-76690922D01*
X98237074Y-76795445D01*
X98260429Y-76895721D01*
X98304221Y-76992302D01*
X98372742Y-77065724D01*
X98464120Y-77108669D01*
X98567027Y-77121263D01*
X98663747Y-77105875D01*
X98752651Y-77059713D01*
X98768266Y-77047618D01*
X98836680Y-76973229D01*
X98886008Y-76882882D01*
X98896755Y-76882882D01*
X98913363Y-77090000D01*
X99023272Y-77090000D01*
X99023272Y-75932777D01*
X99316852Y-75932777D01*
X99321931Y-76009545D01*
X99347627Y-76105212D01*
X99374509Y-76157213D01*
X99434577Y-76235638D01*
X99473552Y-76271427D01*
X99556863Y-76334037D01*
X99642672Y-76390976D01*
X99674668Y-76412546D01*
X99754535Y-76473775D01*
X99823412Y-76547292D01*
X99857422Y-76618382D01*
X99870795Y-76715819D01*
X99870537Y-76731676D01*
X99854309Y-76831346D01*
X99804849Y-76920983D01*
X99720720Y-76980824D01*
X99623133Y-76997676D01*
X99546944Y-76991785D01*
X99451186Y-76966901D01*
X99397626Y-76943319D01*
X99316852Y-76884836D01*
X99316852Y-77037732D01*
X99343462Y-77054892D01*
X99436043Y-77094884D01*
X99513766Y-77113818D01*
X99614829Y-77121263D01*
X99723125Y-77110768D01*
X99822307Y-77074980D01*
X99900593Y-77013796D01*
X99912601Y-76999981D01*
X99964797Y-76912538D01*
X99991911Y-76816215D01*
X99999755Y-76715819D01*
X99995977Y-76649233D01*
X99972889Y-76551688D01*
X99948754Y-76499619D01*
X99890823Y-76420774D01*
X99852668Y-76384397D01*
X99771497Y-76320801D01*
X99688101Y-76262993D01*
X99643331Y-76233777D01*
X99562805Y-76174455D01*
X99489776Y-76100327D01*
X99456467Y-76029938D01*
X99443370Y-75932777D01*
X100198080Y-75932777D01*
X100203159Y-76009545D01*
X100228855Y-76105212D01*
X100255737Y-76157213D01*
X100315806Y-76235638D01*
X100354780Y-76271427D01*
X100438091Y-76334037D01*
X100523900Y-76390976D01*
X100555896Y-76412546D01*
X100635764Y-76473775D01*
X100704640Y-76547292D01*
X100738650Y-76618382D01*
X100752023Y-76715819D01*
X100751766Y-76731676D01*
X100735537Y-76831346D01*
X100686078Y-76920983D01*
X100601948Y-76980824D01*
X100504361Y-76997676D01*
X100428172Y-76991785D01*
X100332414Y-76966901D01*
X100278854Y-76943319D01*
X100198080Y-76884836D01*
X100198080Y-77037732D01*
X100224691Y-77054892D01*
X100317271Y-77094884D01*
X100394995Y-77113818D01*
X100496057Y-77121263D01*
X100604354Y-77110768D01*
X100703535Y-77074980D01*
X100781821Y-77013796D01*
X100793829Y-76999981D01*
X100846025Y-76912538D01*
X100873140Y-76816215D01*
X100880983Y-76715819D01*
X100877205Y-76649233D01*
X100854117Y-76551688D01*
X100829982Y-76499619D01*
X100772051Y-76420774D01*
X100733896Y-76384397D01*
X100691169Y-76350921D01*
X101109595Y-76350921D01*
X101110711Y-76417660D01*
X101117533Y-76522654D01*
X101130556Y-76619848D01*
X101154369Y-76726185D01*
X101187113Y-76821291D01*
X101236601Y-76918053D01*
X101244646Y-76930555D01*
X101316697Y-77016284D01*
X101402427Y-77076612D01*
X101501834Y-77111539D01*
X101600034Y-77121263D01*
X101609911Y-77121175D01*
X101716538Y-77108692D01*
X101775562Y-77090000D01*
X102094382Y-77090000D01*
X102229204Y-77090000D01*
X102511060Y-76441290D01*
X102789986Y-77090000D01*
X102927250Y-77090000D01*
X102577983Y-76327962D01*
X102910642Y-75589371D01*
X102774842Y-75589371D01*
X102513503Y-76198025D01*
X102263398Y-75589371D01*
X102122226Y-75589371D01*
X102449023Y-76311353D01*
X102094382Y-77090000D01*
X101775562Y-77090000D01*
X101810266Y-77079010D01*
X101900942Y-77031870D01*
X101900942Y-76905840D01*
X101805334Y-76954269D01*
X101703581Y-76986824D01*
X101605408Y-76997676D01*
X101572235Y-76996220D01*
X101473316Y-76970346D01*
X101392334Y-76912128D01*
X101334787Y-76832079D01*
X101295708Y-76738595D01*
X101270329Y-76639666D01*
X101255125Y-76542145D01*
X101245966Y-76432877D01*
X101242951Y-76332847D01*
X101948813Y-76332847D01*
X101948813Y-76211702D01*
X101947134Y-76138643D01*
X101938318Y-76036267D01*
X101918483Y-75927768D01*
X101888363Y-75831050D01*
X101841346Y-75734940D01*
X101813381Y-75693495D01*
X101741527Y-75620448D01*
X101647189Y-75572096D01*
X101549232Y-75558108D01*
X101460822Y-75567856D01*
X101361165Y-75609033D01*
X101285816Y-75672689D01*
X101222923Y-75761807D01*
X101190275Y-75829770D01*
X101158401Y-75923102D01*
X101134496Y-76029279D01*
X101120662Y-76127572D01*
X101113922Y-76214633D01*
X101112362Y-76234786D01*
X101109595Y-76350921D01*
X100691169Y-76350921D01*
X100652725Y-76320801D01*
X100569330Y-76262993D01*
X100524560Y-76233777D01*
X100444033Y-76174455D01*
X100371004Y-76100327D01*
X100337695Y-76029938D01*
X100324598Y-75932777D01*
X100339625Y-75836649D01*
X100392986Y-75751060D01*
X100479402Y-75696937D01*
X100577634Y-75681695D01*
X100632141Y-75685318D01*
X100730018Y-75711272D01*
X100816503Y-75757411D01*
X100883914Y-75643105D01*
X100876286Y-75637876D01*
X100784813Y-75591310D01*
X100689634Y-75566409D01*
X100583007Y-75558108D01*
X100484012Y-75568508D01*
X100388342Y-75603970D01*
X100306524Y-75664598D01*
X100249337Y-75736335D01*
X100210895Y-75827918D01*
X100198080Y-75932777D01*
X99443370Y-75932777D01*
X99458397Y-75836649D01*
X99511758Y-75751060D01*
X99598174Y-75696937D01*
X99696406Y-75681695D01*
X99750912Y-75685318D01*
X99848790Y-75711272D01*
X99935275Y-75757411D01*
X100002686Y-75643105D01*
X99995057Y-75637876D01*
X99903585Y-75591310D01*
X99808406Y-75566409D01*
X99701779Y-75558108D01*
X99602784Y-75568508D01*
X99507114Y-75603970D01*
X99425296Y-75664598D01*
X99368109Y-75736335D01*
X99329666Y-75827918D01*
X99316852Y-75932777D01*
X99023272Y-75932777D01*
X99023272Y-75589371D01*
X98894312Y-75589371D01*
X98894312Y-76415889D01*
X98894003Y-76453755D01*
X98889366Y-76559382D01*
X98876924Y-76667507D01*
X98853431Y-76771158D01*
X98815177Y-76862365D01*
X98757198Y-76935008D01*
X98664325Y-76986666D01*
X98567515Y-77000118D01*
X98471772Y-76974473D01*
X98404361Y-76897536D01*
X98391996Y-76870005D01*
X98366494Y-76774854D01*
X98354902Y-76675794D01*
X98351605Y-76571716D01*
X98351605Y-75589371D01*
X98221179Y-75589371D01*
X98221179Y-76570739D01*
X97911781Y-76570739D01*
X97911967Y-76567808D01*
X97911139Y-76532861D01*
X97898710Y-76433994D01*
X97867406Y-76334656D01*
X97817690Y-76246385D01*
X97771398Y-76189891D01*
X97696423Y-76122065D01*
X97615182Y-76066317D01*
X97520202Y-76014842D01*
X97496159Y-76002352D01*
X97410064Y-75952923D01*
X97325113Y-75892339D01*
X97256420Y-75821402D01*
X97220871Y-75755695D01*
X97195592Y-75657326D01*
X97189009Y-75559085D01*
X97196350Y-75470840D01*
X97225263Y-75377048D01*
X97281821Y-75292372D01*
X97325068Y-75252972D01*
X97419398Y-75205475D01*
X97522644Y-75191256D01*
X97542405Y-75191561D01*
X97640522Y-75202247D01*
X97737494Y-75228197D01*
X97833321Y-75269413D01*
X97885589Y-75140453D01*
X97829864Y-75114794D01*
X97735136Y-75084277D01*
X97723145Y-75081083D01*
X97621173Y-75062948D01*
X97523133Y-75057899D01*
X97475477Y-75060149D01*
X97377053Y-75080459D01*
X97285240Y-75121891D01*
X97246257Y-75147542D01*
X97173340Y-75215727D01*
X97116224Y-75301165D01*
X97087180Y-75368600D01*
X97063240Y-75466568D01*
X97056140Y-75564459D01*
X97056721Y-75597813D01*
X97066618Y-75697992D01*
X97093265Y-75797955D01*
X97140282Y-75889302D01*
X97207083Y-75968925D01*
X97262905Y-76015197D01*
X97349917Y-76071984D01*
X97439113Y-76120355D01*
X97463343Y-76132568D01*
X97550263Y-76181416D01*
X97636416Y-76242477D01*
X97706803Y-76315750D01*
X97740807Y-76375878D01*
X97768833Y-76472999D01*
X97777145Y-76579043D01*
X97777049Y-76590217D01*
X97765428Y-76695184D01*
X97734440Y-76787844D01*
X97677983Y-76875554D01*
X97618112Y-76931990D01*
X97524701Y-76978507D01*
X97425436Y-76992302D01*
X97418991Y-76992279D01*
X97315096Y-76985685D01*
X97216364Y-76968855D01*
X97130585Y-76945253D01*
X97039532Y-76905840D01*
X96122644Y-76905840D01*
X96122644Y-75704654D01*
X96356140Y-75704654D01*
X96356140Y-75589371D01*
X96122644Y-75589371D01*
X96122644Y-75473112D01*
X96122790Y-75446018D01*
X96126796Y-75341709D01*
X96139253Y-75242547D01*
X96146099Y-75213020D01*
X96190055Y-75122379D01*
X96196759Y-75115744D01*
X96291660Y-75085254D01*
X96329938Y-75088641D01*
X96423551Y-75119937D01*
X96468981Y-74998304D01*
X96391629Y-74973760D01*
X96294103Y-74964110D01*
X96226162Y-74969766D01*
X96131663Y-75005785D01*
X96060607Y-75082323D01*
X96031114Y-75150589D01*
X96008008Y-75249868D01*
X95996421Y-75358098D01*
X95993196Y-75468227D01*
X95993196Y-75574228D01*
X95803663Y-75630404D01*
X95418469Y-75630404D01*
X95401836Y-75615735D01*
X95302141Y-75570870D01*
X95200872Y-75558108D01*
X95093939Y-75570275D01*
X95001264Y-75606774D01*
X94922847Y-75667605D01*
X94858688Y-75752770D01*
X94808786Y-75862267D01*
X94780716Y-75960358D01*
X94760666Y-76072137D01*
X94748636Y-76197602D01*
X94744626Y-76336755D01*
X93898385Y-76336755D01*
X94080286Y-75589371D01*
X93948394Y-75589371D01*
X93728576Y-76524333D01*
X93711878Y-76598705D01*
X93691804Y-76696158D01*
X93672214Y-76803457D01*
X93655792Y-76908283D01*
X93645045Y-76908283D01*
X93631020Y-76830293D01*
X93612000Y-76731008D01*
X93590164Y-76625736D01*
X93567864Y-76527264D01*
X93342672Y-75589371D01*
X93210781Y-75589371D01*
X93583007Y-77090000D01*
X93517062Y-77352805D01*
X93507605Y-77391136D01*
X93477128Y-77489825D01*
X93431577Y-77583370D01*
X93394567Y-77624531D01*
X93301151Y-77655666D01*
X93291412Y-77655498D01*
X93194173Y-77636615D01*
X72929383Y-77636615D01*
X72929383Y-77090000D01*
X73269818Y-77090000D01*
X73998150Y-77090000D01*
X73998150Y-76961039D01*
X73404640Y-76961039D01*
X73404640Y-76093489D01*
X73964933Y-76093489D01*
X73964933Y-75964528D01*
X73404640Y-75964528D01*
X73404640Y-75589371D01*
X74325924Y-75589371D01*
X74325924Y-77090000D01*
X74456350Y-77090000D01*
X74456350Y-76263970D01*
X74456416Y-76245054D01*
X74459576Y-76138511D01*
X74469253Y-76029274D01*
X74488212Y-75924295D01*
X74523761Y-75822868D01*
X74557110Y-75769954D01*
X74639509Y-75706165D01*
X74739183Y-75687069D01*
X74837124Y-75710516D01*
X74905268Y-75780858D01*
X74938012Y-75864641D01*
X74954751Y-75965701D01*
X74959002Y-76065645D01*
X74959002Y-77090000D01*
X75088450Y-77090000D01*
X75088450Y-76209748D01*
X75090072Y-76132213D01*
X75099415Y-76020907D01*
X75119851Y-75914445D01*
X75154884Y-75819448D01*
X75188183Y-75767867D01*
X75271358Y-75705684D01*
X75372749Y-75687069D01*
X75436076Y-75696311D01*
X75523016Y-75759530D01*
X75566593Y-75850108D01*
X75587201Y-75956582D01*
X75592568Y-76065645D01*
X75592568Y-77090000D01*
X75721528Y-77090000D01*
X75721528Y-76570739D01*
X76100593Y-76570739D01*
X76100674Y-76588867D01*
X76104566Y-76690922D01*
X76116488Y-76795445D01*
X76139843Y-76895721D01*
X76183635Y-76992302D01*
X76252156Y-77065724D01*
X76343534Y-77108669D01*
X76446441Y-77121263D01*
X76543161Y-77105875D01*
X76632065Y-77059713D01*
X76647680Y-77047618D01*
X76716094Y-76973229D01*
X76765422Y-76882882D01*
X76776168Y-76882882D01*
X76792777Y-77090000D01*
X76902686Y-77090000D01*
X76902686Y-75627962D01*
X77153768Y-75627962D01*
X77153768Y-75704654D01*
X77288590Y-75704654D01*
X77288590Y-76772972D01*
X77289491Y-76815148D01*
X77303000Y-76925349D01*
X77339251Y-77022966D01*
X77418283Y-77099494D01*
X77519155Y-77121263D01*
X77575045Y-77118591D01*
X77674494Y-77093907D01*
X77674494Y-76983510D01*
X77665585Y-76986478D01*
X77567515Y-77000118D01*
X77538292Y-76998178D01*
X77451744Y-76944919D01*
X77445895Y-76933623D01*
X77423618Y-76837338D01*
X77419016Y-76736336D01*
X77419016Y-76350921D01*
X77840090Y-76350921D01*
X77841206Y-76417660D01*
X77848028Y-76522654D01*
X77861051Y-76619848D01*
X77884865Y-76726185D01*
X77917609Y-76821291D01*
X77967096Y-76918053D01*
X77975141Y-76930555D01*
X78047193Y-77016284D01*
X78132922Y-77076612D01*
X78232329Y-77111539D01*
X78330530Y-77121263D01*
X78340406Y-77121175D01*
X78447034Y-77108692D01*
X78506058Y-77090000D01*
X79549790Y-77090000D01*
X80250279Y-77090000D01*
X80250279Y-76961039D01*
X79684612Y-76961039D01*
X79684612Y-76694815D01*
X80408060Y-76694815D01*
X80408109Y-76698234D01*
X80408405Y-76718811D01*
X80418507Y-76819241D01*
X80446137Y-76916328D01*
X80496475Y-77005491D01*
X80544469Y-77056141D01*
X80629740Y-77104982D01*
X80730949Y-77121263D01*
X80744397Y-77121029D01*
X80844293Y-77102368D01*
X80930510Y-77053847D01*
X81003050Y-76975468D01*
X81055303Y-76882393D01*
X81060676Y-76882393D01*
X81077285Y-77090000D01*
X81184263Y-77090000D01*
X81184263Y-76335778D01*
X81571144Y-76335778D01*
X81571144Y-76370460D01*
X81571144Y-77090000D01*
X81678122Y-77090000D01*
X81696196Y-76884836D01*
X81706943Y-76884836D01*
X81718100Y-76906228D01*
X81776978Y-76992888D01*
X81852512Y-77061667D01*
X81945324Y-77106364D01*
X82047906Y-77121263D01*
X82121276Y-77114204D01*
X82218645Y-77077149D01*
X82300789Y-77008331D01*
X82361025Y-76920495D01*
X82386442Y-76867326D01*
X82422766Y-76760544D01*
X82445641Y-76655099D01*
X82458879Y-76557417D01*
X82466822Y-76450813D01*
X82469469Y-76335289D01*
X82468920Y-76305003D01*
X83269120Y-76305003D01*
X83269283Y-76336367D01*
X83273187Y-76457118D01*
X83282296Y-76570344D01*
X83296611Y-76676044D01*
X83316132Y-76774218D01*
X83347852Y-76886352D01*
X83387706Y-76986728D01*
X83435694Y-77075345D01*
X83457159Y-77107406D01*
X83528537Y-77191177D01*
X83610390Y-77256333D01*
X83702720Y-77302872D01*
X83805525Y-77330796D01*
X83918806Y-77340104D01*
X83996132Y-77336718D01*
X84093196Y-77319588D01*
X84148127Y-77301041D01*
X84236322Y-77256085D01*
X84236322Y-77127124D01*
X84193824Y-77155380D01*
X84103454Y-77194535D01*
X84029549Y-77213235D01*
X83927110Y-77221891D01*
X83851624Y-77215844D01*
X83754919Y-77187063D01*
X83668686Y-77134580D01*
X83592925Y-77058395D01*
X83536322Y-76974228D01*
X83511180Y-76926070D01*
X83468316Y-76819424D01*
X83440151Y-76720031D01*
X83418856Y-76611073D01*
X83404431Y-76492551D01*
X83397836Y-76390847D01*
X83395638Y-76283021D01*
X83395712Y-76263458D01*
X83399284Y-76148947D01*
X83408215Y-76039346D01*
X83422503Y-75934658D01*
X83442149Y-75834881D01*
X83471842Y-75724682D01*
X83481623Y-75694581D01*
X83519884Y-75595989D01*
X83564410Y-75507916D01*
X83622967Y-75420142D01*
X83689706Y-75346106D01*
X83734977Y-75307265D01*
X83821514Y-75253942D01*
X83914541Y-75221948D01*
X84014061Y-75211284D01*
X84106024Y-75221969D01*
X84199580Y-75258407D01*
X84285170Y-75320704D01*
X84321094Y-75356928D01*
X84384998Y-75442470D01*
X84433456Y-75534386D01*
X84469330Y-75627962D01*
X84481027Y-75665584D01*
X84506597Y-75771074D01*
X84522258Y-75869539D01*
X84531654Y-75973754D01*
X84534787Y-76083719D01*
X84534747Y-76101466D01*
X84532847Y-76201895D01*
X84527026Y-76305953D01*
X84515623Y-76407589D01*
X84494242Y-76508702D01*
X84448575Y-76603203D01*
X84359909Y-76646943D01*
X84339594Y-76645679D01*
X84255861Y-76595163D01*
X84227656Y-76519501D01*
X84219713Y-76419309D01*
X84219713Y-76336755D01*
X84247557Y-75690976D01*
X84221171Y-75681817D01*
X84124854Y-75659378D01*
X84022365Y-75651898D01*
X83958027Y-75657535D01*
X83864859Y-75691984D01*
X83789270Y-75757751D01*
X83731260Y-75854835D01*
X83697509Y-75955051D01*
X83675008Y-76075310D01*
X83665515Y-76178657D01*
X83662351Y-76293279D01*
X83662442Y-76298164D01*
X83663389Y-76349303D01*
X83671693Y-76451640D01*
X83690962Y-76551297D01*
X83728785Y-76650851D01*
X83746355Y-76680503D01*
X83821075Y-76753152D01*
X83916364Y-76777369D01*
X83978875Y-76767958D01*
X84058025Y-76710446D01*
X84073233Y-76687448D01*
X84110842Y-76595270D01*
X84132274Y-76496489D01*
X84144487Y-76496489D01*
X84144715Y-76504826D01*
X84157431Y-76609010D01*
X84196755Y-76704096D01*
X84262212Y-76759050D01*
X84359909Y-76777369D01*
X84432380Y-76766668D01*
X84522970Y-76710488D01*
X84581853Y-76626887D01*
X84618088Y-76535930D01*
X84640124Y-76442756D01*
X85528367Y-76442756D01*
X85532849Y-76560164D01*
X85546296Y-76666925D01*
X85568707Y-76763038D01*
X85606183Y-76861714D01*
X85655861Y-76945896D01*
X85663973Y-76956685D01*
X85736971Y-77030668D01*
X85824379Y-77082730D01*
X85926198Y-77112871D01*
X86027110Y-77121263D01*
X86114059Y-77115299D01*
X86216687Y-77088795D01*
X86304110Y-77041087D01*
X86376330Y-76972177D01*
X86433345Y-76882062D01*
X86475157Y-76770745D01*
X86496538Y-76673342D01*
X86509366Y-76564013D01*
X86513642Y-76442756D01*
X86513642Y-75589371D01*
X86909316Y-75589371D01*
X86909316Y-77090000D01*
X87039741Y-77090000D01*
X87039741Y-76263970D01*
X87040045Y-76226513D01*
X87044596Y-76121882D01*
X87056807Y-76014485D01*
X87079865Y-75911094D01*
X87117411Y-75819448D01*
X87168209Y-75751678D01*
X87258060Y-75695819D01*
X87362630Y-75679253D01*
X87425957Y-75688388D01*
X87512897Y-75750873D01*
X87556474Y-75840399D01*
X87577082Y-75945637D01*
X87582449Y-76053433D01*
X87582449Y-77090000D01*
X87711409Y-77090000D01*
X88097313Y-77090000D01*
X88227739Y-77090000D01*
X88227739Y-75589371D01*
X88437299Y-75589371D01*
X88789009Y-77090000D01*
X88944347Y-77090000D01*
X89122861Y-76350921D01*
X89448464Y-76350921D01*
X89449581Y-76417660D01*
X89456402Y-76522654D01*
X89469425Y-76619848D01*
X89493239Y-76726185D01*
X89525983Y-76821291D01*
X89575471Y-76918053D01*
X89583515Y-76930555D01*
X89655567Y-77016284D01*
X89741296Y-77076612D01*
X89840703Y-77111539D01*
X89938904Y-77121263D01*
X89948780Y-77121175D01*
X90055408Y-77108692D01*
X90149136Y-77079010D01*
X90239811Y-77031870D01*
X90239811Y-76905840D01*
X90144203Y-76954269D01*
X90042451Y-76986824D01*
X89944277Y-76997676D01*
X89911104Y-76996220D01*
X89812186Y-76970346D01*
X89731204Y-76912128D01*
X89673656Y-76832079D01*
X89634577Y-76738595D01*
X89609199Y-76639666D01*
X89593995Y-76542145D01*
X89584836Y-76432877D01*
X89581821Y-76332847D01*
X90287683Y-76332847D01*
X90287683Y-76211702D01*
X90286004Y-76138643D01*
X90277188Y-76036267D01*
X90257353Y-75927768D01*
X90227233Y-75831050D01*
X90180216Y-75734940D01*
X90152250Y-75693495D01*
X90080397Y-75620448D01*
X90019763Y-75589371D01*
X90612037Y-75589371D01*
X90612037Y-77090000D01*
X90742463Y-77090000D01*
X90742463Y-76292791D01*
X90746088Y-76190018D01*
X90758451Y-76083580D01*
X90779588Y-75984068D01*
X90789304Y-75949988D01*
X90795948Y-75932777D01*
X91278332Y-75932777D01*
X91283411Y-76009545D01*
X91309106Y-76105212D01*
X91335988Y-76157213D01*
X91396057Y-76235638D01*
X91435032Y-76271427D01*
X91518342Y-76334037D01*
X91604152Y-76390976D01*
X91636147Y-76412546D01*
X91716015Y-76473775D01*
X91784891Y-76547292D01*
X91818902Y-76618382D01*
X91832274Y-76715819D01*
X91832017Y-76731676D01*
X91815788Y-76831346D01*
X91766329Y-76920983D01*
X91682200Y-76980824D01*
X91584612Y-76997676D01*
X91508424Y-76991785D01*
X91412665Y-76966901D01*
X91359105Y-76943319D01*
X91278332Y-76884836D01*
X91278332Y-77037732D01*
X91304942Y-77054892D01*
X91397522Y-77094884D01*
X91475246Y-77113818D01*
X91576308Y-77121263D01*
X91684605Y-77110768D01*
X91742160Y-77090000D01*
X92257257Y-77090000D01*
X92387683Y-77090000D01*
X92387683Y-75627962D01*
X92642672Y-75627962D01*
X92642672Y-75704654D01*
X92777494Y-75704654D01*
X92777494Y-76772972D01*
X92778395Y-76815148D01*
X92791905Y-76925349D01*
X92828156Y-77022966D01*
X92907187Y-77099494D01*
X93008060Y-77121263D01*
X93063949Y-77118591D01*
X93163398Y-77093907D01*
X93163398Y-76983510D01*
X93154489Y-76986478D01*
X93056420Y-77000118D01*
X93027196Y-76998178D01*
X92940648Y-76944919D01*
X92934800Y-76933623D01*
X92912522Y-76837338D01*
X92907920Y-76736336D01*
X92907920Y-75704654D01*
X93144347Y-75704654D01*
X93144347Y-75589371D01*
X92907920Y-75589371D01*
X92907920Y-75245478D01*
X92817062Y-75245478D01*
X92774563Y-75589371D01*
X92642672Y-75627962D01*
X92387683Y-75627962D01*
X92387683Y-75589371D01*
X92257257Y-75589371D01*
X92257257Y-77090000D01*
X91742160Y-77090000D01*
X91783786Y-77074980D01*
X91862072Y-77013796D01*
X91874080Y-76999981D01*
X91926276Y-76912538D01*
X91953391Y-76816215D01*
X91961235Y-76715819D01*
X91957457Y-76649233D01*
X91934368Y-76551688D01*
X91910234Y-76499619D01*
X91852302Y-76420774D01*
X91814148Y-76384397D01*
X91732976Y-76320801D01*
X91649581Y-76262993D01*
X91604811Y-76233777D01*
X91524284Y-76174455D01*
X91451256Y-76100327D01*
X91417947Y-76029938D01*
X91404849Y-75932777D01*
X91419876Y-75836649D01*
X91473237Y-75751060D01*
X91559654Y-75696937D01*
X91657885Y-75681695D01*
X91712392Y-75685318D01*
X91810270Y-75711272D01*
X91896755Y-75757411D01*
X91964166Y-75643105D01*
X91956537Y-75637876D01*
X91865064Y-75591310D01*
X91769886Y-75566409D01*
X91663258Y-75558108D01*
X91564264Y-75568508D01*
X91468593Y-75603970D01*
X91386775Y-75664598D01*
X91329588Y-75736335D01*
X91291146Y-75827918D01*
X91278332Y-75932777D01*
X90795948Y-75932777D01*
X90826891Y-75852619D01*
X90881681Y-75765715D01*
X90927895Y-75720939D01*
X91022854Y-75687069D01*
X91026118Y-75687089D01*
X91124459Y-75707585D01*
X91156210Y-75577159D01*
X91125344Y-75568825D01*
X91025785Y-75558108D01*
X91003726Y-75559249D01*
X90911643Y-75592626D01*
X90839652Y-75661090D01*
X90784274Y-75750950D01*
X90742463Y-75850223D01*
X90732693Y-75850223D01*
X90719016Y-75589371D01*
X90612037Y-75589371D01*
X90019763Y-75589371D01*
X89986058Y-75572096D01*
X89888101Y-75558108D01*
X89799691Y-75567856D01*
X89700034Y-75609033D01*
X89624685Y-75672689D01*
X89561793Y-75761807D01*
X89529145Y-75829770D01*
X89497271Y-75923102D01*
X89473366Y-76029279D01*
X89459532Y-76127572D01*
X89452791Y-76214633D01*
X89451231Y-76234786D01*
X89448464Y-76350921D01*
X89122861Y-76350921D01*
X89306803Y-75589371D01*
X89174912Y-75589371D01*
X89144260Y-75720683D01*
X89115439Y-75844239D01*
X89088450Y-75960040D01*
X89063293Y-76068087D01*
X89039968Y-76168380D01*
X89008415Y-76304278D01*
X88980983Y-76422728D01*
X88950819Y-76553520D01*
X88927983Y-76653293D01*
X88904291Y-76759783D01*
X88893125Y-76818607D01*
X88876936Y-76920006D01*
X88866189Y-76920006D01*
X88854974Y-76858922D01*
X88834426Y-76752696D01*
X88813415Y-76651262D01*
X88791939Y-76554619D01*
X88569190Y-75589371D01*
X88437299Y-75589371D01*
X88227739Y-75589371D01*
X88097313Y-75589371D01*
X88097313Y-77090000D01*
X87711409Y-77090000D01*
X87711409Y-76050990D01*
X87709298Y-75973555D01*
X87697140Y-75864096D01*
X87670542Y-75762194D01*
X87624947Y-75675345D01*
X87555230Y-75608598D01*
X87464964Y-75569557D01*
X87365073Y-75558108D01*
X87267986Y-75573740D01*
X87177006Y-75620635D01*
X87160880Y-75632722D01*
X87091070Y-75706810D01*
X87042184Y-75796489D01*
X87029972Y-75796489D01*
X87019225Y-75589371D01*
X86909316Y-75589371D01*
X86513642Y-75589371D01*
X86513642Y-75183440D01*
X88077773Y-75183440D01*
X88103175Y-75274298D01*
X88168632Y-75308004D01*
X88227739Y-75274298D01*
X88249720Y-75183440D01*
X92237718Y-75183440D01*
X92263119Y-75274298D01*
X92328576Y-75308004D01*
X92387683Y-75274298D01*
X92409665Y-75183440D01*
X92387683Y-75091116D01*
X92328576Y-75057899D01*
X92263119Y-75091116D01*
X92237718Y-75183440D01*
X88249720Y-75183440D01*
X88227739Y-75091116D01*
X88168632Y-75057899D01*
X88103175Y-75091116D01*
X88077773Y-75183440D01*
X86513642Y-75183440D01*
X86513642Y-75089162D01*
X86378820Y-75089162D01*
X86378820Y-76453503D01*
X86374543Y-76563591D01*
X86361710Y-76661338D01*
X86336568Y-76757936D01*
X86289427Y-76856015D01*
X86218320Y-76933608D01*
X86127240Y-76978993D01*
X86027110Y-76992302D01*
X86016289Y-76992169D01*
X85916684Y-76976198D01*
X85825190Y-76927885D01*
X85758443Y-76856015D01*
X85717411Y-76779903D01*
X85685262Y-76675811D01*
X85669142Y-76566871D01*
X85664654Y-76458876D01*
X85664654Y-75089162D01*
X85528367Y-75089162D01*
X85528367Y-76442756D01*
X84640124Y-76442756D01*
X84644661Y-76423570D01*
X84658250Y-76325256D01*
X84666403Y-76214903D01*
X84669120Y-76092512D01*
X84666269Y-75985035D01*
X84657717Y-75882058D01*
X84643463Y-75783581D01*
X84619628Y-75674377D01*
X84588032Y-75571297D01*
X84582896Y-75557079D01*
X84543152Y-75463159D01*
X84489602Y-75367843D01*
X84427381Y-75285350D01*
X84356489Y-75215680D01*
X84308519Y-75179232D01*
X84217363Y-75129193D01*
X84120024Y-75099170D01*
X84016503Y-75089162D01*
X83907327Y-75098321D01*
X83804989Y-75125799D01*
X83709490Y-75171594D01*
X83620830Y-75235708D01*
X83559699Y-75295030D01*
X83495455Y-75375743D01*
X83438831Y-75468845D01*
X83396361Y-75558507D01*
X83359490Y-75657271D01*
X83328778Y-75763837D01*
X83304421Y-75877273D01*
X83288977Y-75977050D01*
X83277945Y-76081597D01*
X83271327Y-76190915D01*
X83269120Y-76305003D01*
X82468920Y-76305003D01*
X82467763Y-76241177D01*
X82458807Y-76111394D01*
X82442175Y-75995273D01*
X82417866Y-75892812D01*
X82373513Y-75777449D01*
X82315513Y-75686374D01*
X82243866Y-75619585D01*
X82135116Y-75570252D01*
X82032763Y-75558108D01*
X81934547Y-75572183D01*
X81837410Y-75621663D01*
X81762939Y-75695555D01*
X81706943Y-75783300D01*
X81696196Y-75783300D01*
X81701570Y-75608422D01*
X81701570Y-74964110D01*
X81571144Y-74964110D01*
X81571144Y-76335778D01*
X81184263Y-76335778D01*
X81184263Y-76066622D01*
X81181413Y-75969221D01*
X81170880Y-75869607D01*
X81145936Y-75763721D01*
X81103175Y-75675345D01*
X81035247Y-75608598D01*
X80942961Y-75569557D01*
X80837927Y-75558108D01*
X80806182Y-75559023D01*
X80702226Y-75575280D01*
X80601133Y-75611859D01*
X80512595Y-75662156D01*
X80568771Y-75766692D01*
X80626858Y-75734144D01*
X80725238Y-75696947D01*
X80830111Y-75683161D01*
X80837585Y-75683256D01*
X80933670Y-75707463D01*
X81003035Y-75780369D01*
X81009364Y-75792910D01*
X81038765Y-75887065D01*
X81052036Y-75990296D01*
X81055303Y-76089092D01*
X81055303Y-76214633D01*
X80894591Y-76222937D01*
X80811570Y-76230969D01*
X80712148Y-76254126D01*
X80615698Y-76297184D01*
X80535554Y-76358248D01*
X80492226Y-76407885D01*
X80444042Y-76493996D01*
X80416028Y-76594095D01*
X80408060Y-76694815D01*
X79684612Y-76694815D01*
X79684612Y-75089162D01*
X79549790Y-75089162D01*
X79549790Y-77090000D01*
X78506058Y-77090000D01*
X78540762Y-77079010D01*
X78631437Y-77031870D01*
X78631437Y-76905840D01*
X78535829Y-76954269D01*
X78434077Y-76986824D01*
X78335903Y-76997676D01*
X78302730Y-76996220D01*
X78203812Y-76970346D01*
X78122830Y-76912128D01*
X78065282Y-76832079D01*
X78026203Y-76738595D01*
X78000825Y-76639666D01*
X77985621Y-76542145D01*
X77976462Y-76432877D01*
X77973447Y-76332847D01*
X78679309Y-76332847D01*
X78679309Y-76211702D01*
X78677629Y-76138643D01*
X78668814Y-76036267D01*
X78648979Y-75927768D01*
X78618859Y-75831050D01*
X78571842Y-75734940D01*
X78543876Y-75693495D01*
X78472023Y-75620448D01*
X78377684Y-75572096D01*
X78279727Y-75558108D01*
X78191317Y-75567856D01*
X78091660Y-75609033D01*
X78016311Y-75672689D01*
X77953419Y-75761807D01*
X77920771Y-75829770D01*
X77888897Y-75923102D01*
X77864992Y-76029279D01*
X77851157Y-76127572D01*
X77844417Y-76214633D01*
X77842857Y-76234786D01*
X77840090Y-76350921D01*
X77419016Y-76350921D01*
X77419016Y-75704654D01*
X77655443Y-75704654D01*
X77655443Y-75589371D01*
X77419016Y-75589371D01*
X77419016Y-75245478D01*
X77328157Y-75245478D01*
X77285659Y-75589371D01*
X77153768Y-75627962D01*
X76902686Y-75627962D01*
X76902686Y-75589371D01*
X76773726Y-75589371D01*
X76773726Y-76415889D01*
X76773417Y-76453755D01*
X76768780Y-76559382D01*
X76756338Y-76667507D01*
X76732845Y-76771158D01*
X76694591Y-76862365D01*
X76636612Y-76935008D01*
X76543739Y-76986666D01*
X76446929Y-77000118D01*
X76351186Y-76974473D01*
X76283775Y-76897536D01*
X76271410Y-76870005D01*
X76245908Y-76774854D01*
X76234316Y-76675794D01*
X76231018Y-76571716D01*
X76231018Y-75589371D01*
X76100593Y-75589371D01*
X76100593Y-76570739D01*
X75721528Y-76570739D01*
X75721528Y-76108143D01*
X75721451Y-76090284D01*
X75717788Y-75989580D01*
X75706568Y-75886069D01*
X75684586Y-75786204D01*
X75643370Y-75689023D01*
X75592219Y-75625739D01*
X75501659Y-75573578D01*
X75396196Y-75558108D01*
X75380748Y-75558347D01*
X75282868Y-75573374D01*
X75192986Y-75619169D01*
X75164536Y-75644631D01*
X75104830Y-75725415D01*
X75061095Y-75818471D01*
X75056972Y-75802773D01*
X75019452Y-75706242D01*
X74958025Y-75624542D01*
X74948906Y-75616498D01*
X74861253Y-75570824D01*
X74763119Y-75558108D01*
X74663712Y-75573007D01*
X74570564Y-75625386D01*
X74504374Y-75703605D01*
X74459281Y-75796489D01*
X74447069Y-75796489D01*
X74435833Y-75589371D01*
X74325924Y-75589371D01*
X73404640Y-75589371D01*
X73404640Y-75218122D01*
X73998150Y-75218122D01*
X73998150Y-75089162D01*
X73269818Y-75089162D01*
X73269818Y-77090000D01*
X72929383Y-77090000D01*
X72929383Y-74276615D01*
X80538485Y-74276615D01*
X80538485Y-74394340D01*
X80558759Y-74401095D01*
X80656699Y-74417787D01*
X80688137Y-74416223D01*
X80785550Y-74386103D01*
X80863328Y-74317648D01*
X80868153Y-74311323D01*
X80921517Y-74220396D01*
X80959584Y-74123424D01*
X80988594Y-74020648D01*
X107002686Y-74020648D01*
X107003110Y-74044353D01*
X107015500Y-74142289D01*
X107049389Y-74234338D01*
X107111130Y-74315205D01*
X107125052Y-74327627D01*
X107214719Y-74381623D01*
X107315470Y-74409673D01*
X107421807Y-74417787D01*
X107523083Y-74411663D01*
X107627779Y-74389666D01*
X107720691Y-74351671D01*
X107811130Y-74289804D01*
X107861431Y-74238782D01*
X107917368Y-74150206D01*
X107949890Y-74047179D01*
X107959141Y-73943468D01*
X107958712Y-73919463D01*
X107946154Y-73820322D01*
X107911807Y-73727204D01*
X107849232Y-73645491D01*
X107835144Y-73633010D01*
X107745177Y-73578757D01*
X107645057Y-73550574D01*
X107540020Y-73542421D01*
X107446720Y-73542421D01*
X107406878Y-73540162D01*
X107313363Y-73506273D01*
X107301800Y-73496778D01*
X107264026Y-73404668D01*
X107264944Y-73385052D01*
X107301639Y-73292316D01*
X107331125Y-73259069D01*
X107405687Y-73195596D01*
X107434508Y-73198527D01*
X107467236Y-73198527D01*
X107570337Y-73182423D01*
X107658661Y-73134110D01*
X107726133Y-73062240D01*
X107759501Y-73008195D01*
X107796609Y-72916116D01*
X107818183Y-72810822D01*
X107824319Y-72706133D01*
X107824293Y-72699544D01*
X107817725Y-72601842D01*
X107797941Y-72499993D01*
X107778352Y-72436016D01*
X107731018Y-72344654D01*
X107934228Y-72321207D01*
X107934228Y-72229371D01*
X107618178Y-72229371D01*
X107561980Y-72209130D01*
X107461863Y-72198108D01*
X107451006Y-72198244D01*
X107350466Y-72214559D01*
X107256731Y-72263911D01*
X107186845Y-72337327D01*
X107143034Y-72413286D01*
X107108709Y-72513922D01*
X107091498Y-72616870D01*
X107086706Y-72717369D01*
X107086836Y-72719811D01*
X107091304Y-72803974D01*
X107109413Y-72901009D01*
X107144836Y-72995806D01*
X107168775Y-73037834D01*
X107234077Y-73113108D01*
X107317759Y-73166775D01*
X107261133Y-73212205D01*
X107190265Y-73283035D01*
X107170817Y-73311092D01*
X107145812Y-73406622D01*
X107149136Y-73447589D01*
X107187822Y-73537536D01*
X107216654Y-73569650D01*
X107298220Y-73623510D01*
X107235399Y-73650738D01*
X107145651Y-73706769D01*
X107074005Y-73780802D01*
X107046216Y-73826339D01*
X107012715Y-73921203D01*
X107003770Y-74009902D01*
X107002686Y-74020648D01*
X80988594Y-74020648D01*
X80988869Y-74019672D01*
X81059370Y-73730000D01*
X82179797Y-73730000D01*
X82908129Y-73730000D01*
X82908129Y-73601039D01*
X82314619Y-73601039D01*
X82314619Y-72733489D01*
X82874912Y-72733489D01*
X82874912Y-72604528D01*
X82314619Y-72604528D01*
X82314619Y-72229371D01*
X83235903Y-72229371D01*
X83235903Y-73730000D01*
X83366329Y-73730000D01*
X83366329Y-72903970D01*
X83366395Y-72885054D01*
X83369555Y-72778511D01*
X83379232Y-72669274D01*
X83398191Y-72564295D01*
X83433740Y-72462868D01*
X83467089Y-72409954D01*
X83549488Y-72346165D01*
X83649162Y-72327069D01*
X83747103Y-72350516D01*
X83815247Y-72420858D01*
X83847991Y-72504641D01*
X83864730Y-72605701D01*
X83868981Y-72705645D01*
X83868981Y-73730000D01*
X83998429Y-73730000D01*
X83998429Y-72849748D01*
X84000051Y-72772213D01*
X84009394Y-72660907D01*
X84029830Y-72554445D01*
X84064863Y-72459448D01*
X84098162Y-72407867D01*
X84181337Y-72345684D01*
X84282728Y-72327069D01*
X84346055Y-72336311D01*
X84432995Y-72399530D01*
X84476572Y-72490108D01*
X84497180Y-72596582D01*
X84502547Y-72705645D01*
X84502547Y-73730000D01*
X84631507Y-73730000D01*
X84631507Y-72975778D01*
X85015945Y-72975778D01*
X85015945Y-73010460D01*
X85015945Y-73730000D01*
X85122923Y-73730000D01*
X85140997Y-73524836D01*
X85151744Y-73524836D01*
X85162901Y-73546228D01*
X85221779Y-73632888D01*
X85297313Y-73701667D01*
X85390125Y-73746364D01*
X85492707Y-73761263D01*
X85566077Y-73754204D01*
X85663446Y-73717149D01*
X85745590Y-73648331D01*
X85805826Y-73560495D01*
X85831243Y-73507326D01*
X85867567Y-73400544D01*
X85890442Y-73295099D01*
X85903680Y-73197417D01*
X85911623Y-73090813D01*
X85914236Y-72976755D01*
X86164863Y-72976755D01*
X86165881Y-73046537D01*
X86172099Y-73155876D01*
X86183970Y-73256509D01*
X86205677Y-73365778D01*
X86235524Y-73462509D01*
X86280635Y-73559518D01*
X86345176Y-73647781D01*
X86422540Y-73710826D01*
X86512726Y-73748654D01*
X86615736Y-73761263D01*
X86719753Y-73748654D01*
X86811008Y-73710826D01*
X86889501Y-73647781D01*
X86955233Y-73559518D01*
X86989570Y-73491967D01*
X87023093Y-73399414D01*
X87048234Y-73294325D01*
X87062784Y-73197174D01*
X87071514Y-73091317D01*
X87074275Y-72982616D01*
X87325505Y-72982616D01*
X87325549Y-72985059D01*
X87327202Y-73076906D01*
X87336108Y-73206933D01*
X87352647Y-73323274D01*
X87376820Y-73425928D01*
X87420925Y-73541508D01*
X87478600Y-73632756D01*
X87549847Y-73699670D01*
X87657989Y-73749096D01*
X87759769Y-73761263D01*
X87766614Y-73761202D01*
X87863450Y-73745875D01*
X87954675Y-73699713D01*
X87975550Y-73683372D01*
X88044995Y-73607273D01*
X88093893Y-73522393D01*
X88106106Y-73522393D01*
X88117341Y-73730000D01*
X88224319Y-73730000D01*
X88615108Y-73730000D01*
X88745533Y-73730000D01*
X88745533Y-72990921D01*
X89073307Y-72990921D01*
X89074424Y-73057660D01*
X89081245Y-73162654D01*
X89094268Y-73259848D01*
X89118082Y-73366185D01*
X89150826Y-73461291D01*
X89200314Y-73558053D01*
X89208358Y-73570555D01*
X89280410Y-73656284D01*
X89366139Y-73716612D01*
X89465546Y-73751539D01*
X89563747Y-73761263D01*
X89573623Y-73761175D01*
X89680251Y-73748692D01*
X89773979Y-73719010D01*
X89864654Y-73671870D01*
X89864654Y-73545840D01*
X89769046Y-73594269D01*
X89667294Y-73626824D01*
X89569120Y-73637676D01*
X89535947Y-73636220D01*
X89437029Y-73610346D01*
X89356047Y-73552128D01*
X89298499Y-73472079D01*
X89259420Y-73378595D01*
X89234042Y-73279666D01*
X89218838Y-73182145D01*
X89209679Y-73072877D01*
X89206958Y-72982616D01*
X90166538Y-72982616D01*
X90166582Y-72985059D01*
X90168235Y-73076906D01*
X90177140Y-73206933D01*
X90193680Y-73323274D01*
X90217853Y-73425928D01*
X90261958Y-73541508D01*
X90319633Y-73632756D01*
X90390880Y-73699670D01*
X90499021Y-73749096D01*
X90600802Y-73761263D01*
X90607647Y-73761202D01*
X90704483Y-73745875D01*
X90795708Y-73699713D01*
X90816583Y-73683372D01*
X90886028Y-73607273D01*
X90934926Y-73522393D01*
X90947138Y-73522393D01*
X90958374Y-73730000D01*
X91065352Y-73730000D01*
X92002267Y-73730000D01*
X92131228Y-73730000D01*
X92131228Y-72272358D01*
X92130146Y-72212565D01*
X92126406Y-72107064D01*
X92122198Y-72008746D01*
X92117550Y-71908436D01*
X92128785Y-71908436D01*
X92663189Y-73730000D01*
X92815596Y-73730000D01*
X93347069Y-71911367D01*
X93358304Y-71911367D01*
X93355859Y-71963445D01*
X93351091Y-72071136D01*
X93346883Y-72181157D01*
X93344626Y-72283593D01*
X93344626Y-73730000D01*
X93478960Y-73730000D01*
X93478960Y-73334815D01*
X93796475Y-73334815D01*
X93796524Y-73338234D01*
X93796821Y-73358811D01*
X93806923Y-73459241D01*
X93834553Y-73556328D01*
X93884891Y-73645491D01*
X93932885Y-73696141D01*
X94018156Y-73744982D01*
X94119364Y-73761263D01*
X94132813Y-73761029D01*
X94232708Y-73742368D01*
X94318926Y-73693847D01*
X94391466Y-73615468D01*
X94443719Y-73522393D01*
X94449092Y-73522393D01*
X94465701Y-73730000D01*
X94572679Y-73730000D01*
X94572679Y-72987990D01*
X94892149Y-72987990D01*
X94893145Y-73057721D01*
X94899232Y-73166745D01*
X94910852Y-73266777D01*
X94932102Y-73374946D01*
X94961319Y-73470167D01*
X95005478Y-73564891D01*
X95069072Y-73650804D01*
X95146528Y-73712170D01*
X95237844Y-73748989D01*
X95343021Y-73761263D01*
X95358422Y-73760929D01*
X95456838Y-73747585D01*
X95473004Y-73743990D01*
X95511066Y-73730000D01*
X95827110Y-73730000D01*
X95957536Y-73730000D01*
X95957536Y-72906901D01*
X95957847Y-72869438D01*
X95962513Y-72764721D01*
X95975031Y-72657094D01*
X95998670Y-72553268D01*
X96037159Y-72460914D01*
X96088168Y-72392435D01*
X96175535Y-72335992D01*
X96275052Y-72319253D01*
X96372196Y-72338036D01*
X96446999Y-72404738D01*
X96479445Y-72485178D01*
X96496032Y-72588242D01*
X96500244Y-72693433D01*
X96500244Y-73730000D01*
X96629204Y-73730000D01*
X97015108Y-73730000D01*
X97145533Y-73730000D01*
X97145533Y-72229371D01*
X97540718Y-72229371D01*
X97540718Y-73730000D01*
X97671144Y-73730000D01*
X97671144Y-72903970D01*
X97671447Y-72866513D01*
X97675998Y-72761882D01*
X97688210Y-72654485D01*
X97711268Y-72551094D01*
X97748813Y-72459448D01*
X97799612Y-72391678D01*
X97889463Y-72335819D01*
X97994033Y-72319253D01*
X98057360Y-72328388D01*
X98144300Y-72390873D01*
X98187877Y-72480399D01*
X98208485Y-72585637D01*
X98213852Y-72693433D01*
X98213852Y-73730000D01*
X98342812Y-73730000D01*
X98342812Y-72990921D01*
X98661304Y-72990921D01*
X98662421Y-73057660D01*
X98669242Y-73162654D01*
X98682265Y-73259848D01*
X98706079Y-73366185D01*
X98738823Y-73461291D01*
X98788311Y-73558053D01*
X98796355Y-73570555D01*
X98868407Y-73656284D01*
X98954136Y-73716612D01*
X99053543Y-73751539D01*
X99151744Y-73761263D01*
X99161621Y-73761175D01*
X99268248Y-73748692D01*
X99327272Y-73730000D01*
X100371004Y-73730000D01*
X101071493Y-73730000D01*
X101071493Y-73601039D01*
X100505826Y-73601039D01*
X100505826Y-72990921D01*
X101254187Y-72990921D01*
X101255303Y-73057660D01*
X101262124Y-73162654D01*
X101275148Y-73259848D01*
X101298961Y-73366185D01*
X101331705Y-73461291D01*
X101381193Y-73558053D01*
X101389238Y-73570555D01*
X101461289Y-73656284D01*
X101547018Y-73716612D01*
X101646425Y-73751539D01*
X101744626Y-73761263D01*
X101754503Y-73761175D01*
X101861130Y-73748692D01*
X101954858Y-73719010D01*
X102045533Y-73671870D01*
X102045533Y-73545840D01*
X101949926Y-73594269D01*
X101848173Y-73626824D01*
X101750000Y-73637676D01*
X101716826Y-73636220D01*
X101617908Y-73610346D01*
X101536926Y-73552128D01*
X101479378Y-73472079D01*
X101440300Y-73378595D01*
X101429069Y-73334815D01*
X102325436Y-73334815D01*
X102325485Y-73338234D01*
X102325781Y-73358811D01*
X102335883Y-73459241D01*
X102363513Y-73556328D01*
X102413852Y-73645491D01*
X102461845Y-73696141D01*
X102547117Y-73744982D01*
X102648325Y-73761263D01*
X102661773Y-73761029D01*
X102761669Y-73742368D01*
X102847886Y-73693847D01*
X102920426Y-73615468D01*
X102972679Y-73522393D01*
X102978053Y-73522393D01*
X102994661Y-73730000D01*
X103101639Y-73730000D01*
X103101639Y-72706622D01*
X103098789Y-72609221D01*
X103088257Y-72509607D01*
X103063312Y-72403721D01*
X103020551Y-72315345D01*
X102952623Y-72248598D01*
X102907174Y-72229371D01*
X103488520Y-72229371D01*
X103488520Y-73730000D01*
X103618946Y-73730000D01*
X103618946Y-72932791D01*
X103622571Y-72830018D01*
X103634934Y-72723580D01*
X103656071Y-72624068D01*
X103665787Y-72589988D01*
X103703374Y-72492619D01*
X103758164Y-72405715D01*
X103804378Y-72360939D01*
X103899337Y-72327069D01*
X103902600Y-72327089D01*
X104000942Y-72347585D01*
X104029720Y-72229371D01*
X104252512Y-72229371D01*
X104252512Y-73730000D01*
X104382937Y-73730000D01*
X104382937Y-72903970D01*
X104383241Y-72866513D01*
X104387792Y-72761882D01*
X104400003Y-72654485D01*
X104423061Y-72551094D01*
X104460607Y-72459448D01*
X104511405Y-72391678D01*
X104601256Y-72335819D01*
X104705826Y-72319253D01*
X104769153Y-72328388D01*
X104856093Y-72390873D01*
X104899670Y-72480399D01*
X104920278Y-72585637D01*
X104925645Y-72693433D01*
X104925645Y-73730000D01*
X105054605Y-73730000D01*
X105440509Y-73730000D01*
X105570935Y-73730000D01*
X105570935Y-72229371D01*
X105966120Y-72229371D01*
X105966120Y-73730000D01*
X106096545Y-73730000D01*
X106096545Y-72903970D01*
X106096849Y-72866513D01*
X106101400Y-72761882D01*
X106113611Y-72654485D01*
X106136669Y-72551094D01*
X106174214Y-72459448D01*
X106225013Y-72391678D01*
X106314864Y-72335819D01*
X106419434Y-72319253D01*
X106482761Y-72328388D01*
X106569701Y-72390873D01*
X106613278Y-72480399D01*
X106633886Y-72585637D01*
X106639253Y-72693433D01*
X106639253Y-73730000D01*
X106768213Y-73730000D01*
X106768213Y-72690990D01*
X106766102Y-72613555D01*
X106753943Y-72504096D01*
X106727346Y-72402194D01*
X106681751Y-72315345D01*
X106612034Y-72248598D01*
X106521768Y-72209557D01*
X106421877Y-72198108D01*
X106324790Y-72213740D01*
X106233810Y-72260635D01*
X106217684Y-72272722D01*
X106147874Y-72346810D01*
X106098988Y-72436489D01*
X106086775Y-72436489D01*
X106076029Y-72229371D01*
X105966120Y-72229371D01*
X105570935Y-72229371D01*
X105440509Y-72229371D01*
X105440509Y-73730000D01*
X105054605Y-73730000D01*
X105054605Y-72690990D01*
X105052494Y-72613555D01*
X105040336Y-72504096D01*
X105013738Y-72402194D01*
X104968143Y-72315345D01*
X104898426Y-72248598D01*
X104808160Y-72209557D01*
X104708269Y-72198108D01*
X104611182Y-72213740D01*
X104520202Y-72260635D01*
X104504076Y-72272722D01*
X104434267Y-72346810D01*
X104385380Y-72436489D01*
X104373168Y-72436489D01*
X104362421Y-72229371D01*
X104252512Y-72229371D01*
X104029720Y-72229371D01*
X104032693Y-72217159D01*
X104001827Y-72208825D01*
X103902267Y-72198108D01*
X103880209Y-72199249D01*
X103788126Y-72232626D01*
X103716135Y-72301090D01*
X103660757Y-72390950D01*
X103618946Y-72490223D01*
X103609176Y-72490223D01*
X103595498Y-72229371D01*
X103488520Y-72229371D01*
X102907174Y-72229371D01*
X102860337Y-72209557D01*
X102755303Y-72198108D01*
X102723558Y-72199023D01*
X102619602Y-72215280D01*
X102518509Y-72251859D01*
X102429972Y-72302156D01*
X102486147Y-72406692D01*
X102544234Y-72374144D01*
X102642614Y-72336947D01*
X102747487Y-72323161D01*
X102754962Y-72323256D01*
X102851046Y-72347463D01*
X102920411Y-72420369D01*
X102926741Y-72432910D01*
X102956141Y-72527065D01*
X102969412Y-72630296D01*
X102972679Y-72729092D01*
X102972679Y-72854633D01*
X102811967Y-72862937D01*
X102728946Y-72870969D01*
X102629524Y-72894126D01*
X102533074Y-72937184D01*
X102452930Y-72998248D01*
X102409602Y-73047885D01*
X102361418Y-73133996D01*
X102333404Y-73234095D01*
X102325436Y-73334815D01*
X101429069Y-73334815D01*
X101414921Y-73279666D01*
X101399717Y-73182145D01*
X101390558Y-73072877D01*
X101387543Y-72972847D01*
X102093405Y-72972847D01*
X102093405Y-72851702D01*
X102091726Y-72778643D01*
X102082910Y-72676267D01*
X102063075Y-72567768D01*
X102032955Y-72471050D01*
X101985938Y-72374940D01*
X101957972Y-72333495D01*
X101886119Y-72260448D01*
X101791780Y-72212096D01*
X101693824Y-72198108D01*
X101605413Y-72207856D01*
X101505757Y-72249033D01*
X101430408Y-72312689D01*
X101367515Y-72401807D01*
X101334867Y-72469770D01*
X101302993Y-72563102D01*
X101279088Y-72669279D01*
X101265254Y-72767572D01*
X101258513Y-72854633D01*
X101256953Y-72874786D01*
X101254187Y-72990921D01*
X100505826Y-72990921D01*
X100505826Y-71823440D01*
X105420969Y-71823440D01*
X105446371Y-71914298D01*
X105511828Y-71948004D01*
X105570935Y-71914298D01*
X105592916Y-71823440D01*
X105570935Y-71731116D01*
X105511828Y-71697899D01*
X105446371Y-71731116D01*
X105420969Y-71823440D01*
X100505826Y-71823440D01*
X100505826Y-71729162D01*
X100371004Y-71729162D01*
X100371004Y-73730000D01*
X99327272Y-73730000D01*
X99361976Y-73719010D01*
X99452651Y-73671870D01*
X99452651Y-73545840D01*
X99357044Y-73594269D01*
X99255291Y-73626824D01*
X99157117Y-73637676D01*
X99123944Y-73636220D01*
X99025026Y-73610346D01*
X98944044Y-73552128D01*
X98886496Y-73472079D01*
X98847418Y-73378595D01*
X98822039Y-73279666D01*
X98806835Y-73182145D01*
X98797676Y-73072877D01*
X98794661Y-72972847D01*
X99500523Y-72972847D01*
X99500523Y-72851702D01*
X99498844Y-72778643D01*
X99490028Y-72676267D01*
X99470193Y-72567768D01*
X99440073Y-72471050D01*
X99393056Y-72374940D01*
X99365090Y-72333495D01*
X99293237Y-72260448D01*
X99198898Y-72212096D01*
X99100942Y-72198108D01*
X99012531Y-72207856D01*
X98912875Y-72249033D01*
X98837526Y-72312689D01*
X98774633Y-72401807D01*
X98741985Y-72469770D01*
X98710111Y-72563102D01*
X98686206Y-72669279D01*
X98672372Y-72767572D01*
X98665631Y-72854633D01*
X98664071Y-72874786D01*
X98661304Y-72990921D01*
X98342812Y-72990921D01*
X98342812Y-72690990D01*
X98340701Y-72613555D01*
X98328542Y-72504096D01*
X98301945Y-72402194D01*
X98256350Y-72315345D01*
X98186633Y-72248598D01*
X98096367Y-72209557D01*
X97996475Y-72198108D01*
X97899389Y-72213740D01*
X97808408Y-72260635D01*
X97792283Y-72272722D01*
X97722473Y-72346810D01*
X97673586Y-72436489D01*
X97661374Y-72436489D01*
X97650628Y-72229371D01*
X97540718Y-72229371D01*
X97145533Y-72229371D01*
X97015108Y-72229371D01*
X97015108Y-73730000D01*
X96629204Y-73730000D01*
X96629204Y-72693921D01*
X96627260Y-72619814D01*
X96616063Y-72513644D01*
X96591570Y-72412451D01*
X96549581Y-72322672D01*
X96544497Y-72315009D01*
X96474407Y-72246766D01*
X96378343Y-72207962D01*
X96280425Y-72198108D01*
X96186025Y-72213496D01*
X96095289Y-72259658D01*
X96079102Y-72271645D01*
X96009886Y-72344975D01*
X95962909Y-72433558D01*
X95952163Y-72433558D01*
X95955642Y-72378471D01*
X95957536Y-72279685D01*
X95957536Y-71823440D01*
X96995568Y-71823440D01*
X97020969Y-71914298D01*
X97086427Y-71948004D01*
X97145533Y-71914298D01*
X97167515Y-71823440D01*
X97145533Y-71731116D01*
X97086427Y-71697899D01*
X97020969Y-71731116D01*
X96995568Y-71823440D01*
X95957536Y-71823440D01*
X95957536Y-71604110D01*
X95827110Y-71604110D01*
X95827110Y-73730000D01*
X95511066Y-73730000D01*
X95568213Y-73708995D01*
X95568213Y-73599085D01*
X95553992Y-73604409D01*
X95458182Y-73632058D01*
X95356699Y-73643049D01*
X95336473Y-73642406D01*
X95228601Y-73611563D01*
X95143845Y-73534455D01*
X95090873Y-73434857D01*
X95060052Y-73332046D01*
X95039506Y-73208673D01*
X95030837Y-73102649D01*
X95027948Y-72985059D01*
X95028269Y-72944246D01*
X95033085Y-72829583D01*
X95043679Y-72726580D01*
X95066794Y-72607382D01*
X95100183Y-72508914D01*
X95156366Y-72414981D01*
X95244975Y-72345017D01*
X95356699Y-72321695D01*
X95432032Y-72331141D01*
X95525715Y-72364682D01*
X95576517Y-72248911D01*
X95540413Y-72231646D01*
X95443214Y-72205252D01*
X95345464Y-72198108D01*
X95240409Y-72210748D01*
X95148970Y-72248667D01*
X95071148Y-72311864D01*
X95006943Y-72400341D01*
X94973872Y-72467883D01*
X94941587Y-72560802D01*
X94917372Y-72666670D01*
X94903359Y-72764784D01*
X94894951Y-72871891D01*
X94892149Y-72987990D01*
X94572679Y-72987990D01*
X94572679Y-72706622D01*
X94569828Y-72609221D01*
X94559296Y-72509607D01*
X94534352Y-72403721D01*
X94491591Y-72315345D01*
X94423663Y-72248598D01*
X94331377Y-72209557D01*
X94226343Y-72198108D01*
X94194598Y-72199023D01*
X94090642Y-72215280D01*
X93989548Y-72251859D01*
X93901011Y-72302156D01*
X93957187Y-72406692D01*
X94015274Y-72374144D01*
X94113654Y-72336947D01*
X94218527Y-72323161D01*
X94226001Y-72323256D01*
X94322086Y-72347463D01*
X94391451Y-72420369D01*
X94397780Y-72432910D01*
X94427181Y-72527065D01*
X94440452Y-72630296D01*
X94443719Y-72729092D01*
X94443719Y-72854633D01*
X94283007Y-72862937D01*
X94199986Y-72870969D01*
X94100563Y-72894126D01*
X94004114Y-72937184D01*
X93923970Y-72998248D01*
X93880642Y-73047885D01*
X93832458Y-73133996D01*
X93804444Y-73234095D01*
X93796475Y-73334815D01*
X93478960Y-73334815D01*
X93478960Y-71729162D01*
X93273307Y-71729162D01*
X92826831Y-73262030D01*
X92818142Y-73291587D01*
X92787886Y-73398902D01*
X92762461Y-73498756D01*
X92741835Y-73603970D01*
X92730600Y-73603970D01*
X92723926Y-73558070D01*
X92704425Y-73457396D01*
X92679858Y-73356674D01*
X92652442Y-73259099D01*
X92201570Y-71729162D01*
X92002267Y-71729162D01*
X92002267Y-73730000D01*
X91065352Y-73730000D01*
X91065352Y-71604110D01*
X90934926Y-71604110D01*
X90934926Y-72255750D01*
X90940300Y-72417438D01*
X90929064Y-72417438D01*
X90922264Y-72404789D01*
X90862014Y-72320991D01*
X90785450Y-72256727D01*
X90693004Y-72212763D01*
X90595429Y-72198108D01*
X90519717Y-72205167D01*
X90419674Y-72242222D01*
X90335860Y-72311040D01*
X90274982Y-72398876D01*
X90249566Y-72451808D01*
X90213241Y-72558213D01*
X90190366Y-72663371D01*
X90177128Y-72760842D01*
X90169186Y-72867257D01*
X90166538Y-72982616D01*
X89206958Y-72982616D01*
X89206664Y-72972847D01*
X89912526Y-72972847D01*
X89912526Y-72851702D01*
X89910846Y-72778643D01*
X89902031Y-72676267D01*
X89882196Y-72567768D01*
X89852076Y-72471050D01*
X89805059Y-72374940D01*
X89777093Y-72333495D01*
X89705240Y-72260448D01*
X89610901Y-72212096D01*
X89512944Y-72198108D01*
X89424534Y-72207856D01*
X89324877Y-72249033D01*
X89249528Y-72312689D01*
X89186636Y-72401807D01*
X89153988Y-72469770D01*
X89122114Y-72563102D01*
X89098209Y-72669279D01*
X89084375Y-72767572D01*
X89077634Y-72854633D01*
X89076074Y-72874786D01*
X89073307Y-72990921D01*
X88745533Y-72990921D01*
X88745533Y-72229371D01*
X88615108Y-72229371D01*
X88615108Y-73730000D01*
X88224319Y-73730000D01*
X88224319Y-71823440D01*
X88595568Y-71823440D01*
X88620969Y-71914298D01*
X88686427Y-71948004D01*
X88745533Y-71914298D01*
X88767515Y-71823440D01*
X88745533Y-71731116D01*
X88686427Y-71697899D01*
X88620969Y-71731116D01*
X88595568Y-71823440D01*
X88224319Y-71823440D01*
X88224319Y-71604110D01*
X88093893Y-71604110D01*
X88093893Y-72255750D01*
X88099267Y-72417438D01*
X88088032Y-72417438D01*
X88081231Y-72404789D01*
X88020981Y-72320991D01*
X87944417Y-72256727D01*
X87851971Y-72212763D01*
X87754396Y-72198108D01*
X87678684Y-72205167D01*
X87578641Y-72242222D01*
X87494827Y-72311040D01*
X87433949Y-72398876D01*
X87408533Y-72451808D01*
X87372208Y-72558213D01*
X87349333Y-72663371D01*
X87336096Y-72760842D01*
X87328153Y-72867257D01*
X87325505Y-72982616D01*
X87074275Y-72982616D01*
X87074424Y-72976755D01*
X87073372Y-72908788D01*
X87066944Y-72801999D01*
X87054672Y-72703319D01*
X87032232Y-72595608D01*
X87001378Y-72499575D01*
X86954745Y-72402295D01*
X86898041Y-72322734D01*
X86822074Y-72255735D01*
X86722378Y-72210870D01*
X86621109Y-72198108D01*
X86514176Y-72210275D01*
X86421502Y-72246774D01*
X86343084Y-72307605D01*
X86278925Y-72392770D01*
X86229023Y-72502267D01*
X86200953Y-72600358D01*
X86180903Y-72712137D01*
X86168873Y-72837602D01*
X86164863Y-72976755D01*
X85914236Y-72976755D01*
X85914270Y-72975289D01*
X85912564Y-72881177D01*
X85903608Y-72751394D01*
X85886976Y-72635273D01*
X85862667Y-72532812D01*
X85818314Y-72417449D01*
X85760314Y-72326374D01*
X85688667Y-72259585D01*
X85579917Y-72210252D01*
X85477564Y-72198108D01*
X85379348Y-72212183D01*
X85282211Y-72261663D01*
X85207740Y-72335555D01*
X85151744Y-72423300D01*
X85140997Y-72423300D01*
X85146371Y-72248422D01*
X85146371Y-71604110D01*
X85015945Y-71604110D01*
X85015945Y-72975778D01*
X84631507Y-72975778D01*
X84631507Y-72748143D01*
X84631431Y-72730284D01*
X84627767Y-72629580D01*
X84616547Y-72526069D01*
X84594565Y-72426204D01*
X84553349Y-72329023D01*
X84502198Y-72265739D01*
X84411638Y-72213578D01*
X84306175Y-72198108D01*
X84290727Y-72198347D01*
X84192847Y-72213374D01*
X84102965Y-72259169D01*
X84074515Y-72284631D01*
X84014809Y-72365415D01*
X83971074Y-72458471D01*
X83966951Y-72442773D01*
X83929431Y-72346242D01*
X83868004Y-72264542D01*
X83858885Y-72256498D01*
X83771232Y-72210824D01*
X83673098Y-72198108D01*
X83573691Y-72213007D01*
X83480543Y-72265386D01*
X83414353Y-72343605D01*
X83369260Y-72436489D01*
X83357048Y-72436489D01*
X83345812Y-72229371D01*
X83235903Y-72229371D01*
X82314619Y-72229371D01*
X82314619Y-71858122D01*
X82908129Y-71858122D01*
X82908129Y-71729162D01*
X82179797Y-71729162D01*
X82179797Y-73730000D01*
X81059370Y-73730000D01*
X81424598Y-72229371D01*
X81292707Y-72229371D01*
X81072889Y-73164333D01*
X81056190Y-73238705D01*
X81036117Y-73336158D01*
X81016526Y-73443457D01*
X81000104Y-73548283D01*
X80989357Y-73548283D01*
X80975333Y-73470293D01*
X80956312Y-73371008D01*
X80934476Y-73265736D01*
X80912177Y-73167264D01*
X80686985Y-72229371D01*
X80555094Y-72229371D01*
X80927320Y-73730000D01*
X80861374Y-73992805D01*
X80851917Y-74031136D01*
X80821441Y-74129825D01*
X80775889Y-74223370D01*
X80738879Y-74264531D01*
X80645464Y-74295666D01*
X80635725Y-74295498D01*
X80538485Y-74276615D01*
X72929383Y-74276615D01*
X72929383Y-73730000D01*
X73269818Y-73730000D01*
X73398778Y-73730000D01*
X73398778Y-72272358D01*
X73397696Y-72212565D01*
X73393956Y-72107064D01*
X73389749Y-72008746D01*
X73385101Y-71908436D01*
X73396336Y-71908436D01*
X73930739Y-73730000D01*
X74083147Y-73730000D01*
X74614619Y-71911367D01*
X74625854Y-71911367D01*
X74623410Y-71963445D01*
X74618642Y-72071136D01*
X74614434Y-72181157D01*
X74612177Y-72283593D01*
X74612177Y-73730000D01*
X74746510Y-73730000D01*
X74746510Y-73210739D01*
X75150976Y-73210739D01*
X75151058Y-73228867D01*
X75154950Y-73330922D01*
X75166871Y-73435445D01*
X75190227Y-73535721D01*
X75234019Y-73632302D01*
X75302540Y-73705724D01*
X75393918Y-73748669D01*
X75496824Y-73761263D01*
X75593545Y-73745875D01*
X75682449Y-73699713D01*
X75698064Y-73687618D01*
X75766478Y-73613229D01*
X75815806Y-73522882D01*
X75826552Y-73522882D01*
X75843161Y-73730000D01*
X75953070Y-73730000D01*
X75953070Y-72572777D01*
X76246650Y-72572777D01*
X76251729Y-72649545D01*
X76277424Y-72745212D01*
X76304306Y-72797213D01*
X76364375Y-72875638D01*
X76403350Y-72911427D01*
X76486660Y-72974037D01*
X76572470Y-73030976D01*
X76604466Y-73052546D01*
X76684333Y-73113775D01*
X76753210Y-73187292D01*
X76787220Y-73258382D01*
X76800593Y-73355819D01*
X76800335Y-73371676D01*
X76784106Y-73471346D01*
X76734647Y-73560983D01*
X76650518Y-73620824D01*
X76552930Y-73637676D01*
X76476742Y-73631785D01*
X76380983Y-73606901D01*
X76327423Y-73583319D01*
X76246650Y-73524836D01*
X76246650Y-73677732D01*
X76273260Y-73694892D01*
X76365840Y-73734884D01*
X76443564Y-73753818D01*
X76544626Y-73761263D01*
X76652923Y-73750768D01*
X76710478Y-73730000D01*
X77225575Y-73730000D01*
X77356001Y-73730000D01*
X77356001Y-72987990D01*
X77683775Y-72987990D01*
X77684771Y-73057721D01*
X77690858Y-73166745D01*
X77702478Y-73266777D01*
X77723728Y-73374946D01*
X77752945Y-73470167D01*
X77797103Y-73564891D01*
X77860698Y-73650804D01*
X77938154Y-73712170D01*
X78029470Y-73748989D01*
X78134647Y-73761263D01*
X78150048Y-73760929D01*
X78248464Y-73747585D01*
X78264630Y-73743990D01*
X78359839Y-73708995D01*
X78359839Y-73599085D01*
X78345618Y-73604409D01*
X78249808Y-73632058D01*
X78148325Y-73643049D01*
X78128099Y-73642406D01*
X78020227Y-73611563D01*
X77935471Y-73534455D01*
X77882499Y-73434857D01*
X77852508Y-73334815D01*
X78526413Y-73334815D01*
X78526462Y-73338234D01*
X78526758Y-73358811D01*
X78536860Y-73459241D01*
X78564490Y-73556328D01*
X78614829Y-73645491D01*
X78662822Y-73696141D01*
X78748094Y-73744982D01*
X78849302Y-73761263D01*
X78862750Y-73761029D01*
X78962646Y-73742368D01*
X79048863Y-73693847D01*
X79121403Y-73615468D01*
X79173656Y-73522393D01*
X79179030Y-73522393D01*
X79195638Y-73730000D01*
X79302616Y-73730000D01*
X79689497Y-73730000D01*
X79819923Y-73730000D01*
X80215108Y-73730000D01*
X80345533Y-73730000D01*
X80345533Y-71604110D01*
X80215108Y-71604110D01*
X80215108Y-73730000D01*
X79819923Y-73730000D01*
X79819923Y-71604110D01*
X79689497Y-71604110D01*
X79689497Y-73730000D01*
X79302616Y-73730000D01*
X79302616Y-72706622D01*
X79299766Y-72609221D01*
X79289234Y-72509607D01*
X79264289Y-72403721D01*
X79221528Y-72315345D01*
X79153600Y-72248598D01*
X79061314Y-72209557D01*
X78956280Y-72198108D01*
X78924535Y-72199023D01*
X78820579Y-72215280D01*
X78719486Y-72251859D01*
X78630949Y-72302156D01*
X78687124Y-72406692D01*
X78745211Y-72374144D01*
X78843591Y-72336947D01*
X78948464Y-72323161D01*
X78955938Y-72323256D01*
X79052023Y-72347463D01*
X79121388Y-72420369D01*
X79127718Y-72432910D01*
X79157118Y-72527065D01*
X79170389Y-72630296D01*
X79173656Y-72729092D01*
X79173656Y-72854633D01*
X79012944Y-72862937D01*
X78929923Y-72870969D01*
X78830501Y-72894126D01*
X78734051Y-72937184D01*
X78653907Y-72998248D01*
X78610579Y-73047885D01*
X78562395Y-73133996D01*
X78534381Y-73234095D01*
X78526413Y-73334815D01*
X77852508Y-73334815D01*
X77851678Y-73332046D01*
X77831131Y-73208673D01*
X77822463Y-73102649D01*
X77819574Y-72985059D01*
X77819895Y-72944246D01*
X77824711Y-72829583D01*
X77835305Y-72726580D01*
X77858420Y-72607382D01*
X77891809Y-72508914D01*
X77947992Y-72414981D01*
X78036601Y-72345017D01*
X78148325Y-72321695D01*
X78223658Y-72331141D01*
X78317341Y-72364682D01*
X78368143Y-72248911D01*
X78332039Y-72231646D01*
X78234840Y-72205252D01*
X78137090Y-72198108D01*
X78032035Y-72210748D01*
X77940596Y-72248667D01*
X77862774Y-72311864D01*
X77798569Y-72400341D01*
X77765498Y-72467883D01*
X77733213Y-72560802D01*
X77708998Y-72666670D01*
X77694985Y-72764784D01*
X77686577Y-72871891D01*
X77683775Y-72987990D01*
X77356001Y-72987990D01*
X77356001Y-72229371D01*
X77225575Y-72229371D01*
X77225575Y-73730000D01*
X76710478Y-73730000D01*
X76752104Y-73714980D01*
X76830390Y-73653796D01*
X76842398Y-73639981D01*
X76894594Y-73552538D01*
X76921709Y-73456215D01*
X76929553Y-73355819D01*
X76925775Y-73289233D01*
X76902686Y-73191688D01*
X76878552Y-73139619D01*
X76820621Y-73060774D01*
X76782466Y-73024397D01*
X76701295Y-72960801D01*
X76617899Y-72902993D01*
X76573129Y-72873777D01*
X76492602Y-72814455D01*
X76419574Y-72740327D01*
X76386265Y-72669938D01*
X76373168Y-72572777D01*
X76388194Y-72476649D01*
X76441556Y-72391060D01*
X76527972Y-72336937D01*
X76626203Y-72321695D01*
X76680710Y-72325318D01*
X76778588Y-72351272D01*
X76865073Y-72397411D01*
X76932484Y-72283105D01*
X76924855Y-72277876D01*
X76833382Y-72231310D01*
X76738204Y-72206409D01*
X76631577Y-72198108D01*
X76532582Y-72208508D01*
X76436911Y-72243970D01*
X76355094Y-72304598D01*
X76297907Y-72376335D01*
X76259464Y-72467918D01*
X76246650Y-72572777D01*
X75953070Y-72572777D01*
X75953070Y-72229371D01*
X75824110Y-72229371D01*
X75824110Y-73055889D01*
X75823801Y-73093755D01*
X75819164Y-73199382D01*
X75806722Y-73307507D01*
X75783229Y-73411158D01*
X75744975Y-73502365D01*
X75686996Y-73575008D01*
X75594123Y-73626666D01*
X75497313Y-73640118D01*
X75401570Y-73614473D01*
X75334159Y-73537536D01*
X75321794Y-73510005D01*
X75296291Y-73414854D01*
X75284699Y-73315794D01*
X75281402Y-73211716D01*
X75281402Y-72229371D01*
X75150976Y-72229371D01*
X75150976Y-73210739D01*
X74746510Y-73210739D01*
X74746510Y-71823440D01*
X77206036Y-71823440D01*
X77231437Y-71914298D01*
X77296894Y-71948004D01*
X77356001Y-71914298D01*
X77377983Y-71823440D01*
X77356001Y-71731116D01*
X77296894Y-71697899D01*
X77231437Y-71731116D01*
X77206036Y-71823440D01*
X74746510Y-71823440D01*
X74746510Y-71729162D01*
X74540858Y-71729162D01*
X74094382Y-73262030D01*
X74085692Y-73291587D01*
X74055437Y-73398902D01*
X74030012Y-73498756D01*
X74009385Y-73603970D01*
X73998150Y-73603970D01*
X73991476Y-73558070D01*
X73971975Y-73457396D01*
X73947409Y-73356674D01*
X73919993Y-73259099D01*
X73469120Y-71729162D01*
X73269818Y-71729162D01*
X73269818Y-73730000D01*
X72929383Y-73730000D01*
X72929383Y-71381888D01*
X115694273Y-71381888D01*
X115694273Y-84063485D01*
G37*
M02*
