%TF.GenerationSoftware,KiCad,Pcbnew,8.0.8*%
%TF.CreationDate,2025-03-17T16:38:29+00:00*%
%TF.ProjectId,memlnaut_0_1_joystick,6d656d6c-6e61-4757-945f-305f315f6a6f,rev?*%
%TF.SameCoordinates,Original*%
%TF.FileFunction,Legend,Top*%
%TF.FilePolarity,Positive*%
%FSLAX46Y46*%
G04 Gerber Fmt 4.6, Leading zero omitted, Abs format (unit mm)*
G04 Created by KiCad (PCBNEW 8.0.8) date 2025-03-17 16:38:29*
%MOMM*%
%LPD*%
G01*
G04 APERTURE LIST*
%ADD10C,0.100000*%
%ADD11C,0.150000*%
G04 APERTURE END LIST*
D10*
G36*
X105641849Y-48480000D02*
G01*
X104305840Y-43926092D01*
X104277752Y-43926092D01*
X104289373Y-44176865D01*
X104299892Y-44422660D01*
X104309242Y-44686413D01*
X104311946Y-44835896D01*
X104311946Y-48480000D01*
X103989546Y-48480000D01*
X103989546Y-43477906D01*
X104487801Y-43477906D01*
X105614982Y-47302749D01*
X105683523Y-47546687D01*
X105744939Y-47798490D01*
X105793692Y-48050175D01*
X105810376Y-48164926D01*
X105838464Y-48164926D01*
X105890030Y-47901891D01*
X105953592Y-47652255D01*
X106029231Y-47383969D01*
X106050956Y-47310076D01*
X107167145Y-43477906D01*
X107681277Y-43477906D01*
X107681277Y-48480000D01*
X107345443Y-48480000D01*
X107345443Y-44863984D01*
X107351086Y-44607894D01*
X107361605Y-44332842D01*
X107373526Y-44063614D01*
X107379637Y-43933419D01*
X107351549Y-43933419D01*
X106022868Y-48480000D01*
X105641849Y-48480000D01*
G37*
G36*
X110577997Y-48480000D02*
G01*
X108757166Y-48480000D01*
X108757166Y-43477906D01*
X110577997Y-43477906D01*
X110577997Y-43800307D01*
X109094221Y-43800307D01*
X109094221Y-45666322D01*
X110494954Y-45666322D01*
X110494954Y-45988722D01*
X109094221Y-45988722D01*
X109094221Y-48157599D01*
X110577997Y-48157599D01*
X110577997Y-48480000D01*
G37*
G36*
X113101025Y-48480000D02*
G01*
X111765017Y-43926092D01*
X111736929Y-43926092D01*
X111748550Y-44176865D01*
X111759068Y-44422660D01*
X111768418Y-44686413D01*
X111771123Y-44835896D01*
X111771123Y-48480000D01*
X111448722Y-48480000D01*
X111448722Y-43477906D01*
X111946978Y-43477906D01*
X113074159Y-47302749D01*
X113142699Y-47546687D01*
X113204115Y-47798490D01*
X113252869Y-48050175D01*
X113269553Y-48164926D01*
X113297641Y-48164926D01*
X113349206Y-47901891D01*
X113412769Y-47652255D01*
X113488408Y-47383969D01*
X113510132Y-47310076D01*
X114626322Y-43477906D01*
X115140453Y-43477906D01*
X115140453Y-48480000D01*
X114804619Y-48480000D01*
X114804619Y-44863984D01*
X114810263Y-44607894D01*
X114820781Y-44332842D01*
X114832702Y-44063614D01*
X114838813Y-43933419D01*
X114810725Y-43933419D01*
X113482044Y-48480000D01*
X113101025Y-48480000D01*
G37*
G36*
X116216343Y-48480000D02*
G01*
X116216343Y-43477906D01*
X116553398Y-43477906D01*
X116553398Y-48157599D01*
X117967564Y-48157599D01*
X117967564Y-48480000D01*
X116216343Y-48480000D01*
G37*
G36*
X121289267Y-48480000D02*
G01*
X120859399Y-48480000D01*
X118960411Y-43994480D01*
X118932323Y-43994480D01*
X118952395Y-44253496D01*
X118965897Y-44507103D01*
X118972831Y-44755301D01*
X118973845Y-44890851D01*
X118973845Y-48480000D01*
X118644117Y-48480000D01*
X118644117Y-43477906D01*
X119080090Y-43477906D01*
X120965645Y-47912135D01*
X120986406Y-47912135D01*
X120974651Y-47643315D01*
X120966256Y-47397393D01*
X120960825Y-47148101D01*
X120959539Y-46974242D01*
X120959539Y-43477906D01*
X121289267Y-43477906D01*
X121289267Y-48480000D01*
G37*
G36*
X123421531Y-44678894D02*
G01*
X123652246Y-44776496D01*
X123822065Y-44943363D01*
X123928969Y-45164303D01*
X123991330Y-45429019D01*
X124017660Y-45678052D01*
X124024787Y-45921556D01*
X124024787Y-48480000D01*
X123757341Y-48480000D01*
X123715819Y-47960983D01*
X123702386Y-47960983D01*
X123571754Y-48193671D01*
X123390404Y-48389619D01*
X123174860Y-48510920D01*
X122925121Y-48557574D01*
X122891500Y-48558157D01*
X122638480Y-48517456D01*
X122425301Y-48395354D01*
X122305317Y-48268729D01*
X122179471Y-48045820D01*
X122110396Y-47803103D01*
X122085141Y-47552029D01*
X122084400Y-47500586D01*
X122428660Y-47500586D01*
X122442732Y-47744781D01*
X122503104Y-47995910D01*
X122572763Y-48125847D01*
X122767723Y-48285817D01*
X122964773Y-48323684D01*
X123204913Y-48272679D01*
X123401433Y-48119665D01*
X123508213Y-47960983D01*
X123602076Y-47733104D01*
X123659721Y-47490483D01*
X123690250Y-47247260D01*
X123702196Y-46975169D01*
X123702386Y-46933942D01*
X123702386Y-46526057D01*
X123314040Y-46548039D01*
X123055701Y-46584055D01*
X122823595Y-46671608D01*
X122646036Y-46809378D01*
X122513572Y-47017634D01*
X122445854Y-47262241D01*
X122428660Y-47500586D01*
X122084400Y-47500586D01*
X122084277Y-47492037D01*
X122104198Y-47240238D01*
X122174233Y-46989991D01*
X122294693Y-46774712D01*
X122403014Y-46650621D01*
X122603373Y-46497960D01*
X122844497Y-46390316D01*
X123093053Y-46332423D01*
X123300607Y-46312344D01*
X123702386Y-46291584D01*
X123702386Y-45977732D01*
X123694219Y-45730741D01*
X123661041Y-45472664D01*
X123587539Y-45237275D01*
X123571716Y-45205924D01*
X123398304Y-45023658D01*
X123158092Y-44963140D01*
X123139406Y-44962903D01*
X122877223Y-44997367D01*
X122631273Y-45090361D01*
X122486057Y-45171730D01*
X122345617Y-44910390D01*
X122566960Y-44784649D01*
X122819694Y-44693201D01*
X123079584Y-44652558D01*
X123158946Y-44650272D01*
X123421531Y-44678894D01*
G37*
G36*
X125304619Y-44728429D02*
G01*
X125304619Y-47184291D01*
X125312862Y-47444486D01*
X125341842Y-47692136D01*
X125405598Y-47930014D01*
X125436510Y-47998841D01*
X125605038Y-48191182D01*
X125844396Y-48255296D01*
X126086420Y-48221665D01*
X126318604Y-48092522D01*
X126463551Y-47910914D01*
X126559185Y-47682895D01*
X126617918Y-47423768D01*
X126649023Y-47153456D01*
X126660615Y-46889387D01*
X126661388Y-46794724D01*
X126661388Y-44728429D01*
X126983789Y-44728429D01*
X126983789Y-48480000D01*
X126709016Y-48480000D01*
X126667494Y-47962205D01*
X126640628Y-47962205D01*
X126517309Y-48188072D01*
X126346273Y-48374045D01*
X126307236Y-48404284D01*
X126084975Y-48519689D01*
X125843175Y-48558157D01*
X125585909Y-48526673D01*
X125357463Y-48419311D01*
X125186161Y-48235757D01*
X125076681Y-47994304D01*
X125018292Y-47743612D01*
X124988489Y-47482307D01*
X124978758Y-47227168D01*
X124978555Y-47181849D01*
X124978555Y-44728429D01*
X125304619Y-44728429D01*
G37*
G36*
X128645861Y-48255296D02*
G01*
X128891036Y-48221195D01*
X128913307Y-48213775D01*
X128913307Y-48489769D01*
X128664685Y-48551479D01*
X128524961Y-48558157D01*
X128272780Y-48503737D01*
X128075201Y-48312415D01*
X127984574Y-48068374D01*
X127950800Y-47792871D01*
X127948548Y-47687431D01*
X127948548Y-45016636D01*
X127611493Y-45016636D01*
X127611493Y-44824905D01*
X127941221Y-44728429D01*
X128047466Y-43868695D01*
X128274612Y-43868695D01*
X128274612Y-44728429D01*
X128865680Y-44728429D01*
X128865680Y-45016636D01*
X128274612Y-45016636D01*
X128274612Y-47595840D01*
X128286118Y-47848346D01*
X128341811Y-48089059D01*
X128356434Y-48117299D01*
X128572803Y-48250445D01*
X128645861Y-48255296D01*
G37*
D11*
X266706666Y-41644819D02*
X266373333Y-41168628D01*
X266135238Y-41644819D02*
X266135238Y-40644819D01*
X266135238Y-40644819D02*
X266516190Y-40644819D01*
X266516190Y-40644819D02*
X266611428Y-40692438D01*
X266611428Y-40692438D02*
X266659047Y-40740057D01*
X266659047Y-40740057D02*
X266706666Y-40835295D01*
X266706666Y-40835295D02*
X266706666Y-40978152D01*
X266706666Y-40978152D02*
X266659047Y-41073390D01*
X266659047Y-41073390D02*
X266611428Y-41121009D01*
X266611428Y-41121009D02*
X266516190Y-41168628D01*
X266516190Y-41168628D02*
X266135238Y-41168628D01*
X267135238Y-41121009D02*
X267468571Y-41121009D01*
X267611428Y-41644819D02*
X267135238Y-41644819D01*
X267135238Y-41644819D02*
X267135238Y-40644819D01*
X267135238Y-40644819D02*
X267611428Y-40644819D01*
X268373333Y-41121009D02*
X268040000Y-41121009D01*
X268040000Y-41644819D02*
X268040000Y-40644819D01*
X268040000Y-40644819D02*
X268516190Y-40644819D01*
X269040000Y-40644819D02*
X269040000Y-40882914D01*
X268801905Y-40787676D02*
X269040000Y-40882914D01*
X269040000Y-40882914D02*
X269278095Y-40787676D01*
X268897143Y-41073390D02*
X269040000Y-40882914D01*
X269040000Y-40882914D02*
X269182857Y-41073390D01*
X269801905Y-40644819D02*
X269801905Y-40882914D01*
X269563810Y-40787676D02*
X269801905Y-40882914D01*
X269801905Y-40882914D02*
X270040000Y-40787676D01*
X269659048Y-41073390D02*
X269801905Y-40882914D01*
X269801905Y-40882914D02*
X269944762Y-41073390D01*
X266406666Y-136494819D02*
X266073333Y-136018628D01*
X265835238Y-136494819D02*
X265835238Y-135494819D01*
X265835238Y-135494819D02*
X266216190Y-135494819D01*
X266216190Y-135494819D02*
X266311428Y-135542438D01*
X266311428Y-135542438D02*
X266359047Y-135590057D01*
X266359047Y-135590057D02*
X266406666Y-135685295D01*
X266406666Y-135685295D02*
X266406666Y-135828152D01*
X266406666Y-135828152D02*
X266359047Y-135923390D01*
X266359047Y-135923390D02*
X266311428Y-135971009D01*
X266311428Y-135971009D02*
X266216190Y-136018628D01*
X266216190Y-136018628D02*
X265835238Y-136018628D01*
X266835238Y-135971009D02*
X267168571Y-135971009D01*
X267311428Y-136494819D02*
X266835238Y-136494819D01*
X266835238Y-136494819D02*
X266835238Y-135494819D01*
X266835238Y-135494819D02*
X267311428Y-135494819D01*
X268073333Y-135971009D02*
X267740000Y-135971009D01*
X267740000Y-136494819D02*
X267740000Y-135494819D01*
X267740000Y-135494819D02*
X268216190Y-135494819D01*
X268740000Y-135494819D02*
X268740000Y-135732914D01*
X268501905Y-135637676D02*
X268740000Y-135732914D01*
X268740000Y-135732914D02*
X268978095Y-135637676D01*
X268597143Y-135923390D02*
X268740000Y-135732914D01*
X268740000Y-135732914D02*
X268882857Y-135923390D01*
X269501905Y-135494819D02*
X269501905Y-135732914D01*
X269263810Y-135637676D02*
X269501905Y-135732914D01*
X269501905Y-135732914D02*
X269740000Y-135637676D01*
X269359048Y-135923390D02*
X269501905Y-135732914D01*
X269501905Y-135732914D02*
X269644762Y-135923390D01*
X58646666Y-136794819D02*
X58313333Y-136318628D01*
X58075238Y-136794819D02*
X58075238Y-135794819D01*
X58075238Y-135794819D02*
X58456190Y-135794819D01*
X58456190Y-135794819D02*
X58551428Y-135842438D01*
X58551428Y-135842438D02*
X58599047Y-135890057D01*
X58599047Y-135890057D02*
X58646666Y-135985295D01*
X58646666Y-135985295D02*
X58646666Y-136128152D01*
X58646666Y-136128152D02*
X58599047Y-136223390D01*
X58599047Y-136223390D02*
X58551428Y-136271009D01*
X58551428Y-136271009D02*
X58456190Y-136318628D01*
X58456190Y-136318628D02*
X58075238Y-136318628D01*
X59075238Y-136271009D02*
X59408571Y-136271009D01*
X59551428Y-136794819D02*
X59075238Y-136794819D01*
X59075238Y-136794819D02*
X59075238Y-135794819D01*
X59075238Y-135794819D02*
X59551428Y-135794819D01*
X60313333Y-136271009D02*
X59980000Y-136271009D01*
X59980000Y-136794819D02*
X59980000Y-135794819D01*
X59980000Y-135794819D02*
X60456190Y-135794819D01*
X60980000Y-135794819D02*
X60980000Y-136032914D01*
X60741905Y-135937676D02*
X60980000Y-136032914D01*
X60980000Y-136032914D02*
X61218095Y-135937676D01*
X60837143Y-136223390D02*
X60980000Y-136032914D01*
X60980000Y-136032914D02*
X61122857Y-136223390D01*
X61741905Y-135794819D02*
X61741905Y-136032914D01*
X61503810Y-135937676D02*
X61741905Y-136032914D01*
X61741905Y-136032914D02*
X61980000Y-135937676D01*
X61599048Y-136223390D02*
X61741905Y-136032914D01*
X61741905Y-136032914D02*
X61884762Y-136223390D01*
X58696666Y-41684819D02*
X58363333Y-41208628D01*
X58125238Y-41684819D02*
X58125238Y-40684819D01*
X58125238Y-40684819D02*
X58506190Y-40684819D01*
X58506190Y-40684819D02*
X58601428Y-40732438D01*
X58601428Y-40732438D02*
X58649047Y-40780057D01*
X58649047Y-40780057D02*
X58696666Y-40875295D01*
X58696666Y-40875295D02*
X58696666Y-41018152D01*
X58696666Y-41018152D02*
X58649047Y-41113390D01*
X58649047Y-41113390D02*
X58601428Y-41161009D01*
X58601428Y-41161009D02*
X58506190Y-41208628D01*
X58506190Y-41208628D02*
X58125238Y-41208628D01*
X59125238Y-41161009D02*
X59458571Y-41161009D01*
X59601428Y-41684819D02*
X59125238Y-41684819D01*
X59125238Y-41684819D02*
X59125238Y-40684819D01*
X59125238Y-40684819D02*
X59601428Y-40684819D01*
X60363333Y-41161009D02*
X60030000Y-41161009D01*
X60030000Y-41684819D02*
X60030000Y-40684819D01*
X60030000Y-40684819D02*
X60506190Y-40684819D01*
X61030000Y-40684819D02*
X61030000Y-40922914D01*
X60791905Y-40827676D02*
X61030000Y-40922914D01*
X61030000Y-40922914D02*
X61268095Y-40827676D01*
X60887143Y-41113390D02*
X61030000Y-40922914D01*
X61030000Y-40922914D02*
X61172857Y-41113390D01*
X61791905Y-40684819D02*
X61791905Y-40922914D01*
X61553810Y-40827676D02*
X61791905Y-40922914D01*
X61791905Y-40922914D02*
X62030000Y-40827676D01*
X61649048Y-41113390D02*
X61791905Y-40922914D01*
X61791905Y-40922914D02*
X61934762Y-41113390D01*
M02*
